<svg width="200" height="200" viewBox="0 0 200 200" fill="none" xmlns="http://www.w3.org/2000/svg">
    <g clip-path="url(#clip0)">
        <rect width="200" height="200" fill="#f5eee8" />
        <g clip-path="url(#clip1)">
            <path d="M133.946 46.4336H77.2461C76.172 46.4336 75.1418 46.8682 74.3823 47.6418C73.6228 48.4154 73.1961 49.4646 73.1961 50.5586V62.9336H93.4461V54.6836H117.746V95.9336H133.946C135.02 95.9336 136.05 95.499 136.81 94.7254C137.569 93.9518 137.996 92.9026 137.996 91.8086V50.5586C137.996 49.4646 137.569 48.4154 136.81 47.6418C136.05 46.8682 135.02 46.4336 133.946 46.4336V46.4336ZM86.3586 59.7109C86.3586 60.0186 86.2386 60.3137 86.025 60.5313C85.8114 60.7489 85.5216 60.8711 85.2195 60.8711H81.4227C81.1206 60.8711 80.8308 60.7489 80.6172 60.5313C80.4036 60.3137 80.2836 60.0186 80.2836 59.7109V55.8438C80.2836 55.5361 80.4036 55.241 80.6172 55.0234C80.8308 54.8058 81.1206 54.6836 81.4227 54.6836H85.2195C85.5216 54.6836 85.8114 54.8058 86.025 55.0234C86.2386 55.241 86.3586 55.5361 86.3586 55.8438V59.7109ZM130.909 86.5234C130.909 86.8311 130.789 87.1262 130.575 87.3438C130.361 87.5614 130.072 87.6836 129.77 87.6836H125.973C125.671 87.6836 125.381 87.5614 125.167 87.3438C124.954 87.1262 124.834 86.8311 124.834 86.5234V82.6562C124.834 82.3486 124.954 82.0535 125.167 81.8359C125.381 81.6183 125.671 81.4961 125.973 81.4961H129.77C130.072 81.4961 130.361 81.6183 130.575 81.8359C130.789 82.0535 130.909 82.3486 130.909 82.6562V86.5234ZM130.909 73.1172C130.909 73.4249 130.789 73.72 130.575 73.9375C130.361 74.1551 130.072 74.2773 129.77 74.2773H125.973C125.671 74.2773 125.381 74.1551 125.167 73.9375C124.954 73.72 124.834 73.4249 124.834 73.1172V69.25C124.834 68.9423 124.954 68.6472 125.167 68.4296C125.381 68.2121 125.671 68.0898 125.973 68.0898H129.77C130.072 68.0898 130.361 68.2121 130.575 68.4296C130.789 68.6472 130.909 68.9423 130.909 69.25V73.1172ZM130.909 59.7109C130.909 60.0186 130.789 60.3137 130.575 60.5313C130.361 60.7489 130.072 60.8711 129.77 60.8711H125.973C125.671 60.8711 125.381 60.7489 125.167 60.5313C124.954 60.3137 124.834 60.0186 124.834 59.7109V55.8438C124.834 55.5361 124.954 55.241 125.167 55.0234C125.381 54.8058 125.671 54.6836 125.973 54.6836H129.77C130.072 54.6836 130.361 54.8058 130.575 55.0234C130.789 55.241 130.909 55.5361 130.909 55.8438V59.7109ZM109.646 67.0586H61.0461C59.972 67.0586 58.9418 67.4932 58.1823 68.2668C57.4228 69.0404 56.9961 70.0896 56.9961 71.1836V108.309C56.9961 109.403 57.4228 110.452 58.1823 111.225C58.9418 111.999 59.972 112.434 61.0461 112.434H109.646C110.72 112.434 111.75 111.999 112.51 111.225C113.269 110.452 113.696 109.403 113.696 108.309V71.1836C113.696 70.0896 113.269 69.0404 112.51 68.2668C111.75 67.4932 110.72 67.0586 109.646 67.0586ZM69.1461 75.3086C69.9471 75.3086 70.7301 75.5505 71.3962 76.0038C72.0622 76.457 72.5813 77.1013 72.8878 77.855C73.1943 78.6088 73.2745 79.4382 73.1183 80.2383C72.962 81.0385 72.5763 81.7735 72.0099 82.3504C71.4435 82.9273 70.7218 83.3202 69.9362 83.4793C69.1506 83.6385 68.3363 83.5568 67.5962 83.2446C66.8562 82.9324 66.2237 82.4037 65.7786 81.7253C65.3336 81.047 65.0961 80.2494 65.0961 79.4336C65.0961 78.3396 65.5228 77.2904 66.2823 76.5168C67.0418 75.7432 68.072 75.3086 69.1461 75.3086V75.3086ZM105.596 104.184H65.0961V100.059L73.1961 91.8086L77.2461 95.9336L93.4461 79.4336L105.596 91.8086V104.184Z" fill="#D1C8C6" />
        </g>
        <path d="M81.9285 123.888H83.2585V129.572C82.8105 129.586 82.3625 129.6 81.9285 129.614V123.888ZM85.0365 123.888H86.1425V122.404H79.0305V123.888H80.1365V129.656C79.6325 129.656 79.1425 129.656 78.6945 129.656L78.8905 131.168C81.0885 131.168 84.0145 131.112 86.6325 130.65L86.5205 129.306C86.0445 129.376 85.5405 129.404 85.0365 129.446V123.888ZM90.8325 126.086H88.9565V121.228H87.1085V134.122H88.9565V127.612H90.8325V126.086ZM102.451 121.214H100.589V127.668H102.451V121.214ZM93.7154 124.532C93.7154 123.622 94.4294 123.076 95.3814 123.076C96.3334 123.076 97.0194 123.622 97.0194 124.532C97.0194 125.456 96.3334 125.988 95.3814 125.988C94.4294 125.988 93.7154 125.456 93.7154 124.532ZM98.8114 124.532C98.8114 122.824 97.3414 121.592 95.3814 121.592C93.4074 121.592 91.9234 122.824 91.9234 124.532C91.9234 126.254 93.4074 127.486 95.3814 127.486C97.3414 127.486 98.8114 126.254 98.8114 124.532ZM95.7034 132.526V131.714H102.451V128.2H93.8554V129.614H100.617V130.398H93.8694V133.968H102.773V132.526H95.7034ZM105.852 128.27C108.064 128.004 109.618 127.122 110.444 125.96C111.27 127.122 112.824 128.004 115.008 128.27L115.666 126.814C113.006 126.52 111.62 125.246 111.396 124.154H115.218V122.684H111.354V121.242H109.506V122.684H105.67V124.154H109.478C109.268 125.274 107.896 126.52 105.208 126.814L105.852 128.27ZM116.282 128.928H104.634V130.426H109.506V134.136H111.354V130.426H116.282V128.928ZM118.087 122.53V124.028H122.301C121.965 126.884 120.369 128.928 117.373 130.468L118.409 131.882C122.693 129.712 124.163 126.394 124.163 122.53H118.087ZM129.399 126.128H127.593V121.2H125.745V134.08H127.593V127.654H129.399V126.128Z" fill="#AB9D9A" />
        <path d="M33.4929 144.642V155.514H34.7409V144.642H33.4929ZM28.9689 145.446C27.3609 145.446 26.1849 146.934 26.1849 149.262C26.1849 151.614 27.3609 153.09 28.9689 153.09C30.5889 153.09 31.7649 151.614 31.7649 149.262C31.7649 146.934 30.5889 145.446 28.9689 145.446ZM28.9689 146.562C29.9169 146.562 30.5769 147.582 30.5769 149.262C30.5769 150.966 29.9169 151.986 28.9689 151.986C28.0329 151.986 27.3729 150.966 27.3729 149.262C27.3729 147.582 28.0329 146.562 28.9689 146.562ZM37.4399 145.674V152.838H42.5279V145.674H37.4399ZM41.3159 146.658V151.842H38.6519V146.658H41.3159ZM44.5319 144.642V155.514H45.7799V144.642H44.5319ZM51.899 146.754H54.311V145.734H48.239V146.754H50.651V147.786C50.651 149.646 49.535 151.662 47.855 152.442L48.563 153.426C49.835 152.814 50.807 151.53 51.287 150.018C51.791 151.422 52.763 152.598 54.023 153.15L54.707 152.178C53.015 151.458 51.899 149.586 51.899 147.786V146.754ZM55.571 144.654V155.49H56.819V144.654H55.571ZM58.4741 156.726H59.4341L62.7701 144.99H61.8101L58.4741 156.726ZM64.9379 147.882C64.9379 146.934 65.6339 146.31 66.5939 146.31C67.5299 146.31 68.2259 146.934 68.2259 147.882C68.2259 148.818 67.5299 149.442 66.5939 149.442C65.6339 149.442 64.9379 148.818 64.9379 147.882ZM71.3579 147.15V148.614H69.2939C69.3659 148.386 69.4019 148.146 69.4019 147.882C69.4019 147.618 69.3659 147.378 69.3059 147.15H71.3579ZM71.3579 149.61V151.038H72.5939V144.642H71.3579V146.142H68.7419C68.2379 145.602 67.4819 145.266 66.5939 145.266C64.9739 145.266 63.7619 146.346 63.7619 147.882C63.7619 149.406 64.9739 150.486 66.5939 150.486C67.4699 150.486 68.2379 150.162 68.7419 149.61H71.3579ZM68.9819 154.518C67.4459 154.518 66.5459 154.122 66.5459 153.378C66.5459 152.658 67.4459 152.25 68.9819 152.25C70.5299 152.25 71.4179 152.658 71.4179 153.378C71.4179 154.122 70.5299 154.518 68.9819 154.518ZM68.9819 151.278C66.7259 151.278 65.3339 152.058 65.3339 153.378C65.3339 154.71 66.7259 155.49 68.9819 155.49C71.2379 155.49 72.6419 154.71 72.6419 153.378C72.6419 152.058 71.2379 151.278 68.9819 151.278ZM80.9569 149.61C79.3489 149.082 78.4249 147.762 78.4249 146.37V145.206H77.1769V146.274C77.1769 147.834 76.2529 149.31 74.5489 149.898L75.2089 150.882C76.4569 150.426 77.3449 149.49 77.8249 148.314C78.2809 149.334 79.1449 150.162 80.3089 150.582L80.9569 149.61ZM79.6249 154.518C78.1129 154.518 77.2369 154.146 77.2369 153.45C77.2369 152.778 78.1129 152.394 79.6249 152.394C81.1369 152.394 82.0129 152.778 82.0129 153.45C82.0129 154.146 81.1369 154.518 79.6249 154.518ZM79.6249 151.422C77.3929 151.422 76.0129 152.178 76.0129 153.45C76.0129 154.734 77.3929 155.49 79.6249 155.49C81.8689 155.49 83.2369 154.734 83.2369 153.45C83.2369 152.178 81.8689 151.422 79.6249 151.422ZM83.1169 147.33V144.642H81.8809V151.158H83.1169V148.35H84.6529V147.33H83.1169ZM96.1433 154.362H91.5473V153.162H96.1433V154.362ZM96.1433 152.202H91.5473V150.978H90.3233V155.358H97.3673V150.978H96.1433V152.202ZM91.3673 149.19C90.4073 149.19 89.7233 148.578 89.7233 147.666C89.7233 146.742 90.4073 146.154 91.3673 146.154C92.3033 146.154 92.9993 146.742 92.9993 147.666C92.9993 148.578 92.3033 149.19 91.3673 149.19ZM96.1313 144.654V147.15H94.1273C93.8873 145.938 92.7953 145.134 91.3673 145.134C89.7353 145.134 88.5353 146.178 88.5353 147.666C88.5353 149.166 89.7353 150.21 91.3673 150.21C92.8073 150.21 93.9113 149.382 94.1273 148.158H96.1313V150.462H97.3673V144.654H96.1313ZM104.938 153.198V151.35H108.322V150.354H101.83V148.842H108.082V145.41H100.594V146.406H106.858V147.858H100.618V151.35H103.702V153.198H99.4304V154.218H109.246V153.198H104.938ZM119.181 149.766H112.905V146.61H119.097V145.602H111.669V150.762H119.181V149.766ZM110.469 153.078V154.098H120.297V153.078H110.469ZM133.156 144.642H131.908V150.246H133.156V144.642ZM126.844 146.322H128.332V148.866C127.84 148.89 127.324 148.902 126.844 148.914V146.322ZM130.972 148.65C130.504 148.71 130.024 148.758 129.532 148.794V146.322H130.492V145.338H124.672V146.322H125.656V148.938C125.212 148.95 124.78 148.95 124.384 148.95L124.516 149.958C126.4 149.946 128.884 149.886 131.032 149.538L130.972 148.65ZM127.228 154.422V153.474H133.156V150.738H125.98V151.698H131.932V152.574H125.992V155.394H133.516V154.422H127.228ZM138.771 150.798C139.191 150.894 139.659 150.942 140.139 150.942C140.619 150.942 141.087 150.894 141.507 150.786V153.15H138.771V150.798ZM140.139 146.25C141.771 146.25 142.911 146.97 142.911 148.11C142.911 149.262 141.771 149.982 140.139 149.982C138.495 149.982 137.355 149.262 137.355 148.11C137.355 146.97 138.495 146.25 140.139 146.25ZM142.743 153.15V150.33C143.607 149.838 144.123 149.07 144.123 148.11C144.123 146.382 142.443 145.278 140.139 145.278C137.823 145.278 136.155 146.382 136.155 148.11C136.155 149.07 136.671 149.85 137.535 150.33V153.15H135.243V154.158H145.059V153.15H142.743ZM152.69 145.686H150.11V144.558H148.874V145.686H146.294V146.682H152.69V145.686ZM148.046 148.986C148.046 148.374 148.622 148.002 149.486 148.002C150.35 148.002 150.938 148.374 150.938 148.986C150.938 149.61 150.35 149.982 149.486 149.982C148.622 149.982 148.046 149.61 148.046 148.986ZM152.114 148.986C152.114 147.846 151.058 147.078 149.486 147.078C147.926 147.078 146.858 147.846 146.858 148.986C146.858 150.138 147.926 150.906 149.486 150.906C151.058 150.906 152.114 150.138 152.114 148.986ZM153.518 154.374H149.042V153.378H153.518V154.374ZM153.518 152.418H149.042V151.422H147.818V155.358H154.742V151.422H153.518V152.418ZM156.278 147.354H154.742V144.654H153.506V150.978H154.742V148.374H156.278V147.354ZM159.181 145.71H157.957V152.754H158.881C160.561 152.754 162.313 152.622 164.173 152.238L164.041 151.206C162.337 151.554 160.717 151.686 159.181 151.698V145.71ZM165.037 144.654V155.49H166.273V144.654H165.037ZM170.028 146.682H173.832V145.674H168.792V152.838H169.68C171.636 152.838 173.1 152.778 174.744 152.478L174.612 151.458C173.1 151.722 171.78 151.794 170.028 151.806V146.682ZM178.44 148.818H176.748V144.642H175.512V155.502H176.748V149.838H178.44V148.818Z" fill="#959595" fill-opacity="0.67" />
    </g>
    <defs>
        <clipPath id="clip0">
            <rect width="200" height="200" fill="white" />
        </clipPath>
        <clipPath id="clip1">
            <rect x="56.9961" y="46.4336" width="81" height="66" fill="white" />
        </clipPath>
    </defs>
</svg>