<svg width="115" height="208" viewBox="0 0 115 208" fill="none" xmlns="http://www.w3.org/2000/svg">
    <rect width="115" height="208" fill="#f5eee8" />
    <path d="M24.6755 117.042H23.7485V118.374C23.7485 119.877 22.9565 121.416 21.6875 122.037L22.2545 122.784C23.1815 122.307 23.8655 121.362 24.2165 120.237C24.5675 121.299 25.2155 122.181 26.0885 122.631L26.6555 121.893C25.4315 121.29 24.6755 119.823 24.6755 118.374V117.042ZM29.3915 119.589H28.1225V116.367H27.1955V124.494H28.1225V120.354H29.3915V119.589ZM35.8618 116.358V124.512H36.7978V116.358H35.8618ZM32.4688 116.961C31.2628 116.961 30.3808 118.077 30.3808 119.823C30.3808 121.587 31.2628 122.694 32.4688 122.694C33.6838 122.694 34.5658 121.587 34.5658 119.823C34.5658 118.077 33.6838 116.961 32.4688 116.961ZM32.4688 117.798C33.1798 117.798 33.6748 118.563 33.6748 119.823C33.6748 121.101 33.1798 121.866 32.4688 121.866C31.7668 121.866 31.2718 121.101 31.2718 119.823C31.2718 118.563 31.7668 117.798 32.4688 117.798ZM39.7851 117.159H38.8671V122.442H39.5601C40.8201 122.442 42.1341 122.343 43.5291 122.055L43.4301 121.281C42.1521 121.542 40.9371 121.641 39.7851 121.65V117.159ZM44.1771 116.367V124.494H45.1041V116.367H44.1771ZM49.6664 117.942H51.4754V117.177H46.9214V117.942H48.7304V118.716C48.7304 120.111 47.8934 121.623 46.6334 122.208L47.1644 122.946C48.1184 122.487 48.8474 121.524 49.2074 120.39C49.5854 121.443 50.3144 122.325 51.2594 122.739L51.7724 122.01C50.5034 121.47 49.6664 120.066 49.6664 118.716V117.942ZM52.4204 116.367V124.494H53.3564V116.367H52.4204ZM61.1552 118.896V119.661H62.7752V122.388H63.7022V116.367H62.7752V118.896H61.1552ZM57.5282 117.006V117.753H60.2102C60.1832 118.041 60.1202 118.32 60.0392 118.581L57.1232 118.698L57.2672 119.436L59.6882 119.256C59.2202 119.931 58.4102 120.48 57.1322 120.885L57.5102 121.623C60.1652 120.75 61.1822 119.193 61.1822 117.006H57.5282ZM59.4452 123.585V121.803H58.5092V124.341H63.9362V123.585H59.4452ZM72.1255 116.367H71.2435V122.46H72.1255V116.367ZM69.6775 122.262H70.5415V116.529H69.6775V118.626H68.7145V119.382H69.6775V122.262ZM68.9935 120.264C68.1925 120.417 67.5085 120.453 66.4825 120.462V119.445H68.3545V118.725H66.4825V117.771H68.6605V117.024H65.5915V121.2H66.1225C67.3825 121.2 68.1565 121.173 69.0835 121.002L68.9935 120.264ZM67.7335 123.585V121.794H66.7975V124.341H72.3505V123.585H67.7335ZM74.2308 121.524C75.5898 121.281 76.6698 120.606 77.2008 119.652C77.7318 120.606 78.8118 121.281 80.1798 121.524L80.5308 120.759C78.8388 120.507 77.7228 119.49 77.6778 118.338H80.2158V117.582H77.6688V116.529H76.7418V117.582H74.1858V118.338H76.7328C76.6878 119.49 75.5718 120.507 73.8798 120.759L74.2308 121.524ZM73.5288 122.739V123.504H80.8908V122.739H73.5288ZM82.942 118.824C82.942 118.113 83.482 117.663 84.22 117.663C84.958 117.663 85.489 118.113 85.489 118.824C85.489 119.535 84.958 119.976 84.22 119.976C83.482 119.976 82.942 119.535 82.942 118.824ZM84.688 120.732C85.696 120.552 86.389 119.823 86.389 118.824C86.389 117.672 85.471 116.871 84.22 116.871C82.969 116.871 82.042 117.672 82.042 118.824C82.042 119.823 82.753 120.561 83.761 120.741V122.019C83.032 122.037 82.33 122.037 81.718 122.037L81.844 122.802C83.239 122.802 85.102 122.793 86.803 122.496L86.722 121.812C86.074 121.902 85.381 121.956 84.688 121.983V120.732ZM89.323 119.643H88.126V116.367H87.199V124.485H88.126V120.417H89.323V119.643ZM37.5748 136.783C36.3868 136.783 35.7208 136.522 35.7208 136.018C35.7208 135.523 36.3868 135.253 37.5748 135.253C38.7628 135.253 39.4378 135.523 39.4378 136.018C39.4378 136.522 38.7628 136.783 37.5748 136.783ZM37.5748 134.542C35.8378 134.542 34.7758 135.082 34.7758 136.018C34.7758 136.963 35.8378 137.503 37.5748 137.503C39.3208 137.503 40.3738 136.963 40.3738 136.018C40.3738 135.082 39.3208 134.542 37.5748 134.542ZM38.0608 133.291V132.481H40.4278V131.734H35.7568V130.465H40.3738V129.727H34.8388V132.481H37.1338V133.291H33.9298V134.047H41.2738V133.291H38.0608ZM48.8961 129.358H47.9691V133.489H48.8961V129.358ZM43.2531 131.464C43.2531 130.816 43.7751 130.393 44.4771 130.393C45.1881 130.393 45.7191 130.816 45.7191 131.464C45.7191 132.112 45.1881 132.535 44.4771 132.535C43.7751 132.535 43.2531 132.112 43.2531 131.464ZM46.6191 131.464C46.6191 130.393 45.7101 129.628 44.4771 129.628C43.2531 129.628 42.3531 130.393 42.3531 131.464C42.3531 132.535 43.2531 133.291 44.4771 133.291C45.7101 133.291 46.6191 132.535 46.6191 131.464ZM44.4951 136.666V135.946H48.8961V133.858H43.5681V134.587H47.9781V135.262H43.5861V137.395H49.1391V136.666H44.4951ZM55.2854 130.141H53.3504V129.295H52.4234V130.141H50.4884V130.888H55.2854V130.141ZM51.8024 132.616C51.8024 132.157 52.2344 131.878 52.8824 131.878C53.5304 131.878 53.9714 132.157 53.9714 132.616C53.9714 133.084 53.5304 133.363 52.8824 133.363C52.2344 133.363 51.8024 133.084 51.8024 132.616ZM54.8534 132.616C54.8534 131.761 54.0614 131.185 52.8824 131.185C51.7124 131.185 50.9114 131.761 50.9114 132.616C50.9114 133.48 51.7124 134.056 52.8824 134.056C54.0614 134.056 54.8534 133.48 54.8534 132.616ZM55.9064 136.657H52.5494V135.91H55.9064V136.657ZM55.9064 135.19H52.5494V134.443H51.6314V137.395H56.8244V134.443H55.9064V135.19ZM57.9764 131.392H56.8244V129.367H55.8974V134.11H56.8244V132.157H57.9764V131.392ZM60.1537 130.159H59.2357V135.442H59.9287C61.1887 135.442 62.5027 135.343 63.8977 135.055L63.7987 134.281C62.5207 134.542 61.3057 134.641 60.1537 134.65V130.159ZM64.5457 129.367V137.494H65.4727V129.367H64.5457ZM68.289 130.888H71.142V130.132H67.362V135.505H68.028C69.495 135.505 70.593 135.46 71.826 135.235L71.727 134.47C70.593 134.668 69.603 134.722 68.289 134.731V130.888ZM74.598 132.49H73.329V129.358H72.402V137.503H73.329V133.255H74.598V132.49ZM76.1993 136.918C76.5863 136.918 76.8923 136.621 76.8923 136.198C76.8923 135.775 76.5863 135.46 76.1993 135.46C75.8123 135.46 75.5063 135.775 75.5063 136.198C75.5063 136.621 75.8123 136.918 76.1993 136.918Z" fill="#959595" fill-opacity="0.67" />
    <g clip-path="url(#clip0)">
        <path d="M83.1244 59.5H46.0244C45.3216 59.5 44.6476 59.7831 44.1506 60.2872C43.6536 60.7912 43.3744 61.4747 43.3744 62.1875V70.25H56.6244V64.875H72.5244V91.75H83.1244C83.8272 91.75 84.5013 91.4669 84.9983 90.9628C85.4952 90.4588 85.7744 89.7753 85.7744 89.0625V62.1875C85.7744 61.4747 85.4952 60.7912 84.9983 60.2872C84.5013 59.7831 83.8272 59.5 83.1244 59.5V59.5ZM51.9869 68.1504C51.9869 68.3509 51.9084 68.5431 51.7686 68.6849C51.6288 68.8266 51.4393 68.9062 51.2416 68.9062H48.7572C48.5596 68.9062 48.37 68.8266 48.2302 68.6849C48.0904 68.5431 48.0119 68.3509 48.0119 68.1504V65.6309C48.0119 65.4304 48.0904 65.2381 48.2302 65.0964C48.37 64.9546 48.5596 64.875 48.7572 64.875H51.2416C51.4393 64.875 51.6288 64.9546 51.7686 65.0964C51.9084 65.2381 51.9869 65.4304 51.9869 65.6309V68.1504ZM81.1369 85.6191C81.1369 85.8196 81.0584 86.0119 80.9186 86.1536C80.7788 86.2954 80.5893 86.375 80.3916 86.375H77.9072C77.7096 86.375 77.52 86.2954 77.3802 86.1536C77.2404 86.0119 77.1619 85.8196 77.1619 85.6191V83.0996C77.1619 82.8991 77.2404 82.7069 77.3802 82.5651C77.52 82.4234 77.7096 82.3438 77.9072 82.3438H80.3916C80.5893 82.3438 80.7788 82.4234 80.9186 82.5651C81.0584 82.7069 81.1369 82.8991 81.1369 83.0996V85.6191ZM81.1369 76.8848C81.1369 77.0852 81.0584 77.2775 80.9186 77.4192C80.7788 77.561 80.5893 77.6406 80.3916 77.6406H77.9072C77.7096 77.6406 77.52 77.561 77.3802 77.4192C77.2404 77.2775 77.1619 77.0852 77.1619 76.8848V74.3652C77.1619 74.1648 77.2404 73.9725 77.3802 73.8308C77.52 73.689 77.7096 73.6094 77.9072 73.6094H80.3916C80.5893 73.6094 80.7788 73.689 80.9186 73.8308C81.0584 73.9725 81.1369 74.1648 81.1369 74.3652V76.8848ZM81.1369 68.1504C81.1369 68.3509 81.0584 68.5431 80.9186 68.6849C80.7788 68.8266 80.5893 68.9062 80.3916 68.9062H77.9072C77.7096 68.9062 77.52 68.8266 77.3802 68.6849C77.2404 68.5431 77.1619 68.3509 77.1619 68.1504V65.6309C77.1619 65.4304 77.2404 65.2381 77.3802 65.0964C77.52 64.9546 77.7096 64.875 77.9072 64.875H80.3916C80.5893 64.875 80.7788 64.9546 80.9186 65.0964C81.0584 65.2381 81.1369 65.4304 81.1369 65.6309V68.1504ZM67.2244 72.9375H35.4244C34.7216 72.9375 34.0476 73.2206 33.5506 73.7247C33.0536 74.2287 32.7744 74.9122 32.7744 75.625V99.8125C32.7744 100.525 33.0536 101.209 33.5506 101.713C34.0476 102.217 34.7216 102.5 35.4244 102.5H67.2244C67.9272 102.5 68.6013 102.217 69.0982 101.713C69.5952 101.209 69.8744 100.525 69.8744 99.8125V75.625C69.8744 74.9122 69.5952 74.2287 69.0982 73.7247C68.6013 73.2206 67.9272 72.9375 67.2244 72.9375ZM40.7244 78.3125C41.2485 78.3125 41.7609 78.4701 42.1967 78.7654C42.6325 79.0607 42.9721 79.4805 43.1727 79.9715C43.3733 80.4626 43.4257 81.003 43.3235 81.5243C43.2212 82.0456 42.9689 82.5245 42.5982 82.9003C42.2276 83.2762 41.7555 83.5322 41.2414 83.6359C40.7274 83.7396 40.1945 83.6863 39.7103 83.4829C39.2261 83.2795 38.8122 82.9351 38.521 82.4931C38.2298 82.0511 38.0744 81.5315 38.0744 81C38.0744 80.2872 38.3536 79.6037 38.8506 79.0997C39.3476 78.5956 40.0216 78.3125 40.7244 78.3125V78.3125ZM64.5744 97.125H38.0744V94.4375L43.3744 89.0625L46.0244 91.75L56.6244 81L64.5744 89.0625V97.125Z" fill="#D1C8C6" />
    </g>
    <defs>
        <clipPath id="clip0">
            <rect x="32.7744" y="59.5" width="53" height="43" fill="white" />
        </clipPath>
    </defs>
</svg>