<svg width="244" height="135" viewBox="0 0 244 135" fill="none" xmlns="http://www.w3.org/2000/svg">
    <rect width="244" height="135" fill="#f5eee8" />
    <path d="M100.223 82.6168H101.553V88.3008C101.105 88.3148 100.657 88.3288 100.223 88.3428V82.6168ZM103.331 82.6168H104.437V81.1328H97.3251V82.6168H98.4311V88.3848C97.9271 88.3848 97.4371 88.3848 96.9891 88.3848L97.1851 89.8968C99.3831 89.8968 102.309 89.8408 104.927 89.3788L104.815 88.0348C104.339 88.1048 103.835 88.1328 103.331 88.1748V82.6168ZM109.127 84.8148H107.251V79.9568H105.403V92.8508H107.251V86.3408H109.127V84.8148ZM120.746 79.9428H118.884V86.3968H120.746V79.9428ZM112.01 83.2608C112.01 82.3508 112.724 81.8048 113.676 81.8048C114.628 81.8048 115.314 82.3508 115.314 83.2608C115.314 84.1848 114.628 84.7168 113.676 84.7168C112.724 84.7168 112.01 84.1848 112.01 83.2608ZM117.106 83.2608C117.106 81.5528 115.636 80.3208 113.676 80.3208C111.702 80.3208 110.218 81.5528 110.218 83.2608C110.218 84.9828 111.702 86.2148 113.676 86.2148C115.636 86.2148 117.106 84.9828 117.106 83.2608ZM113.998 91.2548V90.4428H120.746V86.9288H112.15V88.3428H118.912V89.1268H112.164V92.6968H121.068V91.2548H113.998ZM124.147 86.9988C126.359 86.7328 127.913 85.8508 128.739 84.6888C129.565 85.8508 131.119 86.7328 133.303 86.9988L133.961 85.5428C131.301 85.2488 129.915 83.9748 129.691 82.8828H133.513V81.4128H129.649V79.9708H127.801V81.4128H123.965V82.8828H127.773C127.563 84.0028 126.191 85.2488 123.503 85.5428L124.147 86.9988ZM134.577 87.6568H122.929V89.1548H127.801V92.8648H129.649V89.1548H134.577V87.6568ZM136.382 81.2588V82.7568H140.596C140.26 85.6128 138.664 87.6568 135.668 89.1968L136.704 90.6108C140.988 88.4408 142.458 85.1228 142.458 81.2588H136.382ZM147.694 84.8568H145.888V79.9288H144.04V92.8088H145.888V86.3828H147.694V84.8568Z" fill="#AB9D9A" />
    <path d="M47.9734 100.604V111.476H49.2214V100.604H47.9734ZM43.4494 101.408C41.8414 101.408 40.6654 102.896 40.6654 105.224C40.6654 107.576 41.8414 109.052 43.4494 109.052C45.0694 109.052 46.2454 107.576 46.2454 105.224C46.2454 102.896 45.0694 101.408 43.4494 101.408ZM43.4494 102.524C44.3974 102.524 45.0574 103.544 45.0574 105.224C45.0574 106.928 44.3974 107.948 43.4494 107.948C42.5134 107.948 41.8534 106.928 41.8534 105.224C41.8534 103.544 42.5134 102.524 43.4494 102.524ZM51.9204 101.636V108.8H57.0084V101.636H51.9204ZM55.7964 102.62V107.804H53.1324V102.62H55.7964ZM59.0124 100.604V111.476H60.2604V100.604H59.0124ZM66.3795 102.716H68.7915V101.696H62.7195V102.716H65.1315V103.748C65.1315 105.608 64.0155 107.624 62.3355 108.404L63.0435 109.388C64.3155 108.776 65.2875 107.492 65.7675 105.98C66.2715 107.384 67.2435 108.56 68.5035 109.112L69.1875 108.14C67.4955 107.42 66.3795 105.548 66.3795 103.748V102.716ZM70.0515 100.616V111.452H71.2995V100.616H70.0515ZM72.9545 112.688H73.9145L77.2505 100.952H76.2905L72.9545 112.688ZM79.4183 103.844C79.4183 102.896 80.1143 102.272 81.0743 102.272C82.0103 102.272 82.7063 102.896 82.7063 103.844C82.7063 104.78 82.0103 105.404 81.0743 105.404C80.1143 105.404 79.4183 104.78 79.4183 103.844ZM85.8383 103.112V104.576H83.7743C83.8463 104.348 83.8823 104.108 83.8823 103.844C83.8823 103.58 83.8463 103.34 83.7863 103.112H85.8383ZM85.8383 105.572V107H87.0743V100.604H85.8383V102.104H83.2223C82.7183 101.564 81.9623 101.228 81.0743 101.228C79.4543 101.228 78.2423 102.308 78.2423 103.844C78.2423 105.368 79.4543 106.448 81.0743 106.448C81.9503 106.448 82.7183 106.124 83.2223 105.572H85.8383ZM83.4623 110.48C81.9263 110.48 81.0263 110.084 81.0263 109.34C81.0263 108.62 81.9263 108.212 83.4623 108.212C85.0103 108.212 85.8983 108.62 85.8983 109.34C85.8983 110.084 85.0103 110.48 83.4623 110.48ZM83.4623 107.24C81.2063 107.24 79.8143 108.02 79.8143 109.34C79.8143 110.672 81.2063 111.452 83.4623 111.452C85.7183 111.452 87.1223 110.672 87.1223 109.34C87.1223 108.02 85.7183 107.24 83.4623 107.24ZM95.4374 105.572C93.8294 105.044 92.9054 103.724 92.9054 102.332V101.168H91.6574V102.236C91.6574 103.796 90.7334 105.272 89.0294 105.86L89.6894 106.844C90.9374 106.388 91.8254 105.452 92.3054 104.276C92.7614 105.296 93.6254 106.124 94.7894 106.544L95.4374 105.572ZM94.1054 110.48C92.5934 110.48 91.7174 110.108 91.7174 109.412C91.7174 108.74 92.5934 108.356 94.1054 108.356C95.6174 108.356 96.4934 108.74 96.4934 109.412C96.4934 110.108 95.6174 110.48 94.1054 110.48ZM94.1054 107.384C91.8734 107.384 90.4934 108.14 90.4934 109.412C90.4934 110.696 91.8734 111.452 94.1054 111.452C96.3494 111.452 97.7174 110.696 97.7174 109.412C97.7174 108.14 96.3494 107.384 94.1054 107.384ZM97.5974 103.292V100.604H96.3614V107.12H97.5974V104.312H99.1334V103.292H97.5974ZM110.624 110.324H106.028V109.124H110.624V110.324ZM110.624 108.164H106.028V106.94H104.804V111.32H111.848V106.94H110.624V108.164ZM105.848 105.152C104.888 105.152 104.204 104.54 104.204 103.628C104.204 102.704 104.888 102.116 105.848 102.116C106.784 102.116 107.48 102.704 107.48 103.628C107.48 104.54 106.784 105.152 105.848 105.152ZM110.612 100.616V103.112H108.608C108.368 101.9 107.276 101.096 105.848 101.096C104.216 101.096 103.016 102.14 103.016 103.628C103.016 105.128 104.216 106.172 105.848 106.172C107.288 106.172 108.392 105.344 108.608 104.12H110.612V106.424H111.848V100.616H110.612ZM119.419 109.16V107.312H122.803V106.316H116.311V104.804H122.563V101.372H115.075V102.368H121.339V103.82H115.099V107.312H118.183V109.16H113.911V110.18H123.727V109.16H119.419ZM133.662 105.728H127.386V102.572H133.578V101.564H126.15V106.724H133.662V105.728ZM124.95 109.04V110.06H134.778V109.04H124.95ZM136.517 101.756V102.764H140.309C140.057 105.26 138.629 107.168 135.977 108.524L136.661 109.472C140.201 107.684 141.545 104.9 141.545 101.756H136.517ZM146.021 104.888H144.377V100.604H143.141V111.44H144.377V105.92H146.021V104.888ZM158.675 100.604H157.427V106.208H158.675V100.604ZM152.363 102.284H153.851V104.828C153.359 104.852 152.843 104.864 152.363 104.876V102.284ZM156.491 104.612C156.023 104.672 155.543 104.72 155.051 104.756V102.284H156.011V101.3H150.191V102.284H151.175V104.9C150.731 104.912 150.299 104.912 149.903 104.912L150.035 105.92C151.919 105.908 154.403 105.848 156.551 105.5L156.491 104.612ZM152.747 110.384V109.436H158.675V106.7H151.499V107.66H157.451V108.536H151.511V111.356H159.035V110.384H152.747ZM164.29 106.76C164.71 106.856 165.178 106.904 165.658 106.904C166.138 106.904 166.606 106.856 167.026 106.748V109.112H164.29V106.76ZM165.658 102.212C167.29 102.212 168.43 102.932 168.43 104.072C168.43 105.224 167.29 105.944 165.658 105.944C164.014 105.944 162.874 105.224 162.874 104.072C162.874 102.932 164.014 102.212 165.658 102.212ZM168.262 109.112V106.292C169.126 105.8 169.642 105.032 169.642 104.072C169.642 102.344 167.962 101.24 165.658 101.24C163.342 101.24 161.674 102.344 161.674 104.072C161.674 105.032 162.19 105.812 163.054 106.292V109.112H160.762V110.12H170.578V109.112H168.262ZM178.209 101.648H175.629V100.52H174.393V101.648H171.813V102.644H178.209V101.648ZM173.565 104.948C173.565 104.336 174.141 103.964 175.005 103.964C175.869 103.964 176.457 104.336 176.457 104.948C176.457 105.572 175.869 105.944 175.005 105.944C174.141 105.944 173.565 105.572 173.565 104.948ZM177.633 104.948C177.633 103.808 176.577 103.04 175.005 103.04C173.445 103.04 172.377 103.808 172.377 104.948C172.377 106.1 173.445 106.868 175.005 106.868C176.577 106.868 177.633 106.1 177.633 104.948ZM179.037 110.336H174.561V109.34H179.037V110.336ZM179.037 108.38H174.561V107.384H173.337V111.32H180.261V107.384H179.037V108.38ZM181.797 103.316H180.261V100.616H179.025V106.94H180.261V104.336H181.797V103.316ZM184.701 101.672H183.477V108.716H184.401C186.081 108.716 187.833 108.584 189.693 108.2L189.561 107.168C187.857 107.516 186.237 107.648 184.701 107.66V101.672ZM190.557 100.616V111.452H191.793V100.616H190.557ZM195.548 102.644H199.352V101.636H194.312V108.8H195.2C197.156 108.8 198.62 108.74 200.264 108.44L200.132 107.42C198.62 107.684 197.3 107.756 195.548 107.768V102.644ZM203.96 104.78H202.268V100.604H201.032V111.464H202.268V105.8H203.96V104.78Z" fill="#959595" fill-opacity="0.67" />
    <g clip-path="url(#clip0)">
        <path d="M149.616 22H106.916C106.107 22 105.331 22.3227 104.759 22.897C104.187 23.4713 103.866 24.2503 103.866 25.0625V34.25H119.116V28.125H137.416V58.75H149.616C150.425 58.75 151.201 58.4273 151.773 57.853C152.345 57.2787 152.666 56.4997 152.666 55.6875V25.0625C152.666 24.2503 152.345 23.4713 151.773 22.897C151.201 22.3227 150.425 22 149.616 22V22ZM113.779 31.8574C113.779 32.0859 113.688 32.3049 113.527 32.4665C113.366 32.628 113.148 32.7188 112.921 32.7188H110.061C109.834 32.7188 109.616 32.628 109.455 32.4665C109.294 32.3049 109.204 32.0859 109.204 31.8574V28.9863C109.204 28.7579 109.294 28.5388 109.455 28.3773C109.616 28.2157 109.834 28.125 110.061 28.125H112.921C113.148 28.125 113.366 28.2157 113.527 28.3773C113.688 28.5388 113.779 28.7579 113.779 28.9863V31.8574ZM147.329 51.7637C147.329 51.9921 147.238 52.2112 147.077 52.3727C146.916 52.5343 146.698 52.625 146.471 52.625H143.611C143.384 52.625 143.166 52.5343 143.005 52.3727C142.844 52.2112 142.754 51.9921 142.754 51.7637V48.8926C142.754 48.6641 142.844 48.4451 143.005 48.2835C143.166 48.122 143.384 48.0312 143.611 48.0312H146.471C146.698 48.0312 146.916 48.122 147.077 48.2835C147.238 48.4451 147.329 48.6641 147.329 48.8926V51.7637ZM147.329 41.8105C147.329 42.039 147.238 42.2581 147.077 42.4196C146.916 42.5811 146.698 42.6719 146.471 42.6719H143.611C143.384 42.6719 143.166 42.5811 143.005 42.4196C142.844 42.2581 142.754 42.039 142.754 41.8105V38.9395C142.754 38.711 142.844 38.4919 143.005 38.3304C143.166 38.1689 143.384 38.0781 143.611 38.0781H146.471C146.698 38.0781 146.916 38.1689 147.077 38.3304C147.238 38.4919 147.329 38.711 147.329 38.9395V41.8105ZM147.329 31.8574C147.329 32.0859 147.238 32.3049 147.077 32.4665C146.916 32.628 146.698 32.7188 146.471 32.7188H143.611C143.384 32.7188 143.166 32.628 143.005 32.4665C142.844 32.3049 142.754 32.0859 142.754 31.8574V28.9863C142.754 28.7579 142.844 28.5388 143.005 28.3773C143.166 28.2157 143.384 28.125 143.611 28.125H146.471C146.698 28.125 146.916 28.2157 147.077 28.3773C147.238 28.5388 147.329 28.7579 147.329 28.9863V31.8574ZM131.316 37.3125H94.716C93.9071 37.3125 93.1313 37.6352 92.5593 38.2095C91.9874 38.7838 91.666 39.5628 91.666 40.375V67.9375C91.666 68.7497 91.9874 69.5287 92.5593 70.103C93.1313 70.6773 93.9071 71 94.716 71H131.316C132.125 71 132.901 70.6773 133.473 70.103C134.045 69.5287 134.366 68.7497 134.366 67.9375V40.375C134.366 39.5628 134.045 38.7838 133.473 38.2095C132.901 37.6352 132.125 37.3125 131.316 37.3125ZM100.816 43.4375C101.419 43.4375 102.009 43.6171 102.511 43.9536C103.012 44.2901 103.403 44.7684 103.634 45.328C103.865 45.8876 103.925 46.5034 103.807 47.0975C103.69 47.6915 103.399 48.2372 102.973 48.6655C102.546 49.0938 102.003 49.3855 101.411 49.5037C100.819 49.6218 100.206 49.5612 99.6488 49.3294C99.0915 49.0976 98.6152 48.7051 98.28 48.2014C97.9449 47.6978 97.766 47.1057 97.766 46.5C97.766 45.6878 98.0874 44.9088 98.6593 44.3345C99.2313 43.7602 100.007 43.4375 100.816 43.4375V43.4375ZM128.266 64.875H97.766V61.8125L103.866 55.6875L106.916 58.75L119.116 46.5L128.266 55.6875V64.875Z" fill="#D1C8C6" />
    </g>
    <defs>
        <clipPath id="clip0">
            <rect x="91.666" y="22" width="61" height="49" fill="white" />
        </clipPath>
    </defs>
</svg>