<svg width="13" height="13" viewBox="0 0 13 13" fill="none" xmlns="http://www.w3.org/2000/svg">
<path d="M4.87782 6.55861L5.05459 6.38184L4.87782 6.20506L1.46641 2.79365C1.46639 2.79363 1.46636 2.7936 1.46634 2.79358C1.14527 2.47217 1.1454 1.95171 1.46634 1.63077L2.22452 0.872589C2.54553 0.551584 3.06633 0.551584 3.38733 0.872589L6.79881 4.28407L6.97559 4.46084L7.15236 4.28407L10.5638 0.872589C10.8848 0.551584 11.4056 0.551584 11.7266 0.872589L12.4848 1.6307C12.8059 1.9521 12.8058 2.47262 12.4848 2.79358L9.07335 6.20506L8.89658 6.38184L9.07335 6.55861L12.4848 9.97002C12.4848 9.97004 12.4848 9.97007 12.4848 9.97009C12.8059 10.2915 12.8058 10.812 12.4848 11.1329L11.7267 11.891C11.4053 12.2122 10.8848 12.212 10.5638 11.8911L7.15236 8.4796L6.97559 8.30283L6.79881 8.4796L3.3874 11.891C3.38738 11.891 3.38735 11.8911 3.38733 11.8911C3.06592 12.2122 2.54546 12.212 2.22452 11.8911L1.46641 11.133C1.14527 10.8116 1.14537 10.2911 1.46634 9.97009L4.87782 6.55861Z" fill="#3E2723" stroke="white" stroke-width="0.5"/>
</svg>
