<svg width="7" height="6" viewBox="0 0 7 6" fill="none" xmlns="http://www.w3.org/2000/svg">
<path d="M1.24877 4.62736L5.27372 0.603367C5.46693 0.410202 5.78019 0.410202 5.9734 0.603368C6.16661 0.796533 6.16661 1.10972 5.9734 1.30288L1.94845 5.32688C1.75524 5.52004 1.44198 5.52004 1.24877 5.32688C1.05556 5.13371 1.05556 4.82053 1.24877 4.62736Z" fill="#938783" stroke="#938783" stroke-width="0.3"/>
<path d="M1.24877 1.30428L5.27372 5.32827C5.46693 5.52144 5.78019 5.52144 5.9734 5.32827C6.16661 5.13511 6.16661 4.82192 5.9734 4.62876L1.94845 0.604765C1.75524 0.4116 1.44198 0.4116 1.24877 0.604765C1.05556 0.797931 1.05556 1.11111 1.24877 1.30428Z" fill="#938783" stroke="#938783" stroke-width="0.3"/>
</svg>
