<svg width="16" height="17" viewBox="0 0 16 17" fill="none" xmlns="http://www.w3.org/2000/svg">
<circle cx="8" cy="8.83301" r="8" fill="#BDBDBD"/>
<path d="M10.8685 6.73239C11.0806 6.52029 11.0806 6.1764 10.8685 5.9643C10.6564 5.7522 10.3125 5.7522 10.1004 5.9643L8.00003 8.0647L5.89963 5.9643C5.68753 5.7522 5.34364 5.7522 5.13154 5.9643C4.91944 6.1764 4.91944 6.52029 5.13154 6.73239L7.23194 8.83279L5.13154 10.9332C4.91944 11.1453 4.91944 11.4892 5.13154 11.7013C5.34364 11.9134 5.68753 11.9134 5.89963 11.7013L8.00003 9.60088L10.1004 11.7013C10.3125 11.9134 10.6564 11.9134 10.8685 11.7013C11.0806 11.4892 11.0806 11.1453 10.8685 10.9332L8.76812 8.83279L10.8685 6.73239Z" fill="white" stroke="white" stroke-width="0.2"/>
</svg>
