<svg width="140" height="140" viewBox="0 0 140 140" fill="none" xmlns="http://www.w3.org/2000/svg">
<ellipse cx="69.7282" cy="80.1503" rx="47.3571" ry="20.8623" fill="#2979FF" fill-opacity="0.15"/>
<path d="M116.585 80.1503C116.585 82.8666 115.338 85.4929 113.003 87.9246C110.666 90.3588 107.26 92.5737 103.013 94.4446C94.5205 98.1859 82.7529 100.513 69.7282 100.513C56.7036 100.513 44.936 98.1859 36.4433 94.4446C32.1962 92.5737 28.7904 90.3588 26.4533 87.9246C24.1186 85.4929 22.8711 82.8666 22.8711 80.1503C22.8711 77.4341 24.1186 74.8078 26.4533 72.3761C28.7904 69.9419 32.1962 67.727 36.4433 65.8561C44.936 62.1148 56.7036 59.7881 69.7282 59.7881C82.7529 59.7881 94.5205 62.1148 103.013 65.8561C107.26 67.727 110.666 69.9419 113.003 72.3761C115.338 74.8078 116.585 77.4341 116.585 80.1503Z" stroke="#2979FF" stroke-opacity="0.15"/>
<ellipse rx="3.30671" ry="1.45671" transform="matrix(1 0 0 -1 69.6788 75.8226)" fill="#2979FF" fill-opacity="0.5"/>
<path d="M72.4855 75.8226C72.4855 75.7857 72.4706 75.7119 72.365 75.6019C72.2569 75.4893 72.0767 75.3652 71.8154 75.2501C71.2942 75.0205 70.5392 74.8659 69.6788 74.8659C68.8183 74.8659 68.0633 75.0205 67.5422 75.2501C67.2809 75.3652 67.1006 75.4893 66.9926 75.6019C66.887 75.7119 66.8721 75.7857 66.8721 75.8226C66.8721 75.8595 66.887 75.9333 66.9926 76.0433C67.1006 76.1558 67.2809 76.28 67.5422 76.3951C68.0633 76.6247 68.8183 76.7793 69.6788 76.7793C70.5392 76.7793 71.2942 76.6247 71.8154 76.3951C72.0767 76.28 72.2569 76.1558 72.365 76.0433C72.4706 75.9333 72.4855 75.8595 72.4855 75.8226Z" stroke="#2979FF" stroke-opacity="0.15"/>
<ellipse rx="26.835" ry="11.8216" transform="matrix(1 0 0 -1 69.6787 77.2804)" fill="#2979FF" fill-opacity="0.15"/>
<path d="M96.0137 77.2804C96.0137 75.8124 95.3405 74.3753 94.0442 73.0252C92.7456 71.6726 90.8426 70.4318 88.4524 69.3788C83.6734 67.2736 77.0363 65.9588 69.6787 65.9588C62.3212 65.9588 55.6841 67.2736 50.9051 69.3788C48.5149 70.4318 46.6119 71.6726 45.3132 73.0252C44.017 74.3753 43.3438 75.8124 43.3438 77.2804C43.3438 78.7484 44.017 80.1856 45.3132 81.5356C46.6119 82.8882 48.5149 84.1291 50.9051 85.182C55.6841 87.2873 62.3212 88.6021 69.6787 88.6021C77.0363 88.6021 83.6734 87.2873 88.4524 85.182C90.8426 84.1291 92.7456 82.8882 94.0442 81.5356C95.3405 80.1856 96.0137 78.7484 96.0137 77.2804Z" stroke="#2979FF" stroke-opacity="0.15"/>
<path d="M46.7329 97.6057L69.2001 76.9194L105.319 79.1863L46.7329 97.6057Z" stroke="#2979FF" stroke-opacity="0.1" stroke-width="3"/>
<ellipse rx="68.7371" ry="30.2808" transform="matrix(1 0 0 -1 69.7371 80.1504)" fill="#2979FF" fill-opacity="0.15"/>
<path d="M137.974 80.1504C137.974 76.1337 136.128 72.2685 132.712 68.71C129.293 65.149 124.322 61.9194 118.14 59.1962C105.778 53.7505 88.6657 50.3696 69.7371 50.3696C50.8086 50.3696 33.696 53.7505 21.3342 59.1962C15.1526 61.9194 10.1814 65.149 6.76237 68.71C3.34577 72.2685 1.5 76.1337 1.5 80.1504C1.5 84.167 3.34577 88.0322 6.76237 91.5907C10.1814 95.1517 15.1526 98.3814 21.3342 101.105C33.696 106.55 50.8086 109.931 69.7371 109.931C88.6657 109.931 105.778 106.55 118.14 101.105C124.322 98.3814 129.293 95.1517 132.712 91.5907C136.128 88.0322 137.974 84.167 137.974 80.1504Z" stroke="#2979FF" stroke-opacity="0.15"/>
<ellipse cx="69.6875" cy="55.6904" rx="6.33836" ry="6.31543" fill="white"/>
<mask id="path-11-outside-1" maskUnits="userSpaceOnUse" x="58.5625" y="44.6602" width="23" height="31" fill="black">
<rect fill="white" x="58.5625" y="44.6602" width="23" height="31"/>
<path fill-rule="evenodd" clip-rule="evenodd" d="M59.5625 55.7846C59.5625 59.8667 60.9766 62.7138 68.5947 73.8211C69.0946 74.5474 70.1639 74.5474 70.6639 73.8211C78.282 62.7138 79.6961 59.8667 79.6961 55.7846C79.6961 50.193 75.1891 45.6602 69.6293 45.6602C64.0695 45.6602 59.5625 50.193 59.5625 55.7846ZM69.8334 60.2322C72.6697 60.2322 74.969 57.9907 74.969 55.2257C74.969 52.4607 72.6697 50.2192 69.8334 50.2192C66.9971 50.2192 64.6979 52.4607 64.6979 55.2257C64.6979 57.9907 66.9971 60.2322 69.8334 60.2322Z"/>
</mask>
<path fill-rule="evenodd" clip-rule="evenodd" d="M59.5625 55.7846C59.5625 59.8667 60.9766 62.7138 68.5947 73.8211C69.0946 74.5474 70.1639 74.5474 70.6639 73.8211C78.282 62.7138 79.6961 59.8667 79.6961 55.7846C79.6961 50.193 75.1891 45.6602 69.6293 45.6602C64.0695 45.6602 59.5625 50.193 59.5625 55.7846ZM69.8334 60.2322C72.6697 60.2322 74.969 57.9907 74.969 55.2257C74.969 52.4607 72.6697 50.2192 69.8334 50.2192C66.9971 50.2192 64.6979 52.4607 64.6979 55.2257C64.6979 57.9907 66.9971 60.2322 69.8334 60.2322Z" fill="#2979FF"/>
<path d="M68.5947 73.8211L67.7701 74.3867L67.771 74.3881L68.5947 73.8211ZM70.6639 73.8211L71.4876 74.3881L71.4885 74.3867L70.6639 73.8211ZM69.4194 73.2555C61.7533 62.0782 60.5625 59.4978 60.5625 55.7846H58.5625C58.5625 60.2356 60.1999 63.3493 67.7701 74.3867L69.4194 73.2555ZM69.8401 73.2541C69.7376 73.403 69.521 73.403 69.4185 73.2541L67.771 74.3881C68.6683 75.6917 70.5903 75.6918 71.4876 74.3881L69.8401 73.2541ZM78.6961 55.7846C78.6961 59.4978 77.5053 62.0782 69.8392 73.2555L71.4885 74.3867C79.0587 63.3493 80.6961 60.2356 80.6961 55.7846H78.6961ZM69.6293 46.6602C74.6314 46.6602 78.6961 50.7399 78.6961 55.7846H80.6961C80.6961 49.6461 75.7467 44.6602 69.6293 44.6602V46.6602ZM60.5625 55.7846C60.5625 50.7399 64.6272 46.6602 69.6293 46.6602V44.6602C63.5119 44.6602 58.5625 49.6461 58.5625 55.7846H60.5625ZM73.969 55.2257C73.969 57.4146 72.1416 59.2322 69.8334 59.2322V61.2322C73.1979 61.2322 75.969 58.5669 75.969 55.2257H73.969ZM69.8334 51.2192C72.1416 51.2192 73.969 53.0368 73.969 55.2257H75.969C75.969 51.8846 73.1979 49.2192 69.8334 49.2192V51.2192ZM65.6979 55.2257C65.6979 53.0368 67.5253 51.2192 69.8334 51.2192V49.2192C66.469 49.2192 63.6979 51.8846 63.6979 55.2257H65.6979ZM69.8334 59.2322C67.5253 59.2322 65.6979 57.4146 65.6979 55.2257H63.6979C63.6979 58.5669 66.469 61.2322 69.8334 61.2322V59.2322Z" fill="white" mask="url(#path-11-outside-1)"/>
<ellipse cx="46.9896" cy="83.9371" rx="4.11993" ry="4.10503" fill="white"/>
<mask id="path-14-outside-2" maskUnits="userSpaceOnUse" x="39.4087" y="76.417" width="16" height="21" fill="black">
<rect fill="white" x="39.4087" y="76.417" width="16" height="21"/>
<path fill-rule="evenodd" clip-rule="evenodd" d="M40.4087 83.9979C40.4087 86.6513 41.3278 88.5018 46.2796 95.7216C46.6046 96.1937 47.2996 96.1937 47.6246 95.7216C52.5764 88.5018 53.4955 86.6513 53.4955 83.9979C53.4955 80.3633 50.566 77.417 46.9521 77.417C43.3383 77.417 40.4087 80.3633 40.4087 83.9979ZM47.0848 86.8889C48.9284 86.8889 50.4229 85.4319 50.4229 83.6347C50.4229 81.8374 48.9284 80.3804 47.0848 80.3804C45.2412 80.3804 43.7467 81.8374 43.7467 83.6347C43.7467 85.4319 45.2412 86.8889 47.0848 86.8889Z"/>
</mask>
<path fill-rule="evenodd" clip-rule="evenodd" d="M40.4087 83.9979C40.4087 86.6513 41.3278 88.5018 46.2796 95.7216C46.6046 96.1937 47.2996 96.1937 47.6246 95.7216C52.5764 88.5018 53.4955 86.6513 53.4955 83.9979C53.4955 80.3633 50.566 77.417 46.9521 77.417C43.3383 77.417 40.4087 80.3633 40.4087 83.9979ZM47.0848 86.8889C48.9284 86.8889 50.4229 85.4319 50.4229 83.6347C50.4229 81.8374 48.9284 80.3804 47.0848 80.3804C45.2412 80.3804 43.7467 81.8374 43.7467 83.6347C43.7467 85.4319 45.2412 86.8889 47.0848 86.8889Z" fill="#2979FF"/>
<path d="M46.2796 95.7216L45.455 96.2872L45.4559 96.2886L46.2796 95.7216ZM47.6246 95.7216L48.4483 96.2886L48.4493 96.2872L47.6246 95.7216ZM47.1043 95.156C42.1045 87.8663 41.4087 86.2824 41.4087 83.9979H39.4087C39.4087 87.0202 40.5511 89.1374 45.455 96.2872L47.1043 95.156ZM46.8009 95.1546C46.8733 95.0493 47.0309 95.0494 47.1034 95.1546L45.4559 96.2886C46.1782 97.338 47.7259 97.3381 48.4483 96.2886L46.8009 95.1546ZM52.4955 83.9979C52.4955 86.2824 51.7997 87.8663 46.7999 95.156L48.4493 96.2872C53.3531 89.1374 54.4955 87.0202 54.4955 83.9979H52.4955ZM46.9521 78.417C50.0083 78.417 52.4955 80.9102 52.4955 83.9979H54.4955C54.4955 79.8165 51.1236 76.417 46.9521 76.417V78.417ZM41.4087 83.9979C41.4087 80.9102 43.8959 78.417 46.9521 78.417V76.417C42.7806 76.417 39.4087 79.8165 39.4087 83.9979H41.4087ZM49.4229 83.6347C49.4229 84.8558 48.4003 85.8889 47.0848 85.8889V87.8889C49.4565 87.8889 51.4229 86.0081 51.4229 83.6347H49.4229ZM47.0848 81.3804C48.4003 81.3804 49.4229 82.4135 49.4229 83.6347H51.4229C51.4229 81.2613 49.4565 79.3804 47.0848 79.3804V81.3804ZM44.7467 83.6347C44.7467 82.4135 45.7694 81.3804 47.0848 81.3804V79.3804C44.7131 79.3804 42.7467 81.2613 42.7467 83.6347H44.7467ZM47.0848 85.8889C45.7694 85.8889 44.7467 84.8558 44.7467 83.6347H42.7467C42.7467 86.0081 44.7131 87.8889 47.0848 87.8889V85.8889Z" fill="white" mask="url(#path-14-outside-2)"/>
<ellipse rx="3.30671" ry="1.45671" transform="matrix(1 0 0 -1 46.9517 96.8187)" fill="#2979FF" fill-opacity="0.5"/>
<path d="M49.7584 96.8187C49.7584 96.7818 49.7436 96.708 49.6379 96.598C49.5299 96.4854 49.3496 96.3613 49.0884 96.2462C48.5672 96.0166 47.8122 95.862 46.9517 95.862C46.0913 95.862 45.3363 96.0166 44.8151 96.2462C44.5538 96.3613 44.3736 96.4854 44.2655 96.598C44.1599 96.708 44.145 96.7818 44.145 96.8187C44.145 96.8556 44.1599 96.9294 44.2655 97.0394C44.3736 97.1519 44.5538 97.2761 44.8151 97.3912C45.3363 97.6208 46.0913 97.7754 46.9517 97.7754C47.8122 97.7754 48.5672 97.6208 49.0884 97.3912C49.3496 97.2761 49.5299 97.1519 49.6379 97.0394C49.7436 96.9294 49.7584 96.8556 49.7584 96.8187Z" stroke="#2979FF" stroke-opacity="0.15"/>
<ellipse cx="106.165" cy="65.8687" rx="3.88225" ry="3.8682" fill="white"/>
<mask id="path-19-outside-3" maskUnits="userSpaceOnUse" x="98.9639" y="58.7251" width="15" height="20" fill="black">
<rect fill="white" x="98.9639" y="58.7251" width="15" height="20"/>
<path fill-rule="evenodd" clip-rule="evenodd" d="M99.9639 65.9263C99.9639 68.4266 100.83 70.1704 105.496 76.9737C105.802 77.4185 106.457 77.4185 106.763 76.9737C111.43 70.1704 112.296 68.4266 112.296 65.9263C112.296 62.5015 109.535 59.7251 106.13 59.7251C102.724 59.7251 99.9639 62.5015 99.9639 65.9263ZM106.255 68.6506C107.992 68.6506 109.4 67.2777 109.4 65.5841C109.4 63.8905 107.992 62.5176 106.255 62.5176C104.518 62.5176 103.109 63.8905 103.109 65.5841C103.109 67.2777 104.518 68.6506 106.255 68.6506Z"/>
</mask>
<path fill-rule="evenodd" clip-rule="evenodd" d="M99.9639 65.9263C99.9639 68.4266 100.83 70.1704 105.496 76.9737C105.802 77.4185 106.457 77.4185 106.763 76.9737C111.43 70.1704 112.296 68.4266 112.296 65.9263C112.296 62.5015 109.535 59.7251 106.13 59.7251C102.724 59.7251 99.9639 62.5015 99.9639 65.9263ZM106.255 68.6506C107.992 68.6506 109.4 67.2777 109.4 65.5841C109.4 63.8905 107.992 62.5176 106.255 62.5176C104.518 62.5176 103.109 63.8905 103.109 65.5841C103.109 67.2777 104.518 68.6506 106.255 68.6506Z" fill="#2979FF"/>
<path d="M105.496 76.9737L104.671 77.5393L104.672 77.5406L105.496 76.9737ZM106.763 76.9737L107.587 77.5406L107.588 77.5393L106.763 76.9737ZM106.321 76.4081C101.607 69.5349 100.964 68.0577 100.964 65.9263H98.9639C98.9639 68.7955 100.053 70.806 104.671 77.5393L106.321 76.4081ZM105.94 76.4067C106.031 76.2742 106.229 76.2742 106.32 76.4067L104.672 77.5406C105.376 78.5628 106.884 78.5629 107.587 77.5406L105.94 76.4067ZM111.296 65.9263C111.296 68.0577 110.653 69.5349 105.939 76.4081L107.588 77.5393C112.206 70.806 113.296 68.7955 113.296 65.9263H111.296ZM106.13 60.7251C108.977 60.7251 111.296 63.0484 111.296 65.9263H113.296C113.296 61.9546 110.093 58.7251 106.13 58.7251V60.7251ZM100.964 65.9263C100.964 63.0484 103.282 60.7251 106.13 60.7251V58.7251C102.167 58.7251 98.9639 61.9546 98.9639 65.9263H100.964ZM108.4 65.5841C108.4 66.7015 107.464 67.6506 106.255 67.6506V69.6506C108.52 69.6506 110.4 67.8538 110.4 65.5841H108.4ZM106.255 63.5176C107.464 63.5176 108.4 64.4666 108.4 65.5841H110.4C110.4 63.3144 108.52 61.5176 106.255 61.5176V63.5176ZM104.109 65.5841C104.109 64.4666 105.046 63.5176 106.255 63.5176V61.5176C103.989 61.5176 102.109 63.3144 102.109 65.5841H104.109ZM106.255 67.6506C105.046 67.6506 104.109 66.7015 104.109 65.5841H102.109C102.109 67.8538 103.989 69.6506 106.255 69.6506V67.6506Z" fill="white" mask="url(#path-19-outside-3)"/>
</svg>
