<svg width="140" height="140" viewBox="0 0 140 140" fill="none" xmlns="http://www.w3.org/2000/svg">
<path fill-rule="evenodd" clip-rule="evenodd" d="M49.7441 19.0645C45.3259 19.0645 41.7441 22.6462 41.7441 27.0645V112.493C41.7441 116.912 45.3259 120.493 49.7441 120.493H94.2047C98.623 120.493 102.205 116.912 102.205 112.493V27.0645C102.205 22.6462 98.623 19.0645 94.2047 19.0645H49.7441ZM96.9198 36.3136H47.827V102.31H96.9198V36.3136Z" fill="#2979FF"/>
<ellipse cx="71.7564" cy="110.706" rx="4.00107" ry="3.93474" stroke="white" stroke-opacity="0.5" stroke-width="2"/>
<ellipse cx="71.7564" cy="110.706" rx="4.00107" ry="3.93474" stroke="#94BCFF" stroke-width="2"/>
<ellipse cx="60.9609" cy="25.2108" rx="0.889126" ry="0.874388" fill="white" fill-opacity="0.4"/>
<rect x="64.9727" y="24.7485" width="17.7825" height="1.74878" rx="0.874388" fill="white" fill-opacity="0.4"/>
<path d="M47.4966 89.7425L76.648 36.3325L97.0654 36.3325L97.0178 42.4092L65.688 102.066L48.0515 102.569L47.4966 89.7425Z" fill="#94BCFF" fill-opacity="0.22"/>
<path d="M72.6225 102.288L96.9418 55.0898L96.9417 82.8671L86.5886 102.311L72.6225 102.288Z" fill="#E8F0FF"/>
<mask id="path-7-inside-1" fill="white">
<path fill-rule="evenodd" clip-rule="evenodd" d="M79.5005 50.5366C76.7391 50.5366 74.5005 52.7752 74.5005 55.5366V76.3632C74.5005 79.1246 76.7391 81.3632 79.5005 81.3632H81.7403L84.9629 86.8524L88.1856 81.3632H115.617C118.379 81.3632 120.617 79.1246 120.617 76.3632V55.5366C120.617 52.7752 118.379 50.5366 115.617 50.5366H79.5005Z"/>
</mask>
<path fill-rule="evenodd" clip-rule="evenodd" d="M79.5005 50.5366C76.7391 50.5366 74.5005 52.7752 74.5005 55.5366V76.3632C74.5005 79.1246 76.7391 81.3632 79.5005 81.3632H81.7403L84.9629 86.8524L88.1856 81.3632H115.617C118.379 81.3632 120.617 79.1246 120.617 76.3632V55.5366C120.617 52.7752 118.379 50.5366 115.617 50.5366H79.5005Z" fill="white"/>
<path d="M81.7403 81.3632L82.6027 80.8569L82.3128 80.3632H81.7403V81.3632ZM84.9629 86.8524L84.1006 87.3586L84.9629 88.8275L85.8253 87.3586L84.9629 86.8524ZM88.1856 81.3632V80.3632H87.613L87.3232 80.8569L88.1856 81.3632ZM75.5005 55.5366C75.5005 53.3275 77.2913 51.5366 79.5005 51.5366V49.5366C76.1868 49.5366 73.5005 52.2229 73.5005 55.5366H75.5005ZM75.5005 76.3632V55.5366H73.5005V76.3632H75.5005ZM79.5005 80.3632C77.2913 80.3632 75.5005 78.5723 75.5005 76.3632H73.5005C73.5005 79.6769 76.1868 82.3632 79.5005 82.3632V80.3632ZM81.7403 80.3632H79.5005V82.3632H81.7403V80.3632ZM85.8253 86.3461L82.6027 80.8569L80.878 81.8694L84.1006 87.3586L85.8253 86.3461ZM87.3232 80.8569L84.1006 86.3461L85.8253 87.3586L89.0479 81.8694L87.3232 80.8569ZM115.617 80.3632H88.1856V82.3632H115.617V80.3632ZM119.617 76.3632C119.617 78.5723 117.826 80.3632 115.617 80.3632V82.3632C118.931 82.3632 121.617 79.6769 121.617 76.3632H119.617ZM119.617 55.5366V76.3632H121.617V55.5366H119.617ZM115.617 51.5366C117.826 51.5366 119.617 53.3275 119.617 55.5366H121.617C121.617 52.2229 118.931 49.5366 115.617 49.5366V51.5366ZM79.5005 51.5366H115.617V49.5366H79.5005V51.5366Z" fill="#2979FF" mask="url(#path-7-inside-1)"/>
<path d="M90.2305 71.0826C90.2972 71.2559 90.3305 71.4159 90.3305 71.5626C90.3305 71.9092 90.2172 72.1959 89.9905 72.4226C89.7638 72.6359 89.5038 72.7426 89.2105 72.7426C88.9705 72.7426 88.7505 72.6692 88.5505 72.5226C88.3638 72.3759 88.2172 72.1759 88.1105 71.9226L87.0705 69.5026H81.1105L80.0705 71.9426C79.9772 72.1959 79.8305 72.3959 79.6305 72.5426C79.4438 72.6759 79.2372 72.7426 79.0105 72.7426C78.6638 72.7426 78.3972 72.6492 78.2105 72.4626C78.0372 72.2759 77.9505 72.0226 77.9505 71.7026C77.9505 71.5826 77.9705 71.4559 78.0105 71.3226L82.9905 59.3626C83.0972 59.0959 83.2572 58.8892 83.4705 58.7426C83.6838 58.5959 83.9238 58.5359 84.1905 58.5626C84.4305 58.5626 84.6505 58.6359 84.8505 58.7826C85.0638 58.9159 85.2172 59.1092 85.3105 59.3626L90.2305 71.0826ZM86.0905 67.2026L84.0705 62.5226L82.0905 67.2026H86.0905ZM98.0239 58.6426C99.2773 58.6426 100.351 58.9559 101.244 59.5826C102.151 60.1959 102.837 61.0359 103.304 62.1026C103.784 63.1559 104.024 64.3359 104.024 65.6426C104.024 66.9492 103.784 68.1359 103.304 69.2026C102.837 70.2559 102.151 71.0959 101.244 71.7226C100.351 72.3359 99.2773 72.6426 98.0239 72.6426H93.2439C92.8973 72.6426 92.6039 72.5292 92.3639 72.3026C92.1373 72.0626 92.0239 71.7692 92.0239 71.4226V59.8626C92.0239 59.5159 92.1373 59.2292 92.3639 59.0026C92.6039 58.7626 92.8973 58.6426 93.2439 58.6426H98.0239ZM97.8239 70.3426C99.0239 70.3426 99.9239 69.9026 100.524 69.0226C101.124 68.1292 101.424 67.0026 101.424 65.6426C101.424 64.2826 101.117 63.1626 100.504 62.2826C99.9039 61.3892 99.0106 60.9426 97.8239 60.9426H94.5239V70.3426H97.8239ZM110.821 72.8426C109.861 72.8426 109.007 72.7226 108.261 72.4826C107.514 72.2426 106.814 71.8359 106.161 71.2626C105.801 70.9426 105.621 70.5892 105.621 70.2026C105.621 69.8959 105.734 69.6292 105.961 69.4026C106.187 69.1626 106.461 69.0426 106.781 69.0426C107.034 69.0426 107.261 69.1226 107.461 69.2826C107.994 69.7226 108.514 70.0426 109.021 70.2426C109.527 70.4426 110.127 70.5426 110.821 70.5426C111.567 70.5426 112.207 70.3759 112.741 70.0426C113.287 69.7092 113.561 69.2959 113.561 68.8026C113.561 68.2026 113.294 67.7359 112.761 67.4026C112.227 67.0559 111.381 66.7959 110.221 66.6226C107.301 66.1959 105.841 64.8359 105.841 62.5426C105.841 61.7026 106.061 60.9759 106.501 60.3626C106.941 59.7359 107.541 59.2626 108.301 58.9426C109.061 58.6092 109.907 58.4426 110.841 58.4426C111.681 58.4426 112.467 58.5692 113.201 58.8226C113.947 59.0759 114.567 59.4092 115.061 59.8226C115.447 60.1292 115.641 60.4826 115.641 60.8826C115.641 61.1892 115.527 61.4626 115.301 61.7026C115.074 61.9292 114.807 62.0426 114.501 62.0426C114.301 62.0426 114.121 61.9826 113.961 61.8626C113.614 61.5826 113.127 61.3292 112.501 61.1026C111.887 60.8626 111.334 60.7426 110.841 60.7426C110.001 60.7426 109.347 60.9026 108.881 61.2226C108.427 61.5292 108.201 61.9359 108.201 62.4426C108.201 63.0159 108.434 63.4492 108.901 63.7426C109.381 64.0359 110.127 64.2759 111.141 64.4626C112.287 64.6626 113.201 64.9226 113.881 65.2426C114.574 65.5492 115.094 65.9759 115.441 66.5226C115.787 67.0559 115.961 67.7692 115.961 68.6626C115.961 69.5026 115.721 70.2426 115.241 70.8826C114.774 71.5092 114.147 71.9959 113.361 72.3426C112.574 72.6759 111.727 72.8426 110.821 72.8426Z" fill="#2979FF"/>
<path d="M90.2305 71.0826L90.5106 70.9748L90.5071 70.9665L90.2305 71.0826ZM89.9905 72.4226L90.1962 72.6411L90.2026 72.6347L89.9905 72.4226ZM88.5505 72.5226L88.365 72.7586L88.3731 72.7645L88.5505 72.5226ZM88.1105 71.9226L88.387 71.8062L88.3861 71.8041L88.1105 71.9226ZM87.0705 69.5026L87.3461 69.3841L87.2681 69.2026H87.0705V69.5026ZM81.1105 69.5026V69.2026H80.9122L80.8345 69.3849L81.1105 69.5026ZM80.0705 71.9426L79.7945 71.8249L79.7916 71.8318L79.789 71.8389L80.0705 71.9426ZM79.6305 72.5426L79.8049 72.7867L79.8079 72.7845L79.6305 72.5426ZM78.2105 72.4626L77.9905 72.6669L77.9984 72.6747L78.2105 72.4626ZM78.0105 71.3226L77.7335 71.2073L77.7276 71.2215L77.7231 71.2364L78.0105 71.3226ZM82.9905 59.3626L83.2675 59.4779L83.269 59.474L82.9905 59.3626ZM83.4705 58.7426L83.3005 58.4954L83.3005 58.4954L83.4705 58.7426ZM84.1905 58.5626L84.1606 58.8611L84.1755 58.8626H84.1905V58.5626ZM84.8505 58.7826L84.6731 59.0245L84.6821 59.0311L84.6915 59.037L84.8505 58.7826ZM85.3105 59.3626L85.0287 59.4664L85.0339 59.4787L85.3105 59.3626ZM86.0905 67.2026V67.5026H86.5467L86.3659 67.0837L86.0905 67.2026ZM84.0705 62.5226L84.3459 62.4037L84.0677 61.7592L83.7942 62.4057L84.0705 62.5226ZM82.0905 67.2026L81.8142 67.0857L81.6378 67.5026H82.0905V67.2026ZM89.9505 71.1903C90.0073 71.338 90.0305 71.4611 90.0305 71.5626H90.6305C90.6305 71.3707 90.587 71.1738 90.5105 70.9749L89.9505 71.1903ZM90.0305 71.5626C90.0305 71.8368 89.9439 72.0449 89.7784 72.2104L90.2026 72.6347C90.4904 72.3469 90.6305 71.9817 90.6305 71.5626H90.0305ZM89.7849 72.2041C89.6101 72.3686 89.4224 72.4426 89.2105 72.4426V73.0426C89.5852 73.0426 89.9175 72.9032 90.1961 72.641L89.7849 72.2041ZM89.2105 72.4426C89.0365 72.4426 88.8783 72.3909 88.7279 72.2807L88.3731 72.7645C88.6227 72.9476 88.9044 73.0426 89.2105 73.0426V72.4426ZM88.7358 72.2867C88.5951 72.1761 88.477 72.0201 88.387 71.8062L87.834 72.039C87.9573 72.3318 88.1325 72.5757 88.3651 72.7585L88.7358 72.2867ZM88.3861 71.8041L87.3461 69.3841L86.7949 69.621L87.8349 72.041L88.3861 71.8041ZM87.0705 69.2026H81.1105V69.8026H87.0705V69.2026ZM80.8345 69.3849L79.7945 71.8249L80.3465 72.0602L81.3865 69.6202L80.8345 69.3849ZM79.789 71.8389C79.7141 72.042 79.6014 72.1919 79.4531 72.3007L79.8079 72.7845C80.0596 72.5999 80.2402 72.3498 80.352 72.0463L79.789 71.8389ZM79.4561 72.2985C79.3197 72.3959 79.1738 72.4426 79.0105 72.4426V73.0426C79.3005 73.0426 79.568 72.9559 79.8049 72.7867L79.4561 72.2985ZM79.0105 72.4426C78.7175 72.4426 78.537 72.3649 78.4226 72.2504L77.9984 72.6747C78.2573 72.9336 78.6101 73.0426 79.0105 73.0426V72.4426ZM78.4303 72.2584C78.3208 72.1405 78.2505 71.9671 78.2505 71.7026H77.6505C77.6505 72.0781 77.7535 72.4113 77.9907 72.6667L78.4303 72.2584ZM78.2505 71.7026C78.2505 71.616 78.2649 71.5185 78.2978 71.4088L77.7231 71.2364C77.6761 71.3933 77.6505 71.5491 77.6505 71.7026H78.2505ZM78.2874 71.4379L83.2674 59.4779L82.7135 59.2473L77.7335 71.2073L78.2874 71.4379ZM83.269 59.474C83.3562 59.2561 83.4812 59.0993 83.6404 58.9898L83.3005 58.4954C83.0331 58.6792 82.8381 58.9358 82.7119 59.2512L83.269 59.474ZM83.6404 58.9898C83.7931 58.8848 83.9618 58.8412 84.1606 58.8611L84.2203 58.2641C83.8858 58.2306 83.5745 58.307 83.3005 58.4954L83.6404 58.9898ZM84.1905 58.8626C84.3644 58.8626 84.5227 58.9142 84.6731 59.0245L85.0279 58.5407C84.7783 58.3576 84.4965 58.2626 84.1905 58.2626V58.8626ZM84.6915 59.037C84.8442 59.1324 84.9569 59.2705 85.029 59.4663L85.592 59.2589C85.4775 58.948 85.2835 58.6994 85.0095 58.5282L84.6915 59.037ZM85.0339 59.4787L89.9539 71.1987L90.5071 70.9665L85.5871 59.2465L85.0339 59.4787ZM86.3659 67.0837L84.3459 62.4037L83.7951 62.6415L85.8151 67.3215L86.3659 67.0837ZM83.7942 62.4057L81.8142 67.0857L82.3668 67.3195L84.3468 62.6395L83.7942 62.4057ZM82.0905 67.5026H86.0905V66.9026H82.0905V67.5026ZM101.244 59.5826L101.072 59.8282L101.076 59.8311L101.244 59.5826ZM103.304 62.1026L103.029 62.2228L103.031 62.227L103.304 62.1026ZM103.304 69.2026L103.03 69.0795L103.03 69.0811L103.304 69.2026ZM101.244 71.7226L101.414 71.9699L101.415 71.9694L101.244 71.7226ZM92.3639 72.3026L92.1458 72.5086L92.1517 72.5148L92.1579 72.5207L92.3639 72.3026ZM92.3639 59.0026L92.1518 58.7904L92.1518 58.7904L92.3639 59.0026ZM100.524 69.0226L100.772 69.1916L100.773 69.1898L100.524 69.0226ZM100.504 62.2826L100.255 62.4499L100.258 62.4541L100.504 62.2826ZM94.5239 60.9426V60.6426H94.2239V60.9426H94.5239ZM94.5239 70.3426H94.2239V70.6426H94.5239V70.3426ZM98.0239 58.9426C99.2251 58.9426 100.236 59.242 101.072 59.8282L101.416 59.337C100.465 58.6698 99.3294 58.3426 98.0239 58.3426V58.9426ZM101.076 59.8311C101.932 60.4106 102.584 61.2047 103.029 62.2228L103.579 61.9823C103.091 60.8671 102.369 59.9813 101.412 59.3341L101.076 59.8311ZM103.031 62.227C103.491 63.2365 103.724 64.3733 103.724 65.6426H104.324C104.324 64.2985 104.077 63.0753 103.577 61.9782L103.031 62.227ZM103.724 65.6426C103.724 66.9118 103.491 68.0558 103.03 69.0795L103.578 69.3257C104.077 68.216 104.324 66.9867 104.324 65.6426H103.724ZM103.03 69.0811C102.584 70.0863 101.932 70.882 101.073 71.4758L101.415 71.9694C102.369 71.3098 103.09 70.4255 103.578 69.3241L103.03 69.0811ZM101.074 71.4753C100.238 72.0491 99.2264 72.3426 98.0239 72.3426V72.9426C99.3281 72.9426 100.463 72.6227 101.414 71.9699L101.074 71.4753ZM98.0239 72.3426H93.2439V72.9426H98.0239V72.3426ZM93.2439 72.3426C92.9696 72.3426 92.7512 72.2557 92.5699 72.0845L92.1579 72.5207C92.4566 72.8028 92.8249 72.9426 93.2439 72.9426V72.3426ZM92.582 72.0966C92.4108 71.9153 92.3239 71.6969 92.3239 71.4226H91.7239C91.7239 71.8416 91.8637 72.2099 92.1458 72.5086L92.582 72.0966ZM92.3239 71.4226V59.8626H91.7239V71.4226H92.3239ZM92.3239 59.8626C92.3239 59.5883 92.4105 59.3803 92.5761 59.2147L92.1518 58.7904C91.864 59.0782 91.7239 59.4435 91.7239 59.8626H92.3239ZM92.5761 59.2147C92.7585 59.0323 92.9749 58.9426 93.2439 58.9426V58.3426C92.8196 58.3426 92.4494 58.4929 92.1518 58.7904L92.5761 59.2147ZM93.2439 58.9426H98.0239V58.3426H93.2439V58.9426ZM97.8239 70.6426C99.1085 70.6426 100.108 70.165 100.772 69.1916L100.276 68.8536C99.7397 69.6402 98.9394 70.0426 97.8239 70.0426V70.6426ZM100.773 69.1898C101.414 68.2355 101.724 67.0465 101.724 65.6426H101.124C101.124 66.9587 100.834 68.023 100.275 68.8553L100.773 69.1898ZM101.724 65.6426C101.724 64.2377 101.407 63.0534 100.75 62.111L100.258 62.4541C100.828 63.2718 101.124 64.3275 101.124 65.6426H101.724ZM100.753 62.1153C100.091 61.1295 99.0984 60.6426 97.8239 60.6426V61.2426C98.9227 61.2426 99.717 61.649 100.255 62.4498L100.753 62.1153ZM97.8239 60.6426H94.5239V61.2426H97.8239V60.6426ZM94.2239 60.9426V70.3426H94.8239V60.9426H94.2239ZM94.5239 70.6426H97.8239V70.0426H94.5239V70.6426ZM108.261 72.4826L108.169 72.7682L108.261 72.4826ZM106.161 71.2626L105.961 71.4868L105.963 71.4881L106.161 71.2626ZM105.961 69.4026L106.173 69.6148L106.179 69.6086L105.961 69.4026ZM107.461 69.2826L107.652 69.0511L107.648 69.0483L107.461 69.2826ZM112.741 70.0426L112.585 69.7864L112.582 69.7882L112.741 70.0426ZM112.761 67.4026L112.597 67.6542L112.602 67.657L112.761 67.4026ZM110.221 66.6226L110.265 66.3259L110.264 66.3257L110.221 66.6226ZM106.501 60.3626L106.745 60.5375L106.746 60.535L106.501 60.3626ZM108.301 58.9426L108.417 59.2191L108.421 59.2173L108.301 58.9426ZM113.201 58.8226L113.103 59.1061L113.104 59.1067L113.201 58.8226ZM115.061 59.8226L114.868 60.0526L114.874 60.0576L115.061 59.8226ZM115.301 61.7026L115.513 61.9148L115.519 61.9086L115.301 61.7026ZM113.961 61.8626L113.772 62.0961L113.781 62.1026L113.961 61.8626ZM112.501 61.1026L112.391 61.382L112.399 61.3847L112.501 61.1026ZM108.881 61.2226L109.049 61.4711L109.05 61.47L108.881 61.2226ZM108.901 63.7426L108.741 63.9966L108.744 63.9986L108.901 63.7426ZM111.141 64.4626L111.086 64.7576L111.089 64.7581L111.141 64.4626ZM113.881 65.2426L113.753 65.5141L113.759 65.5169L113.881 65.2426ZM115.441 66.5226L115.187 66.6833L115.189 66.6861L115.441 66.5226ZM115.241 70.8826L115.001 70.7026L115 70.7034L115.241 70.8826ZM113.361 72.3426L113.478 72.6188L113.482 72.6171L113.361 72.3426ZM110.821 72.5426C109.885 72.5426 109.064 72.4256 108.353 72.197L108.169 72.7682C108.951 73.0196 109.836 73.1426 110.821 73.1426V72.5426ZM108.353 72.197C107.649 71.9708 106.984 71.5863 106.359 71.0371L105.963 71.4881C106.644 72.0855 107.379 72.5143 108.169 72.7682L108.353 72.197ZM106.36 71.0384C106.047 70.7602 105.921 70.4832 105.921 70.2026H105.321C105.321 70.6953 105.554 71.1249 105.961 71.4868L106.36 71.0384ZM105.921 70.2026C105.921 69.9794 106 69.788 106.173 69.6147L105.749 69.1904C105.469 69.4705 105.321 69.8124 105.321 70.2026H105.921ZM106.179 69.6086C106.351 69.4264 106.546 69.3426 106.781 69.3426V68.7426C106.375 68.7426 106.024 68.8987 105.743 69.1966L106.179 69.6086ZM106.781 69.3426C106.965 69.3426 107.126 69.3989 107.273 69.5168L107.648 69.0483C107.396 68.8463 107.103 68.7426 106.781 68.7426V69.3426ZM107.27 69.514C107.821 69.9689 108.368 70.3075 108.911 70.5216L109.131 69.9635C108.66 69.7777 108.167 69.4763 107.652 69.0512L107.27 69.514ZM108.911 70.5216C109.461 70.7387 110.1 70.8426 110.821 70.8426V70.2426C110.155 70.2426 109.594 70.1465 109.131 69.9635L108.911 70.5216ZM110.821 70.8426C111.613 70.8426 112.31 70.6653 112.9 70.297L112.582 69.7882C112.104 70.0865 111.522 70.2426 110.821 70.2426V70.8426ZM112.897 70.2987C113.503 69.9294 113.861 69.4317 113.861 68.8026H113.261C113.261 69.1602 113.072 69.4891 112.585 69.7864L112.897 70.2987ZM113.861 68.8026C113.861 68.0932 113.536 67.5331 112.92 67.1482L112.602 67.657C113.053 67.9387 113.261 68.3119 113.261 68.8026H113.861ZM112.924 67.151C112.336 66.7687 111.438 66.5011 110.265 66.3259L110.176 66.9193C111.324 67.0907 112.119 67.3431 112.597 67.6541L112.924 67.151ZM110.264 66.3257C108.837 66.1172 107.809 65.686 107.14 65.0631C106.481 64.4485 106.141 63.6196 106.141 62.5426H105.541C105.541 63.7589 105.931 64.7567 106.731 65.5021C107.523 66.2392 108.684 66.7013 110.177 66.9194L110.264 66.3257ZM106.141 62.5426C106.141 61.7579 106.345 61.0941 106.745 60.5375L106.257 60.1877C105.776 60.8577 105.541 61.6472 105.541 62.5426H106.141ZM106.746 60.535C107.151 59.958 107.705 59.5189 108.417 59.2191L108.184 58.6661C107.377 59.0062 106.73 59.5138 106.255 60.1902L106.746 60.535ZM108.421 59.2173C109.139 58.9026 109.944 58.7426 110.841 58.7426V58.1426C109.871 58.1426 108.983 58.3159 108.18 58.6678L108.421 59.2173ZM110.841 58.7426C111.65 58.7426 112.404 58.8646 113.103 59.1061L113.299 58.539C112.531 58.2739 111.711 58.1426 110.841 58.1426V58.7426ZM113.104 59.1067C113.824 59.3507 114.409 59.6677 114.868 60.0525L115.253 59.5926C114.726 59.1507 114.071 58.8011 113.297 58.5385L113.104 59.1067ZM114.874 60.0576C115.208 60.3221 115.341 60.5954 115.341 60.8826H115.941C115.941 60.3697 115.687 59.9364 115.247 59.5875L114.874 60.0576ZM115.341 60.8826C115.341 61.1065 115.261 61.3076 115.083 61.4966L115.519 61.9086C115.794 61.6175 115.941 61.272 115.941 60.8826H115.341ZM115.089 61.4904C114.915 61.6637 114.724 61.7426 114.501 61.7426V62.3426C114.891 62.3426 115.233 62.1948 115.513 61.9147L115.089 61.4904ZM114.501 61.7426C114.366 61.7426 114.249 61.7036 114.141 61.6226L113.781 62.1026C113.993 62.2615 114.236 62.3426 114.501 62.3426V61.7426ZM114.149 61.6292C113.767 61.3206 113.247 61.0534 112.603 60.8205L112.399 61.3847C113.008 61.6051 113.461 61.8445 113.772 62.096L114.149 61.6292ZM112.61 60.8232C111.973 60.5739 111.382 60.4426 110.841 60.4426V61.0426C111.287 61.0426 111.802 61.1513 112.391 61.382L112.61 60.8232ZM110.841 60.4426C109.968 60.4426 109.247 60.608 108.711 60.9752L109.05 61.47C109.448 61.1971 110.034 61.0426 110.841 61.0426V60.4426ZM108.713 60.9741C108.185 61.3313 107.901 61.8272 107.901 62.4426H108.501C108.501 62.0446 108.67 61.7272 109.049 61.4711L108.713 60.9741ZM107.901 62.4426C107.901 63.1141 108.183 63.6457 108.741 63.9966L109.06 63.4886C108.685 63.2528 108.501 62.9178 108.501 62.4426H107.901ZM108.744 63.9986C109.272 64.3209 110.062 64.5689 111.086 64.7576L111.195 64.1675C110.193 63.9829 109.49 63.7509 109.057 63.4866L108.744 63.9986ZM111.089 64.7581C112.222 64.9557 113.107 65.2099 113.753 65.514L114.009 64.9711C113.295 64.6353 112.353 64.3694 111.192 64.167L111.089 64.7581ZM113.759 65.5169C114.408 65.8038 114.878 66.1948 115.187 66.6832L115.694 66.3619C115.311 65.757 114.74 65.2947 114.002 64.9682L113.759 65.5169ZM115.189 66.6861C115.494 67.1548 115.661 67.8048 115.661 68.6626H116.261C116.261 67.7337 116.081 66.957 115.692 66.3591L115.189 66.6861ZM115.661 68.6626C115.661 69.4411 115.44 70.1172 115.001 70.7026L115.481 71.0626C116.002 70.3679 116.261 69.564 116.261 68.6626H115.661ZM115 70.7034C114.568 71.2844 113.984 71.7401 113.24 72.0681L113.482 72.6171C114.311 72.2517 114.981 71.7341 115.481 71.0618L115 70.7034ZM113.244 72.0664C112.496 72.3831 111.69 72.5426 110.821 72.5426V73.1426C111.765 73.1426 112.652 72.9688 113.478 72.6188L113.244 72.0664Z" fill="#2979FF"/>
</svg>
