<svg width="140" height="140" viewBox="0 0 140 140" fill="none" xmlns="http://www.w3.org/2000/svg">
<g clip-path="url(#clip0)">
<path d="M47.8714 77.9758L34.6271 70.4456C33.0608 69.555 33.3699 67.2168 35.1126 66.7728L105.977 48.7157L84.0415 95.4072C83.5582 96.4358 82.3126 96.852 81.3028 96.3223L54.0801 82.0415L52.8712 98.2253L47.8714 77.9758Z" fill="#E0E0E0"/>
<path d="M47.8714 77.9758L34.6271 70.4456C33.0608 69.555 33.3699 67.2168 35.1126 66.7728L105.977 48.7157M47.8714 77.9758L105.977 48.7157M47.8714 77.9758L52.8712 98.2253M105.977 48.7157L84.0415 95.4072C83.5582 96.4358 82.3126 96.852 81.3028 96.3223L54.0801 82.0415M105.977 48.7157L54.0801 82.0415M54.0801 82.0415L52.8712 98.2253M52.8712 98.2253L65.2791 87.9864" stroke="#757575" stroke-width="3"/>
<path d="M54.817 94.4724L55.4278 84.3852L62.7067 88.1029L54.817 94.4724Z" fill="#E0E0E0" stroke="#757575"/>
<path d="M1.89012e-06 116.387C0.756192 118.636 19.4022 116.026 24.5764 97.6474C29.1136 81.5314 50.665 57.5449 71.8386 78.5331C82.8617 89.4597 111.307 108.215 120.991 67.2894C128.175 36.9315 150.987 21.3152 158.045 23.0641" stroke="#AAAAAA" stroke-width="3" stroke-linejoin="round" stroke-dasharray="10 10"/>
</g>
<defs>
<clipPath id="clip0">
<rect width="140" height="140" fill="white"/>
</clipPath>
</defs>
</svg>
