<svg width="140" height="140" viewBox="0 0 140 140" fill="none" xmlns="http://www.w3.org/2000/svg">
<g clip-path="url(#clip0)">
<path d="M48.1793 73.357L34.6814 65.6263C33.1233 64.7338 33.4379 62.4005 35.1766 61.9542L107.004 43.5175L84.7875 91.1534C84.3043 92.1895 83.0519 92.6099 82.0406 92.0754L54.4648 77.5032L53.2409 94.0074L48.1793 73.357Z" fill="#BFD7FF"/>
<path d="M48.1793 73.357L34.6814 65.6263C33.1233 64.7338 33.4379 62.4005 35.1766 61.9542L107.004 43.5175M48.1793 73.357L107.004 43.5175M48.1793 73.357L53.2409 94.0074M107.004 43.5175L84.7875 91.1534C84.3043 92.1895 83.0519 92.6099 82.0406 92.0754L54.4648 77.5032M107.004 43.5175L54.4648 77.5032M54.4648 77.5032L53.2409 94.0074M53.2409 94.0074L65.8022 83.5658" stroke="#2979FF" stroke-width="3"/>
<path d="M55.6454 79.8209L63.1342 83.8612L54.9557 90.5624L55.6454 79.8209Z" fill="#BFD7FF"/>
<path d="M-0.284178 117.306C0.480235 119.599 19.329 116.938 24.5595 98.1952C29.146 81.7601 50.9318 57.2987 72.3356 78.7024C83.4786 89.8454 112.233 108.972 122.023 67.2361C129.285 36.2771 152.345 20.3515 159.48 22.1351" stroke="#2979FF" stroke-opacity="0.47" stroke-width="3" stroke-linejoin="round" stroke-dasharray="10 10"/>
</g>
<defs>
<clipPath id="clip0">
<rect width="140" height="140" fill="white"/>
</clipPath>
</defs>
</svg>
