<svg width="321" height="599" viewBox="0 0 321 599" fill="none" xmlns="http://www.w3.org/2000/svg">
<path d="M89.3279 110.935C89.3279 123.29 79.0595 133.326 66.3666 133.326C53.6737 133.326 43.4053 123.29 43.4053 110.935C43.4053 98.581 53.6737 88.5449 66.3666 88.5449C79.0595 88.5449 89.3279 98.581 89.3279 110.935Z" fill="#F5EEE8" stroke="#F5EEE8"/>
<path d="M0.778905 596.821L0.778809 450.884L46.823 415.415C47.8874 414.595 49.3672 414.582 50.4451 415.385L98.8584 451.419L229.353 355.578C230.456 354.769 231.966 354.807 233.025 355.671L319.635 426.314L319.636 596.821H0.778905Z" fill="#F5EEE8" stroke="#F5EEE8"/>
<rect x="2.27881" y="2.19922" width="317" height="595" rx="2.5" stroke="#F5EEE8" stroke-width="3"/>
</svg>
