<svg width="7" height="9" viewBox="0 0 7 9" fill="none" xmlns="http://www.w3.org/2000/svg">
<path d="M1.09918 3.77019H1.42049V2.64561C1.42049 1.33672 2.33355 0.271484 3.45545 0.271484C4.57736 0.271484 5.49042 1.33672 5.49042 2.64561V3.77019H5.81173C6.16651 3.77019 6.45435 4.10601 6.45435 4.51992V7.51881C6.45435 7.93272 6.16651 8.26853 5.81173 8.26853H1.09918C0.744401 8.26853 0.45656 7.93272 0.45656 7.51881V4.51992C0.45656 4.10601 0.744401 3.77019 1.09918 3.77019ZM2.49152 3.77019H4.41938V2.64561C4.47797 1.74683 3.98695 1.29681 3.45545 1.29681C2.92395 1.29681 2.49152 1.7358 2.49152 2.64561V3.77019Z" fill="white"/>
</svg>
