<svg width="17" height="16" viewBox="0 0 17 16" fill="none" xmlns="http://www.w3.org/2000/svg">
<g clip-path="url(#clip0)">
<path d="M6.93338 0.644531H1.70789C1.16034 0.644531 0.714603 1.08489 0.707964 1.6324L0.583562 11.8916C0.576808 12.4485 1.02646 12.9037 1.58349 12.9037H9.82842C10.3807 12.9037 10.8284 12.456 10.8284 11.9037V5.20792C10.8284 4.97826 10.7494 4.7556 10.6046 4.57735L7.70952 1.01397C7.51963 0.78024 7.23452 0.644531 6.93338 0.644531Z" fill="#3E2723"/>
<path d="M15.5611 13.2419L15.5593 13.24L13.8066 11.4876C13.7664 11.4474 13.7229 11.4114 13.6769 11.3798C13.9737 10.8074 14.1412 10.1574 14.1412 9.46839C14.1412 7.17264 12.2806 5.3125 9.98464 5.3125C7.68871 5.3125 5.82812 7.17264 5.82812 9.46839C5.82812 11.7641 7.68871 13.6243 9.98464 13.6243C10.6737 13.6243 11.324 13.4569 11.8965 13.16C11.9281 13.2061 11.9641 13.2496 12.0043 13.2898L13.757 15.0422C14.1161 15.4012 14.7004 15.4043 15.0607 15.0415C15.0611 15.0411 15.0615 15.0407 15.0619 15.0403L15.5575 14.5448C15.9177 14.1846 15.9177 13.6022 15.5611 13.2419ZM9.98464 11.2182C9.01759 11.2182 8.23448 10.4363 8.23448 9.46839C8.23448 8.50171 9.01634 7.71861 9.98464 7.71861C10.9517 7.71861 11.7348 8.50046 11.7348 9.46839C11.7348 10.4351 10.9529 11.2182 9.98464 11.2182Z" fill="#3E2723" stroke="#E0E0E0"/>
</g>
<defs>
<clipPath id="clip0">
<rect width="16" height="16" fill="white" transform="translate(0.244629)"/>
</clipPath>
</defs>
</svg>
