<svg width="15" height="15" viewBox="0 0 15 15" fill="none" xmlns="http://www.w3.org/2000/svg">
<path d="M0.34668 2.2207C0.34668 1.2542 1.13018 0.470703 2.09668 0.470703H12.1176C13.0841 0.470703 13.8676 1.2542 13.8676 2.2207V7.33455V12.4484C13.8676 13.4149 13.0841 14.1984 12.1176 14.1984H2.09668C1.13018 14.1984 0.34668 13.4149 0.34668 12.4484V2.2207Z" fill="white" stroke="#3E2723" stroke-width="0.5"/>
<mask id="path-2-inside-1" fill="white">
<path fill-rule="evenodd" clip-rule="evenodd" d="M4.5998 2.36523C4.43412 2.36523 4.2998 2.49955 4.2998 2.66523V11.155C4.2998 11.3207 4.43412 11.455 4.5998 11.455H9.39183C9.55751 11.455 9.69183 11.3207 9.69183 11.155V2.66523C9.69183 2.49955 9.55751 2.36523 9.39183 2.36523H4.5998ZM8.92643 3.07237H5.06519V10.7654H8.92643V3.07237Z"/>
</mask>
<path fill-rule="evenodd" clip-rule="evenodd" d="M4.5998 2.36523C4.43412 2.36523 4.2998 2.49955 4.2998 2.66523V11.155C4.2998 11.3207 4.43412 11.455 4.5998 11.455H9.39183C9.55751 11.455 9.69183 11.3207 9.69183 11.155V2.66523C9.69183 2.49955 9.55751 2.36523 9.39183 2.36523H4.5998ZM8.92643 3.07237H5.06519V10.7654H8.92643V3.07237Z" fill="#3E2723"/>
<path d="M5.06519 3.07237V2.57237H4.56519V3.07237H5.06519ZM8.92643 3.07237H9.42643V2.57237H8.92643V3.07237ZM5.06519 10.7654H4.56519V11.2654H5.06519V10.7654ZM8.92643 10.7654V11.2654H9.42643V10.7654H8.92643ZM4.7998 2.66523C4.7998 2.77569 4.71026 2.86523 4.5998 2.86523V1.86523C4.15798 1.86523 3.7998 2.22341 3.7998 2.66523H4.7998ZM4.7998 11.155V2.66523H3.7998V11.155H4.7998ZM4.5998 10.955C4.71026 10.955 4.7998 11.0445 4.7998 11.155H3.7998C3.7998 11.5968 4.15798 11.955 4.5998 11.955V10.955ZM9.39183 10.955H4.5998V11.955H9.39183V10.955ZM9.19183 11.155C9.19183 11.0445 9.28137 10.955 9.39183 10.955V11.955C9.83365 11.955 10.1918 11.5968 10.1918 11.155H9.19183ZM9.19183 2.66523V11.155H10.1918V2.66523H9.19183ZM9.39183 2.86523C9.28137 2.86523 9.19183 2.77569 9.19183 2.66523H10.1918C10.1918 2.22341 9.83365 1.86523 9.39183 1.86523V2.86523ZM4.5998 2.86523H9.39183V1.86523H4.5998V2.86523ZM5.06519 3.57237H8.92643V2.57237H5.06519V3.57237ZM5.56519 10.7654V3.07237H4.56519V10.7654H5.56519ZM8.92643 10.2654H5.06519V11.2654H8.92643V10.2654ZM8.42643 3.07237V10.7654H9.42643V3.07237H8.42643Z" fill="#3E2723" mask="url(#path-2-inside-1)"/>
<rect x="3.38807" y="11.7973" width="7.21617" height="0.36794" fill="#3E2723" stroke="#3E2723" stroke-width="0.36794"/>
</svg>
