<svg width="15" height="15" viewBox="0 0 15 15" fill="none" xmlns="http://www.w3.org/2000/svg">
<rect x="1.07617" y="0.384766" width="13.5209" height="13.7277" rx="1.75" fill="white" stroke="#403532" stroke-width="0.5"/>
<mask id="path-2-inside-1" fill="white">
<rect x="5.04932" y="2.52539" width="2.43927" height="2.5332" rx="0.3"/>
</mask>
<rect x="5.04932" y="2.52539" width="2.43927" height="2.5332" rx="0.3" fill="#3E2723" stroke="#403532" mask="url(#path-2-inside-1)"/>
<mask id="path-3-inside-2" fill="white">
<rect x="5.0498" y="5.60938" width="2.43923" height="2.53316" rx="0.3"/>
</mask>
<rect x="5.0498" y="5.60938" width="2.43923" height="2.53316" rx="0.3" fill="#3E2723" stroke="#403532" mask="url(#path-3-inside-2)"/>
<mask id="path-4-inside-3" fill="white">
<rect x="5.0498" y="8.69336" width="2.43914" height="2.53307" rx="0.3"/>
</mask>
<rect x="5.0498" y="8.69336" width="2.43914" height="2.53307" rx="0.3" fill="#3E2723" stroke="#403532" mask="url(#path-4-inside-3)"/>
<mask id="path-5-inside-4" fill="white">
<rect x="8.10693" y="2.52539" width="2.43928" height="2.53321" rx="0.3"/>
</mask>
<rect x="8.10693" y="2.52539" width="2.43928" height="2.53321" rx="0.3" fill="#3E2723" stroke="#403532" mask="url(#path-5-inside-4)"/>
<mask id="path-6-inside-5" fill="white">
<rect x="8.10693" y="5.60938" width="2.43931" height="2.53325" rx="0.3"/>
</mask>
<rect x="8.10693" y="5.60938" width="2.43931" height="2.53325" rx="0.3" fill="#3E2723" stroke="#403532" mask="url(#path-6-inside-5)"/>
<mask id="path-7-inside-6" fill="white">
<rect x="8.10693" y="8.69336" width="2.43931" height="2.53325" rx="0.3"/>
</mask>
<rect x="8.10693" y="8.69336" width="2.43931" height="2.53325" rx="0.3" fill="#3E2723" stroke="#403532" mask="url(#path-7-inside-6)"/>
<rect x="4.23082" y="11.6839" width="7.21512" height="0.367887" fill="#3E2723" stroke="#403532" stroke-width="0.367887"/>
</svg>
