<svg width="14" height="11" viewBox="0 0 14 11" fill="none" xmlns="http://www.w3.org/2000/svg">
<path fill-rule="evenodd" clip-rule="evenodd" d="M6.44786 2.79201C6.62577 2.7462 6.80796 2.72147 6.9912 2.71839C7.52035 2.71667 8.0366 2.89425 8.46681 3.22597C8.75969 3.4518 9.00258 3.74129 9.18109 4.07345C9.41305 4.4913 9.5465 4.98094 9.5465 5.50443C9.5465 7.03719 8.40248 8.27973 6.99127 8.27973C5.58005 8.27973 4.43604 7.03719 4.43604 5.50443C4.43604 4.17421 5.29769 3.06257 6.44786 2.79201ZM6.9912 0.774414C9.76566 0.774414 12.1887 2.51403 13.4127 5.08517C13.4643 5.19513 13.4912 5.31662 13.4912 5.43983C13.4912 5.56304 13.4643 5.68452 13.4127 5.79448C12.1894 8.36465 9.76566 10.1055 6.9912 10.1055C4.21674 10.1055 1.79368 8.36587 0.56974 5.79472C0.518111 5.68476 0.491211 5.56328 0.491211 5.44007C0.491211 5.31686 0.518111 5.19537 0.56974 5.08542C1.793 2.51524 4.21674 0.774414 6.9912 0.774414ZM1.62125 5.43995C2.72354 7.60262 4.76472 8.9391 6.9912 8.9391C9.2179 8.9391 11.2591 7.60262 12.3611 5.43995C11.2589 3.27728 9.2179 1.9408 6.9912 1.9408C4.7645 1.9408 2.72354 3.27728 1.62125 5.43995Z" fill="#757575"/>
</svg>
