<svg width="16" height="17" viewBox="0 0 16 17" fill="none" xmlns="http://www.w3.org/2000/svg">
<path d="M8 3.59375C5.05756 3.59375 2.67188 5.9803 2.67188 8.92188C2.67188 11.8652 5.05756 14.25 8 14.25C10.9424 14.25 13.3281 11.8652 13.3281 8.92188C13.3281 5.9803 10.9424 3.59375 8 3.59375ZM8 13.2188C5.62529 13.2188 3.70312 11.2974 3.70312 8.92188C3.70312 6.54796 5.62538 4.625 8 4.625C10.3738 4.625 12.2969 6.54723 12.2969 8.92188C12.2969 11.2965 10.3755 13.2188 8 13.2188ZM10.3041 7.73594C10.3041 9.17651 8.74815 9.19868 8.74815 9.73104V9.86719C8.74815 10.0096 8.63271 10.125 8.49034 10.125H7.50964C7.36726 10.125 7.25183 10.0096 7.25183 9.86719V9.68115C7.25183 8.9132 7.83405 8.6062 8.27403 8.35952C8.65132 8.14801 8.88256 8.00415 8.88256 7.72404C8.88256 7.35352 8.40992 7.10758 8.02782 7.10758C7.52962 7.10758 7.29963 7.34342 6.97633 7.75145C6.88917 7.86145 6.73012 7.88188 6.61828 7.79708L6.02049 7.3438C5.91077 7.26062 5.8862 7.10606 5.96369 6.99226C6.4713 6.24688 7.11785 5.82812 8.12448 5.82812C9.17874 5.82812 10.3041 6.65106 10.3041 7.73594ZM8.90234 11.3281C8.90234 11.8257 8.49756 12.2305 8 12.2305C7.50244 12.2305 7.09766 11.8257 7.09766 11.3281C7.09766 10.8306 7.50244 10.4258 8 10.4258C8.49756 10.4258 8.90234 10.8306 8.90234 11.3281Z" fill="#D1C8C6"/>
</svg>
