<svg width="271" height="507" viewBox="0 0 271 507" fill="none" xmlns="http://www.w3.org/2000/svg">
<rect x="0.434555" width="270" height="507" rx="10" fill="#5C4C47"/>
<rect x="15.341" y="17.4489" width="240.187" height="389.128" fill="white"/>
<rect x="31.1713" y="31.417" width="208.527" height="342.942" fill="#C4C4C4" stroke="#C4C4C4"/>
<path d="M121.755 204.2H118.923V199.256H121.755V204.2ZM121.755 196.784H118.923V191.792H115.947V206.72H124.659V191.792H121.755V196.784ZM131.283 189.824V198.272H129.435V190.184H126.483V210.968H129.435V200.816H131.283V211.928H134.283V189.824H131.283ZM141.673 192.2H138.529V206.816H140.401C143.665 206.816 147.025 206.624 150.601 205.904L150.241 203.312C147.289 203.888 144.433 204.128 141.673 204.176V192.2ZM152.785 189.824V196.664H146.833V199.232H152.785V212.024H155.953V189.824H152.785Z" fill="#C4C4C4"/>
</svg>
