<svg width="270" height="508" viewBox="0 0 270 508" fill="none" xmlns="http://www.w3.org/2000/svg">
<rect width="270" height="508" rx="27" fill="#5C4C47"/>
<rect x="5.5" y="6" width="259" height="495" rx="20.5" stroke="white" stroke-opacity="0.29"/>
<rect x="14" y="14" width="244" height="480" rx="16" fill="white"/>
<path d="M248.006 40.086V42.4497H243.55V40.086H242.913V42.4497C242.913 42.8211 243.2 43.125 243.55 43.125H248.006C248.356 43.125 248.643 42.8211 248.643 42.4497V40.086H248.006ZM246.096 40.3122L246.921 39.441L247.369 39.9171L245.778 41.6055L244.186 39.9171L244.635 39.441L245.46 40.3122V37.0469H246.096V40.3122Z" fill="#707070"/>
<path d="M24.0573 42.1577L26.2983 40.2234C26.4064 40.1301 26.5816 40.1301 26.6897 40.2234L26.9511 40.449C27.059 40.5422 27.0591 40.6931 26.9515 40.7864L25.1755 42.3267L26.9514 43.867C27.0591 43.9603 27.0589 44.1112 26.951 44.2044L26.6896 44.43C26.5815 44.5233 26.4062 44.5233 26.2982 44.43L24.0573 42.4956C23.9493 42.4023 23.9493 42.251 24.0573 42.1577V42.1577Z" fill="#707070"/>
<path d="M238.18 41.914C237.946 41.914 237.736 42.0055 237.576 42.1489L235.376 40.8826C235.391 40.8124 235.404 40.7423 235.404 40.669C235.404 40.5958 235.391 40.5256 235.376 40.4554L237.551 39.2013C237.718 39.3539 237.937 39.4485 238.18 39.4485C238.692 39.4485 239.106 39.0396 239.106 38.5331C239.106 38.0266 238.692 37.6177 238.18 37.6177C237.668 37.6177 237.255 38.0266 237.255 38.5331C237.255 38.6063 237.267 38.6765 237.283 38.7467L235.108 40.0008C234.941 39.8482 234.722 39.7536 234.478 39.7536C233.966 39.7536 233.553 40.1625 233.553 40.669C233.553 41.1756 233.966 41.5844 234.478 41.5844C234.722 41.5844 234.941 41.4899 235.108 41.3373L237.304 42.6066C237.289 42.6707 237.279 42.7379 237.279 42.805C237.279 43.2963 237.684 43.696 238.18 43.696C238.677 43.696 239.081 43.2963 239.081 42.805C239.081 42.3137 238.677 41.914 238.18 41.914Z" fill="#707070"/>
<rect opacity="0.35" x="234.074" y="21.3838" width="13.2746" height="6.0338" rx="2.41667" stroke="black" stroke-width="0.5"/>
<path opacity="0.4" d="M248.225 23.248V25.5541C248.731 25.3588 249.06 24.9044 249.06 24.4011C249.06 23.8977 248.731 23.4434 248.225 23.248" fill="black"/>
<rect x="235.076" y="22.2871" width="11.2701" height="4.22775" rx="1.33333" fill="#707070"/>
<path fill-rule="evenodd" clip-rule="evenodd" d="M227.693 22.8139C228.509 22.8139 229.293 23.1658 229.884 23.7968C229.929 23.8455 230 23.8449 230.044 23.7954L230.469 23.3133C230.492 23.2882 230.504 23.2542 230.504 23.2188C230.504 23.1834 230.491 23.1496 230.468 23.1248C228.917 21.4553 226.469 21.4553 224.918 23.1248C224.896 23.1496 224.883 23.1834 224.883 23.2188C224.882 23.2542 224.895 23.2882 224.917 23.3133L225.342 23.7954C225.386 23.845 225.458 23.8456 225.502 23.7968C226.093 23.1658 226.878 22.8139 227.693 22.8139ZM227.693 24.3789C228.141 24.3789 228.574 24.5707 228.906 24.9171C228.951 24.9662 229.022 24.9651 229.066 24.9147L229.491 24.4202C229.514 24.3942 229.526 24.359 229.526 24.3225C229.526 24.2859 229.513 24.251 229.49 24.2256C228.477 23.1421 226.909 23.1421 225.896 24.2256C225.873 24.251 225.86 24.2859 225.86 24.3225C225.86 24.3591 225.872 24.3943 225.895 24.4202L226.32 24.9147C226.364 24.9651 226.435 24.9662 226.48 24.9171C226.812 24.5709 227.244 24.3791 227.693 24.3789ZM228.548 25.5233C228.549 25.5592 228.536 25.5939 228.514 25.619L227.775 26.4554C227.753 26.48 227.724 26.4938 227.693 26.4938C227.662 26.4938 227.633 26.48 227.611 26.4554L226.872 25.619C226.85 25.5938 226.837 25.5592 226.838 25.5233C226.838 25.4874 226.852 25.4534 226.876 25.4294C227.348 24.9817 228.039 24.9817 228.51 25.4294C228.534 25.4534 228.548 25.4875 228.548 25.5233Z" fill="#707070"/>
<path fill-rule="evenodd" clip-rule="evenodd" d="M221.238 21.4566C221.238 21.1632 221.013 20.9254 220.735 20.9254H220.231C219.953 20.9254 219.728 21.1632 219.728 21.4566V26.0609C219.728 26.3543 219.953 26.5922 220.231 26.5922H220.735C221.013 26.5922 221.238 26.3543 221.238 26.0609V21.4566ZM217.882 22.1648H218.385C218.663 22.1648 218.889 22.4027 218.889 22.6961V26.0607C218.889 26.3541 218.663 26.592 218.385 26.592H217.882C217.604 26.592 217.378 26.3541 217.378 26.0607V22.6961C217.378 22.4027 217.604 22.1648 217.882 22.1648ZM216.037 23.4048H215.533C215.255 23.4048 215.03 23.6426 215.03 23.936V26.0611C215.03 26.3545 215.255 26.5924 215.533 26.5924H216.037C216.315 26.5924 216.54 26.3545 216.54 26.0611V23.936C216.54 23.6426 216.315 23.4048 216.037 23.4048ZM214.19 24.9986C214.19 24.7051 213.965 24.4673 213.687 24.4673H213.183C212.905 24.4673 212.68 24.7051 212.68 24.9986V26.0611C212.68 26.3545 212.905 26.5924 213.183 26.5924H213.687C213.965 26.5924 214.19 26.3545 214.19 26.0611V24.9986Z" fill="#707070"/>
<path d="M24.9988 23.9128C24.5368 23.9128 24.2848 23.5888 24.2848 23.0248C24.2848 22.4488 24.5848 22.1068 24.9628 22.1068C25.4428 22.1068 25.7728 22.5028 25.8388 23.3728C25.5748 23.7568 25.2688 23.9128 24.9988 23.9128ZM23.7148 25.6828C23.9728 25.9468 24.3328 26.1508 24.8428 26.1508C25.6948 26.1508 26.4868 25.4548 26.4868 23.7148C26.4868 22.2568 25.8028 21.5728 24.9568 21.5728C24.2428 21.5728 23.6428 22.1488 23.6428 23.0248C23.6428 23.9488 24.1408 24.4108 24.8788 24.4108C25.2148 24.4108 25.5928 24.2128 25.8508 23.8948C25.8088 25.1548 25.3468 25.5868 24.8128 25.5868C24.5308 25.5868 24.2608 25.4548 24.0868 25.2568L23.7148 25.6828ZM28.3817 23.7928C28.6397 23.7928 28.8437 23.5888 28.8437 23.3128C28.8437 23.0308 28.6397 22.8208 28.3817 22.8208C28.1237 22.8208 27.9197 23.0308 27.9197 23.3128C27.9197 23.5888 28.1237 23.7928 28.3817 23.7928ZM28.3817 26.1508C28.6397 26.1508 28.8437 25.9528 28.8437 25.6708C28.8437 25.3888 28.6397 25.1788 28.3817 25.1788C28.1237 25.1788 27.9197 25.3888 27.9197 25.6708C27.9197 25.9528 28.1237 26.1508 28.3817 26.1508ZM30.2198 26.0728H33.0698V25.4848H31.9658C31.7498 25.4848 31.4738 25.5028 31.2458 25.5268C32.1818 24.6328 32.8598 23.7508 32.8598 22.8988C32.8598 22.1008 32.3378 21.5728 31.5278 21.5728C30.9518 21.5728 30.5618 21.8248 30.1838 22.2328L30.5738 22.6168C30.8078 22.3468 31.0958 22.1248 31.4438 22.1248C31.9358 22.1248 32.1938 22.4548 32.1938 22.9348C32.1938 23.6608 31.5218 24.5188 30.2198 25.6708V26.0728ZM34.2023 26.0728H34.9103C34.9823 24.3448 35.1443 23.3728 36.1823 22.0768V21.6568H33.3383V22.2388H35.4143C34.5623 23.4268 34.2803 24.4588 34.2023 26.0728Z" fill="#707070"/>
<rect x="14" y="58.7744" width="244" height="231.949" fill="#C4C4C4"/>
<rect x="11.5" y="263.774" width="246.5" height="26.9494" fill="black" fill-opacity="0.13"/>
<g filter="url(#filter0_d)">
<path d="M56.1984 269.272C53.7477 269.272 51.7615 271.229 51.7615 273.643C51.7615 274.686 52.1324 275.64 52.7494 276.39C52.5327 277.449 51.8083 278.393 51.7996 278.403C51.7615 278.451 51.7511 278.523 51.7736 278.586C51.7961 278.649 51.8447 278.687 51.9001 278.687C53.0492 278.687 53.9106 278.018 54.337 277.607C54.9037 277.865 55.5329 278.014 56.1984 278.014C58.6491 278.014 60.6353 276.058 60.6353 273.643C60.6353 271.229 58.6491 269.272 56.1984 269.272Z" fill="white"/>
</g>
<g filter="url(#filter1_d)">
<path d="M24.8228 286.248H23.835V282.44L22.6558 282.806V282.002L24.7169 281.264H24.8228V286.248ZM29.8541 286.248H26.4429V285.571L28.0528 283.855C28.2738 283.613 28.4367 283.403 28.5416 283.223C28.6487 283.043 28.7022 282.872 28.7022 282.71C28.7022 282.489 28.6464 282.316 28.5347 282.19C28.4231 282.063 28.2636 281.999 28.0562 281.999C27.8329 281.999 27.6563 282.076 27.5264 282.231C27.3988 282.384 27.335 282.586 27.335 282.836H26.3438C26.3438 282.533 26.4156 282.257 26.5591 282.006C26.705 281.755 26.9101 281.559 27.1744 281.418C27.4387 281.274 27.7383 281.203 28.0733 281.203C28.586 281.203 28.9836 281.326 29.2662 281.572C29.551 281.818 29.6934 282.165 29.6934 282.614C29.6934 282.86 29.6296 283.111 29.502 283.366C29.3744 283.621 29.1557 283.919 28.8458 284.258L27.7144 285.451H29.8541V286.248ZM31.6681 284.452H30.9681V283.592H31.6681V284.452ZM32.8481 283.86V284.176H32.1841V283.86H32.8481ZM32.1841 284.596H32.8481V285.068H33.3761V282.908H32.8481V283.44H32.1841V283.172H30.4481V284.868H32.1841V284.596ZM32.1281 286.188C31.6481 286.188 31.3961 286.088 31.3961 285.876C31.3961 285.664 31.6481 285.564 32.1281 285.564C32.6121 285.564 32.8641 285.664 32.8641 285.876C32.8641 286.088 32.6121 286.188 32.1281 286.188ZM32.1281 285.16C31.3481 285.16 30.8681 285.424 30.8681 285.876C30.8681 286.328 31.3481 286.592 32.1281 286.592C32.9121 286.592 33.3921 286.328 33.3921 285.876C33.3921 285.424 32.9121 285.16 32.1281 285.16ZM35.2759 284.212C35.9839 284.164 36.4439 283.94 36.6359 283.62C36.8279 283.94 37.2919 284.164 37.9999 284.212L38.1639 283.82C37.4999 283.78 37.1399 283.6 37.0319 283.4H38.0039V283H35.2759V283.4H36.2399C36.1319 283.6 35.7719 283.78 35.1119 283.82L35.2759 284.212ZM36.6279 286.256C36.2439 286.256 36.0519 286.216 36.0519 286.12C36.0519 286.02 36.2439 285.98 36.6279 285.98C37.0159 285.98 37.2119 286.02 37.2119 286.12C37.2119 286.216 37.0159 286.256 36.6279 286.256ZM36.6279 285.632C35.9199 285.632 35.5079 285.804 35.5079 286.12C35.5079 286.436 35.9199 286.604 36.6279 286.604C37.3439 286.604 37.7559 286.436 37.7559 286.12C37.7559 285.804 37.3439 285.632 36.6279 285.632ZM36.8959 284.872H36.3679V285.132H35.2719V285.524H37.9959V285.132H36.8959V284.872ZM36.8959 284.344V284.008H36.3679V284.344H34.9719V284.756H38.3119V284.344H36.8959ZM39.6396 285.316C39.3636 285.316 39.1796 285.024 39.1796 284.476C39.1796 283.932 39.3636 283.64 39.6396 283.64C39.9116 283.64 40.0996 283.932 40.0996 284.476C40.0996 285.024 39.9116 285.316 39.6396 285.316ZM39.6396 283.164C39.0796 283.164 38.6716 283.668 38.6716 284.476C38.6716 285.288 39.0796 285.796 39.6396 285.796C40.1956 285.796 40.6076 285.288 40.6076 284.476C40.6076 283.668 40.1956 283.164 39.6396 283.164ZM42.0716 284.296H41.5356V282.908H41.0076V286.592H41.5356V284.732H42.0716V284.296ZM43.5912 285.032C43.7192 285.056 43.8512 285.068 43.9952 285.068C44.1392 285.068 44.2752 285.056 44.4032 285.032V285.736H43.5912V285.032ZM43.9952 283.504C44.5072 283.504 44.8512 283.712 44.8512 284.08C44.8512 284.444 44.5072 284.656 43.9952 284.656C43.4832 284.656 43.1432 284.444 43.1432 284.08C43.1432 283.712 43.4832 283.504 43.9952 283.504ZM44.9272 285.736V284.836C45.2032 284.664 45.3712 284.4 45.3712 284.08C45.3712 283.476 44.7912 283.088 43.9952 283.088C43.2032 283.088 42.6232 283.476 42.6232 284.08C42.6192 284.4 42.7872 284.664 43.0672 284.836V285.736H42.3312V286.164H45.6672V285.736H44.9272Z" fill="white"/>
</g>
<g filter="url(#filter2_d)">
<path d="M54.1082 286.249H53.2615V282.985L52.2507 283.299V282.61L54.0173 281.978H54.1082V286.249ZM55.7517 287.318L55.3093 287.087L55.4148 286.896C55.5457 286.658 55.613 286.421 55.6169 286.185V285.528H56.3318L56.3289 286.114C56.3269 286.331 56.2722 286.55 56.1648 286.771C56.0574 286.991 55.9197 287.174 55.7517 287.318ZM59.4666 284.644H59.95V285.326H59.4666V286.249H58.6199V285.326H56.8708L56.8328 284.793L58.6111 281.983H59.4666V284.644ZM57.6765 284.644H58.6199V283.138L58.5642 283.234L57.6765 284.644ZM62.3875 284.544C62.1667 284.761 61.9089 284.869 61.614 284.869C61.2371 284.869 60.9353 284.74 60.7087 284.482C60.4822 284.223 60.3689 283.873 60.3689 283.434C60.3689 283.154 60.4294 282.898 60.5505 282.666C60.6736 282.432 60.8445 282.25 61.0632 282.121C61.282 281.99 61.5281 281.925 61.8015 281.925C62.0828 281.925 62.3328 281.995 62.5515 282.136C62.7703 282.276 62.9402 282.479 63.0613 282.742C63.1824 283.006 63.2439 283.308 63.2458 283.647V283.961C63.2458 284.672 63.0691 285.23 62.7156 285.637C62.3621 286.043 61.8611 286.26 61.2126 286.287L61.0046 286.29V285.584L61.1921 285.581C61.9285 285.548 62.3269 285.202 62.3875 284.544ZM61.822 284.222C61.9587 284.222 62.0759 284.187 62.1736 284.116C62.2732 284.046 62.3484 283.961 62.3992 283.861V283.513C62.3992 283.226 62.3445 283.003 62.2351 282.845C62.1257 282.687 61.9792 282.607 61.7957 282.607C61.6257 282.607 61.4861 282.686 61.3767 282.842C61.2673 282.996 61.2126 283.19 61.2126 283.425C61.2126 283.657 61.2654 283.849 61.3708 283.999C61.4783 284.147 61.6287 284.222 61.822 284.222ZM64.7136 283.741H65.1648C65.3796 283.741 65.5388 283.688 65.6423 283.58C65.7458 283.473 65.7976 283.33 65.7976 283.152C65.7976 282.98 65.7458 282.847 65.6423 282.751C65.5408 282.655 65.4001 282.607 65.2205 282.607C65.0583 282.607 64.9226 282.652 64.8132 282.742C64.7039 282.83 64.6492 282.945 64.6492 283.088H63.8025C63.8025 282.865 63.8621 282.666 63.9812 282.49C64.1023 282.312 64.2703 282.174 64.4851 282.074C64.7019 281.975 64.9402 281.925 65.2 281.925C65.6511 281.925 66.0046 282.033 66.2605 282.25C66.5164 282.465 66.6443 282.762 66.6443 283.141C66.6443 283.336 66.5847 283.516 66.4656 283.68C66.3464 283.844 66.1902 283.97 65.9968 284.058C66.2371 284.144 66.4158 284.272 66.533 284.444C66.6521 284.616 66.7117 284.819 66.7117 285.054C66.7117 285.433 66.573 285.736 66.2957 285.965C66.0203 286.193 65.655 286.308 65.2 286.308C64.7742 286.308 64.4255 286.195 64.1541 285.971C63.8845 285.746 63.7498 285.449 63.7498 285.08H64.5964C64.5964 285.24 64.656 285.371 64.7751 285.473C64.8962 285.574 65.0447 285.625 65.2205 285.625C65.4216 285.625 65.5789 285.572 65.6921 285.467C65.8074 285.359 65.865 285.218 65.865 285.042C65.865 284.616 65.6306 284.403 65.1619 284.403H64.7136V283.741ZM69.5608 283.365V283.785H70.4928C70.4248 284.509 70.1128 285.041 69.3728 285.473L69.6808 285.841C70.7088 285.241 71.0128 284.397 71.0128 283.365H69.5608ZM72.0728 282.909V284.297H71.7448V283.005H71.2528V286.437H71.7448V284.721H72.0728V286.593H72.5768V282.909H72.0728ZM74.2845 283.153C73.7085 283.153 73.2725 283.533 73.2725 284.061C73.2725 284.593 73.7085 284.969 74.2845 284.969C74.8605 284.969 75.3005 284.593 75.3005 284.061C75.3005 283.533 74.8605 283.153 74.2845 283.153ZM74.2845 283.605C74.5685 283.605 74.7845 283.773 74.7845 284.061C74.7845 284.349 74.5685 284.517 74.2845 284.517C74.0005 284.517 73.7845 284.349 73.7845 284.061C73.7845 283.773 74.0005 283.605 74.2845 283.605ZM75.6445 282.905V286.601H76.1725V282.905H75.6445ZM73.1845 285.853C73.8205 285.853 74.6845 285.845 75.4765 285.685L75.4445 285.305C74.6685 285.421 73.7645 285.425 73.1165 285.425L73.1845 285.853ZM80.1202 284.217H80.4162V285.333H80.9162V282.905H80.4162V283.793H80.1202V282.977H79.6282V285.001H80.1202V284.217ZM79.4442 284.405C79.1122 284.469 78.8122 284.493 78.4202 284.501V283.621H79.3442V283.201H77.9042V284.925H78.1562C78.7082 284.925 79.0682 284.909 79.4882 284.825L79.4442 284.405ZM79.9122 285.153H79.3842V285.253C79.3842 285.645 79.0042 286.061 78.2082 286.173L78.4202 286.577C79.0042 286.489 79.4242 286.237 79.6482 285.893C79.8682 286.237 80.2882 286.489 80.8682 286.577L81.0842 286.173C80.2882 286.061 79.9122 285.645 79.9122 285.253V285.153ZM82.3599 285.909H84.3919V284.873H81.8279V285.281H83.8639V285.521H81.8319V286.565H84.4839V286.157H82.3599V285.909ZM84.3319 284.205C84.3999 283.837 84.3999 283.541 84.3999 283.305V283.053H81.8679V283.473H83.8799C83.8759 283.677 83.8639 283.909 83.8039 284.205H81.4559V284.621H84.7919V284.205H84.3319Z" fill="white"/>
</g>
<g filter="url(#filter3_d)">
<g clip-path="url(#clip0)">
<path d="M29.6696 270.345C28.6846 269.478 27.2197 269.634 26.3156 270.597L25.9615 270.974L25.6075 270.597C24.7052 269.634 23.2385 269.478 22.2535 270.345C21.1247 271.34 21.0654 273.126 22.0756 274.204L25.5535 277.913C25.7782 278.152 26.1431 278.152 26.3678 277.913L29.8457 274.204C30.8576 273.126 30.7983 271.34 29.6696 270.345V270.345Z" fill="white"/>
</g>
</g>
<rect x="78.5" y="10" width="115.5" height="19.9618" rx="5" fill="#5C4C47"/>
<circle cx="38.5044" cy="317" r="13" fill="#E1E1E1"/>
<rect x="56.1987" y="311.5" width="38.5" height="4.5" fill="#E1E1E1"/>
<rect x="56.1987" y="318" width="38.5" height="4.5" fill="#E1E1E1"/>
<rect x="28" y="457.5" width="214.126" height="18" fill="#E1E1E1"/>
<rect x="30.5625" y="343.5" width="208.544" height="103" fill="#E1E1E1"/>
<defs>
<filter id="filter0_d" x="47.7615" y="269.272" width="16.8738" height="17.4143" filterUnits="userSpaceOnUse" color-interpolation-filters="sRGB">
<feFlood flood-opacity="0" result="BackgroundImageFix"/>
<feColorMatrix in="SourceAlpha" type="matrix" values="0 0 0 0 0 0 0 0 0 0 0 0 0 0 0 0 0 0 127 0"/>
<feOffset dy="4"/>
<feGaussianBlur stdDeviation="2"/>
<feColorMatrix type="matrix" values="0 0 0 0 0.716667 0 0 0 0 0.716667 0 0 0 0 0.716667 0 0 0 0.25 0"/>
<feBlend mode="normal" in2="BackgroundImageFix" result="effect1_dropShadow"/>
<feBlend mode="normal" in="SourceGraphic" in2="effect1_dropShadow" result="shape"/>
</filter>
<filter id="filter1_d" x="18.6558" y="281.203" width="31.0114" height="13.4009" filterUnits="userSpaceOnUse" color-interpolation-filters="sRGB">
<feFlood flood-opacity="0" result="BackgroundImageFix"/>
<feColorMatrix in="SourceAlpha" type="matrix" values="0 0 0 0 0 0 0 0 0 0 0 0 0 0 0 0 0 0 127 0"/>
<feOffset dy="4"/>
<feGaussianBlur stdDeviation="2"/>
<feColorMatrix type="matrix" values="0 0 0 0 0.716667 0 0 0 0 0.716667 0 0 0 0 0.716667 0 0 0 0.25 0"/>
<feBlend mode="normal" in2="BackgroundImageFix" result="effect1_dropShadow"/>
<feBlend mode="normal" in="SourceGraphic" in2="effect1_dropShadow" result="shape"/>
</filter>
<filter id="filter2_d" x="48.2507" y="281.925" width="40.5412" height="13.3936" filterUnits="userSpaceOnUse" color-interpolation-filters="sRGB">
<feFlood flood-opacity="0" result="BackgroundImageFix"/>
<feColorMatrix in="SourceAlpha" type="matrix" values="0 0 0 0 0 0 0 0 0 0 0 0 0 0 0 0 0 0 127 0"/>
<feOffset dy="4"/>
<feGaussianBlur stdDeviation="2"/>
<feColorMatrix type="matrix" values="0 0 0 0 0.716667 0 0 0 0 0.716667 0 0 0 0 0.716667 0 0 0 0.25 0"/>
<feBlend mode="normal" in2="BackgroundImageFix" result="effect1_dropShadow"/>
<feBlend mode="normal" in="SourceGraphic" in2="effect1_dropShadow" result="shape"/>
</filter>
<filter id="filter3_d" x="17.3602" y="269.183" width="17.2027" height="17.5036" filterUnits="userSpaceOnUse" color-interpolation-filters="sRGB">
<feFlood flood-opacity="0" result="BackgroundImageFix"/>
<feColorMatrix in="SourceAlpha" type="matrix" values="0 0 0 0 0 0 0 0 0 0 0 0 0 0 0 0 0 0 127 0"/>
<feOffset dy="4"/>
<feGaussianBlur stdDeviation="2"/>
<feColorMatrix type="matrix" values="0 0 0 0 0.716667 0 0 0 0 0.716667 0 0 0 0 0.716667 0 0 0 0.25 0"/>
<feBlend mode="normal" in2="BackgroundImageFix" result="effect1_dropShadow"/>
<feBlend mode="normal" in="SourceGraphic" in2="effect1_dropShadow" result="shape"/>
</filter>
<clipPath id="clip0">
<rect x="21.3602" y="269.183" width="9.20267" height="9.50357" fill="white"/>
</clipPath>
</defs>
</svg>
