<svg width="70" height="28" viewBox="0 0 70 28" fill="none" xmlns="http://www.w3.org/2000/svg">
<g clip-path="url(#clip0)">
<path d="M8.18739 4.28488L8.05506 8.23837C8.04884 8.42402 7.94627 8.56978 7.82183 8.56978L7.17635 8.56978C7.05192 8.56978 6.94934 8.42402 6.94313 8.23837L6.8108 4.28488C6.80414 4.08562 6.91047 3.91862 7.04403 3.91862L7.95416 3.91862C8.08771 3.91862 8.19405 4.08562 8.18739 4.28488Z" fill="#CBC3BD"/>
<ellipse cx="7.50062" cy="9.60348" rx="0.686773" ry="0.610465" fill="#CBC3BD"/>
</g>
<circle cx="7.5" cy="7" r="4.6" stroke="#CBC3BD" stroke-width="0.8"/>
<rect x="41.5" y="2" width="8" height="13" rx="1" fill="#AAAAAA"/>
<rect x="42.7761" y="3.14419" width="5.55501" height="8.47194" rx="0.3" fill="white"/>
<ellipse cx="45.4981" cy="13.3576" rx="0.59518" ry="0.573721" fill="white"/>
<rect x="17.5" y="2" width="8" height="13" rx="0.3" fill="#AAAAAA"/>
<rect x="29.5" y="2" width="3.54968" height="3.78437" rx="0.3" fill="#AAAAAA"/>
<rect x="29.5" y="6.60642" width="3.54961" height="3.78431" rx="0.3" fill="#AAAAAA"/>
<rect x="29.5" y="11.2156" width="3.54949" height="3.78418" rx="0.3" fill="#AAAAAA"/>
<rect x="33.9503" y="2" width="3.54969" height="3.78439" rx="0.3" fill="#AAAAAA"/>
<rect x="33.9503" y="6.60642" width="3.54974" height="3.78444" rx="0.3" fill="#AAAAAA"/>
<rect x="33.9503" y="11.2156" width="3.54974" height="3.78444" rx="0.3" fill="#AAAAAA"/>
<g clip-path="url(#clip1)">
<path d="M59.7806 21.5996C54.4833 13.3716 53.5 12.5271 53.5 9.50316C53.5 5.36101 56.634 2.00316 60.5 2.00316C64.366 2.00316 67.5 5.36101 67.5 9.50316C67.5 12.5271 66.5167 13.3716 61.2194 21.5996C60.8718 22.1377 60.1282 22.1376 59.7806 21.5996Z" fill="#42322E"/>
<path d="M63.1513 9.56566H61.2066V11.2532C61.2066 11.4602 61.013 11.6282 60.7744 11.6282H60.3422C60.1036 11.6282 59.9101 11.4602 59.9101 11.2532V9.56566H57.9654C57.7267 9.56566 57.5332 9.39773 57.5332 9.19066V8.81566C57.5332 8.60859 57.7267 8.44066 57.9654 8.44066H59.9101V6.75316C59.9101 6.54609 60.1036 6.37816 60.3422 6.37816H60.7744C61.013 6.37816 61.2066 6.54609 61.2066 6.75316V8.44066H63.1513C63.3899 8.44066 63.5834 8.60859 63.5834 8.81566V9.19066C63.5834 9.39773 63.3899 9.56566 63.1513 9.56566Z" fill="white"/>
</g>
<defs>
<clipPath id="clip0">
<rect width="2.7907" height="7.44186" transform="matrix(1 0 0 -1 5.41425 11.3605)" fill="white"/>
</clipPath>
<clipPath id="clip1">
<rect x="53.5" y="2" width="14" height="20" fill="white"/>
</clipPath>
</defs>
</svg>
