<svg width="271" height="508" viewBox="0 0 271 508" fill="none" xmlns="http://www.w3.org/2000/svg">
<g clip-path="url(#clip0)">
<rect x="-1.4082" y="1" width="273.305" height="507" rx="10" fill="#5C4C47"/>
<rect x="12.5331" y="17.4449" width="244.229" height="396.508" fill="white"/>
<rect x="22.5198" y="41.1094" width="107.926" height="105.945" fill="#C4C4C4" stroke="#C4C4C4"/>
<rect x="22.5198" y="157.517" width="107.926" height="105.945" fill="#C4C4C4" stroke="#C4C4C4"/>
<rect x="22.5198" y="272.329" width="107.926" height="105.945" fill="#C4C4C4" stroke="#C4C4C4"/>
<rect x="138.85" y="41.1094" width="107.926" height="105.945" fill="#C4C4C4" stroke="#C4C4C4"/>
<rect x="138.85" y="157.517" width="107.926" height="105.945" fill="#C4C4C4" stroke="#C4C4C4"/>
<rect x="138.85" y="272.329" width="107.926" height="105.945" fill="#C4C4C4" stroke="#C4C4C4"/>
<path d="M61.8685 98.5698H59.0365V93.6258H61.8685V98.5698ZM61.8685 91.1538H59.0365V86.1618H56.0605V101.09H64.7725V86.1618H61.8685V91.1538ZM71.3965 84.1938V92.6418H69.5485V84.5538H66.5965V105.338H69.5485V95.1858H71.3965V106.298H74.3965V84.1938H71.3965ZM81.7867 86.5698H78.6427V101.186H80.5147C83.7787 101.186 87.1387 100.994 90.7147 100.274L90.3547 97.6818C87.4027 98.2578 84.5467 98.4978 81.7867 98.5458V86.5698ZM92.8987 84.1938V91.0338H86.9467V93.6018H92.8987V106.394H96.0667V84.1938H92.8987Z" fill="#C4C4C4"/>
<path d="M61.8685 214.977H59.0365V210.033H61.8685V214.977ZM61.8685 207.561H59.0365V202.569H56.0605V217.497H64.7725V202.569H61.8685V207.561ZM71.3965 200.601V209.049H69.5485V200.961H66.5965V221.745H69.5485V211.593H71.3965V222.705H74.3965V200.601H71.3965ZM81.7867 202.977H78.6427V217.593H80.5147C83.7787 217.593 87.1387 217.401 90.7147 216.681L90.3547 214.089C87.4027 214.665 84.5467 214.905 81.7867 214.953V202.977ZM92.8987 200.601V207.441H86.9467V210.009H92.8987V222.801H96.0667V200.601H92.8987Z" fill="#C4C4C4"/>
<path d="M61.8685 329.79H59.0365V324.846H61.8685V329.79ZM61.8685 322.374H59.0365V317.382H56.0605V332.31H64.7725V317.382H61.8685V322.374ZM71.3965 315.414V323.862H69.5485V315.774H66.5965V336.558H69.5485V326.406H71.3965V337.518H74.3965V315.414H71.3965ZM81.7867 317.79H78.6427V332.406H80.5147C83.7787 332.406 87.1387 332.214 90.7147 331.494L90.3547 328.902C87.4027 329.478 84.5467 329.718 81.7867 329.766V317.79ZM92.8987 315.414V322.254H86.9467V324.822H92.8987V337.614H96.0667V315.414H92.8987Z" fill="#C4C4C4"/>
<path d="M178.198 98.5698H175.366V93.6258H178.198V98.5698ZM178.198 91.1538H175.366V86.1618H172.39V101.09H181.102V86.1618H178.198V91.1538ZM187.726 84.1938V92.6418H185.878V84.5538H182.926V105.338H185.878V95.1858H187.726V106.298H190.726V84.1938H187.726ZM198.117 86.5698H194.973V101.186H196.845C200.109 101.186 203.469 100.994 207.045 100.274L206.685 97.6818C203.733 98.2578 200.877 98.4978 198.117 98.5458V86.5698ZM209.229 84.1938V91.0338H203.277V93.6018H209.229V106.394H212.397V84.1938H209.229Z" fill="#C4C4C4"/>
<path d="M178.198 214.977H175.366V210.033H178.198V214.977ZM178.198 207.561H175.366V202.569H172.39V217.497H181.102V202.569H178.198V207.561ZM187.726 200.601V209.049H185.878V200.961H182.926V221.745H185.878V211.593H187.726V222.705H190.726V200.601H187.726ZM198.117 202.977H194.973V217.593H196.845C200.109 217.593 203.469 217.401 207.045 216.681L206.685 214.089C203.733 214.665 200.877 214.905 198.117 214.953V202.977ZM209.229 200.601V207.441H203.277V210.009H209.229V222.801H212.397V200.601H209.229Z" fill="#C4C4C4"/>
<path d="M178.198 329.79H175.366V324.846H178.198V329.79ZM178.198 322.374H175.366V317.382H172.39V332.31H181.102V317.382H178.198V322.374ZM187.726 315.414V323.862H185.878V315.774H182.926V336.558H185.878V326.406H187.726V337.518H190.726V315.414H187.726ZM198.117 317.79H194.973V332.406H196.845C200.109 332.406 203.469 332.214 207.045 331.494L206.685 328.902C203.733 329.478 200.877 329.718 198.117 329.766V317.79ZM209.229 315.414V322.254H203.277V324.822H209.229V337.614H212.397V315.414H209.229Z" fill="#C4C4C4"/>
</g>
<defs>
<clipPath id="clip0">
<rect x="0.244141" width="270" height="508" fill="white"/>
</clipPath>
</defs>
</svg>
