<svg width="17" height="17" viewBox="0 0 17 17" fill="none" xmlns="http://www.w3.org/2000/svg">
<path d="M15.4336 14.0593L12.7139 11.3551C12.5911 11.233 12.4248 11.1652 12.2502 11.1652H11.8055C12.5584 10.2078 13.0058 9.00349 13.0058 7.69343C13.0058 4.57695 10.4662 2.05176 7.33187 2.05176C4.19758 2.05176 1.65796 4.57695 1.65796 7.69343C1.65796 10.8099 4.19758 13.3351 7.33187 13.3351C8.64942 13.3351 9.86058 12.8903 10.8235 12.1417V12.5838C10.8235 12.7574 10.8917 12.9228 11.0145 13.0449L13.7341 15.7491C13.9905 16.004 14.4052 16.004 14.6589 15.7491L15.4308 14.9815C15.6873 14.7265 15.6873 14.3143 15.4336 14.0593ZM7.33187 11.1652C5.40329 11.1652 3.84023 9.61377 3.84023 7.69343C3.84023 5.7758 5.40056 4.22163 7.33187 4.22163C9.26046 4.22163 10.8235 5.77309 10.8235 7.69343C10.8235 9.61106 9.26318 11.1652 7.33187 11.1652Z" fill="#3E2723"/>
</svg>
