<svg width="150" height="63" viewBox="0 0 150 63" fill="none" xmlns="http://www.w3.org/2000/svg">
<rect x="0.786621" y="0.59375" width="148.927" height="61.9705" rx="1.75" stroke="#969593" stroke-opacity="0.39" stroke-width="0.5"/>
<path d="M60.6075 16.0043V24.1583H61.5435V16.0043H60.6075ZM55.2885 16.6793V22.2233H59.1945V16.6793H58.2675V18.7493H56.2065V16.6793H55.2885ZM56.2065 19.4873H58.2675V21.4763H56.2065V19.4873ZM67.9148 16.5803H66.0698V15.9323H65.1338V16.5803H63.2798V17.2193H67.9148V16.5803ZM64.5308 18.4883C64.5308 18.1823 64.9448 18.0113 65.5928 18.0113C66.2498 18.0113 66.6548 18.1823 66.6548 18.4883C66.6548 18.8033 66.2498 18.9743 65.5928 18.9743C64.9448 18.9743 64.5308 18.8033 64.5308 18.4883ZM68.1398 19.7753C67.4828 19.8653 66.7718 19.9193 66.0698 19.9553V19.5323C66.9788 19.4423 67.5278 19.0733 67.5278 18.4883C67.5278 17.8223 66.7718 17.4263 65.5928 17.4263C64.4138 17.4263 63.6578 17.8223 63.6578 18.4883C63.6578 19.0733 64.2158 19.4423 65.1338 19.5323V19.9913C64.3868 20.0093 63.6758 20.0093 63.0638 20.0093L63.1628 20.6663C64.5758 20.6663 66.4928 20.6483 68.2118 20.3423L68.1398 19.7753ZM65.0798 22.8623H69.4988V21.1343H64.1438V21.7643H68.5808V22.2773H64.1618V24.0683H69.7958V23.4293H65.0798V22.8623ZM69.4988 18.0203V16.0133H68.5718V20.7923H69.4988V18.7853H70.6148V18.0203H69.4988ZM77.2201 20.8013H78.1471V16.0043H77.2201V17.6333H75.5731V18.3893H77.2201V20.8013ZM76.2391 19.7483C75.0061 19.3433 74.3311 18.3263 74.3311 17.2013V16.4453H73.3951V17.2463C73.3951 18.4343 72.6841 19.5323 71.3791 19.9733L71.8651 20.7203C72.8461 20.3693 73.5301 19.6583 73.8901 18.7583C74.2411 19.5503 74.8711 20.1623 75.7441 20.4773L76.2391 19.7483ZM75.4381 23.4113C74.2861 23.4113 73.6291 23.1143 73.6291 22.5833C73.6291 22.0523 74.2861 21.7553 75.4381 21.7553C76.5901 21.7553 77.2561 22.0523 77.2561 22.5833C77.2561 23.1143 76.5901 23.4113 75.4381 23.4113ZM75.4381 21.0263C73.7461 21.0263 72.7021 21.6023 72.7021 22.5833C72.7021 23.5643 73.7461 24.1403 75.4381 24.1403C77.1391 24.1403 78.1831 23.5643 78.1831 22.5833C78.1831 21.6023 77.1391 21.0263 75.4381 21.0263ZM84.5724 16.9493H82.6284V16.0313H81.7014V16.9493H79.7394V17.6963H84.5724V16.9493ZM81.0894 19.6223C81.0894 19.1183 81.5304 18.8123 82.1694 18.8123C82.8084 18.8123 83.2404 19.1183 83.2404 19.6223C83.2404 20.1173 82.8084 20.4233 82.1694 20.4233C81.5304 20.4233 81.0894 20.1173 81.0894 19.6223ZM82.6284 21.0983C83.5284 20.9543 84.1134 20.3963 84.1134 19.6223C84.1134 18.7043 83.3214 18.1013 82.1694 18.1013C81.0084 18.1013 80.2164 18.7043 80.2164 19.6223C80.2164 20.3963 80.8014 20.9453 81.7014 21.0983V21.8903C80.9454 21.9173 80.2164 21.9173 79.5954 21.9173L79.7214 22.6823C81.1164 22.6823 82.9974 22.6643 84.7344 22.3583L84.6624 21.6743C84.0144 21.7733 83.3214 21.8183 82.6284 21.8543V21.0983ZM87.2094 19.4063H86.0484V16.0043H85.1214V24.1403H86.0484V20.1713H87.2094V19.4063ZM94.7201 19.7303C93.5141 19.3343 92.8211 18.3443 92.8211 17.3003V16.4273H91.8851V17.2283C91.8851 18.3983 91.1921 19.5053 89.9141 19.9463L90.4091 20.6843C91.3451 20.3423 92.0111 19.6403 92.3711 18.7583C92.7131 19.5233 93.3611 20.1443 94.2341 20.4593L94.7201 19.7303ZM93.7211 23.4113C92.5871 23.4113 91.9301 23.1323 91.9301 22.6103C91.9301 22.1063 92.5871 21.8183 93.7211 21.8183C94.8551 21.8183 95.5121 22.1063 95.5121 22.6103C95.5121 23.1323 94.8551 23.4113 93.7211 23.4113ZM93.7211 21.0893C92.0471 21.0893 91.0121 21.6563 91.0121 22.6103C91.0121 23.5733 92.0471 24.1403 93.7211 24.1403C95.4041 24.1403 96.4301 23.5733 96.4301 22.6103C96.4301 21.6563 95.4041 21.0893 93.7211 21.0893ZM96.3401 18.0203V16.0043H95.4131V20.8913H96.3401V18.7853H97.4921V18.0203H96.3401ZM99.4534 19.7753H101.658V19.0463H99.4534V17.6513H101.802V16.9043H98.5624V22.1963H99.1114C100.38 22.1963 101.172 22.1693 102.108 21.9983L102.027 21.2423C101.199 21.3863 100.497 21.4223 99.4534 21.4313V19.7753ZM104.331 16.0133V19.2263H103.422V16.1663H102.558V23.7533H103.422V19.9823H104.331V24.1313H105.213V16.0133H104.331ZM108.228 25.2383L108.876 24.9503C108.102 23.6633 107.742 22.1423 107.742 20.6303C107.742 19.1273 108.102 17.6063 108.876 16.3103L108.228 16.0313C107.391 17.3903 106.896 18.8573 106.896 20.6303C106.896 22.4213 107.391 23.8703 108.228 25.2383ZM112.687 23.5643C114.388 23.5643 115.576 22.2413 115.576 20.1083C115.576 17.9753 114.388 16.6973 112.687 16.6973C110.986 16.6973 109.807 17.9753 109.807 20.1083C109.807 22.2413 110.986 23.5643 112.687 23.5643ZM112.687 22.6553C111.589 22.6553 110.878 21.6653 110.878 20.1083C110.878 18.5513 111.589 17.6063 112.687 17.6063C113.785 17.6063 114.505 18.5513 114.505 20.1083C114.505 21.6653 113.785 22.6553 112.687 22.6553ZM116.952 23.4473H117.996V20.5943H120.444V19.7213H117.996V17.6963H120.876V16.8233H116.952V23.4473ZM122.05 23.4473H123.094V20.5943H125.542V19.7213H123.094V17.6963H125.974V16.8233H122.05V23.4473ZM127.336 25.2383C128.182 23.8703 128.677 22.4213 128.677 20.6303C128.677 18.8573 128.182 17.3903 127.336 16.0313L126.688 16.3103C127.462 17.6063 127.822 19.1273 127.822 20.6303C127.822 22.1423 127.462 23.6633 126.688 24.9503L127.336 25.2383Z" fill="#969593"/>
<path d="M59.6355 36.0598H57.7905V35.4118H56.8545V36.0598H55.0005V36.6988H59.6355V36.0598ZM56.2515 37.9678C56.2515 37.6618 56.6655 37.4908 57.3135 37.4908C57.9705 37.4908 58.3755 37.6618 58.3755 37.9678C58.3755 38.2828 57.9705 38.4538 57.3135 38.4538C56.6655 38.4538 56.2515 38.2828 56.2515 37.9678ZM59.8605 39.2548C59.2035 39.3448 58.4925 39.3988 57.7905 39.4348V39.0118C58.6995 38.9218 59.2485 38.5528 59.2485 37.9678C59.2485 37.3018 58.4925 36.9058 57.3135 36.9058C56.1345 36.9058 55.3785 37.3018 55.3785 37.9678C55.3785 38.5528 55.9365 38.9218 56.8545 39.0118V39.4708C56.1075 39.4888 55.3965 39.4888 54.7845 39.4888L54.8835 40.1458C56.2965 40.1458 58.2135 40.1278 59.9325 39.8218L59.8605 39.2548ZM56.8005 42.3418H61.2195V40.6138H55.8645V41.2438H60.3015V41.7568H55.8825V43.5478H61.5165V42.9088H56.8005V42.3418ZM61.2195 37.4998V35.4928H60.2925V40.2718H61.2195V38.2648H62.3355V37.4998H61.2195ZM68.9408 40.2808H69.8678V35.4838H68.9408V37.1128H67.2938V37.8688H68.9408V40.2808ZM67.9598 39.2278C66.7268 38.8228 66.0518 37.8058 66.0518 36.6808V35.9248H65.1158V36.7258C65.1158 37.9138 64.4048 39.0118 63.0998 39.4528L63.5858 40.1998C64.5668 39.8488 65.2508 39.1378 65.6108 38.2378C65.9618 39.0298 66.5918 39.6418 67.4648 39.9568L67.9598 39.2278ZM67.1588 42.8908C66.0068 42.8908 65.3498 42.5938 65.3498 42.0628C65.3498 41.5318 66.0068 41.2348 67.1588 41.2348C68.3108 41.2348 68.9768 41.5318 68.9768 42.0628C68.9768 42.5938 68.3108 42.8908 67.1588 42.8908ZM67.1588 40.5058C65.4668 40.5058 64.4228 41.0818 64.4228 42.0628C64.4228 43.0438 65.4668 43.6198 67.1588 43.6198C68.8598 43.6198 69.9038 43.0438 69.9038 42.0628C69.9038 41.0818 68.8598 40.5058 67.1588 40.5058ZM76.2931 36.4288H74.3491V35.5108H73.4221V36.4288H71.4601V37.1758H76.2931V36.4288ZM72.8101 39.1018C72.8101 38.5978 73.2511 38.2918 73.8901 38.2918C74.5291 38.2918 74.9611 38.5978 74.9611 39.1018C74.9611 39.5968 74.5291 39.9028 73.8901 39.9028C73.2511 39.9028 72.8101 39.5968 72.8101 39.1018ZM74.3491 40.5778C75.2491 40.4338 75.8341 39.8758 75.8341 39.1018C75.8341 38.1838 75.0421 37.5808 73.8901 37.5808C72.7291 37.5808 71.9371 38.1838 71.9371 39.1018C71.9371 39.8758 72.5221 40.4248 73.4221 40.5778V41.3698C72.6661 41.3968 71.9371 41.3968 71.3161 41.3968L71.4421 42.1618C72.8371 42.1618 74.7181 42.1438 76.4551 41.8378L76.3831 41.1538C75.7351 41.2528 75.0421 41.2978 74.3491 41.3338V40.5778ZM78.9301 38.8858H77.7691V35.4838H76.8421V43.6198H77.7691V39.6508H78.9301V38.8858ZM86.4408 39.2098C85.2348 38.8138 84.5418 37.8238 84.5418 36.7798V35.9068H83.6058V36.7078C83.6058 37.8778 82.9128 38.9848 81.6348 39.4258L82.1298 40.1638C83.0658 39.8218 83.7318 39.1198 84.0918 38.2378C84.4338 39.0028 85.0818 39.6238 85.9548 39.9388L86.4408 39.2098ZM85.4418 42.8908C84.3078 42.8908 83.6508 42.6118 83.6508 42.0898C83.6508 41.5858 84.3078 41.2978 85.4418 41.2978C86.5758 41.2978 87.2328 41.5858 87.2328 42.0898C87.2328 42.6118 86.5758 42.8908 85.4418 42.8908ZM85.4418 40.5688C83.7678 40.5688 82.7328 41.1358 82.7328 42.0898C82.7328 43.0528 83.7678 43.6198 85.4418 43.6198C87.1248 43.6198 88.1508 43.0528 88.1508 42.0898C88.1508 41.1358 87.1248 40.5688 85.4418 40.5688ZM88.0608 37.4998V35.4838H87.1338V40.3708H88.0608V38.2648H89.2128V37.4998H88.0608ZM91.1741 39.2548H93.3791V38.5258H91.1741V37.1308H93.5231V36.3838H90.2831V41.6758H90.8321C92.1011 41.6758 92.8931 41.6488 93.8291 41.4778L93.7481 40.7218C92.9201 40.8658 92.2181 40.9018 91.1741 40.9108V39.2548ZM96.0521 35.4928V38.7058H95.1431V35.6458H94.2791V43.2328H95.1431V39.4618H96.0521V43.6108H96.9341V35.4928H96.0521ZM99.9484 44.7178L100.596 44.4298C99.8224 43.1428 99.4624 41.6218 99.4624 40.1098C99.4624 38.6068 99.8224 37.0858 100.596 35.7898L99.9484 35.5108C99.1114 36.8698 98.6164 38.3368 98.6164 40.1098C98.6164 41.9008 99.1114 43.3498 99.9484 44.7178ZM104.408 43.0438C106.109 43.0438 107.297 41.7208 107.297 39.5878C107.297 37.4548 106.109 36.1768 104.408 36.1768C102.707 36.1768 101.528 37.4548 101.528 39.5878C101.528 41.7208 102.707 43.0438 104.408 43.0438ZM104.408 42.1348C103.31 42.1348 102.599 41.1448 102.599 39.5878C102.599 38.0308 103.31 37.0858 104.408 37.0858C105.506 37.0858 106.226 38.0308 106.226 39.5878C106.226 41.1448 105.506 42.1348 104.408 42.1348ZM108.673 42.9268H109.663V39.8038C109.663 39.0838 109.582 38.3188 109.528 37.6348H109.573L110.266 39.0208L112.462 42.9268H113.533V36.3028H112.543V39.3898C112.543 40.1098 112.624 40.9108 112.678 41.5948H112.633L111.94 40.1908L109.744 36.3028H108.673V42.9268ZM115.471 44.7178C116.317 43.3498 116.812 41.9008 116.812 40.1098C116.812 38.3368 116.317 36.8698 115.471 35.5108L114.823 35.7898C115.597 37.0858 115.957 38.6068 115.957 40.1098C115.957 41.6218 115.597 43.1428 114.823 44.4298L115.471 44.7178Z" fill="#464646" fill-opacity="0.56"/>
<rect x="19.2412" y="15.7148" width="19.3884" height="9.18397" rx="4.59198" fill="#C9C2C0"/>
<circle cx="24.8516" cy="20.3082" r="3.13924" fill="white"/>
<rect x="19.2412" y="35.1953" width="19.3884" height="9.18397" rx="4.59198" fill="#887D7A"/>
<circle cx="33.276" cy="39.7877" r="3.13924" fill="white"/>
</svg>
