<svg width="24" height="24" viewBox="0 0 24 24" fill="none" xmlns="http://www.w3.org/2000/svg">
<path d="M18.4579 7.6394L15.0881 4.20933C14.9461 4.06483 14.7145 4.06483 14.5725 4.20933L6.41317 12.5145L6.02837 16.0434C5.97606 16.515 6.36834 16.9143 6.8316 16.861L10.2986 16.4694L18.4579 8.16418C18.5999 8.01967 18.5999 7.7839 18.4579 7.6394ZM19.3134 1.47897L21.1366 3.3347C21.7045 3.91272 21.7045 4.85199 21.1366 5.43381L19.8141 6.77998C19.6721 6.92448 19.4405 6.92448 19.2985 6.77998L15.9287 3.34991C15.7867 3.20541 15.7867 2.96964 15.9287 2.82513L17.2512 1.47897C17.8228 0.900952 18.7456 0.900952 19.3134 1.47897ZM8.63233 8.34671L4.82912 8.34671L4.82912 20.5155L16.7842 20.5155L16.7842 11.7768C16.7842 11.6551 16.8328 11.541 16.915 11.4535L18.4093 9.93245C18.6933 9.64344 19.1752 9.84879 19.1752 10.2557L19.1752 21.1239C19.1752 22.1316 18.372 22.9492 17.382 22.9492L4.23137 22.9492C3.24134 22.9492 2.43811 22.1316 2.43811 21.1239L2.43811 7.73827C2.43811 6.73055 3.24134 5.91296 4.23137 5.91296L10.1267 5.91296C10.5265 5.91296 10.7245 6.40351 10.4443 6.69252L8.94989 8.21361C8.86396 8.29727 8.75188 8.34671 8.63233 8.34671Z" fill="#C2B7B3"/>
</svg>
