<svg width="24" height="24" viewBox="0 0 24 24" fill="none" xmlns="http://www.w3.org/2000/svg">
<path d="M20.9205 10.2581L17.5526 5.05673C17.4129 4.84101 17.2237 4.66414 17.0016 4.54181C16.7796 4.41948 16.5317 4.35547 16.2799 4.35547H7.71986C7.46805 4.35547 7.22013 4.41948 6.99812 4.54181C6.7761 4.66414 6.58686 4.84101 6.44717 5.05673L3.07924 10.2581C2.91172 10.5167 2.82233 10.8207 2.82233 11.1316L2.82227 18.067C2.82227 18.9367 3.50708 19.6418 4.35186 19.6418H19.6478C20.4925 19.6418 21.1773 18.9367 21.1773 18.067L21.1774 11.1316C21.1774 10.8207 21.088 10.5167 20.9205 10.2581ZM7.99273 6.45524H16.007L18.7263 10.6548H14.8041L13.7844 12.7546H10.2154L9.19562 10.6548H5.27344L7.99273 6.45524Z" fill="#C2B7B3"/>
</svg>
