<svg width="190" height="340" viewBox="0 0 190 340" fill="none" xmlns="http://www.w3.org/2000/svg">
    <rect width="190" height="340" fill="#f5eee8" />
    <path d="M70.5082 180.13H71.8382V185.814C71.3902 185.828 70.9422 185.842 70.5082 185.856V180.13ZM73.6162 180.13H74.7222V178.646H67.6102V180.13H68.7162V185.898C68.2122 185.898 67.7222 185.898 67.2742 185.898L67.4702 187.41C69.6682 187.41 72.5942 187.354 75.2122 186.892L75.1002 185.548C74.6242 185.618 74.1202 185.646 73.6162 185.688V180.13ZM79.4122 182.328H77.5362V177.47H75.6882V190.364H77.5362V183.854H79.4122V182.328ZM91.0311 177.456H89.1691V183.91H91.0311V177.456ZM82.2951 180.774C82.2951 179.864 83.0091 179.318 83.9611 179.318C84.9131 179.318 85.5991 179.864 85.5991 180.774C85.5991 181.698 84.9131 182.23 83.9611 182.23C83.0091 182.23 82.2951 181.698 82.2951 180.774ZM87.3911 180.774C87.3911 179.066 85.9211 177.834 83.9611 177.834C81.9871 177.834 80.5031 179.066 80.5031 180.774C80.5031 182.496 81.9871 183.728 83.9611 183.728C85.9211 183.728 87.3911 182.496 87.3911 180.774ZM84.2831 188.768V187.956H91.0311V184.442H82.4351V185.856H89.1971V186.64H82.4491V190.21H91.3531V188.768H84.2831ZM94.432 184.512C96.644 184.246 98.198 183.364 99.024 182.202C99.85 183.364 101.404 184.246 103.588 184.512L104.246 183.056C101.586 182.762 100.2 181.488 99.976 180.396H103.798V178.926H99.934V177.484H98.086V178.926H94.25V180.396H98.058C97.848 181.516 96.476 182.762 93.788 183.056L94.432 184.512ZM104.862 185.17H93.214V186.668H98.086V190.378H99.934V186.668H104.862V185.17ZM106.667 178.772V180.27H110.881C110.545 183.126 108.949 185.17 105.953 186.71L106.989 188.124C111.273 185.954 112.743 182.636 112.743 178.772H106.667ZM117.979 182.37H116.173V177.442H114.325V190.322H116.173V183.896H117.979V182.37Z" fill="#AB9D9A" />
    <path d="M47.9188 200.06V210.932H49.1668V200.06H47.9188ZM43.3948 200.864C41.7868 200.864 40.6108 202.352 40.6108 204.68C40.6108 207.032 41.7868 208.508 43.3948 208.508C45.0148 208.508 46.1908 207.032 46.1908 204.68C46.1908 202.352 45.0148 200.864 43.3948 200.864ZM43.3948 201.98C44.3428 201.98 45.0028 203 45.0028 204.68C45.0028 206.384 44.3428 207.404 43.3948 207.404C42.4588 207.404 41.7988 206.384 41.7988 204.68C41.7988 203 42.4588 201.98 43.3948 201.98ZM51.8659 201.092V208.256H56.9539V201.092H51.8659ZM55.7419 202.076V207.26H53.0779V202.076H55.7419ZM58.9579 200.06V210.932H60.2059V200.06H58.9579ZM66.325 202.172H68.737V201.152H62.665V202.172H65.077V203.204C65.077 205.064 63.961 207.08 62.281 207.86L62.989 208.844C64.261 208.232 65.233 206.948 65.713 205.436C66.217 206.84 67.189 208.016 68.449 208.568L69.133 207.596C67.441 206.876 66.325 205.004 66.325 203.204V202.172ZM69.997 200.072V210.908H71.245V200.072H69.997ZM72.9 212.144H73.86L77.196 200.408H76.236L72.9 212.144ZM79.3638 203.3C79.3638 202.352 80.0598 201.728 81.0198 201.728C81.9558 201.728 82.6518 202.352 82.6518 203.3C82.6518 204.236 81.9558 204.86 81.0198 204.86C80.0598 204.86 79.3638 204.236 79.3638 203.3ZM85.7838 202.568V204.032H83.7198C83.7918 203.804 83.8278 203.564 83.8278 203.3C83.8278 203.036 83.7918 202.796 83.7318 202.568H85.7838ZM85.7838 205.028V206.456H87.0198V200.06H85.7838V201.56H83.1678C82.6638 201.02 81.9078 200.684 81.0198 200.684C79.3998 200.684 78.1878 201.764 78.1878 203.3C78.1878 204.824 79.3998 205.904 81.0198 205.904C81.8958 205.904 82.6638 205.58 83.1678 205.028H85.7838ZM83.4078 209.936C81.8718 209.936 80.9718 209.54 80.9718 208.796C80.9718 208.076 81.8718 207.668 83.4078 207.668C84.9558 207.668 85.8438 208.076 85.8438 208.796C85.8438 209.54 84.9558 209.936 83.4078 209.936ZM83.4078 206.696C81.1518 206.696 79.7598 207.476 79.7598 208.796C79.7598 210.128 81.1518 210.908 83.4078 210.908C85.6638 210.908 87.0678 210.128 87.0678 208.796C87.0678 207.476 85.6638 206.696 83.4078 206.696ZM95.3829 205.028C93.7749 204.5 92.8509 203.18 92.8509 201.788V200.624H91.6029V201.692C91.6029 203.252 90.6789 204.728 88.9749 205.316L89.6349 206.3C90.8829 205.844 91.7709 204.908 92.2509 203.732C92.7069 204.752 93.5709 205.58 94.7349 206L95.3829 205.028ZM94.0509 209.936C92.5389 209.936 91.6629 209.564 91.6629 208.868C91.6629 208.196 92.5389 207.812 94.0509 207.812C95.5629 207.812 96.4389 208.196 96.4389 208.868C96.4389 209.564 95.5629 209.936 94.0509 209.936ZM94.0509 206.84C91.8189 206.84 90.4389 207.596 90.4389 208.868C90.4389 210.152 91.8189 210.908 94.0509 210.908C96.2949 210.908 97.6629 210.152 97.6629 208.868C97.6629 207.596 96.2949 206.84 94.0509 206.84ZM97.5429 202.748V200.06H96.3069V206.576H97.5429V203.768H99.0789V202.748H97.5429ZM110.569 209.78H105.973V208.58H110.569V209.78ZM110.569 207.62H105.973V206.396H104.749V210.776H111.793V206.396H110.569V207.62ZM105.793 204.608C104.833 204.608 104.149 203.996 104.149 203.084C104.149 202.16 104.833 201.572 105.793 201.572C106.729 201.572 107.425 202.16 107.425 203.084C107.425 203.996 106.729 204.608 105.793 204.608ZM110.557 200.072V202.568H108.553C108.313 201.356 107.221 200.552 105.793 200.552C104.161 200.552 102.961 201.596 102.961 203.084C102.961 204.584 104.161 205.628 105.793 205.628C107.233 205.628 108.337 204.8 108.553 203.576H110.557V205.88H111.793V200.072H110.557ZM119.364 208.616V206.768H122.748V205.772H116.256V204.26H122.508V200.828H115.02V201.824H121.284V203.276H115.044V206.768H118.128V208.616H113.856V209.636H123.672V208.616H119.364ZM133.607 205.184H127.331V202.028H133.523V201.02H126.095V206.18H133.607V205.184ZM124.895 208.496V209.516H134.723V208.496H124.895ZM136.462 201.212V202.22H140.254C140.002 204.716 138.574 206.624 135.922 207.98L136.606 208.928C140.146 207.14 141.49 204.356 141.49 201.212H136.462ZM145.966 204.344H144.322V200.06H143.086V210.896H144.322V205.376H145.966V204.344ZM76.3142 218.06H75.0662V223.664H76.3142V218.06ZM70.0022 219.74H71.4902V222.284C70.9982 222.308 70.4822 222.32 70.0022 222.332V219.74ZM74.1302 222.068C73.6622 222.128 73.1822 222.176 72.6902 222.212V219.74H73.6502V218.756H67.8302V219.74H68.8142V222.356C68.3702 222.368 67.9382 222.368 67.5422 222.368L67.6742 223.376C69.5582 223.364 72.0422 223.304 74.1902 222.956L74.1302 222.068ZM70.3862 227.84V226.892H76.3142V224.156H69.1382V225.116H75.0902V225.992H69.1502V228.812H76.6742V227.84H70.3862ZM81.9292 224.216C82.3492 224.312 82.8172 224.36 83.2972 224.36C83.7772 224.36 84.2452 224.312 84.6652 224.204V226.568H81.9292V224.216ZM83.2972 219.668C84.9292 219.668 86.0692 220.388 86.0692 221.528C86.0692 222.68 84.9292 223.4 83.2972 223.4C81.6532 223.4 80.5132 222.68 80.5132 221.528C80.5132 220.388 81.6532 219.668 83.2972 219.668ZM85.9012 226.568V223.748C86.7652 223.256 87.2812 222.488 87.2812 221.528C87.2812 219.8 85.6012 218.696 83.2972 218.696C80.9812 218.696 79.3132 219.8 79.3132 221.528C79.3132 222.488 79.8292 223.268 80.6932 223.748V226.568H78.4012V227.576H88.2172V226.568H85.9012ZM95.8483 219.104H93.2683V217.976H92.0323V219.104H89.4523V220.1H95.8483V219.104ZM91.2043 222.404C91.2043 221.792 91.7803 221.42 92.6443 221.42C93.5083 221.42 94.0963 221.792 94.0963 222.404C94.0963 223.028 93.5083 223.4 92.6443 223.4C91.7803 223.4 91.2043 223.028 91.2043 222.404ZM95.2723 222.404C95.2723 221.264 94.2163 220.496 92.6443 220.496C91.0843 220.496 90.0163 221.264 90.0163 222.404C90.0163 223.556 91.0843 224.324 92.6443 224.324C94.2163 224.324 95.2723 223.556 95.2723 222.404ZM96.6763 227.792H92.2003V226.796H96.6763V227.792ZM96.6763 225.836H92.2003V224.84H90.9763V228.776H97.9003V224.84H96.6763V225.836ZM99.4363 220.772H97.9003V218.072H96.6643V224.396H97.9003V221.792H99.4363V220.772ZM102.339 219.128H101.115V226.172H102.039C103.719 226.172 105.471 226.04 107.331 225.656L107.199 224.624C105.495 224.972 103.875 225.104 102.339 225.116V219.128ZM108.195 218.072V228.908H109.431V218.072H108.195ZM113.186 220.1H116.99V219.092H111.95V226.256H112.838C114.794 226.256 116.258 226.196 117.902 225.896L117.77 224.876C116.258 225.14 114.938 225.212 113.186 225.224V220.1ZM121.598 222.236H119.906V218.06H118.67V228.92H119.906V223.256H121.598V222.236Z" fill="#959595" fill-opacity="0.67" />
    <g clip-path="url(#clip0)">
        <path d="M137.263 99H77.0625C75.9221 99 74.8283 99.4544 74.0219 100.263C73.2155 101.072 72.7625 102.169 72.7625 103.312V116.25H94.2625V107.625H120.063V150.75H137.263C138.403 150.75 139.497 150.296 140.303 149.487C141.109 148.678 141.563 147.581 141.563 146.438V103.312C141.563 102.169 141.109 101.072 140.303 100.263C139.497 99.4544 138.403 99 137.263 99V99ZM86.7375 112.881C86.7375 113.203 86.6101 113.511 86.3833 113.739C86.1565 113.966 85.8489 114.094 85.5281 114.094H81.4969C81.1761 114.094 80.8685 113.966 80.6417 113.739C80.4149 113.511 80.2875 113.203 80.2875 112.881V108.838C80.2875 108.516 80.4149 108.208 80.6417 107.98C80.8685 107.753 81.1761 107.625 81.4969 107.625H85.5281C85.8489 107.625 86.1565 107.753 86.3833 107.98C86.6101 108.208 86.7375 108.516 86.7375 108.838V112.881ZM134.038 140.912C134.038 141.234 133.91 141.542 133.683 141.77C133.456 141.997 133.149 142.125 132.828 142.125H128.797C128.476 142.125 128.169 141.997 127.942 141.77C127.715 141.542 127.588 141.234 127.588 140.912V136.869C127.588 136.547 127.715 136.239 127.942 136.011C128.169 135.784 128.476 135.656 128.797 135.656H132.828C133.149 135.656 133.456 135.784 133.683 136.011C133.91 136.239 134.038 136.547 134.038 136.869V140.912ZM134.038 126.896C134.038 127.218 133.91 127.527 133.683 127.754C133.456 127.982 133.149 128.109 132.828 128.109H128.797C128.476 128.109 128.169 127.982 127.942 127.754C127.715 127.527 127.588 127.218 127.588 126.896V122.854C127.588 122.532 127.715 122.223 127.942 121.996C128.169 121.768 128.476 121.641 128.797 121.641H132.828C133.149 121.641 133.456 121.768 133.683 121.996C133.91 122.223 134.038 122.532 134.038 122.854V126.896ZM134.038 112.881C134.038 113.203 133.91 113.511 133.683 113.739C133.456 113.966 133.149 114.094 132.828 114.094H128.797C128.476 114.094 128.169 113.966 127.942 113.739C127.715 113.511 127.588 113.203 127.588 112.881V108.838C127.588 108.516 127.715 108.208 127.942 107.98C128.169 107.753 128.476 107.625 128.797 107.625H132.828C133.149 107.625 133.456 107.753 133.683 107.98C133.91 108.208 134.038 108.516 134.038 108.838V112.881ZM111.463 120.562H59.8625C58.7221 120.562 57.6283 121.017 56.8219 121.826C56.0155 122.634 55.5625 123.731 55.5625 124.875V163.688C55.5625 164.831 56.0155 165.928 56.8219 166.737C57.6283 167.546 58.7221 168 59.8625 168H111.463C112.603 168 113.697 167.546 114.503 166.737C115.309 165.928 115.763 164.831 115.763 163.688V124.875C115.763 123.731 115.309 122.634 114.503 121.826C113.697 121.017 112.603 120.562 111.463 120.562ZM68.4625 129.188C69.313 129.188 70.1443 129.44 70.8515 129.914C71.5586 130.388 72.1097 131.062 72.4352 131.85C72.7606 132.638 72.8458 133.505 72.6799 134.341C72.514 135.178 72.1044 135.946 71.5031 136.549C70.9017 137.153 70.1355 137.563 69.3014 137.73C68.4673 137.896 67.6027 137.811 66.817 137.484C66.0312 137.158 65.3597 136.605 64.8872 135.896C64.4147 135.187 64.1625 134.353 64.1625 133.5C64.1625 132.356 64.6155 131.259 65.4219 130.451C66.2283 129.642 67.3221 129.188 68.4625 129.188V129.188ZM107.163 159.375H64.1625V155.062L72.7625 146.438L77.0625 150.75L94.2625 133.5L107.163 146.438V159.375Z" fill="#D1C8C6" />
    </g>
    <defs>
        <clipPath id="clip0">
            <rect x="55.5625" y="99" width="86" height="69" fill="white" />
        </clipPath>
    </defs>
</svg>