<svg width="128" height="128" viewBox="0 0 128 128" fill="none" xmlns="http://www.w3.org/2000/svg">
    <rect width="128" height="128" fill="#f5eee8" />
    <path d="M26.1981 93.2628H28.9881V92.4428H26.1981V90.7528H29.3581V89.9028H25.1681V96.0528H25.8781C27.5181 96.0528 28.6481 96.0128 29.9381 95.7828L29.8481 94.9528C28.6681 95.1528 27.6381 95.2028 26.1981 95.2128V93.2628ZM31.2281 89.1028V92.4228H29.4981V93.2728H31.2281V98.1628H32.2681V89.1028H31.2281ZM37.3773 91.4728H39.3373V90.6428H37.3773V89.3028H36.3473V90.6428H34.3473V91.4728H36.3473V91.9928C36.3473 93.4828 35.4873 95.0128 34.0673 95.6528L34.6373 96.4428C35.6873 95.9628 36.4773 94.9828 36.8773 93.7828C37.2873 94.9128 38.0773 95.8428 39.1073 96.2928L39.6573 95.4928C38.2573 94.8828 37.3773 93.4128 37.3773 91.9928V91.4728ZM40.3673 89.1128V98.1428H41.4073V89.1128H40.3673ZM50.2226 91.5428V92.3928H51.8626V95.7328H52.8926V89.1328H51.8626V91.5428H50.2226ZM50.7826 93.6528C49.4326 93.1828 48.6626 92.0528 48.6626 90.9428V90.6328H50.5426V89.8028H45.7126V90.6328H47.6226V90.9428C47.6226 92.1628 46.8026 93.3528 45.4026 93.8428L45.9326 94.6528C47.0026 94.2828 47.7626 93.4928 48.1626 92.5128C48.5426 93.4028 49.2726 94.1128 50.2726 94.4528L50.7826 93.6528ZM48.0726 97.1428V95.1628H47.0426V97.9828H53.1226V97.1428H48.0726ZM57.5218 89.7528C56.1118 89.7528 55.0718 90.6428 55.0718 91.9228C55.0718 93.2028 56.1118 94.0928 57.5218 94.0928C58.9318 94.0928 59.9818 93.2028 59.9818 91.9228C59.9818 90.6428 58.9318 89.7528 57.5218 89.7528ZM57.5218 90.6328C58.3618 90.6328 58.9718 91.1328 58.9718 91.9228C58.9718 92.7028 58.3618 93.2128 57.5218 93.2128C56.6918 93.2128 56.0818 92.7028 56.0818 91.9228C56.0818 91.1328 56.6918 90.6328 57.5218 90.6328ZM61.0018 89.1128V98.1628H62.0418V89.1128H61.0018ZM54.7818 96.2528C56.3818 96.2528 58.5418 96.2328 60.5318 95.8528L60.4618 95.1028C58.5218 95.3928 56.2718 95.4028 54.6518 95.4028L54.7818 96.2528ZM70.7071 91.9328V92.7828H72.5071V95.8128H73.5371V89.1228H72.5071V91.9328H70.7071ZM66.6771 89.8328V90.6628H69.6571C69.6271 90.9828 69.5571 91.2928 69.4671 91.5828L66.2271 91.7128L66.3871 92.5328L69.0771 92.3328C68.5571 93.0828 67.6571 93.6928 66.2371 94.1428L66.6571 94.9628C69.6071 93.9928 70.7371 92.2628 70.7371 89.8328H66.6771ZM68.8071 97.1428V95.1628H67.7671V97.9828H73.7971V97.1428H68.8071ZM82.8964 89.1228H81.9164V95.8928H82.8964V89.1228ZM80.1764 95.6728H81.1364V89.3028H80.1764V91.6328H79.1064V92.4728H80.1764V95.6728ZM79.4164 93.4528C78.5264 93.6228 77.7664 93.6628 76.6264 93.6728V92.5428H78.7064V91.7428H76.6264V90.6828H79.0464V89.8528H75.6364V94.4928H76.2264C77.6264 94.4928 78.4864 94.4628 79.5164 94.2728L79.4164 93.4528ZM78.0164 97.1428V95.1528H76.9764V97.9828H83.1464V97.1428H78.0164ZM85.2356 94.8528C86.7456 94.5828 87.9456 93.8328 88.5356 92.7728C89.1256 93.8328 90.3256 94.5828 91.8456 94.8528L92.2356 94.0028C90.3556 93.7228 89.1156 92.5928 89.0656 91.3128H91.8856V90.4728H89.0556V89.3028H88.0256V90.4728H85.1856V91.3128H88.0156C87.9656 92.5928 86.7256 93.7228 84.8456 94.0028L85.2356 94.8528ZM84.4556 96.2028V97.0528H92.6356V96.2028H84.4556ZM94.9148 91.8528C94.9148 91.0628 95.5148 90.5628 96.3348 90.5628C97.1548 90.5628 97.7448 91.0628 97.7448 91.8528C97.7448 92.6428 97.1548 93.1328 96.3348 93.1328C95.5148 93.1328 94.9148 92.6428 94.9148 91.8528ZM96.8548 93.9728C97.9748 93.7728 98.7448 92.9628 98.7448 91.8528C98.7448 90.5728 97.7248 89.6828 96.3348 89.6828C94.9448 89.6828 93.9148 90.5728 93.9148 91.8528C93.9148 92.9628 94.7048 93.7828 95.8248 93.9828V95.4028C95.0148 95.4228 94.2348 95.4228 93.5548 95.4228L93.6948 96.2728C95.2448 96.2728 97.3148 96.2628 99.2048 95.9328L99.1148 95.1728C98.3948 95.2728 97.6248 95.3328 96.8548 95.3628V93.9728ZM102.005 92.7628H100.675V89.1228H99.6448V98.1428H100.675V93.6228H102.005V92.7628ZM45.996 112.363C44.676 112.363 43.936 112.073 43.936 111.513C43.936 110.963 44.676 110.663 45.996 110.663C47.316 110.663 48.066 110.963 48.066 111.513C48.066 112.073 47.316 112.363 45.996 112.363ZM45.996 109.873C44.066 109.873 42.886 110.473 42.886 111.513C42.886 112.563 44.066 113.163 45.996 113.163C47.936 113.163 49.106 112.563 49.106 111.513C49.106 110.473 47.936 109.873 45.996 109.873ZM46.536 108.483V107.583H49.166V106.753H43.976V105.343H49.106V104.523H42.956V107.583H45.506V108.483H41.946V109.323H50.106V108.483H46.536ZM58.5753 104.113H57.5453V108.703H58.5753V104.113ZM52.3053 106.453C52.3053 105.733 52.8853 105.263 53.6653 105.263C54.4553 105.263 55.0453 105.733 55.0453 106.453C55.0453 107.173 54.4553 107.643 53.6653 107.643C52.8853 107.643 52.3053 107.173 52.3053 106.453ZM56.0453 106.453C56.0453 105.263 55.0353 104.413 53.6653 104.413C52.3053 104.413 51.3053 105.263 51.3053 106.453C51.3053 107.643 52.3053 108.483 53.6653 108.483C55.0353 108.483 56.0453 107.643 56.0453 106.453ZM53.6853 112.233V111.433H58.5753V109.113H52.6553V109.923H57.5553V110.673H52.6753V113.043H58.8453V112.233H53.6853ZM65.6745 104.983H63.5245V104.043H62.4945V104.983H60.3445V105.813H65.6745V104.983ZM61.8045 107.733C61.8045 107.223 62.2845 106.913 63.0045 106.913C63.7245 106.913 64.2145 107.223 64.2145 107.733C64.2145 108.253 63.7245 108.563 63.0045 108.563C62.2845 108.563 61.8045 108.253 61.8045 107.733ZM65.1945 107.733C65.1945 106.783 64.3145 106.143 63.0045 106.143C61.7045 106.143 60.8145 106.783 60.8145 107.733C60.8145 108.693 61.7045 109.333 63.0045 109.333C64.3145 109.333 65.1945 108.693 65.1945 107.733ZM66.3645 112.223H62.6345V111.393H66.3645V112.223ZM66.3645 110.593H62.6345V109.763H61.6145V113.043H67.3845V109.763H66.3645V110.593ZM68.6645 106.373H67.3845V104.123H66.3545V109.393H67.3845V107.223H68.6645V106.373ZM71.0837 105.003H70.0637V110.873H70.8337C72.2337 110.873 73.6937 110.763 75.2437 110.443L75.1337 109.583C73.7137 109.873 72.3637 109.983 71.0837 109.993V105.003ZM75.9637 104.123V113.153H76.9937V104.123H75.9637ZM80.1229 105.813H83.2929V104.973H79.0929V110.943H79.8329C81.4629 110.943 82.6829 110.893 84.0529 110.643L83.9429 109.793C82.6829 110.013 81.5829 110.073 80.1229 110.083V105.813ZM87.1329 107.593H85.7229V104.113H84.6929V113.163H85.7229V108.443H87.1329V107.593Z" fill="#959595" fill-opacity="0.67" />
    <g clip-path="url(#clip0)">
        <path d="M87.2484 18.5498H50.1484C49.4456 18.5498 48.7716 18.833 48.2746 19.337C47.7776 19.841 47.4984 20.5245 47.4984 21.2373V29.2998H60.7484V23.9248H76.6484V50.7998H87.2484C87.9513 50.7998 88.6253 50.5167 89.1223 50.0127C89.6192 49.5086 89.8984 48.8251 89.8984 48.1123V21.2373C89.8984 20.5245 89.6192 19.841 89.1223 19.337C88.6253 18.833 87.9513 18.5498 87.2484 18.5498V18.5498ZM56.1109 27.2002C56.1109 27.4007 56.0324 27.5929 55.8926 27.7347C55.7529 27.8764 55.5633 27.9561 55.3656 27.9561H52.8813C52.6836 27.9561 52.494 27.8764 52.3542 27.7347C52.2145 27.5929 52.1359 27.4007 52.1359 27.2002V24.6807C52.1359 24.4802 52.2145 24.2879 52.3542 24.1462C52.494 24.0044 52.6836 23.9248 52.8813 23.9248H55.3656C55.5633 23.9248 55.7529 24.0044 55.8926 24.1462C56.0324 24.2879 56.1109 24.4802 56.1109 24.6807V27.2002ZM85.2609 44.6689C85.2609 44.8694 85.1824 45.0617 85.0426 45.2034C84.9029 45.3452 84.7133 45.4248 84.5156 45.4248H82.0313C81.8336 45.4248 81.644 45.3452 81.5042 45.2034C81.3645 45.0617 81.2859 44.8694 81.2859 44.6689V42.1494C81.2859 41.9489 81.3645 41.7567 81.5042 41.6149C81.644 41.4732 81.8336 41.3936 82.0313 41.3936H84.5156C84.7133 41.3936 84.9029 41.4732 85.0426 41.6149C85.1824 41.7567 85.2609 41.9489 85.2609 42.1494V44.6689ZM85.2609 35.9346C85.2609 36.135 85.1824 36.3273 85.0426 36.469C84.9029 36.6108 84.7133 36.6904 84.5156 36.6904H82.0313C81.8336 36.6904 81.644 36.6108 81.5042 36.469C81.3645 36.3273 81.2859 36.135 81.2859 35.9346V33.415C81.2859 33.2146 81.3645 33.0223 81.5042 32.8806C81.644 32.7388 81.8336 32.6592 82.0313 32.6592H84.5156C84.7133 32.6592 84.9029 32.7388 85.0426 32.8806C85.1824 33.0223 85.2609 33.2146 85.2609 33.415V35.9346ZM85.2609 27.2002C85.2609 27.4007 85.1824 27.5929 85.0426 27.7347C84.9029 27.8764 84.7133 27.9561 84.5156 27.9561H82.0313C81.8336 27.9561 81.644 27.8764 81.5042 27.7347C81.3645 27.5929 81.2859 27.4007 81.2859 27.2002V24.6807C81.2859 24.4802 81.3645 24.2879 81.5042 24.1462C81.644 24.0044 81.8336 23.9248 82.0313 23.9248H84.5156C84.7133 23.9248 84.9029 24.0044 85.0426 24.1462C85.1824 24.2879 85.2609 24.4802 85.2609 24.6807V27.2002ZM71.3484 31.9873H39.5484C38.8456 31.9873 38.1716 32.2705 37.6746 32.7745C37.1776 33.2785 36.8984 33.962 36.8984 34.6748V58.8623C36.8984 59.5751 37.1776 60.2586 37.6746 60.7627C38.1716 61.2667 38.8456 61.5498 39.5484 61.5498H71.3484C72.0513 61.5498 72.7253 61.2667 73.2223 60.7627C73.7192 60.2586 73.9984 59.5751 73.9984 58.8623V34.6748C73.9984 33.962 73.7192 33.2785 73.2223 32.7745C72.7253 32.2705 72.0513 31.9873 71.3484 31.9873ZM44.8484 37.3623C45.3726 37.3623 45.8849 37.5199 46.3207 37.8152C46.7565 38.1105 47.0961 38.5303 47.2967 39.0213C47.4973 39.5124 47.5498 40.0528 47.4475 40.5741C47.3453 41.0954 47.0929 41.5743 46.7223 41.9502C46.3517 42.326 45.8795 42.582 45.3654 42.6857C44.8514 42.7894 44.3186 42.7361 43.8343 42.5327C43.3501 42.3293 42.9362 41.9849 42.645 41.5429C42.3539 41.1009 42.1984 40.5813 42.1984 40.0498C42.1984 39.337 42.4776 38.6535 42.9746 38.1495C43.4716 37.6455 44.1456 37.3623 44.8484 37.3623V37.3623ZM68.6984 56.1748H42.1984V53.4873L47.4984 48.1123L50.1484 50.7998L60.7484 40.0498L68.6984 48.1123V56.1748Z" fill="#D1C8C6" />
    </g>
    <path d="M43.3774 72.0718H44.5174V76.9438C44.1334 76.9558 43.7494 76.9678 43.3774 76.9798V72.0718ZM46.0414 72.0718H46.9894V70.7998H40.8934V72.0718H41.8414V77.0158C41.4094 77.0158 40.9894 77.0158 40.6054 77.0158L40.7734 78.3118C42.6574 78.3118 45.1654 78.2638 47.4094 77.8678L47.3134 76.7158C46.9054 76.7758 46.4734 76.7998 46.0414 76.8358V72.0718ZM51.0094 73.9558H49.4014V69.7918H47.8174V80.8438H49.4014V75.2638H51.0094V73.9558ZM60.9684 69.7798H59.3724V75.3118H60.9684V69.7798ZM53.4804 72.6238C53.4804 71.8438 54.0924 71.3758 54.9084 71.3758C55.7244 71.3758 56.3124 71.8438 56.3124 72.6238C56.3124 73.4158 55.7244 73.8718 54.9084 73.8718C54.0924 73.8718 53.4804 73.4158 53.4804 72.6238ZM57.8484 72.6238C57.8484 71.1598 56.5884 70.1038 54.9084 70.1038C53.2164 70.1038 51.9444 71.1598 51.9444 72.6238C51.9444 74.0998 53.2164 75.1558 54.9084 75.1558C56.5884 75.1558 57.8484 74.0998 57.8484 72.6238ZM55.1844 79.4758V78.7798H60.9684V75.7678H53.6004V76.9798H59.3964V77.6518H53.6124V80.7118H61.2444V79.4758H55.1844ZM63.8835 75.8278C65.7795 75.5998 67.1115 74.8438 67.8195 73.8478C68.5275 74.8438 69.8595 75.5998 71.7315 75.8278L72.2955 74.5798C70.0155 74.3278 68.8275 73.2358 68.6355 72.2998H71.9115V71.0398H68.5995V69.8038H67.0155V71.0398H63.7275V72.2998H66.9915C66.8115 73.2598 65.6355 74.3278 63.3315 74.5798L63.8835 75.8278ZM72.8235 76.3918H62.8395V77.6758H67.0155V80.8558H68.5995V77.6758H72.8235V76.3918ZM74.3705 70.9078V72.1918H77.9825C77.6945 74.6398 76.3265 76.3918 73.7585 77.7118L74.6465 78.9238C78.3185 77.0638 79.5785 74.2198 79.5785 70.9078H74.3705ZM84.0665 73.9918H82.5185V69.7678H80.9345V80.8078H82.5185V75.2998H84.0665V73.9918Z" fill="#AB9D9A" />
    <defs>
        <clipPath id="clip0">
            <rect x="36.8984" y="18.5498" width="53" height="43" fill="white" />
        </clipPath>
    </defs>
</svg>