<svg width="208" height="115" viewBox="0 0 208 115" fill="none" xmlns="http://www.w3.org/2000/svg">
    <rect x="0.5" width="207" height="115" fill="#f5eee8" />
    <path d="M73.6175 72.6746H72.6905V74.0066C72.6905 75.5096 71.8985 77.0486 70.6295 77.6696L71.1965 78.4166C72.1235 77.9396 72.8075 76.9946 73.1585 75.8696C73.5095 76.9316 74.1575 77.8136 75.0305 78.2636L75.5975 77.5256C74.3735 76.9226 73.6175 75.4556 73.6175 74.0066V72.6746ZM78.3335 75.2216H77.0645V71.9996H76.1375V80.1266H77.0645V75.9866H78.3335V75.2216ZM84.8038 71.9906V80.1446H85.7398V71.9906H84.8038ZM81.4108 72.5936C80.2048 72.5936 79.3228 73.7096 79.3228 75.4556C79.3228 77.2196 80.2048 78.3266 81.4108 78.3266C82.6258 78.3266 83.5078 77.2196 83.5078 75.4556C83.5078 73.7096 82.6258 72.5936 81.4108 72.5936ZM81.4108 73.4306C82.1218 73.4306 82.6168 74.1956 82.6168 75.4556C82.6168 76.7336 82.1218 77.4986 81.4108 77.4986C80.7088 77.4986 80.2138 76.7336 80.2138 75.4556C80.2138 74.1956 80.7088 73.4306 81.4108 73.4306ZM88.7271 72.7916H87.8091V78.0746H88.5021C89.7621 78.0746 91.0761 77.9756 92.4711 77.6876L92.3721 76.9136C91.0941 77.1746 89.8791 77.2736 88.7271 77.2826V72.7916ZM93.1191 71.9996V80.1266H94.0461V71.9996H93.1191ZM98.6084 73.5746H100.417V72.8096H95.8634V73.5746H97.6724V74.3486C97.6724 75.7436 96.8354 77.2556 95.5754 77.8406L96.1064 78.5786C97.0604 78.1196 97.7894 77.1566 98.1494 76.0226C98.5274 77.0756 99.2564 77.9576 100.201 78.3716L100.714 77.6426C99.4454 77.1026 98.6084 75.6986 98.6084 74.3486V73.5746ZM101.362 71.9996V80.1266H102.298V71.9996H101.362ZM110.097 74.5286V75.2936H111.717V78.0206H112.644V71.9996H111.717V74.5286H110.097ZM106.47 72.6386V73.3856H109.152C109.125 73.6736 109.062 73.9526 108.981 74.2136L106.065 74.3306L106.209 75.0686L108.63 74.8886C108.162 75.5636 107.352 76.1126 106.074 76.5176L106.452 77.2556C109.107 76.3826 110.124 74.8256 110.124 72.6386H106.47ZM108.387 79.2176V77.4356H107.451V79.9736H112.878V79.2176H108.387ZM121.067 71.9996H120.185V78.0926H121.067V71.9996ZM118.619 77.8946H119.483V72.1616H118.619V74.2586H117.656V75.0146H118.619V77.8946ZM117.935 75.8966C117.134 76.0496 116.45 76.0856 115.424 76.0946V75.0776H117.296V74.3576H115.424V73.4036H117.602V72.6566H114.533V76.8326H115.064C116.324 76.8326 117.098 76.8056 118.025 76.6346L117.935 75.8966ZM116.675 79.2176V77.4266H115.739V79.9736H121.292V79.2176H116.675ZM123.173 77.1566C124.532 76.9136 125.612 76.2386 126.143 75.2846C126.674 76.2386 127.754 76.9136 129.122 77.1566L129.473 76.3916C127.781 76.1396 126.665 75.1226 126.62 73.9706H129.158V73.2146H126.611V72.1616H125.684V73.2146H123.128V73.9706H125.675C125.63 75.1226 124.514 76.1396 122.822 76.3916L123.173 77.1566ZM122.471 78.3716V79.1366H129.833V78.3716H122.471ZM131.884 74.4566C131.884 73.7456 132.424 73.2956 133.162 73.2956C133.9 73.2956 134.431 73.7456 134.431 74.4566C134.431 75.1676 133.9 75.6086 133.162 75.6086C132.424 75.6086 131.884 75.1676 131.884 74.4566ZM133.63 76.3646C134.638 76.1846 135.331 75.4556 135.331 74.4566C135.331 73.3046 134.413 72.5036 133.162 72.5036C131.911 72.5036 130.984 73.3046 130.984 74.4566C130.984 75.4556 131.695 76.1936 132.703 76.3736V77.6516C131.974 77.6696 131.272 77.6696 130.66 77.6696L130.786 78.4346C132.181 78.4346 134.044 78.4256 135.745 78.1286L135.664 77.4446C135.016 77.5346 134.323 77.5886 133.63 77.6156V76.3646ZM138.265 75.2756H137.068V71.9996H136.141V80.1176H137.068V76.0496H138.265V75.2756ZM86.5168 92.4156C85.3288 92.4156 84.6628 92.1546 84.6628 91.6506C84.6628 91.1556 85.3288 90.8856 86.5168 90.8856C87.7048 90.8856 88.3798 91.1556 88.3798 91.6506C88.3798 92.1546 87.7048 92.4156 86.5168 92.4156ZM86.5168 90.1746C84.7798 90.1746 83.7178 90.7146 83.7178 91.6506C83.7178 92.5956 84.7798 93.1356 86.5168 93.1356C88.2628 93.1356 89.3158 92.5956 89.3158 91.6506C89.3158 90.7146 88.2628 90.1746 86.5168 90.1746ZM87.0028 88.9236V88.1136H89.3698V87.3666H84.6988V86.0976H89.3158V85.3596H83.7808V88.1136H86.0758V88.9236H82.8718V89.6796H90.2158V88.9236H87.0028ZM97.8381 84.9906H96.9111V89.1216H97.8381V84.9906ZM92.1951 87.0966C92.1951 86.4486 92.7171 86.0256 93.4191 86.0256C94.1301 86.0256 94.6611 86.4486 94.6611 87.0966C94.6611 87.7446 94.1301 88.1676 93.4191 88.1676C92.7171 88.1676 92.1951 87.7446 92.1951 87.0966ZM95.5611 87.0966C95.5611 86.0256 94.6521 85.2606 93.4191 85.2606C92.1951 85.2606 91.2951 86.0256 91.2951 87.0966C91.2951 88.1676 92.1951 88.9236 93.4191 88.9236C94.6521 88.9236 95.5611 88.1676 95.5611 87.0966ZM93.4371 92.2986V91.5786H97.8381V89.4906H92.5101V90.2196H96.9201V90.8946H92.5281V93.0276H98.0811V92.2986H93.4371ZM104.227 85.7736H102.292V84.9276H101.365V85.7736H99.4304V86.5206H104.227V85.7736ZM100.744 88.2486C100.744 87.7896 101.176 87.5106 101.824 87.5106C102.472 87.5106 102.913 87.7896 102.913 88.2486C102.913 88.7166 102.472 88.9956 101.824 88.9956C101.176 88.9956 100.744 88.7166 100.744 88.2486ZM103.795 88.2486C103.795 87.3936 103.003 86.8176 101.824 86.8176C100.654 86.8176 99.8534 87.3936 99.8534 88.2486C99.8534 89.1126 100.654 89.6886 101.824 89.6886C103.003 89.6886 103.795 89.1126 103.795 88.2486ZM104.848 92.2896H101.491V91.5426H104.848V92.2896ZM104.848 90.8226H101.491V90.0756H100.573V93.0276H105.766V90.0756H104.848V90.8226ZM106.918 87.0246H105.766V84.9996H104.839V89.7426H105.766V87.7896H106.918V87.0246ZM109.096 85.7916H108.178V91.0746H108.871C110.131 91.0746 111.445 90.9756 112.84 90.6876L112.741 89.9136C111.463 90.1746 110.248 90.2736 109.096 90.2826V85.7916ZM113.488 84.9996V93.1266H114.415V84.9996H113.488ZM117.231 86.5206H120.084V85.7646H116.304V91.1376H116.97C118.437 91.1376 119.535 91.0926 120.768 90.8676L120.669 90.1026C119.535 90.3006 118.545 90.3546 117.231 90.3636V86.5206ZM123.54 88.1226H122.271V84.9906H121.344V93.1356H122.271V88.8876H123.54V88.1226ZM125.141 92.5506C125.528 92.5506 125.834 92.2536 125.834 91.8306C125.834 91.4076 125.528 91.0926 125.141 91.0926C124.754 91.0926 124.448 91.4076 124.448 91.8306C124.448 92.2536 124.754 92.5506 125.141 92.5506Z" fill="#959595" fill-opacity="0.67" />
    <g clip-path="url(#clip0)">
        <path d="M128.101 20.5H91.001C90.2982 20.5 89.6241 20.7831 89.1271 21.2872C88.6302 21.7912 88.351 22.4747 88.351 23.1875V31.25H101.601V25.875H117.501V52.75H128.101C128.804 52.75 129.478 52.4669 129.975 51.9628C130.472 51.4588 130.751 50.7753 130.751 50.0625V23.1875C130.751 22.4747 130.472 21.7912 129.975 21.2872C129.478 20.7831 128.804 20.5 128.101 20.5V20.5ZM96.9635 29.1504C96.9635 29.3509 96.885 29.5431 96.7452 29.6849C96.6054 29.8266 96.4158 29.9062 96.2182 29.9062H93.7338C93.5361 29.9062 93.3465 29.8266 93.2068 29.6849C93.067 29.5431 92.9885 29.3509 92.9885 29.1504V26.6309C92.9885 26.4304 93.067 26.2381 93.2068 26.0964C93.3465 25.9546 93.5361 25.875 93.7338 25.875H96.2182C96.4158 25.875 96.6054 25.9546 96.7452 26.0964C96.885 26.2381 96.9635 26.4304 96.9635 26.6309V29.1504ZM126.113 46.6191C126.113 46.8196 126.035 47.0119 125.895 47.1536C125.755 47.2954 125.566 47.375 125.368 47.375H122.884C122.686 47.375 122.497 47.2954 122.357 47.1536C122.217 47.0119 122.138 46.8196 122.138 46.6191V44.0996C122.138 43.8991 122.217 43.7069 122.357 43.5651C122.497 43.4234 122.686 43.3438 122.884 43.3438H125.368C125.566 43.3438 125.755 43.4234 125.895 43.5651C126.035 43.7069 126.113 43.8991 126.113 44.0996V46.6191ZM126.113 37.8848C126.113 38.0852 126.035 38.2775 125.895 38.4192C125.755 38.561 125.566 38.6406 125.368 38.6406H122.884C122.686 38.6406 122.497 38.561 122.357 38.4192C122.217 38.2775 122.138 38.0852 122.138 37.8848V35.3652C122.138 35.1648 122.217 34.9725 122.357 34.8308C122.497 34.689 122.686 34.6094 122.884 34.6094H125.368C125.566 34.6094 125.755 34.689 125.895 34.8308C126.035 34.9725 126.113 35.1648 126.113 35.3652V37.8848ZM126.113 29.1504C126.113 29.3509 126.035 29.5431 125.895 29.6849C125.755 29.8266 125.566 29.9062 125.368 29.9062H122.884C122.686 29.9062 122.497 29.8266 122.357 29.6849C122.217 29.5431 122.138 29.3509 122.138 29.1504V26.6309C122.138 26.4304 122.217 26.2381 122.357 26.0964C122.497 25.9546 122.686 25.875 122.884 25.875H125.368C125.566 25.875 125.755 25.9546 125.895 26.0964C126.035 26.2381 126.113 26.4304 126.113 26.6309V29.1504ZM112.201 33.9375H80.401C79.6982 33.9375 79.0241 34.2206 78.5271 34.7247C78.0302 35.2287 77.751 35.9122 77.751 36.625V60.8125C77.751 61.5253 78.0302 62.2088 78.5271 62.7128C79.0241 63.2169 79.6982 63.5 80.401 63.5H112.201C112.904 63.5 113.578 63.2169 114.075 62.7128C114.572 62.2088 114.851 61.5253 114.851 60.8125V36.625C114.851 35.9122 114.572 35.2287 114.075 34.7247C113.578 34.2206 112.904 33.9375 112.201 33.9375ZM85.701 39.3125C86.2251 39.3125 86.7374 39.4701 87.1732 39.7654C87.609 40.0607 87.9487 40.4805 88.1493 40.9715C88.3498 41.4626 88.4023 42.003 88.3001 42.5243C88.1978 43.0456 87.9454 43.5245 87.5748 43.9003C87.2042 44.2762 86.732 44.5322 86.218 44.6359C85.7039 44.7396 85.1711 44.6863 84.6869 44.4829C84.2026 44.2795 83.7888 43.9351 83.4976 43.4931C83.2064 43.0511 83.051 42.5315 83.051 42C83.051 41.2872 83.3302 40.6037 83.8271 40.0997C84.3241 39.5956 84.9982 39.3125 85.701 39.3125V39.3125ZM109.551 58.125H83.051V55.4375L88.351 50.0625L91.001 52.75L101.601 42L109.551 50.0625V58.125Z" fill="#D1C8C6" />
    </g>
    <defs>
        <clipPath id="clip0">
            <rect x="77.751" y="20.5" width="53" height="43" fill="white" />
        </clipPath>
    </defs>
</svg>