<svg width="25" height="17" viewBox="0 0 25 17" fill="none" xmlns="http://www.w3.org/2000/svg">
<g clip-path="url(#clip0)">
<rect x="0.109131" y="1.47852" width="23.8991" height="14.7421" rx="2" fill="#FFC400"/>
<path d="M7.13785 9.35691L7.37985 8.46591C7.62185 7.61891 7.86385 6.69491 8.07285 5.80391H8.11685C8.35885 6.68391 8.57885 7.61891 8.83185 8.46591L9.07385 9.35691H7.13785ZM9.99785 12.7119H11.7028L9.08485 4.57191H7.17085L4.56385 12.7119H6.21385L6.78585 10.6219H9.42585L9.99785 12.7119ZM12.6557 12.7119H14.9767C17.3747 12.7119 18.9147 11.3479 18.9147 8.60891C18.9147 5.85891 17.3747 4.57191 14.8887 4.57191H12.6557V12.7119ZM14.2837 11.4029V5.86991H14.7897C16.3077 5.86991 17.2537 6.61791 17.2537 8.60891C17.2537 10.5889 16.3077 11.4029 14.7897 11.4029H14.2837Z" fill="#403532"/>
</g>
<defs>
<clipPath id="clip0">
<rect width="24" height="16" fill="white" transform="translate(0.0380859 0.950195)"/>
</clipPath>
</defs>
</svg>
