<svg width="24" height="25" viewBox="0 0 24 25" fill="none" xmlns="http://www.w3.org/2000/svg">
<path d="M19.6972 8.47534L16.3284 5.04527C16.1865 4.90076 15.9549 4.90076 15.813 5.04527L7.65619 13.3504L7.27151 16.8794C7.21922 17.3509 7.61138 17.7502 8.07449 17.697L11.5404 17.3053L19.6972 9.00012C19.8391 8.85561 19.8391 8.61984 19.6972 8.47534ZM20.5524 2.31491L22.375 4.17064C22.9427 4.74866 22.9427 5.68793 22.375 6.26975L21.0529 7.61592C20.911 7.76042 20.6794 7.76042 20.5375 7.61592L17.1687 4.18585C17.0268 4.04135 17.0268 3.80558 17.1687 3.66107L18.4908 2.31491C19.0623 1.73689 19.9847 1.73689 20.5524 2.31491ZM9.87466 9.18265L6.07264 9.18265L6.07264 21.3514L18.024 21.3514L18.024 12.6127C18.024 12.491 18.0725 12.3769 18.1547 12.2895L19.6486 10.7684C19.9325 10.4794 20.4142 10.6847 20.4142 11.0916L20.4142 21.9598C20.4142 22.9676 19.6113 23.7852 18.6215 23.7852L5.47507 23.7852C4.48535 23.7852 3.68237 22.9676 3.68237 21.9598L3.68237 8.57421C3.68237 7.56648 4.48535 6.7489 5.47507 6.7489L11.3686 6.7489C11.7682 6.7489 11.9661 7.23945 11.686 7.52846L10.1921 9.04955C10.1062 9.13321 9.99417 9.18265 9.87466 9.18265Z" fill="#3E2723"/>
</svg>
