<svg width="25" height="25" viewBox="0 0 25 25" fill="none" xmlns="http://www.w3.org/2000/svg">
<path fill-rule="evenodd" clip-rule="evenodd" d="M5.90064 3.54688H10.1783V9.25867H8.05169L12.63 15.2617L17.2083 9.25867H15.0785V3.54688H19.5283C20.5166 3.54688 21.3567 4.26877 21.5055 5.24582L23.1287 15.9062H23.1289L23.1288 15.9068L23.1289 15.9076L23.1286 15.9077L21.9591 20.6653C21.7393 21.5594 20.9376 22.1879 20.0169 22.1879H5.39789C4.50003 22.1879 3.71221 21.5896 3.47126 20.7246L2.1293 15.9077L2.12891 15.9076L2.12905 15.9067L2.12891 15.9062H2.12913L3.92837 5.21496C4.09043 4.25202 4.92415 3.54688 5.90064 3.54688Z" fill="#938783"/>
</svg>
