<svg width="24" height="24" viewBox="0 0 24 24" fill="none" xmlns="http://www.w3.org/2000/svg">
<path d="M15.634 12.0012C15.0531 12.0012 14.5065 11.6396 14.2109 11.0611L12.0008 6.77817L9.79403 11.0611C9.49498 11.6437 8.94845 12.0053 8.36755 12.0053C8.21288 12.0053 8.0582 11.9812 7.91039 11.9289L3.20132 10.354V17.5056C3.20132 18.0962 3.54504 18.6104 4.03314 18.7511L11.4645 20.9247C11.8151 21.0251 12.1829 21.0251 12.5301 20.9247L19.9684 18.7511C20.4565 18.6064 20.8002 18.0922 20.8002 17.5056V10.354L16.0911 11.9249C15.9433 11.9771 15.7886 12.0012 15.634 12.0012ZM22.9416 7.49333L21.1714 3.36308C21.0649 3.11398 20.8346 2.96934 20.5974 3.0055L12.0008 4.28717L15.1528 10.3982C15.2834 10.6513 15.5446 10.7718 15.7886 10.6915L22.591 8.42143C22.9313 8.30491 23.0963 7.86296 22.9416 7.49333ZM2.83009 3.36308L1.05989 7.49333C0.901774 7.86296 1.0702 8.30491 1.40705 8.41741L8.20944 10.6874C8.45348 10.7678 8.71472 10.6473 8.84534 10.3941L12.0008 4.28717L3.40068 3.0055C3.16351 2.97336 2.93665 3.11398 2.83009 3.36308Z" fill="#938783"/>
</svg>
