<svg width="25" height="19" viewBox="0 0 25 19" fill="none" xmlns="http://www.w3.org/2000/svg">
<path d="M22.2142 5.8289L19.4363 3.01015C19.3192 2.8914 19.1283 2.8914 19.0112 3.01015L12.2851 9.83516L11.9679 12.7352C11.9248 13.1227 12.2481 13.4508 12.63 13.407L15.488 13.0852L22.2142 6.26016C22.3312 6.14141 22.3312 5.94765 22.2142 5.8289ZM22.9194 0.766405L24.4223 2.29141C24.8905 2.76641 24.8905 3.53828 24.4223 4.0164L23.3321 5.12265C23.2151 5.2414 23.0241 5.2414 22.9071 5.12265L20.1292 2.3039C20.0122 2.18515 20.0122 1.9914 20.1292 1.87265L21.2194 0.766405C21.6906 0.291405 22.4513 0.291405 22.9194 0.766405ZM14.1145 6.41016L10.9793 6.41016L10.9793 16.4102L20.8345 16.4102L20.8345 9.22891C20.8345 9.12891 20.8745 9.03516 20.9422 8.96328L22.1741 7.71328C22.4082 7.47578 22.8055 7.64453 22.8055 7.97891L22.8055 16.9102C22.8055 17.7383 22.1433 18.4102 21.3272 18.4102L10.4865 18.4102C9.6704 18.4102 9.00826 17.7383 9.00826 16.9102L9.00826 5.91016C9.00826 5.08203 9.6704 4.41016 10.4865 4.41016L15.3464 4.41015C15.6759 4.41015 15.8391 4.81328 15.6081 5.05078L14.3762 6.30078C14.3054 6.36953 14.213 6.41016 14.1145 6.41016Z" fill="#FAFAFA"/>
<path d="M1.29377 3.61227H3.63273V1.12979C3.63273 0.825166 3.86549 0.578125 4.1525 0.578125H4.67227C4.95928 0.578125 5.19204 0.825166 5.19204 1.12979V3.61227H7.53101C7.81802 3.61227 8.05078 3.85931 8.05078 4.16393V4.71559C8.05078 5.02021 7.81802 5.26725 7.53101 5.26725H5.19204V7.74973C5.19204 8.05435 4.95928 8.30139 4.67227 8.30139H4.1525C3.86549 8.30139 3.63273 8.05435 3.63273 7.74973V5.26725H1.29377C1.00676 5.26725 0.773996 5.02021 0.773996 4.71559V4.16393C0.773996 3.85931 1.00676 3.61227 1.29377 3.61227Z" fill="white"/>
</svg>
