<svg width="24" height="25" viewBox="0 0 24 25" fill="none" xmlns="http://www.w3.org/2000/svg">
<path d="M15.634 12.4466C15.0531 12.4466 14.5065 12.085 14.2109 11.5064L12.0008 7.22348L9.79403 11.5064C9.49498 12.089 8.94845 12.4506 8.36755 12.4506C8.21288 12.4506 8.0582 12.4265 7.91039 12.3742L3.20132 10.7993V17.9509C3.20132 18.5415 3.54504 19.0558 4.03314 19.1964L11.4645 21.37C11.8151 21.4704 12.1829 21.4704 12.5301 21.37L19.9684 19.1964C20.4565 19.0517 20.8002 18.5375 20.8002 17.9509V10.7993L16.0911 12.3702C15.9433 12.4225 15.7886 12.4466 15.634 12.4466ZM22.9416 7.93864L21.1714 3.8084C21.0649 3.55929 20.8346 3.41466 20.5974 3.45082L12.0008 4.73248L15.1528 10.8435C15.2834 11.0966 15.5446 11.2171 15.7886 11.1368L22.591 8.86674C22.9313 8.75023 23.0963 8.30828 22.9416 7.93864V7.93864ZM2.83009 3.8084L1.05989 7.93864C0.901774 8.30828 1.0702 8.75023 1.40705 8.86272L8.20944 11.1328C8.45348 11.2131 8.71472 11.0926 8.84534 10.8395L12.0008 4.73248L3.40068 3.45082C3.16351 3.41867 2.93665 3.55929 2.83009 3.8084V3.8084Z" fill="#3E2723"/>
</svg>
