<svg width="25" height="25" viewBox="0 0 25 25" fill="none" xmlns="http://www.w3.org/2000/svg">
<path d="M21.5885 6.27734C21.5885 5.72506 21.1408 5.27734 20.5885 5.27734H3.92187C3.36959 5.27734 2.92188 5.72506 2.92188 6.27734V6.61068C2.92188 7.16296 3.36959 7.61068 3.92188 7.61068H20.5885C21.1408 7.61068 21.5885 7.16296 21.5885 6.61068V6.27734ZM2.92188 18.2773C2.92188 18.8296 3.36959 19.2773 3.92188 19.2773H20.5885C21.1408 19.2773 21.5885 18.8296 21.5885 18.2773V17.944C21.5885 17.3917 21.1408 16.944 20.5885 16.944H3.92187C3.36959 16.944 2.92188 17.3917 2.92188 17.944V18.2773Z" fill="#3E2723"/>
<path d="M2.92188 12.4025C2.92188 12.9548 3.36959 13.4025 3.92188 13.4025H20.5885C21.1408 13.4025 21.5885 12.9548 21.5885 12.4025V12.0692C21.5885 11.5169 21.1408 11.0692 20.5885 11.0692H3.92187C3.36959 11.0692 2.92188 11.5169 2.92188 12.0692V12.4025Z" fill="#3E2723"/>
</svg>
