<svg width="45" height="45" viewBox="0 0 45 45" fill="none" xmlns="http://www.w3.org/2000/svg">
<path d="M37.9523 17.6348L33.6716 13.1773C33.4913 12.9895 33.1971 12.9895 33.0167 13.1773L22.652 23.9701L22.1632 28.556C22.0968 29.1688 22.5951 29.6877 23.1836 29.6185L27.5876 29.1095L37.9523 18.3167C38.1326 18.1289 38.1326 17.8225 37.9523 17.6348ZM39.0391 9.62912L41.355 12.0407C42.0763 12.7918 42.0763 14.0125 41.355 14.7685L39.675 16.5179C39.4947 16.7057 39.2004 16.7057 39.0201 16.5179L34.7394 12.0605C34.5591 11.8727 34.5591 11.5663 34.7394 11.3785L36.4194 9.62912C37.1455 8.87797 38.3177 8.87797 39.0391 9.62912ZM25.471 18.5539L20.6399 18.5539L20.6399 34.3676L35.8262 34.3675L35.8262 23.0114C35.8262 22.8533 35.8879 22.705 35.9923 22.5913L37.8906 20.6146C38.2513 20.2391 38.8635 20.5059 38.8635 21.0347L38.8635 35.1582C38.8635 36.4678 37.8431 37.5303 36.5855 37.5303L19.8805 37.5303C18.6229 37.5303 17.6026 36.4678 17.6026 35.1582L17.6026 17.7632C17.6026 16.4537 18.6229 15.3912 19.8805 15.3912L27.3693 15.3912C27.8771 15.3912 28.1286 16.0287 27.7727 16.4043L25.8744 18.381C25.7652 18.4897 25.6229 18.5539 25.471 18.5539Z" fill="#3E2723"/>
<path d="M4.26127 13.3122H8.18709V9.03616C8.18709 8.51146 8.57777 8.08594 9.0595 8.08594H9.9319C10.4136 8.08594 10.8043 8.51146 10.8043 9.03616V13.3122H14.7301C15.2119 13.3122 15.6025 13.7377 15.6025 14.2624V15.2126C15.6025 15.7373 15.2119 16.1628 14.7301 16.1628H10.8043V20.4388C10.8043 20.9635 10.4136 21.3891 9.9319 21.3891H9.0595C8.57777 21.3891 8.18709 20.9635 8.18709 20.4388V16.1628H4.26127C3.77954 16.1628 3.38886 15.7373 3.38886 15.2126V14.2624C3.38886 13.7377 3.77954 13.3122 4.26127 13.3122Z" fill="#3e2723"/>
</svg>
