<svg width="416" height="405" viewBox="0 0 416 405" fill="none" xmlns="http://www.w3.org/2000/svg">
<g clip-path="url(#clip0)">
<g clip-path="url(#clip1)">
<path d="M230.361 265.636C228.475 260.445 231.156 254.708 236.347 252.823L352.716 210.565C357.907 208.68 363.644 211.36 365.529 216.552L407.787 332.921C409.672 338.112 406.992 343.849 401.801 345.734L285.431 387.992C280.24 389.877 274.503 387.197 272.618 382.005L230.361 265.636Z" fill="#F2F2F2"/>
<rect x="0.371094" y="216.219" width="286.427" height="286.427" rx="10" transform="rotate(-48.344 0.371094 216.219)" fill="#F2F2F2"/>
<path d="M169 232.845L272.583 280C282.8 276.771 290.797 268.71 294 258.412L247.219 154L169 232.845Z" fill="#FFC05C"/>
<path d="M171 234.027L272.597 280C282.807 276.774 290.799 268.72 294 258.43L248.13 155L171 234.027Z" fill="#FFC05C"/>
<path d="M219.8 204.827C241.448 183.121 253.72 160.234 247.212 153.708C240.703 147.182 217.879 159.488 196.231 181.194C174.584 202.9 162.311 225.786 168.82 232.312C175.328 238.838 198.153 226.533 219.8 204.827Z" fill="#C6760C"/>
<path d="M260.929 185C257.778 196.395 249.497 209.262 237.326 221.552C233.645 225.268 229.842 228.624 226.016 231.59C216.678 238.821 207.208 243.706 199 245.734L219.344 255C228.987 250.843 239.579 243.519 249.345 233.668C258.734 224.2 265.805 214.667 270 205.249L260.929 185Z" fill="#CA5EFC"/>
<path d="M255.068 271C261.734 268.722 268.648 264.543 274.765 258.686C280.51 253.191 284.537 248.491 287 242.475L278.8 224C277.477 232.192 272.419 240.71 264.204 248.577C255.412 256.994 244.982 261.947 236 262.757L255.068 271Z" fill="#CA5EFC"/>
<path d="M199.041 293.98L184.891 290.841L181.76 305.029L195.91 308.168L199.041 293.98Z" fill="#CA5EFC"/>
<path d="M231.183 275.765L217.033 272.626L213.903 286.814L228.053 289.953L231.183 275.765Z" fill="#CA5EFC"/>
<path d="M213.393 313.018L211.945 303.472L202.425 304.923L203.872 314.469L213.393 313.018Z" fill="#CA5EFC"/>
<path d="M284.255 204.849L291.391 204.112L290.656 196.957L283.52 197.694L284.255 204.849Z" fill="#D38AF9"/>
<path d="M99.0957 182.357L103.484 192.81L113.909 188.409L109.52 177.956L99.0957 182.357Z" fill="#D38AF9"/>
<path d="M215.133 134.418L219.521 144.87L229.946 140.47L225.557 130.017L215.133 134.418Z" fill="#D38AF9"/>
<path d="M137.42 217.201L141.809 227.653L152.233 223.253L147.844 212.8L137.42 217.201Z" fill="#9C03FF"/>
<path d="M163.685 160.22L170.82 159.483L170.086 152.329L162.95 153.065L163.685 160.22Z" fill="#D38AF9"/>
<path d="M160.335 123.553L164.504 125.54L166.485 121.36L162.317 119.373L160.335 123.553Z" fill="#D38AF9"/>
<path d="M272.57 107L276.793 112.101C278.525 114.198 278.377 117.333 276.455 119.24L274.977 120.709C272.978 122.689 272.908 125.978 274.815 128.053L276.054 129.398C277.961 131.473 277.891 134.761 275.892 136.742L273.738 138.868C271.739 140.848 271.669 144.137 273.576 146.212L276.033 148.887C277.94 150.962 277.87 154.251 275.871 156.231L274.146 157.941C272.147 159.921 272.077 163.21 273.984 165.285L275.223 166.629C277.131 168.705 277.06 171.993 275.061 173.974L271 178" stroke="#AD39EA" stroke-width="2" stroke-miterlimit="10" stroke-linecap="round"/>
<path d="M150 139.532L154.147 137.382C155.848 136.497 157.896 137.2 158.809 138.979L159.509 140.347C160.452 142.197 162.617 142.869 164.341 141.857L165.453 141.201C167.177 140.189 169.335 140.861 170.285 142.711L171.302 144.695C172.244 146.545 174.41 147.217 176.133 146.205L178.351 144.901C180.074 143.889 182.232 144.561 183.182 146.411L184 148" stroke="#AD39EA" stroke-width="2" stroke-miterlimit="10" stroke-linecap="round"/>
<path d="M208.711 88H226C226 88 194.304 142.291 217.356 185C217.356 185 184.939 148.806 208.711 88Z" fill="#CA5EFC"/>
<path d="M127 258.799L129.748 265C129.748 265 144.653 245.287 164 246.991C164 246.991 145.552 240.926 127 258.799Z" fill="#AD39EA"/>
<path d="M233.281 226C230.93 228.15 228.549 230.182 226.16 232.037C216.658 239.413 206.345 244.398 198 246.466L219.26 256C228.128 252.164 237.896 245.612 247 236.991L233.281 226Z" fill="#9838D6"/>
<path d="M272 261.437L260.464 252C252.505 258.773 242.936 262.866 236 263.458L249.857 269.824L254.602 272C260.385 269.95 266.53 266.308 272 261.437Z" fill="#9838D6"/>
<path d="M234 189C207.129 208.431 192.605 199.068 186.577 191.807C171.289 209.669 162.974 226.379 168.944 231.892C176.794 239.139 197.056 227.056 218.749 205.552C224.624 199.73 226.738 197.636 234 189Z" fill="#B26406"/>
<path d="M216.814 207.902C218.76 205.89 205.311 187.467 181.772 193.554C137.806 204.917 150.359 172 150.359 172L139.097 180.173C139.097 180.173 137.048 202.519 151.817 202.752C165.019 202.962 208.001 180.928 209.021 215C209.021 215 211.573 212.777 212.965 211.455C214.605 209.878 215.67 209.079 216.814 207.902Z" fill="#9C03FF"/>
<path d="M258 178L291 253" stroke="#FFC05C" stroke-width="3" stroke-miterlimit="10"/>
<rect x="347.826" y="7.7666" width="62.8781" height="62.8781" rx="10" transform="rotate(21.5972 347.826 7.7666)" fill="#F2F2F2"/>
</g>
</g>
<defs>
<clipPath id="clip0">
<rect width="416" height="405" fill="white"/>
</clipPath>
<clipPath id="clip1">
<rect width="416" height="485" fill="white" transform="translate(1 -37)"/>
</clipPath>
</defs>
</svg>
