<svg width="416" height="405" viewBox="0 0 416 405" fill="none" xmlns="http://www.w3.org/2000/svg">
<g clip-path="url(#clip0)">
<ellipse cx="202.348" cy="365.831" rx="97.3067" ry="32.916" fill="#EFEFEF"/>
<rect x="143.068" y="146.264" width="119.216" height="222.983" rx="10" fill="#3E2723"/>
<path d="M148.639 157.857C148.639 154.543 151.325 151.857 154.639 151.857H250.056C253.37 151.857 256.056 154.543 256.056 157.857V325.986H148.639V157.857Z" fill="white"/>
<rect x="154.617" y="160.572" width="95.4594" height="156.699" fill="#C4C4C4"/>
<mask id="path-5-inside-1" fill="white">
<path fill-rule="evenodd" clip-rule="evenodd" d="M79.8047 10C74.2818 10 69.8047 14.4772 69.8047 20V110.932C69.8047 116.454 74.2818 120.932 79.8047 120.932H193.073L201.582 135.67L210.091 120.932H337.164C342.687 120.932 347.164 116.454 347.164 110.932V20C347.164 14.4772 342.687 10 337.164 10H79.8047Z"/>
</mask>
<path fill-rule="evenodd" clip-rule="evenodd" d="M79.8047 10C74.2818 10 69.8047 14.4772 69.8047 20V110.932C69.8047 116.454 74.2818 120.932 79.8047 120.932H193.073L201.582 135.67L210.091 120.932H337.164C342.687 120.932 347.164 116.454 347.164 110.932V20C347.164 14.4772 342.687 10 337.164 10H79.8047Z" fill="white"/>
<path d="M193.073 120.932L194.805 119.932L194.228 118.932H193.073V120.932ZM201.582 135.67L199.85 136.67L201.582 139.67L203.314 136.67L201.582 135.67ZM210.091 120.932V118.932H208.937L208.359 119.932L210.091 120.932ZM71.8047 20C71.8047 15.5817 75.3864 12 79.8047 12V8C73.1773 8 67.8047 13.3726 67.8047 20H71.8047ZM71.8047 110.932V20H67.8047V110.932H71.8047ZM79.8047 118.932C75.3864 118.932 71.8047 115.35 71.8047 110.932H67.8047C67.8047 117.559 73.1773 122.932 79.8047 122.932V118.932ZM193.073 118.932H79.8047V122.932H193.073V118.932ZM203.314 134.67L194.805 119.932L191.341 121.932L199.85 136.67L203.314 134.67ZM208.359 119.932L199.85 134.67L203.314 136.67L211.823 121.932L208.359 119.932ZM337.164 118.932H210.091V122.932H337.164V118.932ZM345.164 110.932C345.164 115.35 341.582 118.932 337.164 118.932V122.932C343.791 122.932 349.164 117.559 349.164 110.932H345.164ZM345.164 20V110.932H349.164V20H345.164ZM337.164 12C341.582 12 345.164 15.5817 345.164 20H349.164C349.164 13.3726 343.791 8 337.164 8V12ZM79.8047 12H337.164V8H79.8047V12Z" fill="#D1C8C6" mask="url(#path-5-inside-1)"/>
<rect x="134.855" y="12.1006" width="107.759" height="106.784" fill="#F5EEE8"/>
<path d="M134.625 51.1641L134.625 114.274" stroke="#D1C8C6"/>
<path d="M241.744 51.1641L241.744 116.538" stroke="#D1C8C6"/>
<path d="M134.625 16.6582L134.625 41.2959" stroke="#D1C8C6"/>
<path d="M241.744 16.6582L241.744 41.2959" stroke="#D1C8C6"/>
<path d="M345.746 46.2305L70.203 46.2305" stroke="#D1C8C6" stroke-width="2"/>
<path d="M162.124 34.4766H168.004V33.1466H165.988V24.4526H164.77C164.182 24.8166 163.496 25.0686 162.53 25.2366V26.2586H164.378V33.1466H162.124V34.4766ZM170.262 34.4766H171.886V30.0386H175.694V28.6806H171.886V25.5306H176.366V24.1586H170.262V34.4766ZM178.192 34.4766H179.816V30.3186H181.482L183.82 34.4766H185.654L183.134 30.1086C184.436 29.7026 185.29 28.7506 185.29 27.1546C185.29 24.9286 183.694 24.1586 181.566 24.1586H178.192V34.4766ZM179.816 29.0166V25.4746H181.37C182.868 25.4746 183.68 25.9086 183.68 27.1546C183.68 28.4006 182.868 29.0166 181.37 29.0166H179.816ZM189.271 28.8766C189.607 27.7566 189.929 26.6226 190.223 25.4466H190.293C190.601 26.6086 190.909 27.7566 191.259 28.8766L191.665 30.2626H188.851L189.271 28.8766ZM185.939 34.4766H187.591L188.473 31.5366H192.057L192.925 34.4766H194.647L191.231 24.1586H189.355L185.939 34.4766ZM196.006 34.4766H197.462V29.3806C197.462 28.4566 197.336 27.1266 197.266 26.1886H197.322L198.134 28.5686L199.94 33.4826H200.948L202.74 28.5686L203.566 26.1886H203.622C203.538 27.1266 203.412 28.4566 203.412 29.3806V34.4766H204.924V24.1586H203.048L201.186 29.3806C200.948 30.0666 200.752 30.7666 200.514 31.4526H200.444C200.206 30.7666 199.996 30.0666 199.758 29.3806L197.868 24.1586H196.006V34.4766ZM207.628 34.4766H213.872V33.1046H209.252V29.7726H213.032V28.4006H209.252V25.5306H213.718V24.1586H207.628V34.4766Z" fill="#938783"/>
<path d="M161.911 57.9953V70.0073H163.627V57.9953H161.911ZM157.192 58.8403C155.385 58.8403 154.046 60.4783 154.046 63.1043C154.046 65.7433 155.385 67.3943 157.192 67.3943C158.999 67.3943 160.338 65.7433 160.338 63.1043C160.338 60.4783 158.999 58.8403 157.192 58.8403ZM157.192 60.3873C158.076 60.3873 158.687 61.3363 158.687 63.1043C158.687 64.8853 158.076 65.8343 157.192 65.8343C156.308 65.8343 155.697 64.8853 155.697 63.1043C155.697 61.3363 156.308 60.3873 157.192 60.3873ZM166.252 59.0873V67.1343H172.011V59.0873H166.252ZM170.321 60.4393V65.7823H167.942V60.4393H170.321ZM173.87 58.0083V70.0073H175.586V58.0083H173.87ZM182.254 60.5693H184.724V59.1523H178.016V60.5693H180.512V61.2323C180.512 63.2733 179.537 65.4703 177.535 66.3673L178.51 67.7323C179.914 67.0953 180.876 65.7823 181.409 64.2223C181.942 65.6653 182.891 66.8353 184.282 67.4333L185.218 66.0813C183.216 65.2493 182.254 63.1823 182.254 61.2323V60.5693ZM185.829 58.0083V69.9813H187.545V58.0083H185.829ZM189.208 71.2293H190.482L193.706 58.3853H192.445L189.208 71.2293ZM199.351 61.5833C199.351 60.6473 199.988 60.1013 200.872 60.1013C201.756 60.1013 202.406 60.6473 202.406 61.5833C202.406 62.5063 201.756 63.0653 200.872 63.0653C199.988 63.0653 199.351 62.5063 199.351 61.5833ZM205.864 60.9333V62.2333H203.953C204.005 62.0123 204.031 61.8043 204.031 61.5833C204.031 61.3493 204.005 61.1413 203.966 60.9333H205.864ZM205.864 63.5983V65.0283H207.58V58.0083H205.864V59.5683H203.225C202.653 58.9963 201.834 58.6453 200.872 58.6453C199.104 58.6453 197.726 59.8803 197.726 61.5833C197.726 63.2733 199.104 64.5083 200.872 64.5083C201.808 64.5083 202.627 64.1703 203.199 63.5983H205.864ZM203.524 68.6683C201.951 68.6683 201.119 68.3303 201.119 67.6283C201.119 66.9263 201.951 66.5883 203.524 66.5883C205.097 66.5883 205.942 66.9263 205.942 67.6283C205.942 68.3303 205.097 68.6683 203.524 68.6683ZM203.524 65.2623C201.002 65.2623 199.429 66.1333 199.429 67.6283C199.429 69.1103 201.002 69.9813 203.524 69.9813C206.059 69.9813 207.632 69.1103 207.632 67.6283C207.632 66.1333 206.059 65.2623 203.524 65.2623ZM216.588 63.3123C214.703 62.7273 213.897 61.3233 213.897 59.8803V58.6583H212.155V59.7373C212.155 61.3623 211.349 62.9613 209.347 63.6243L210.244 64.9763C211.609 64.4953 212.532 63.5723 213.052 62.4023C213.559 63.4163 214.43 64.2223 215.691 64.6383L216.588 63.3123ZM215.041 68.6553C213.507 68.6553 212.688 68.3433 212.688 67.6673C212.688 67.0043 213.507 66.6923 215.041 66.6923C216.562 66.6923 217.381 67.0043 217.381 67.6673C217.381 68.3433 216.562 68.6553 215.041 68.6553ZM215.041 65.3663C212.545 65.3663 210.985 66.2243 210.985 67.6673C210.985 69.1233 212.545 69.9813 215.041 69.9813C217.524 69.9813 219.084 69.1233 219.084 67.6673C219.084 66.2243 217.524 65.3663 215.041 65.3663ZM218.954 60.7903V58.0213H217.238V65.0933H218.954V62.2073H220.54V60.7903H218.954Z" fill="#938783"/>
<path d="M176.185 92.7811V94.1721H180.098C179.786 96.8241 178.304 98.7221 175.522 100.152L176.484 101.465C180.462 99.4501 181.827 96.3691 181.827 92.7811H176.185ZM186.689 96.1221H185.012V91.5461H183.296V103.506H185.012V97.5391H186.689V96.1221ZM197.231 94.5361H190.679V91.7671H188.963V95.9011H197.231V94.5361ZM192.98 102.193C191.381 102.193 190.562 101.907 190.562 101.283C190.562 100.659 191.381 100.373 192.98 100.373C194.579 100.373 195.398 100.659 195.398 101.283C195.398 101.907 194.579 102.193 192.98 102.193ZM192.98 99.0601C190.393 99.0601 188.833 99.8791 188.833 101.283C188.833 102.687 190.393 103.506 192.98 103.506C195.567 103.506 197.14 102.687 197.14 101.283C197.14 99.8791 195.567 99.0601 192.98 99.0601ZM187.611 96.9151V98.2801H198.44V96.9151H187.611Z" fill="#938783"/>
<path d="M282.839 94.4841H278.172V93.7821H282.839V94.4841ZM284.542 91.7411H282.839V92.5341H278.172V91.7411H276.469V95.7451H284.542V91.7411ZM285.92 97.7341V96.3821H275.091V97.7341H279.628V98.4751H276.326V99.7361H282.904V100.334H276.339V103.441H284.906V102.167H278.042V101.517H284.594V98.4751H281.344V97.7341H285.92ZM287.596 92.7811V94.1721H291.509C291.197 96.8241 289.715 98.7221 286.933 100.152L287.895 101.465C291.873 99.4501 293.238 96.3691 293.238 92.7811H287.596ZM298.1 96.1221H296.423V91.5461H294.707V103.506H296.423V97.5391H298.1V96.1221ZM308.642 94.5361H302.09V91.7671H300.374V95.9011H308.642V94.5361ZM304.391 102.193C302.792 102.193 301.973 101.907 301.973 101.283C301.973 100.659 302.792 100.373 304.391 100.373C305.99 100.373 306.809 100.659 306.809 101.283C306.809 101.907 305.99 102.193 304.391 102.193ZM304.391 99.0601C301.804 99.0601 300.244 99.8791 300.244 101.283C300.244 102.687 301.804 103.506 304.391 103.506C306.978 103.506 308.551 102.687 308.551 101.283C308.551 99.8791 306.978 99.0601 304.391 99.0601ZM299.022 96.9151V98.2801H309.851V96.9151H299.022Z" fill="#938783"/>
<path d="M269.932 28.8356C270.946 28.8356 271.518 29.4726 271.518 30.6166C271.518 31.7996 270.855 32.5016 270.023 32.5016C269.009 32.5016 268.32 31.6956 268.164 29.9666C268.736 29.1346 269.399 28.8356 269.932 28.8356ZM270.036 33.6456C271.596 33.6456 272.896 32.4496 272.896 30.6166C272.896 28.6926 271.804 27.7436 270.205 27.7436C269.516 27.7436 268.684 28.1726 268.125 28.8616C268.19 26.1316 269.204 25.2216 270.413 25.2216C270.985 25.2216 271.57 25.5076 271.921 25.9236L272.74 25.0136C272.194 24.4416 271.414 23.9866 270.348 23.9866C268.45 23.9866 266.734 25.4686 266.734 29.1346C266.734 32.2026 268.216 33.6456 270.036 33.6456ZM277.653 33.4766H279.161V29.3556H282.697V28.0946H279.161V25.1696H283.321V23.8956H277.653V33.4766ZM285.016 33.4766H286.524V29.6156H288.071L290.242 33.4766H291.945L289.605 29.4206C290.814 29.0436 291.607 28.1596 291.607 26.6776C291.607 24.6106 290.125 23.8956 288.149 23.8956H285.016V33.4766ZM286.524 28.4066V25.1176H287.967C289.358 25.1176 290.112 25.5206 290.112 26.6776C290.112 27.8346 289.358 28.4066 287.967 28.4066H286.524ZM295.304 28.2766C295.616 27.2366 295.915 26.1836 296.188 25.0916H296.253C296.539 26.1706 296.825 27.2366 297.15 28.2766L297.527 29.5636H294.914L295.304 28.2766ZM292.21 33.4766H293.744L294.563 30.7466H297.891L298.697 33.4766H300.296L297.124 23.8956H295.382L292.21 33.4766ZM301.558 33.4766H302.91V28.7446C302.91 27.8866 302.793 26.6516 302.728 25.7806H302.78L303.534 27.9906L305.211 32.5536H306.147L307.811 27.9906L308.578 25.7806H308.63C308.552 26.6516 308.435 27.8866 308.435 28.7446V33.4766H309.839V23.8956H308.097L306.368 28.7446C306.147 29.3816 305.965 30.0316 305.744 30.6686H305.679C305.458 30.0316 305.263 29.3816 305.042 28.7446L303.287 23.8956H301.558V33.4766ZM312.349 33.4766H318.147V32.2026H313.857V29.1086H317.367V27.8346H313.857V25.1696H318.004V23.8956H312.349V33.4766Z" fill="#938783"/>
<path d="M95.1652 67.7306H93.1372V64.8446H95.1652V67.7306ZM95.1652 63.7786H93.1372V61.0226H91.8762V68.8226H96.4132V61.0226H95.1652V63.7786ZM100.235 59.9306V64.5196H98.8962V60.1646H97.6352V71.1366H98.8962V65.6116H100.235V71.6826H101.509V59.9436L100.235 59.9306ZM105.395 61.2306H104.069V68.9006H105.005C106.812 68.9006 108.528 68.7836 110.4 68.4196L110.244 67.3146C108.593 67.6396 107.02 67.7696 105.395 67.7826V61.2306ZM111.856 59.9436V63.7136H108.45V64.8056H111.856V71.7086H113.195V59.9436H111.856Z" fill="#938783"/>
<path d="M93.3448 96.0756H96.9718V95.0096H93.3448V92.8126H97.4528V91.7076H92.0058V99.7026H92.9288C95.0608 99.7026 96.5298 99.6506 98.2068 99.3516L98.0898 98.2726C96.5558 98.5326 95.2168 98.5976 93.3448 98.6106V96.0756ZM99.8838 90.6676V94.9836H97.6348V96.0886H99.8838V102.446H101.236V90.6676H99.8838ZM107.878 93.7486H110.426V92.6696H107.878V90.9276H106.539V92.6696H103.939V93.7486H106.539V94.4246C106.539 96.3616 105.421 98.3506 103.575 99.1826L104.316 100.21C105.681 99.5856 106.708 98.3116 107.228 96.7516C107.761 98.2206 108.788 99.4296 110.127 100.015L110.842 98.9746C109.022 98.1816 107.878 96.2706 107.878 94.4246V93.7486ZM111.765 90.6806V102.42H113.117V90.6806H111.765Z" fill="#938783"/>
<path d="M283.294 57.9953V70.0073H285.01V57.9953H283.294ZM278.575 58.8403C276.768 58.8403 275.429 60.4783 275.429 63.1043C275.429 65.7433 276.768 67.3943 278.575 67.3943C280.382 67.3943 281.721 65.7433 281.721 63.1043C281.721 60.4783 280.382 58.8403 278.575 58.8403ZM278.575 60.3873C279.459 60.3873 280.07 61.3363 280.07 63.1043C280.07 64.8853 279.459 65.8343 278.575 65.8343C277.691 65.8343 277.08 64.8853 277.08 63.1043C277.08 61.3363 277.691 60.3873 278.575 60.3873ZM287.635 59.0873V67.1343H293.394V59.0873H287.635ZM291.704 60.4393V65.7823H289.325V60.4393H291.704ZM295.253 58.0083V70.0073H296.969V58.0083H295.253ZM303.637 60.5693H306.107V59.1523H299.399V60.5693H301.895V61.2323C301.895 63.2733 300.92 65.4703 298.918 66.3673L299.893 67.7323C301.297 67.0953 302.259 65.7823 302.792 64.2223C303.325 65.6653 304.274 66.8353 305.665 67.4333L306.601 66.0813C304.599 65.2493 303.637 63.1823 303.637 61.2323V60.5693ZM307.212 58.0083V69.9813H308.928V58.0083H307.212Z" fill="#938783"/>
<path d="M201.07 131.84L193.656 118.908H208.604L201.07 131.84Z" fill="#F5EEE8"/>
</g>
<defs>
<clipPath id="clip0">
<rect width="416" height="405" fill="white"/>
</clipPath>
</defs>
</svg>
