<svg width="416" height="405" viewBox="0 0 416 405" fill="none" xmlns="http://www.w3.org/2000/svg">
<g clip-path="url(#clip0)">
<g clip-path="url(#clip1)">
<path fill-rule="evenodd" clip-rule="evenodd" d="M73.9922 -1.28711C72.3353 -1.28711 70.9922 0.0560338 70.9922 1.71289V64.5688C70.9922 66.2257 72.3353 67.5688 73.9922 67.5688H293.998L289.11 80.639L308.257 67.5688H338.185C339.842 67.5688 341.185 66.2257 341.185 64.5688V1.71289C341.185 0.0560365 339.842 -1.28711 338.185 -1.28711H73.9922Z" fill="#BBDEFB" fill-opacity="0.5"/>
<path d="M131.625 20.5149H136.063V19.3389H130.183V27.6969H131.219C133.501 27.6969 135.209 27.6269 137.127 27.2769L136.973 26.0869C135.209 26.3949 133.669 26.4789 131.625 26.4929V20.5149ZM141.439 23.0069H139.465V18.1349H138.023V30.8049H139.465V24.1969H141.439V23.0069ZM151.14 20.7669H144V24.0849H152.82V22.9789H145.414V21.8029H152.568V18.5129H143.972V19.6189H151.14V20.7669ZM145.456 27.1089H144.014V30.5529H152.848V29.3769H145.456V27.1089ZM142.53 25.0789V26.2409H154.01V25.0789H142.53ZM163.006 19.1989H161.564V21.2709C161.564 23.6089 160.332 26.0029 158.358 26.9689L159.24 28.1309C160.682 27.3889 161.746 25.9189 162.292 24.1689C162.838 25.8209 163.846 27.1929 165.204 27.8929L166.086 26.7449C164.182 25.8069 163.006 23.5249 163.006 21.2709V19.1989ZM170.342 23.1609H168.368V18.1489H166.926V30.7909H168.368V24.3509H170.342V23.1609ZM178.811 23.5389C177.075 23.8609 175.549 23.9309 173.379 23.9449V22.4469H177.677V18.8069H171.937V19.9829H176.249V21.3409H171.965V25.1209H172.987C175.409 25.1209 177.061 25.0509 178.965 24.7149L178.811 23.5389ZM174.667 27.4029H179.917V29.4889H174.667V27.4029ZM173.253 30.6369H181.331V26.2689H173.253V30.6369ZM183.123 21.2849H181.331V18.1629H179.889V25.6809H181.331V22.4749H183.123V21.2849ZM194.434 21.2289H187.238V19.6469H194.308V18.4849H185.81V22.3909H194.434V21.2289ZM187.14 28.4809H194.336V25.3449H185.684V26.4509H192.922V27.4309H185.712V30.6649H194.7V29.5449H187.14V28.4809ZM184.354 23.2589V24.4209H195.792V23.2589H184.354ZM201.292 19.0309C199.318 19.0309 197.862 20.2769 197.862 22.0689C197.862 23.8609 199.318 25.1069 201.292 25.1069C203.266 25.1069 204.736 23.8609 204.736 22.0689C204.736 20.2769 203.266 19.0309 201.292 19.0309ZM201.292 20.2629C202.468 20.2629 203.322 20.9629 203.322 22.0689C203.322 23.1609 202.468 23.8749 201.292 23.8749C200.13 23.8749 199.276 23.1609 199.276 22.0689C199.276 20.9629 200.13 20.2629 201.292 20.2629ZM206.164 18.1349V30.8049H207.62V18.1349H206.164ZM197.456 28.1309C199.696 28.1309 202.72 28.1029 205.506 27.5709L205.408 26.5209C202.692 26.9269 199.542 26.9409 197.274 26.9409L197.456 28.1309ZM217.204 26.5349H215.02V23.4269H217.204V26.5349ZM217.204 22.2789H215.02V19.3109H213.662V27.7109H218.548V19.3109H217.204V22.2789ZM222.664 18.1349V23.0769H221.222V18.3869H219.864V30.2029H221.222V24.2529H222.664V30.7909H224.036V18.1489L222.664 18.1349ZM228.221 19.5349H226.793V27.7949H227.801C229.747 27.7949 231.595 27.6689 233.611 27.2769L233.443 26.0869C231.665 26.4369 229.971 26.5769 228.221 26.5909V19.5349ZM235.179 18.1489V22.2089H231.511V23.3849H235.179V30.8189H236.621V18.1489H235.179ZM247.582 20.3049H240.456V23.1469H249.234V22.1389H241.87V21.2429H249.01V18.4569H240.428V19.4509H247.582V20.3049ZM241.772 28.6909H249.052V25.8629H240.316V26.8569H247.624V27.7529H240.344V30.6509H249.43V29.6569H241.772V28.6909ZM238.986 23.9449V25.0089H250.452V23.9449H238.986ZM259.993 23.6649H256.899V21.7749H259.993V23.6649ZM261.421 18.8489H259.993V20.6409H256.899V18.8489H255.457V24.8129H261.421V18.8489ZM258.285 27.3189H264.977V26.1709H256.843V30.6229H265.215V29.4749H258.285V27.3189ZM264.893 21.1169V18.1489H263.451V25.5409H264.893V22.3069H266.685V21.1169H264.893ZM271.262 26.7029C270.156 26.7029 269.4 25.5129 269.4 23.5389C269.4 21.5649 270.156 20.3749 271.262 20.3749C272.354 20.3749 273.124 21.5649 273.124 23.5389C273.124 25.5129 272.354 26.7029 271.262 26.7029ZM271.262 19.0729C269.372 19.0729 268.014 20.8089 268.014 23.5389C268.014 26.2689 269.372 27.9909 271.262 27.9909C273.152 27.9909 274.51 26.2689 274.51 23.5389C274.51 20.8089 273.152 19.0729 271.262 19.0729ZM279.662 23.0909H277.688V18.1489H276.246V30.8049H277.688V24.2809H279.662V23.0909ZM143.528 43.0349C143.836 41.5789 143.836 40.4449 143.836 39.6329V38.8769H137.494V40.0529H142.422C142.408 40.7949 142.366 41.7049 142.128 42.9089L143.528 43.0349ZM144.592 43.7069C143.346 43.8749 141.988 43.9589 140.672 44.0149V41.6629H139.244V44.0569C138.362 44.0709 137.494 44.0709 136.724 44.0709L136.878 45.2469C139.132 45.2469 142.058 45.1769 144.69 44.7429L144.592 43.7069ZM142.632 49.6429C140.882 49.6429 139.846 49.2229 139.846 48.4389C139.846 47.6549 140.882 47.2349 142.632 47.2349C144.41 47.2349 145.446 47.6549 145.446 48.4389C145.446 49.2229 144.41 49.6429 142.632 49.6429ZM142.632 46.1009C140.014 46.1009 138.376 46.9689 138.376 48.4389C138.376 49.9089 140.014 50.7769 142.632 50.7769C145.278 50.7769 146.916 49.9089 146.916 48.4389C146.916 46.9689 145.278 46.1009 142.632 46.1009ZM146.818 41.4529V38.1349H145.362V45.9609H146.818V42.6429H148.498V41.4529H146.818ZM158.479 40.5709C158.479 42.0829 158.479 43.8749 157.989 46.3529L159.445 46.5069C159.935 43.8889 159.935 42.1389 159.935 40.5709V39.3249H150.933V40.5009H158.479V40.5709ZM155.455 47.9489V43.4969H153.999V47.9489H149.743V49.1389H161.167V47.9489H155.455ZM173.556 42.8109C171.008 42.4469 169.104 40.8649 169.104 39.2269V38.5549H167.578V39.2269C167.578 40.8929 165.702 42.4469 163.126 42.8109L163.686 43.9729C165.786 43.6369 167.536 42.5869 168.348 41.1169C169.174 42.5729 170.896 43.6369 172.996 43.9729L173.556 42.8109ZM174.046 45.1629H162.622V46.3389H167.578V50.8049H169.02V46.3389H174.046V45.1629ZM177.391 46.2689V47.4449H184.475V50.8049H185.917V46.2689H177.391ZM184.475 38.1489V45.6249H185.917V38.1489H184.475ZM179.099 38.8769C177.167 38.8769 175.739 40.1229 175.739 41.9149C175.739 43.7069 177.167 44.9529 179.099 44.9529C181.017 44.9529 182.445 43.7069 182.445 41.9149C182.445 40.1229 181.017 38.8769 179.099 38.8769ZM179.099 40.0949C180.219 40.0949 181.045 40.8089 181.045 41.9149C181.045 43.0209 180.219 43.7349 179.099 43.7349C177.965 43.7349 177.153 43.0209 177.153 41.9149C177.153 40.8089 177.965 40.0949 179.099 40.0949ZM194.092 39.4229C196.052 39.4229 197.102 39.8009 197.102 40.5289C197.102 41.2429 196.052 41.6209 194.092 41.6209C192.132 41.6209 191.082 41.2429 191.082 40.5289C191.082 39.8009 192.132 39.4229 194.092 39.4229ZM194.092 42.6989C196.92 42.6989 198.6 41.9289 198.6 40.5289C198.6 39.1149 196.92 38.3449 194.092 38.3449C191.25 38.3449 189.584 39.1149 189.584 40.5289C189.584 41.9289 191.25 42.6989 194.092 42.6989ZM191.18 48.5229H198.376V45.4989H189.724V46.5909H196.962V47.5009H189.752V50.6789H198.74V49.5729H191.18V48.5229ZM188.366 43.4409V44.5889H199.818V43.4409H188.366ZM205.957 41.8449C205.957 40.7529 206.755 40.0249 207.861 40.0249C208.953 40.0249 209.779 40.7529 209.779 41.8449C209.779 42.9509 208.953 43.6789 207.861 43.6789C206.755 43.6789 205.957 42.9509 205.957 41.8449ZM213.433 42.4049V45.3589H214.875V38.1489H213.433V41.2289H211.095C210.801 39.7869 209.513 38.8069 207.861 38.8069C205.985 38.8069 204.571 40.0669 204.571 41.8449C204.571 43.6369 205.985 44.8969 207.861 44.8969C209.541 44.8969 210.843 43.8889 211.095 42.4049H213.433ZM208.015 49.4749V47.1789H214.959V46.0169H206.573V50.6369H215.141V49.4749H208.015ZM226.018 40.5709C226.018 42.0829 226.018 43.8749 225.528 46.3529L226.984 46.5069C227.474 43.8889 227.474 42.1389 227.474 40.5709V39.3249H218.472V40.5009H226.018V40.5709ZM222.994 47.9489V43.4969H221.538V47.9489H217.282V49.1389H228.706V47.9489H222.994ZM243.721 38.1629H242.279V45.1629H243.721V38.1629ZM240.991 43.5949C239.045 42.9789 237.911 41.4669 237.911 39.8289V38.5969H236.441V39.8289C236.441 41.5229 235.293 43.1609 233.305 43.8189L234.019 44.9529C235.545 44.4489 236.623 43.3849 237.197 42.0549C237.771 43.3009 238.835 44.2669 240.305 44.7149L240.991 43.5949ZM238.331 46.9969H240.753V49.4889H238.331V46.9969ZM242.181 49.4889V46.9969H243.791V45.8489H235.279V46.9969H236.903V49.4889H235.153V50.6369H243.931V49.4889H242.181ZM249.586 46.7029C248.508 46.7029 247.766 45.5269 247.766 43.5249C247.766 41.5649 248.508 40.3749 249.586 40.3749C250.678 40.3749 251.42 41.5649 251.42 43.5249C251.42 45.5269 250.678 46.7029 249.586 46.7029ZM255.228 38.1349V42.8529H252.764C252.568 40.5289 251.28 39.0729 249.586 39.0729C247.724 39.0729 246.394 40.8089 246.394 43.5249C246.394 46.2689 247.724 47.9909 249.586 47.9909C251.322 47.9909 252.61 46.4789 252.778 44.0289H255.228V50.8189H256.684V38.1349H255.228ZM263.179 45.3169C263.669 45.4289 264.215 45.4849 264.775 45.4849C265.335 45.4849 265.881 45.4289 266.371 45.3029V48.0609H263.179V45.3169ZM264.775 40.0109C266.679 40.0109 268.009 40.8509 268.009 42.1809C268.009 43.5249 266.679 44.3649 264.775 44.3649C262.857 44.3649 261.527 43.5249 261.527 42.1809C261.527 40.8509 262.857 40.0109 264.775 40.0109ZM267.813 48.0609V44.7709C268.821 44.1969 269.423 43.3009 269.423 42.1809C269.423 40.1649 267.463 38.8769 264.775 38.8769C262.073 38.8769 260.127 40.1649 260.127 42.1809C260.127 43.3009 260.729 44.2109 261.737 44.7709V48.0609H259.063V49.2369H270.515V48.0609H267.813ZM273.09 46.4229H274.168L274.392 40.8229L274.448 39.1569H272.824L272.866 40.8229L273.09 46.4229ZM273.622 49.8949C274.238 49.8949 274.714 49.4329 274.714 48.7749C274.714 48.1029 274.238 47.6269 273.622 47.6269C273.02 47.6269 272.558 48.1029 272.558 48.7749C272.558 49.4329 273.02 49.8949 273.622 49.8949Z" fill="#3E2723"/>
<g clip-path="url(#clip2)">
<path d="M206 394.504C293.261 394.504 364 380.449 364 363.112C364 345.774 293.261 331.719 206 331.719C118.739 331.719 48 345.774 48 363.112C48 380.449 118.739 394.504 206 394.504Z" fill="#EFEFEF"/>
<path d="M257.953 353.395H130.112C125.16 353.395 121.141 349.378 121.141 344.421V104.09C121.141 99.1361 125.156 95.1152 130.112 95.1152H257.957C262.909 95.1152 266.928 99.132 266.928 104.09V344.425C266.924 349.379 262.909 353.395 257.953 353.395Z" fill="white" stroke="#BDBDBD" stroke-width="3" stroke-miterlimit="10"/>
<path d="M256.131 258.157H131.434C130.11 258.157 129.035 257.081 129.035 255.757V233.262C129.035 231.938 130.11 230.862 131.434 230.862H256.131C257.455 230.862 258.53 231.938 258.53 233.262V255.757C258.53 257.085 257.455 258.157 256.131 258.157Z" fill="#E6E6E6"/>
<path d="M258.532 141.793H246.335C243.855 141.793 241.844 142.995 241.844 144.478V216.222C241.844 217.704 243.855 218.906 246.335 218.906H258.532V141.793Z" fill="#E6E6E6"/>
<path d="M264.231 141.646H258.938V216.197H264.231V141.646Z" fill="white"/>
<path d="M226.113 218.902H172.043C170.561 218.902 169.359 217.7 169.359 216.218V144.478C169.359 142.995 170.561 141.793 172.043 141.793H226.113C227.595 141.793 228.797 142.995 228.797 144.478V216.222C228.793 217.7 227.595 218.902 226.113 218.902Z" stroke="#B3B3B3" stroke-width="3" stroke-miterlimit="10" stroke-dasharray="9.99 9.99"/>
<path d="M247.348 205.161L203.303 220.87C201.907 221.367 200.375 220.638 199.875 219.244L179.554 162.223C179.058 160.826 179.787 159.294 181.179 158.793L225.224 143.084C226.621 142.587 228.152 143.317 228.653 144.71L248.973 201.731C249.47 203.132 248.745 204.664 247.348 205.161Z" fill="#E6E6E6"/>
<path d="M326.915 369.223C326.915 369.223 310.337 332.155 311.249 296.802L312.923 244.531L288.197 259.527C288.197 259.527 286.193 282.084 289.296 306.637C292.037 328.35 299.387 351.555 306.717 363.075C306.717 363.075 295.242 367.52 294.949 372.816L326.915 369.223Z" fill="url(#paint0_linear)"/>
<path d="M270.857 245.969C270.857 245.969 261.059 270.587 252.561 300.106C248.998 312.478 249.136 326.447 249.93 367.695C249.93 367.695 236.288 366.167 234.15 377.476L273.622 371.593C273.622 371.593 272.046 337.834 280.431 304.823C284.271 289.709 296.292 264.004 300.885 263.046C320.432 258.973 312.287 233.715 312.287 233.715L270.857 245.969Z" fill="#3E2723"/>
<path d="M157.292 141.793H128.832V218.902H157.292C158.775 218.902 159.976 217.7 159.976 216.218V144.478C159.972 142.995 158.775 141.793 157.292 141.793Z" fill="#E6E6E6"/>
<path d="M128.629 133.499H122.928V223.937H128.629V133.499Z" fill="white"/>
<path d="M256.54 130.647H131.027C129.704 130.647 128.629 129.571 128.629 128.247V105.752C128.629 104.428 129.704 103.352 131.027 103.352H256.54C257.863 103.352 258.938 104.428 258.938 105.752V128.247C258.938 129.575 257.863 130.647 256.54 130.647Z" fill="#93CCBA"/>
<path d="M167.086 323.746H137.811C134.761 323.746 132.289 321.273 132.289 318.222V275.903C132.289 272.852 134.761 270.379 137.811 270.379H167.086C170.136 270.379 172.608 272.852 172.608 275.903V318.226C172.608 321.273 170.136 323.746 167.086 323.746Z" fill="#E6E6E6"/>
<path d="M165.877 319.875H139.021C137.327 319.875 135.955 318.502 135.955 316.808V276.904C135.955 275.21 137.327 273.837 139.021 273.837H165.877C167.571 273.837 168.944 275.21 168.944 276.904V316.808C168.944 318.502 167.571 319.875 165.877 319.875Z" fill="#E6E6E6" stroke="#999999" stroke-miterlimit="10"/>
<path d="M258.531 269.972H182.992V280.564H258.531V269.972Z" fill="#E6E6E6"/>
<path d="M248.35 300.933H183.195V305.821H248.35V300.933Z" fill="#93CCBA"/>
<path d="M248.35 309.895H183.195V314.783H248.35V309.895Z" fill="#93CCBA"/>
<path d="M248.35 318.857H183.195V323.746H248.35V318.857Z" fill="#93CCBA"/>
<path d="M273.191 239.825L270.748 246.75C270.748 246.75 306.99 254.898 306.4 251.863C305.809 248.828 313.213 238.448 313.213 238.448L312.691 233.307L273.191 239.825Z" fill="#3E2723"/>
<path d="M273.32 240.074L312.348 233.389C312.348 233.389 314.636 240.237 312.69 246.755C310.744 253.273 318.916 241.948 273.32 240.074Z" fill="black"/>
<path d="M138.605 308.876L145.935 299.506L151.636 303.58L161.002 290.137L166.296 294.211" fill="#E6E6E6"/>
<path d="M138.605 308.876L145.935 299.506L151.636 303.58L161.002 290.137L166.296 294.211" stroke="#999999" stroke-miterlimit="10"/>
<path d="M146.343 288.507C148.367 288.507 150.008 286.865 150.008 284.84C150.008 282.815 148.367 281.174 146.343 281.174C144.319 281.174 142.678 282.815 142.678 284.84C142.678 286.865 144.319 288.507 146.343 288.507Z" fill="#E6E6E6" stroke="#999999" stroke-miterlimit="10"/>
<path d="M240.816 248.583C243.965 248.583 246.517 246.03 246.517 242.88C246.517 239.73 243.965 237.177 240.816 237.177C237.668 237.177 235.115 239.73 235.115 242.88C235.115 246.03 237.668 248.583 240.816 248.583Z" fill="#AAE2E2" stroke="#999999" stroke-miterlimit="10"/>
<path d="M240.816 246.954C243.065 246.954 244.888 245.13 244.888 242.88C244.888 240.631 243.065 238.807 240.816 238.807C238.567 238.807 236.744 240.631 236.744 242.88C236.744 245.13 238.567 246.954 240.816 246.954Z" fill="#E6E6E6" stroke="#999999" stroke-miterlimit="10"/>
<path d="M249.8 250.674C249.438 251.073 248.823 251.101 248.424 250.743L245.146 247.773C244.747 247.411 244.718 246.795 245.077 246.396C245.439 245.997 246.054 245.968 246.453 246.327L249.731 249.297C250.13 249.659 250.159 250.274 249.8 250.674Z" fill="#AAE2E2" stroke="#999999" stroke-miterlimit="10"/>
<path d="M226.361 235.751V252.046" stroke="#999999" stroke-miterlimit="10"/>
<path d="M287.647 284.841C287.647 284.841 296.89 264.244 299.659 263.454C302.51 262.639 303.732 262.231 303.732 262.231C303.732 262.231 284.592 286.674 292.843 326.048C292.843 326.052 285.61 292.989 287.647 284.841Z" fill="black"/>
<path d="M309.84 265.489C309.84 265.082 309.84 267.119 310.654 266.712C311.469 266.304 312.01 273.055 312.01 273.055C312.01 273.055 312.69 261.416 311.876 259.786C311.061 258.157 309.84 261.008 309.84 261.008V265.489Z" fill="url(#paint1_linear)"/>
<path d="M251.198 199.991L206.905 214.987C205.5 215.464 203.981 214.71 203.505 213.304L183.555 154.332C183.079 152.926 183.832 151.407 185.237 150.93L229.53 135.935C230.935 135.458 232.454 136.212 232.93 137.617L252.88 196.59C253.356 197.991 252.603 199.515 251.198 199.991Z" fill="#42322E"/>
<path d="M278.086 196.094C278.086 196.094 285.294 201.936 296.447 197.56" stroke="black" stroke-miterlimit="10"/>
<path d="M273.191 239.826L312.284 233.715" stroke="black" stroke-miterlimit="10"/>
<path d="M299.864 263.657C299.864 263.657 296.606 266.102 287.24 286.063" stroke="black" stroke-miterlimit="10"/>
<path d="M211.09 199.291L211.302 200.342C211.432 200.994 211.444 201.666 211.334 202.322L211.094 203.772" stroke="black" stroke-miterlimit="10"/>
<path d="M234.053 206.168C233.894 205.398 232.783 204.974 231.569 205.227C231.097 205.324 230.433 205.605 230.36 205.744C229.211 206.013 228.804 208.05 227.583 207.642C226.996 207.447 225.139 206.42 225.139 206.42C225.139 206.42 224.471 205.96 223.673 205.373C221.955 204.11 220.737 202.277 220.245 200.203C219.972 199.047 219.438 198.68 219.845 197.865C220.464 196.627 223.144 192.463 220.66 192.162C219.964 192.076 217.61 193.559 217.402 193.791C216.274 194.745 213.806 194.806 213.33 196.236C212.516 198.68 209.258 199.087 209.258 201.532C209.258 213.126 217.997 214.93 221.882 214.975C223.254 214.991 230.193 211.317 231.915 209.036C232.359 208.445 232.856 207.899 233.438 207.439C233.898 207.08 234.143 206.616 234.053 206.168Z" fill="#FFC05C"/>
<path d="M314.498 253.787C314.498 253.787 322.154 260.007 319.91 265.89C318.24 270.269 318.269 270.567 317.703 270.925C317.137 271.284 314.233 270.664 312.173 270.518C311.485 270.469 311.041 269.764 311.301 269.124C312.075 267.198 313.232 263.576 311.961 261.563C310.621 259.437 310.837 262.749 311.029 264.537C311.094 265.161 310.784 265.764 310.235 266.065C309.624 266.399 308.862 266.163 308.553 265.54C307.388 263.193 304.55 256.125 307.4 251.236L314.498 253.787Z" fill="#FFC05C"/>
<path d="M291.739 190.772C305.129 193.151 326.239 215.997 334.245 225.159C336.179 227.371 336.37 230.37 334.717 232.529L315.708 257.371C315.708 257.371 304.64 252.861 306.7 249.325C308.765 245.789 318.608 229.49 318.608 229.49L292.371 209.463L286.393 190.638L291.739 190.772Z" fill="#50C5A4"/>
<path d="M283.001 196.092C279.706 196.642 267.49 191.754 242.128 218.311L230.84 210.086C229.211 212.123 222.696 214.567 221.474 214.567C220.253 214.567 234.086 233.942 242.128 232.846C250.171 231.751 269.933 218.311 269.933 218.311L270.747 240.236L313.912 233.311C313.912 233.311 314.491 212.278 304.441 205.422L283.001 196.092Z" fill="#50C5A4"/>
<path d="M278.086 196.093C278.086 196.093 290.816 211.928 311.119 202.044C311.119 202.044 303.504 195.864 301.175 194.622C298.846 193.379 291.935 203.69 278.086 196.093Z" fill="#3FB28E"/>
<path d="M308.875 178.91C308.875 184.292 306.77 189.18 303.341 192.798C299.664 196.68 294.46 199.104 288.69 199.104C277.54 199.104 268.504 190.064 268.504 178.91C268.504 167.756 277.54 158.716 288.69 158.716C299.839 158.716 308.875 167.76 308.875 178.91Z" fill="#FFC05C"/>
<path d="M280.451 158.724C278.675 158.492 268.092 157.799 265.453 173.891C265.453 173.891 274.522 175.524 277.409 168.167C277.409 168.167 282.768 181.252 292.248 180.433C292.248 180.433 296.369 177.981 297.196 182.478C298.018 186.976 293.897 187.795 293.897 187.795L299.708 196.236C299.708 196.236 319.869 182.071 303.308 164.549C303.308 164.549 293.209 152.788 280.952 158.642C280.797 158.716 280.626 158.748 280.451 158.724Z" fill="#42322E"/>
<path d="M321.853 224.141L318.596 229.437" stroke="black" stroke-miterlimit="10"/>
<path d="M275.431 214.363L270.137 218.03L273.394 218.844" stroke="black" stroke-miterlimit="10"/>
<path d="M214.812 196.117C214.812 196.117 215.619 199.596 215.106 201.649" stroke="black" stroke-miterlimit="10"/>
<path d="M101.125 364.99C101.125 364.99 80.2146 355.229 70.4414 372.746C70.4414 372.746 112.405 383.057 137.233 367.512C162.065 351.97 152.292 343.822 152.292 343.822L101.125 364.99Z" fill="#3FB28E"/>
<path d="M78.1796 330.786C78.1796 330.786 60.8851 359.535 91.9069 364.578C99.4648 365.808 99.3549 365.82 114.19 361.482L144.556 352.377L132.339 377.635L172.45 377.431C172.45 377.431 162.881 362.969 152.7 369.894L169.066 338.599C172.308 332.403 169.636 324.634 163.153 322.011C162.013 321.546 160.93 321.318 160.03 321.416L127.86 326.304L128.267 321.416L78.1796 330.786Z" fill="url(#paint2_linear)"/>
<path d="M120.66 272.986C120.945 273.031 121.218 273.137 121.459 273.296C122.729 274.127 127.176 277.04 132.702 280.564C139.262 284.751 151.071 316.12 150.257 314.898C149.442 313.676 170.21 297.38 170.21 297.38L181.613 296.973C181.613 296.973 163.288 332.008 152.7 332.008C146.262 332.008 130.303 314.898 130.303 314.898L129.489 321.416L79.4012 325.897C79.4012 325.897 77.3488 273.117 101.994 269.972L120.66 272.986Z" fill="#3E2723"/>
<path d="M100.576 365.006C101.798 365.006 140.891 358.08 139.669 362.562L144.556 351.97C144.556 351.97 106.684 364.599 100.576 365.006Z" fill="#258462"/>
<path d="M144.555 351.969L152.292 348.71" stroke="black" stroke-miterlimit="10"/>
<path d="M206.053 313.562C205.878 313.814 205.491 313.851 205.19 313.639L199.802 309.891L186.03 300.314L163.792 284.849C163.491 284.642 163.389 284.267 163.564 284.014L166.863 279.268C167.038 279.016 167.425 278.979 167.726 279.191L209.119 307.98C209.421 308.188 209.523 308.563 209.348 308.816L208.598 309.895L206.053 313.562Z" fill="#E6E6E6"/>
<path d="M124.602 275.382C124.602 275.382 85.6353 303.198 79.4008 316.12C79.4008 316.12 78.5864 272.938 107.092 270.901C108.843 270.774 117.081 270.343 118.086 270.901C121.751 272.938 124.602 275.382 124.602 275.382Z" fill="#231B1A"/>
<path d="M125.62 312.25L130.303 314.898L122.973 303.491" stroke="black" stroke-miterlimit="10"/>
<path d="M79.4003 325.897L129.081 321.416C129.081 321.416 76.1425 330.786 74.5137 338.933C74.5137 338.933 77.7714 329.564 79.4003 325.897Z" fill="#258462"/>
<path d="M99.8672 365.218C99.8672 365.218 101.797 365.006 103.833 367.45" stroke="black" stroke-miterlimit="10"/>
<path d="M100.123 365.172C100.123 365.172 94.1696 366.089 84.4453 362.594" stroke="black" stroke-miterlimit="10"/>
<path d="M152.874 369.561C152.874 369.561 148.83 371.728 146.387 370.506" stroke="black" stroke-miterlimit="10"/>
<path d="M149.85 314.897C149.85 314.897 151.478 321.008 152.293 321.416" stroke="black" stroke-miterlimit="10"/>
<path d="M182.658 296.407L186.637 299.214L186.091 296.566L182.658 296.407Z" fill="#42322E"/>
<path d="M186.918 300.933H189.121L195.962 305.789L193.889 305.821L186.918 300.933Z" fill="#72B29D"/>
<path d="M199.936 310.009H208.487L206.064 313.744C205.828 314.107 205.368 314.193 205.034 313.936L199.936 310.009Z" fill="#72B29D"/>
<path d="M204.721 311.964L161.727 281.643C161.328 281.362 161.234 280.808 161.515 280.408L165.172 275.222C165.453 274.823 166.007 274.73 166.406 275.011L209.4 305.332C209.799 305.613 209.893 306.167 209.612 306.566L205.955 311.752C205.67 312.152 205.12 312.245 204.721 311.964Z" fill="#42322E"/>
<path d="M169.6 297.584C169.6 297.584 174.69 286.788 180.798 285.974C183.429 285.623 188.771 287.021 190.917 288.267C192.09 288.948 191.919 290.687 190.632 291.119C187.696 292.101 181.36 296.847 182.671 296.839C182.903 296.875 183.135 296.908 183.372 296.892C183.579 296.94 183.893 296.973 184.337 296.936C186.316 296.769 187.122 299.405 185.383 300.366C183.893 301.193 182.879 300.635 181.002 300.843C179.169 301.047 179.035 300.933 179.035 300.933L169.6 297.584Z" fill="#FFC05C"/>
<path d="M187.112 287.519C187.112 287.519 185.072 289.042 184.209 288.932" stroke="black" stroke-miterlimit="10"/>
<path d="M185.684 296.565L182.98 296.635L186.918 299.409L185.684 296.565Z" fill="#42322E"/>
<path d="M207.259 309.895H208.672L206.09 313.704L207.181 310.009L207.259 309.895Z" fill="#72B29D"/>
<path d="M81.2784 293.307L65.9142 317.338C64.0491 320.255 63.8577 323.934 65.4092 327.026L73.7001 343.415C74.1074 341.785 76.4244 330.101 81.03 325.897L84.2878 294.517L81.2784 293.307Z" fill="#231B1A"/>
<path d="M131.805 247.748C132.783 253.04 131.606 258.23 128.894 262.414C125.982 266.904 121.307 270.232 115.631 271.283C104.669 273.312 94.1379 266.068 92.11 255.102C90.082 244.135 97.3223 233.6 108.285 231.571C119.247 229.538 129.777 236.782 131.805 247.748Z" fill="#FFC05C"/>
<path d="M127.549 242.881C127.549 242.881 122.565 248.087 124.601 252.161C125.338 253.636 125.489 255.375 125.379 256.993C125.204 259.653 124.157 262.17 122.516 264.268C121.494 265.576 120.338 267.336 120.122 268.864L118.921 270.379C118.921 270.379 115.435 271.935 113.297 271.622C111.159 271.308 115.638 256.235 115.638 256.235L120.118 241.977L127.549 242.881Z" fill="#EFB054"/>
<path d="M103.961 231.043C103.94 231.047 103.924 231.051 103.904 231.047C103.358 230.916 94.3464 228.998 90.7833 242.93C89.0038 249.884 85.4936 252.214 83.6774 252.972C82.1096 253.628 80.6151 254.459 79.3161 255.551C76.9257 257.563 75.9362 260.24 76.7628 263.833C78.184 270.009 74.7186 272.152 74.4702 272.294C74.458 272.298 74.4539 272.306 74.4458 272.315C74.1444 272.661 68.0973 279.692 75.6308 282.418C78.6605 283.514 70.732 286.267 73.7006 294.126C74.8245 297.104 81.4703 297.324 85.123 296.9C91.6629 296.142 88.568 295.181 97.5268 297.511C105.158 299.495 127.331 286.87 117.513 280.222C117.415 280.157 117.318 280.087 117.224 280.022C112.028 276.417 111.926 268.803 117.004 265.031C118.979 263.564 120.62 261.478 120.311 258.659C119.594 252.088 118.051 248.214 124.387 245.586C127.009 244.499 129.005 240.718 129.078 240.347C129.082 240.327 127.987 239.944 127.978 239.928C127.754 239.243 122.856 225.376 103.961 231.043Z" fill="#50C5A4"/>
<path d="M127.859 326.305L129.895 333.638" stroke="black" stroke-miterlimit="10"/>
</g>
</g>
</g>
<defs>
<linearGradient id="paint0_linear" x1="286.26" y1="248.475" x2="340.597" y2="433.384" gradientUnits="userSpaceOnUse">
<stop stop-color="#3E2723" stop-opacity="0.8"/>
<stop offset="0.1413" stop-color="#3E2723" stop-opacity="0.8283"/>
<stop offset="1" stop-color="#3E2723"/>
</linearGradient>
<linearGradient id="paint1_linear" x1="309.838" y1="259.268" x2="315.745" y2="279.37" gradientUnits="userSpaceOnUse">
<stop stop-color="#F57F17"/>
<stop offset="0.0614" stop-color="#EF7715"/>
<stop offset="0.21" stop-color="#E46C12"/>
<stop offset="0.4192" stop-color="#DF6510"/>
<stop offset="1" stop-color="#DD6310"/>
</linearGradient>
<linearGradient id="paint2_linear" x1="110.8" y1="375.241" x2="166.941" y2="293.573" gradientUnits="userSpaceOnUse">
<stop stop-color="#50C5A4"/>
<stop offset="1" stop-color="#349977"/>
</linearGradient>
<clipPath id="clip0">
<rect width="416" height="405" fill="white"/>
</clipPath>
<clipPath id="clip1">
<rect width="320" height="412" fill="white" transform="translate(48 7)"/>
</clipPath>
<clipPath id="clip2">
<rect width="316" height="300" fill="white" transform="translate(48 94.5039)"/>
</clipPath>
</defs>
</svg>
