<svg width="25" height="24" viewBox="0 0 25 24" fill="none" xmlns="http://www.w3.org/2000/svg">
<path d="M19.4649 7.115C19.8543 6.72564 19.8543 6.09436 19.4649 5.705V5.705C19.0756 5.31564 18.4443 5.31564 18.0549 5.705L13.1699 10.59L8.28492 5.705C7.89556 5.31564 7.26428 5.31564 6.87492 5.705V5.705C6.48556 6.09436 6.48556 6.72564 6.87492 7.115L11.7599 12L6.87492 16.885C6.48556 17.2744 6.48556 17.9056 6.87492 18.295V18.295C7.26428 18.6844 7.89556 18.6844 8.28492 18.295L13.1699 13.41L18.0549 18.295C18.4443 18.6844 19.0756 18.6844 19.4649 18.295V18.295C19.8543 17.9056 19.8543 17.2744 19.4649 16.885L14.5799 12L19.4649 7.115Z" fill="#3E2723"/>
</svg>
