<svg width="24" height="24" viewBox="0 0 24 24" fill="none" xmlns="http://www.w3.org/2000/svg">
<rect width="24" height="24" fill="white"/>
<path d="M19.8752 15.2472C19.2211 14.5168 17.9973 13.418 17.9973 9.81852C17.9973 7.08463 16.1529 4.89611 13.666 4.35919V3.62593C13.666 3.0042 13.1812 2.5 12.5833 2.5C11.9855 2.5 11.5007 3.0042 11.5007 3.62593V4.35919C9.01376 4.89611 7.16939 7.08463 7.16939 9.81852C7.16939 13.418 5.94557 14.5168 5.29151 15.2472C5.08838 15.4742 4.99833 15.7455 5.00002 16.0111C5.00375 16.5881 5.43945 17.137 6.08674 17.137H19.0799C19.7272 17.137 20.1633 16.5881 20.1666 16.0111C20.1683 15.7455 20.0783 15.4738 19.8752 15.2472ZM7.28619 15.4481C8.00457 14.464 8.78999 12.8328 8.79371 9.83893C8.79371 9.83189 8.79168 9.82556 8.79168 9.81852C8.79168 7.64196 10.4891 5.87778 12.5833 5.87778C14.6775 5.87778 16.375 7.64196 16.375 9.81852C16.375 9.82556 16.373 9.83189 16.373 9.83893C16.3767 12.8332 17.1621 14.4644 17.8805 15.4481H7.28619ZM12.5833 20.5148C13.7791 20.5148 14.749 19.5068 14.749 18.263H10.4177C10.4177 19.5068 11.3876 20.5148 12.5833 20.5148Z" fill="#5C4C47"/>
</svg>
