<svg width="24" height="24" viewBox="0 0 24 24" fill="none" xmlns="http://www.w3.org/2000/svg">
<path d="M15.22 12.0028C14.7053 12.0028 14.2211 11.6766 13.9592 11.1547L12.0009 7.29109L10.0457 11.1547C9.78069 11.6802 9.29646 12.0064 8.78176 12.0064C8.64471 12.0064 8.50766 11.9847 8.37671 11.9376L4.20433 10.5168V16.9682C4.20433 17.501 4.50889 17.9649 4.94135 18.0918L11.5258 20.0526C11.8364 20.1432 12.1623 20.1432 12.4699 20.0526L19.0604 18.0918C19.4929 17.9613 19.7974 17.4974 19.7974 16.9682V10.5168L15.6251 11.9339C15.4941 11.9811 15.3571 12.0028 15.22 12.0028ZM21.6948 7.93623L20.1264 4.21035C20.0319 3.98564 19.8279 3.85516 19.6177 3.88778L12.0009 5.04396L14.7936 10.5567C14.9094 10.785 15.1408 10.8937 15.3571 10.8212L21.3842 8.77346C21.6857 8.66836 21.8318 8.26967 21.6948 7.93623V7.93623ZM3.87542 4.21035L2.30697 7.93623C2.16687 8.26967 2.31611 8.66836 2.61457 8.76984L8.64167 10.8176C8.8579 10.8901 9.08936 10.7814 9.20509 10.553L12.0009 5.04396L4.38097 3.88778C4.17083 3.85878 3.96983 3.98564 3.87542 4.21035V4.21035Z" fill="#C2B7B3"/>
</svg>
