<svg width="301" height="301" viewBox="0 0 301 301" fill="none" xmlns="http://www.w3.org/2000/svg">
<g opacity="0.4" clip-path="url(#clip0)">
<path d="M187.551 202.1L95.6553 159.867L197.756 144.863L300.385 173.347L187.551 202.1Z" fill="#281916"/>
<path d="M300.385 173.346L198.003 144.863L152.771 68.5816C152.22 67.6514 153.035 66.5066 154.092 66.7267L261.63 89.1393C262.016 89.2219 262.346 89.4806 262.506 89.8439L300.385 173.346Z" fill="#350E00"/>
<path d="M152.771 68.5774L259.352 91.8376C259.738 91.9202 260.068 92.1789 260.227 92.5421L296.918 172.384H300.132L262.506 89.8451C262.341 89.4819 262.016 89.2232 261.631 89.1406L154.092 66.728C153.03 66.5024 152.221 67.6472 152.771 68.5774Z" fill="url(#paint0_linear)"/>
<path d="M209.956 148.069L207.507 147.568V143.055L209.725 144.86L209.956 148.069Z" fill="#350E00"/>
<path d="M95.6553 159.867L98.6495 161.409L200.288 145.568L197.756 144.863L95.6553 159.867Z" fill="url(#paint1_linear)"/>
<path d="M200.287 145.566V157.45L200.86 196.705L189.356 199.688L101.968 160.89L200.287 145.566Z" fill="#0F0807"/>
<path d="M245.354 236.439L168.038 207.857V116.621L246.983 144.631L245.354 236.439Z" fill="#D8D8D8"/>
<path d="M168.038 120.563V116.242L218.588 161.524L246.983 189.821L234.808 193.261L168.038 120.563Z" fill="#BABABA"/>
<path d="M238.132 239.085L160.816 210.503V119.262L239.761 147.277L238.132 239.085Z" fill="#D8D8D8"/>
<path d="M160.816 123.582V119.262L211.366 164.544L239.761 192.84L227.586 196.28L160.816 123.582Z" fill="#BABABA"/>
<path d="M226.392 239.085L149.07 210.503V119.262L228.015 147.277L226.392 239.085Z" fill="#D8D8D8"/>
<path d="M149.07 123.582V119.262L199.625 164.544L228.015 192.84L215.84 196.28L149.07 123.582Z" fill="#BABABA"/>
<path d="M213.034 239.085L135.719 210.503V119.262L214.664 147.277L213.034 239.085Z" fill="#D8D8D8"/>
<path d="M135.719 123.582V119.262L186.268 164.544L214.664 192.84L202.489 196.28L135.719 123.582Z" fill="#BABABA"/>
<path d="M200.859 239.085L123.538 210.503V119.262L202.489 147.277L200.859 239.085Z" fill="white"/>
<path d="M188.124 264.92L187.364 300.492L168.034 288.383C173.257 274.585 167.357 264.832 163.014 259.977L112.322 234.295C107.329 235.418 102.612 239.551 103.719 248.451L95.6553 243.426V225.846V159.863L187.573 200.665L188.124 272.697" fill="#724833"/>
<path d="M163.015 259.973L175.135 265.95C176.384 266.567 177.424 267.53 178.134 268.73L181.778 274.867C182.191 275.56 182.483 276.32 182.642 277.112L187.365 300.488L168.034 288.379C168.034 288.379 175.19 273.397 163.015 259.973Z" fill="url(#paint2_linear)"/>
<path d="M112.321 234.291L104.648 230.642C104.059 230.361 103.354 230.482 102.892 230.945L100.008 233.84C99.7218 234.132 99.5566 234.522 99.5566 234.93V245.861L103.712 248.453C103.718 248.448 101.081 235.629 112.321 234.291Z" fill="url(#paint3_linear)"/>
<path d="M95.6553 159.862L98.6495 161.403L188.124 201.033L190.832 200.339L98.666 159.422L95.6553 159.862Z" fill="url(#paint4_linear)"/>
<path d="M300.406 245.532C300.015 234.276 300.142 184.607 300.131 172.383L187.297 200.679V251.586L186.841 251.548C186.703 262.815 187.121 288.987 187.369 300.496L208.218 289.62C208.218 289.62 201.52 271.489 217.476 260.239L282.716 238.371C286.508 239.549 289.932 242.747 289.679 250.541L300.406 245.532Z" fill="#350E00"/>
<path d="M208.213 289.615C208.213 289.615 202.439 270.235 217.471 260.234C213.706 262.304 199.797 265.772 197.915 270.092L193.66 277.225C192.835 277.594 187.82 299.187 187.369 300.486L208.213 289.615Z" fill="url(#paint5_linear)"/>
<path d="M282.71 238.371L291.649 234.75C292.348 234.463 293.151 234.7 293.592 235.316C293.944 235.971 295.898 238.096 295.777 238.9V247.695L289.673 250.541C289.673 250.541 289.243 239.483 282.71 238.371Z" fill="url(#paint6_linear)"/>
<path d="M186.841 200.336L186.852 203.231L186.428 299.899L187.369 300.488L188.492 299.899L188.547 203.171L188.53 200.38C188.145 200.501 187.198 200.534 186.841 200.336Z" fill="url(#paint7_linear)"/>
<path d="M186.841 200.341L188.123 201.034L300.131 172.38L295.777 172.066L186.841 200.341Z" fill="url(#paint8_linear)"/>
<path d="M120.973 51.016C123.725 66.4274 120.973 87.8933 95.6545 100.553C80.0889 108.335 61.5292 100.002 59.3276 111.561C56.8397 124.628 94.6307 133.027 86.9085 133.027C45.3197 133.027 30.156 106.607 25.2023 90.0949C21.2779 77.0063 -13.3262 53.2176 6.48845 41.1087C15.8454 35.3899 19.1698 -0.171875 53.8235 -0.171875C88.4771 -0.171875 115.717 21.5747 120.973 51.016Z" fill="#350E00"/>
<path d="M77.3204 108.019C77.5571 110.915 75.0417 113.479 71.7117 113.749C68.3763 114.019 65.4866 111.889 65.2499 108.999C65.0133 106.109 67.8974 108.08 71.2274 107.81C74.5628 107.541 77.0837 105.124 77.3204 108.019Z" fill="#350E00"/>
<path d="M81.3446 109.912C82.2565 109.912 82.9958 109.173 82.9958 108.261C82.9958 107.349 82.2565 106.609 81.3446 106.609C80.4326 106.609 79.6934 107.349 79.6934 108.261C79.6934 109.173 80.4326 109.912 81.3446 109.912Z" fill="#350E00"/>
<path d="M5.38658 27.9001C6.29852 27.9001 7.0378 27.1608 7.0378 26.2489C7.0378 25.3369 6.29852 24.5977 5.38658 24.5977C4.47463 24.5977 3.73535 25.3369 3.73535 26.2489C3.73535 27.1608 4.47463 27.9001 5.38658 27.9001Z" fill="#350E00"/>
<path d="M13.6429 26.7954C10.9018 31.7051 11.4412 36.1524 8.13879 35.0515C5.25465 34.0883 10.1643 32.3435 9.2396 26.7954C8.13879 20.1905 12.2008 13.993 16.3123 16.2882C20.4294 18.5889 16.3839 21.8858 13.6429 26.7954Z" fill="#350E00"/>
<path d="M71.9369 54.8734L87.2713 39.5391C89.1537 37.6567 89.1537 34.6075 87.2713 32.7251L83.8643 29.318C81.9819 27.4357 78.9326 27.4357 77.0502 29.318L61.7159 44.6524L46.3815 29.318C44.4991 27.4357 41.4499 27.4357 39.5675 29.318L36.1605 32.7251C34.2781 34.6075 34.2781 37.6567 36.1605 39.5391L51.4893 54.8734L36.155 70.2078C34.2726 72.0902 34.2726 75.1394 36.155 77.0218L39.562 80.4288C41.4444 82.3112 44.4936 82.3112 46.376 80.4288L61.7104 65.0945L77.0447 80.4288C78.9271 82.3112 81.9764 82.3112 83.8588 80.4288L87.2658 77.0218C89.1482 75.1394 89.1482 72.0902 87.2658 70.2078L71.9369 54.8734Z" fill="white"/>
</g>
<defs>
<linearGradient id="paint0_linear" x1="152.592" y1="119.538" x2="300.132" y2="119.538" gradientUnits="userSpaceOnUse">
<stop stop-color="#724833"/>
<stop offset="1" stop-color="#350E00"/>
</linearGradient>
<linearGradient id="paint1_linear" x1="95.6553" y1="153.135" x2="200.29" y2="153.135" gradientUnits="userSpaceOnUse">
<stop stop-color="#B87F5E"/>
<stop offset="1" stop-color="#542F22"/>
</linearGradient>
<linearGradient id="paint2_linear" x1="184.175" y1="287.706" x2="159.139" y2="266.466" gradientUnits="userSpaceOnUse">
<stop stop-color="#724833"/>
<stop offset="1" stop-color="#350E00"/>
</linearGradient>
<linearGradient id="paint3_linear" x1="106.542" y1="240.584" x2="99.675" y2="234.758" gradientUnits="userSpaceOnUse">
<stop stop-color="#724833"/>
<stop offset="1" stop-color="#350E00"/>
</linearGradient>
<linearGradient id="paint4_linear" x1="95.6553" y1="180.225" x2="190.832" y2="180.225" gradientUnits="userSpaceOnUse">
<stop stop-color="#B87F5E"/>
<stop offset="1" stop-color="#542F22"/>
</linearGradient>
<linearGradient id="paint5_linear" x1="206.592" y1="283.905" x2="195.059" y2="274.121" gradientUnits="userSpaceOnUse">
<stop stop-color="#724833"/>
<stop offset="1" stop-color="#350E00"/>
</linearGradient>
<linearGradient id="paint6_linear" x1="293.495" y1="244.474" x2="284.552" y2="236.887" gradientUnits="userSpaceOnUse">
<stop stop-color="#724833"/>
<stop offset="1" stop-color="#350E00"/>
</linearGradient>
<linearGradient id="paint7_linear" x1="186.424" y1="250.411" x2="188.546" y2="250.411" gradientUnits="userSpaceOnUse">
<stop stop-color="#B87F5E"/>
<stop offset="1" stop-color="#542F22"/>
</linearGradient>
<linearGradient id="paint8_linear" x1="186.839" y1="186.549" x2="300.131" y2="186.549" gradientUnits="userSpaceOnUse">
<stop stop-color="#B87F5E"/>
<stop offset="1" stop-color="#542F22"/>
</linearGradient>
<clipPath id="clip0">
<rect width="300" height="300" fill="white" transform="translate(0.40625 0.164062)"/>
</clipPath>
</defs>
</svg>
