<svg width="31" height="21" viewBox="0 0 31 21" fill="none" xmlns="http://www.w3.org/2000/svg">
<rect x="0.878906" y="0.561035" width="30" height="20" rx="1" fill="white" fill-opacity="0.8"/>
<path d="M13.2415 15.8154L12.5135 13.4354H8.87347L8.14547 15.8154H5.86347L9.39147 5.77743H11.9815L15.5235 15.8154H13.2415ZM12.0095 11.6574L11.2815 9.33343C11.2348 9.17476 11.1741 8.9741 11.0995 8.73143C11.0248 8.48876 10.9501 8.24143 10.8755 7.98943C10.8008 7.73743 10.7401 7.5181 10.6935 7.33143C10.6468 7.5181 10.5815 7.75143 10.4975 8.03143C10.4228 8.3021 10.3481 8.56343 10.2735 8.81543C10.2081 9.0581 10.1568 9.23076 10.1195 9.33343L9.40548 11.6574H12.0095ZM25.0775 10.7194C25.0775 12.4088 24.5968 13.6828 23.6355 14.5414C22.6742 15.3908 21.3348 15.8154 19.6175 15.8154H16.7895V5.81943H19.9255C20.9708 5.81943 21.8762 6.0061 22.6415 6.37943C23.4162 6.75276 24.0135 7.30343 24.4335 8.03143C24.8628 8.75943 25.0775 9.65543 25.0775 10.7194ZM22.8795 10.7754C22.8795 9.6741 22.6368 8.8621 22.1515 8.33943C21.6662 7.81676 20.9615 7.55543 20.0375 7.55543H18.9035V14.0654H19.8135C21.8575 14.0654 22.8795 12.9688 22.8795 10.7754Z" fill="#3E2723"/>
</svg>
