<svg width="24" height="25" viewBox="0 0 24 25" fill="none" xmlns="http://www.w3.org/2000/svg">
<path d="M21.7201 10.2668L18.0504 4.14215C17.8982 3.88815 17.6919 3.67988 17.45 3.53583C17.2081 3.39178 16.938 3.31641 16.6636 3.31641H7.33648C7.0621 3.31641 6.79197 3.39178 6.55006 3.53583C6.30815 3.67987 6.10194 3.88815 5.94975 4.14215L2.28 10.2668C2.09747 10.5714 2.00007 10.9293 2.00007 11.2954L2 19.462C2 20.4862 2.74618 21.3164 3.66666 21.3164H20.3333C21.2538 21.3164 21.9999 20.4862 21.9999 19.462L22 11.2954C22 10.9293 21.9026 10.5714 21.7201 10.2668ZM7.6338 5.78893H16.3663L19.3292 10.734H15.0556L13.9445 13.2065H10.0556L8.94449 10.734H4.67083L7.6338 5.78893Z" fill="#3E2723"/>
</svg>
