<svg width="9" height="9" viewBox="0 0 9 9" fill="none" xmlns="http://www.w3.org/2000/svg">
<rect width="9" height="9" rx="1" fill="#887D7A"/>
<path d="M3.58373 6.40812H3.853V4.60945H3.58373C3.43501 4.60945 3.31445 4.49797 3.31445 4.36043V3.76562C3.31445 3.62809 3.43501 3.5166 3.58373 3.5166H5.09166C5.24038 3.5166 5.36094 3.62809 5.36094 3.76562V6.40812H5.63021C5.77893 6.40812 5.89949 6.51961 5.89949 6.65715V7.25195C5.89949 7.38949 5.77893 7.50098 5.63021 7.50098H3.58373C3.43501 7.50098 3.31445 7.38949 3.31445 7.25195V6.65715C3.31445 6.51961 3.43501 6.40812 3.58373 6.40812ZM4.60697 1.12598C4.07159 1.12598 3.63758 1.52734 3.63758 2.02246C3.63758 2.51758 4.07159 2.91895 4.60697 2.91895C5.14235 2.91895 5.57636 2.51758 5.57636 2.02246C5.57636 1.52734 5.14234 1.12598 4.60697 1.12598Z" fill="white"/>
</svg>
