<svg width="24" height="24" viewBox="0 0 24 24" fill="none" xmlns="http://www.w3.org/2000/svg">
<path d="M21.7201 9.26684L18.0504 3.14215C17.8982 2.88815 17.6919 2.67988 17.45 2.53583C17.2081 2.39178 16.938 2.31641 16.6636 2.31641H7.33648C7.0621 2.31641 6.79197 2.39178 6.55006 2.53583C6.30815 2.67987 6.10194 2.88815 5.94975 3.14215L2.28 9.26684C2.09747 9.57144 2.00007 9.92935 2.00007 10.2954L2 18.462C2 19.4862 2.74618 20.3164 3.66666 20.3164H20.3333C21.2538 20.3164 21.9999 19.4862 21.9999 18.462L22 10.2954C22 9.92935 21.9026 9.57144 21.7201 9.26684ZM7.6338 4.78893H16.3663L19.3292 9.73399H15.0556L13.9445 12.2065H10.0556L8.94449 9.73399H4.67083L7.6338 4.78893Z" fill="#938783"/>
</svg>
