<svg width="25" height="25" viewBox="0 0 25 25" fill="none" xmlns="http://www.w3.org/2000/svg">
<g clip-path="url(#clip0)">
<path d="M19.0839 7.47534L15.7151 4.04527C15.5732 3.90076 15.3416 3.90076 15.1997 4.04527L7.04291 12.3504L6.65823 15.8794C6.60594 16.3509 6.99809 16.7502 7.46121 16.697L10.9271 16.3053L19.0839 8.00012C19.2258 7.85561 19.2258 7.61984 19.0839 7.47534ZM19.9392 1.31491L21.7617 3.17064C22.3294 3.74866 22.3294 4.68793 21.7617 5.26975L20.4396 6.61592C20.2977 6.76042 20.0661 6.76042 19.9242 6.61592L16.5554 3.18585C16.4135 3.04135 16.4135 2.80558 16.5554 2.66107L17.8775 1.31491C18.449 0.736889 19.3715 0.736889 19.9392 1.31491ZM9.26138 8.18265L5.45936 8.18265L5.45936 20.3514L17.4107 20.3514L17.4107 11.6127C17.4107 11.491 17.4593 11.3769 17.5414 11.2895L19.0353 9.76839C19.3192 9.47938 19.801 9.68473 19.801 10.0916L19.801 20.9598C19.801 21.9676 18.998 22.7852 18.0083 22.7852L4.86179 22.7852C3.87207 22.7852 3.06909 21.9676 3.06909 20.9598L3.06909 7.57421C3.06909 6.56648 3.87207 5.7489 4.86179 5.7489L10.7553 5.7489C11.1549 5.7489 11.3529 6.23945 11.0728 6.52846L9.57884 8.04955C9.49294 8.13321 9.38089 8.18265 9.26138 8.18265Z" fill="#938783"/>
</g>
<defs>
<clipPath id="clip0">
<rect width="24" height="24" fill="white" transform="translate(0.628906 0.882812)"/>
</clipPath>
</defs>
</svg>
