<?xml version="1.0" encoding="utf-8"?>
<!-- Generator: Adobe Illustrator 24.1.0, SVG Export Plug-In . SVG Version: 6.00 Build 0)  -->
<svg version="1.1" id="Layer_1" xmlns="http://www.w3.org/2000/svg" xmlns:xlink="http://www.w3.org/1999/xlink" x="0px" y="0px"
	 viewBox="0 0 180 180" style="enable-background:new 0 0 180 180;" xml:space="preserve">
<style type="text/css">
	.st0{fill:none;stroke:#CCCCCC;stroke-width:10;stroke-miterlimit:10;}
	.st1{fill:#E2E2E2;}
	.st2{fill:#FFFFFF;stroke:#A8A8A8;stroke-width:13;stroke-miterlimit:10;}
	.st3{fill:#A8A8A8;}
</style>
<path class="st0" d="M72.36,133.43"/>
<path class="st1" d="M86.6,11.14c-31.2,0-58.14,18.19-70.81,44.54h62.07c2.08,0,3.76,1.68,3.76,3.76c0,2.08-1.68,3.76-3.76,3.76
	H12.65c-1.05,2.95-1.94,5.97-2.64,9.07h67.85c2.08,0,3.76,1.68,3.76,3.76s-1.68,3.76-3.76,3.76H8.69c-0.41,3.23-0.62,6.53-0.62,9.88
	h69.79c2.08,0,3.76,1.68,3.76,3.76s-1.68,3.76-3.76,3.76H8.43c0.32,3.4,0.86,6.73,1.6,9.99h67.83c2.08,0,3.76,1.68,3.76,3.76
	c0,2.08-1.68,3.76-3.76,3.76H12.15c10.45,31.1,39.84,53.5,74.45,53.5c43.37,0,78.53-35.16,78.53-78.53S129.97,11.14,86.6,11.14z"/>
<circle class="st2" cx="105.2" cy="96.11" r="31.62"/>
<path class="st3" d="M170.58,151.04l-6.51,6.51c-1.28,1.28-3.35,1.28-4.62,0l-21.73-21.73c-1.28-1.28-1.28-3.35,0-4.62l6.51-6.51
	c1.28-1.28,3.35-1.28,4.62,0l21.73,21.73C171.86,147.7,171.86,149.77,170.58,151.04z"/>
<rect x="132.71" y="113" transform="matrix(0.7071 -0.7071 0.7071 0.7071 -47.3215 133.3416)" class="st3" width="9.18" height="21.59"/>
</svg>
