<svg width="19" height="19" viewBox="0 0 19 19" fill="none" xmlns="http://www.w3.org/2000/svg">
<path d="M12.6764 9.54588L12.4997 9.72266L12.6764 9.89943L17.7936 15.0166C17.7936 15.0166 17.7936 15.0166 17.7937 15.0166C18.3241 15.5475 18.3239 16.4074 17.7937 16.9376L16.6564 18.0749C16.1261 18.6052 15.2657 18.6052 14.7354 18.0749L9.61818 12.9577L9.44141 12.7809L9.26463 12.9577L4.14741 18.0749C3.61709 18.6052 2.75675 18.6052 2.22642 18.0749L1.08922 16.9377C1.0892 16.9377 1.08917 16.9377 1.08915 16.9376C0.558762 16.4067 0.558889 15.5469 1.08915 15.0166L6.20636 9.89943L6.38314 9.72266L6.20636 9.54588L1.08922 4.42874C1.0892 4.42871 1.08917 4.42869 1.08915 4.42866C0.558762 3.89777 0.558889 3.03793 1.08915 2.50767L2.22635 1.37047C2.22637 1.37045 2.2264 1.37042 2.22642 1.3704C2.75732 0.840012 3.61715 0.840139 4.14741 1.3704L9.26463 6.48761L9.44141 6.66439L9.61818 6.48761L14.7353 1.37047C14.7354 1.37045 14.7354 1.37042 14.7354 1.3704C15.2663 0.840012 16.1261 0.840139 16.6564 1.3704L17.7936 2.5076C18.3241 3.03849 18.3239 3.89838 17.7937 4.42866L12.6764 9.54588Z" fill="#938783" stroke="white" stroke-width="0.5"/>
</svg>
