<svg width="140" height="140" viewBox="0 0 140 140" fill="none" xmlns="http://www.w3.org/2000/svg">
<path d="M116.817 80.1807C116.817 82.9061 115.569 85.5407 113.236 87.9796C110.901 90.421 107.497 92.6424 103.253 94.5189C94.7663 98.2711 83.0069 100.605 69.9913 100.605C56.9757 100.605 45.2163 98.2711 36.7295 94.5189C32.4854 92.6424 29.0819 90.421 26.7464 87.9796C24.4132 85.5407 23.166 82.9061 23.166 80.1807C23.166 77.4553 24.4132 74.8207 26.7464 72.3818C29.0819 69.9404 32.4854 67.719 36.7295 65.8426C45.2163 62.0903 56.9757 59.7568 69.9913 59.7568C83.0069 59.7568 94.7663 62.0903 103.253 65.8426C107.497 67.719 110.901 69.9404 113.236 72.3818C115.569 74.8207 116.817 77.4553 116.817 80.1807Z" fill="#E0E0E0" fill-opacity="0.4" stroke="#E0E0E0"/>
<ellipse rx="3.30449" ry="1.46101" transform="matrix(1 0 0 -1 69.9417 75.8403)" fill="#BDBDBD"/>
<path d="M96.2584 77.3021C96.2584 75.8287 95.5851 74.3867 94.2897 73.0327C92.9919 71.6761 91.0901 70.4316 88.7017 69.3756C83.9262 67.2642 77.2938 65.9456 69.9415 65.9456C62.5891 65.9456 55.9567 67.2642 51.1812 69.3756C48.7928 70.4316 46.891 71.6761 45.5932 73.0327C44.2978 74.3867 43.6245 75.8287 43.6245 77.3021C43.6245 78.7756 44.2978 80.2175 45.5932 81.5716C46.891 82.9282 48.7928 84.1727 51.1812 85.2287C55.9567 87.3401 62.5891 88.6587 69.9415 88.6587C77.2938 88.6587 83.9262 87.3401 88.7017 85.2287C91.0901 84.1727 92.9919 82.9282 94.2897 81.5716C95.5851 80.2175 96.2584 78.7756 96.2584 77.3021Z" fill="#E0E0E0" fill-opacity="0.6" stroke="#E0E0E0"/>
<path d="M47.0112 97.6878L69.4633 76.9404L105.558 79.214L47.0112 97.6878Z" stroke="#BDBDBD" stroke-opacity="0.5" stroke-width="3"/>
<path d="M138.191 80.1805C138.191 76.1509 136.346 72.2737 132.931 68.7047C129.515 65.1331 124.547 61.894 118.37 59.1628C106.016 53.7011 88.9155 50.3103 69.9999 50.3103C51.0844 50.3103 33.9836 53.7011 21.6304 59.1628C15.4531 61.894 10.4852 65.1331 7.06845 68.7047C3.65412 72.2737 1.80908 76.1509 1.80908 80.1805C1.80908 84.2102 3.65412 88.0873 7.06845 91.6564C10.4852 95.2279 15.4531 98.4671 21.6304 101.198C33.9836 106.66 51.0844 110.051 69.9999 110.051C88.9155 110.051 106.016 106.66 118.37 101.198C124.547 98.4671 129.515 95.2279 132.931 91.6564C136.346 88.0873 138.191 84.2102 138.191 80.1805Z" fill="#BDBDBD" fill-opacity="0.2" stroke="#EAEAEA"/>
<circle cx="69.9503" cy="55.6485" r="6.3341" fill="white"/>
<mask id="path-7-outside-1" maskUnits="userSpaceOnUse" x="58.832" y="44.5889" width="23" height="31" fill="black">
<rect fill="white" x="58.832" y="44.5889" width="23" height="31"/>
<path fill-rule="evenodd" clip-rule="evenodd" d="M59.832 55.7432C59.832 59.8374 61.2452 62.6929 68.8582 73.833C69.3577 74.5614 70.4263 74.5615 70.9259 73.833C78.539 62.6929 79.9521 59.8374 79.9521 55.7432C79.9521 50.1351 75.4481 45.5889 69.8921 45.5889C64.336 45.5889 59.832 50.1351 59.832 55.7432ZM70.0961 60.204C72.9305 60.204 75.2282 57.9559 75.2282 55.1827C75.2282 52.4095 72.9305 50.1614 70.0961 50.1614C67.2617 50.1614 64.9639 52.4095 64.9639 55.1827C64.9639 57.9559 67.2617 60.204 70.0961 60.204Z"/>
</mask>
<path fill-rule="evenodd" clip-rule="evenodd" d="M59.832 55.7432C59.832 59.8374 61.2452 62.6929 68.8582 73.833C69.3577 74.5614 70.4263 74.5615 70.9259 73.833C78.539 62.6929 79.9521 59.8374 79.9521 55.7432C79.9521 50.1351 75.4481 45.5889 69.8921 45.5889C64.336 45.5889 59.832 50.1351 59.832 55.7432ZM70.0961 60.204C72.9305 60.204 75.2282 57.9559 75.2282 55.1827C75.2282 52.4095 72.9305 50.1614 70.0961 50.1614C67.2617 50.1614 64.9639 52.4095 64.9639 55.1827C64.9639 57.9559 67.2617 60.204 70.0961 60.204Z" fill="#757575"/>
<path d="M68.8582 73.833L68.0326 74.3972L68.0335 74.3986L68.8582 73.833ZM70.9259 73.833L71.7506 74.3986L71.7516 74.3972L70.9259 73.833ZM69.6838 73.2688C62.0233 62.0591 60.832 59.4697 60.832 55.7432H58.832C58.832 60.2051 60.467 63.3266 68.0326 74.3972L69.6838 73.2688ZM70.1013 73.2674C69.9989 73.4166 69.7852 73.4166 69.6829 73.2674L68.0335 74.3986C68.9302 75.7062 70.8538 75.7063 71.7506 74.3986L70.1013 73.2674ZM78.9521 55.7432C78.9521 59.4697 77.7609 62.0591 70.1003 73.2688L71.7516 74.3972C79.3171 63.3266 80.9521 60.2051 80.9521 55.7432H78.9521ZM69.8921 46.5889C74.887 46.5889 78.9521 50.6786 78.9521 55.7432H80.9521C80.9521 49.5917 76.0091 44.5889 69.8921 44.5889V46.5889ZM60.832 55.7432C60.832 50.6786 64.8971 46.5889 69.8921 46.5889V44.5889C63.775 44.5889 58.832 49.5917 58.832 55.7432H60.832ZM74.2282 55.1827C74.2282 57.3831 72.3989 59.204 70.0961 59.204V61.204C73.462 61.204 76.2282 58.5286 76.2282 55.1827H74.2282ZM70.0961 51.1614C72.3989 51.1614 74.2282 52.9822 74.2282 55.1827H76.2282C76.2282 51.8367 73.462 49.1614 70.0961 49.1614V51.1614ZM65.9639 55.1827C65.9639 52.9822 67.7933 51.1614 70.0961 51.1614V49.1614C66.7301 49.1614 63.9639 51.8367 63.9639 55.1827H65.9639ZM70.0961 59.204C67.7933 59.204 65.9639 57.3831 65.9639 55.1827H63.9639C63.9639 58.5286 66.7301 61.204 70.0961 61.204V59.204Z" fill="white" mask="url(#path-7-outside-1)"/>
<ellipse cx="47.2676" cy="83.9785" rx="4.11716" ry="4.11716" fill="white"/>
<mask id="path-10-outside-2" maskUnits="userSpaceOnUse" x="39.6909" y="76.4395" width="16" height="21" fill="black">
<rect fill="white" x="39.6909" y="76.4395" width="16" height="21"/>
<path fill-rule="evenodd" clip-rule="evenodd" d="M40.6909 84.0398C40.6909 86.701 41.6094 88.5571 46.5579 95.7981C46.8826 96.2716 47.5772 96.2716 47.902 95.7981C52.8504 88.5571 53.769 86.701 53.769 84.0398C53.769 80.3945 50.8413 77.4395 47.2299 77.4395C43.6185 77.4395 40.6909 80.3945 40.6909 84.0398ZM47.3625 86.9393C49.2049 86.9393 50.6984 85.4781 50.6984 83.6755C50.6984 81.8729 49.2049 80.4116 47.3625 80.4116C45.5202 80.4116 44.0267 81.8729 44.0267 83.6755C44.0267 85.4781 45.5202 86.9393 47.3625 86.9393Z"/>
</mask>
<path fill-rule="evenodd" clip-rule="evenodd" d="M40.6909 84.0398C40.6909 86.701 41.6094 88.5571 46.5579 95.7981C46.8826 96.2716 47.5772 96.2716 47.902 95.7981C52.8504 88.5571 53.769 86.701 53.769 84.0398C53.769 80.3945 50.8413 77.4395 47.2299 77.4395C43.6185 77.4395 40.6909 80.3945 40.6909 84.0398ZM47.3625 86.9393C49.2049 86.9393 50.6984 85.4781 50.6984 83.6755C50.6984 81.8729 49.2049 80.4116 47.3625 80.4116C45.5202 80.4116 44.0267 81.8729 44.0267 83.6755C44.0267 85.4781 45.5202 86.9393 47.3625 86.9393Z" fill="#757575"/>
<path d="M46.5579 95.7981L45.7323 96.3624L45.7332 96.3637L46.5579 95.7981ZM47.902 95.7981L48.7266 96.3637L48.7276 96.3624L47.902 95.7981ZM47.3835 95.2339C42.3876 87.9233 41.6909 86.3333 41.6909 84.0398H39.6909C39.6909 87.0687 40.8313 89.1908 45.7323 96.3624L47.3835 95.2339ZM47.0773 95.2326C47.1498 95.1268 47.3101 95.1268 47.3826 95.2326L45.7332 96.3637C46.4551 97.4164 48.0047 97.4165 48.7266 96.3637L47.0773 95.2326ZM52.769 84.0398C52.769 86.3333 52.0723 87.9233 47.0763 95.2339L48.7276 96.3624C53.6285 89.1908 54.769 87.0687 54.769 84.0398H52.769ZM47.2299 78.4395C50.2803 78.4395 52.769 80.938 52.769 84.0398H54.769C54.769 79.8511 51.4024 76.4395 47.2299 76.4395V78.4395ZM41.6909 84.0398C41.6909 80.938 44.1796 78.4395 47.2299 78.4395V76.4395C43.0575 76.4395 39.6909 79.8511 39.6909 84.0398H41.6909ZM49.6984 83.6755C49.6984 84.9053 48.6733 85.9393 47.3625 85.9393V87.9393C49.7365 87.9393 51.6984 86.0508 51.6984 83.6755H49.6984ZM47.3625 81.4116C48.6733 81.4116 49.6984 82.4457 49.6984 83.6755H51.6984C51.6984 81.3002 49.7365 79.4116 47.3625 79.4116V81.4116ZM45.0267 83.6755C45.0267 82.4457 46.0518 81.4116 47.3625 81.4116V79.4116C44.9886 79.4116 43.0267 81.3002 43.0267 83.6755H45.0267ZM47.3625 85.9393C46.0518 85.9393 45.0267 84.9053 45.0267 83.6755H43.0267C43.0267 86.0508 44.9886 87.9393 47.3625 87.9393V85.9393Z" fill="white" mask="url(#path-10-outside-2)"/>
<path d="M50.0343 96.8984C50.0343 96.8602 50.0189 96.7857 49.9133 96.6753C49.8053 96.5624 49.6252 96.438 49.3642 96.3226C48.8436 96.0924 48.0894 95.9374 47.2298 95.9374C46.3702 95.9374 45.6159 96.0924 45.0953 96.3226C44.8344 96.438 44.6543 96.5624 44.5463 96.6753C44.4407 96.7857 44.4253 96.8602 44.4253 96.8984C44.4253 96.9365 44.4407 97.011 44.5463 97.1214C44.6543 97.2343 44.8344 97.3588 45.0953 97.4742C45.6159 97.7043 46.3702 97.8594 47.2298 97.8594C48.0894 97.8594 48.8436 97.7043 49.3642 97.4742C49.6252 97.3588 49.8053 97.2343 49.9133 97.1214C50.0189 97.011 50.0343 96.9365 50.0343 96.8984Z" fill="#BDBDBD" stroke="#BDBDBD"/>
<circle cx="106.404" cy="65.8567" r="3.87963" fill="white"/>
<mask id="path-14-outside-3" maskUnits="userSpaceOnUse" x="99.2061" y="58.6948" width="15" height="20" fill="black">
<rect fill="white" x="99.2061" y="58.6948" width="15" height="20"/>
<path fill-rule="evenodd" clip-rule="evenodd" d="M100.206 65.9144C100.206 68.4221 101.072 70.171 105.735 76.9944C106.041 77.4405 106.695 77.4405 107.001 76.9944C111.664 70.171 112.53 68.4221 112.53 65.9144C112.53 62.4794 109.771 59.6948 106.368 59.6948C102.965 59.6948 100.206 62.4794 100.206 65.9144ZM106.493 68.6467C108.229 68.6467 109.636 67.2697 109.636 65.5711C109.636 63.8725 108.229 62.4956 106.493 62.4956C104.757 62.4956 103.349 63.8725 103.349 65.5711C103.349 67.2697 104.757 68.6467 106.493 68.6467Z"/>
</mask>
<path fill-rule="evenodd" clip-rule="evenodd" d="M100.206 65.9144C100.206 68.4221 101.072 70.171 105.735 76.9944C106.041 77.4405 106.695 77.4405 107.001 76.9944C111.664 70.171 112.53 68.4221 112.53 65.9144C112.53 62.4794 109.771 59.6948 106.368 59.6948C102.965 59.6948 100.206 62.4794 100.206 65.9144ZM106.493 68.6467C108.229 68.6467 109.636 67.2697 109.636 65.5711C109.636 63.8725 108.229 62.4956 106.493 62.4956C104.757 62.4956 103.349 63.8725 103.349 65.5711C103.349 67.2697 104.757 68.6467 106.493 68.6467Z" fill="#757575"/>
<path d="M105.735 76.9944L104.909 77.5586L104.91 77.5599L105.735 76.9944ZM107.001 76.9944L107.826 77.5599L107.827 77.5586L107.001 76.9944ZM106.56 76.4301C101.85 69.5373 101.206 68.0543 101.206 65.9144H99.2061C99.2061 68.7898 100.293 70.8048 104.909 77.5586L106.56 76.4301ZM106.176 76.4288C106.268 76.2957 106.468 76.2957 106.559 76.4288L104.91 77.5599C105.613 78.5853 107.123 78.5854 107.826 77.5599L106.176 76.4288ZM111.53 65.9144C111.53 68.0543 110.886 69.5373 106.175 76.4301L107.827 77.5586C112.442 70.8048 113.53 68.7898 113.53 65.9144H111.53ZM106.368 60.6948C109.21 60.6948 111.53 63.0229 111.53 65.9144H113.53C113.53 61.9359 110.332 58.6948 106.368 58.6948V60.6948ZM101.206 65.9144C101.206 63.0229 103.526 60.6948 106.368 60.6948V58.6948C102.404 58.6948 99.2061 61.9359 99.2061 65.9144H101.206ZM108.636 65.5711C108.636 66.6969 107.697 67.6467 106.493 67.6467V69.6467C108.76 69.6467 110.636 67.8425 110.636 65.5711H108.636ZM106.493 63.4956C107.697 63.4956 108.636 64.4453 108.636 65.5711H110.636C110.636 63.2998 108.76 61.4956 106.493 61.4956V63.4956ZM104.349 65.5711C104.349 64.4453 105.288 63.4956 106.493 63.4956V61.4956C104.225 61.4956 102.349 63.2998 102.349 65.5711H104.349ZM106.493 67.6467C105.288 67.6467 104.349 66.6969 104.349 65.5711H102.349C102.349 67.8425 104.225 69.6467 106.493 69.6467V67.6467Z" fill="white" mask="url(#path-14-outside-3)"/>
</svg>
