<svg width="140" height="140" viewBox="0 0 140 140" fill="none" xmlns="http://www.w3.org/2000/svg">
<path fill-rule="evenodd" clip-rule="evenodd" d="M46.5845 21.5234C42.1662 21.5234 38.5845 25.1052 38.5845 29.5234V110.476C38.5845 114.894 42.1662 118.476 46.5845 118.476H87.4188C91.8371 118.476 95.4188 114.894 95.4188 110.476V29.5234C95.4188 25.1052 91.8371 21.5234 87.4188 21.5234H46.5845ZM90.4508 38.0127H44.3025V101.096H90.4508V38.0127Z" fill="#757575"/>
<circle cx="66.7967" cy="109.119" r="3.7611" stroke="#ACACAC" stroke-width="2"/>
<circle cx="56.6488" cy="27.3988" r="0.8358" fill="white" fill-opacity="0.4"/>
<rect x="60.4199" y="26.958" width="16.716" height="1.6716" rx="0.8358" fill="white" fill-opacity="0.4"/>
<path d="M43.9917 89.0817L71.3947 38.0288L90.5875 38.0288L90.5428 43.8373L61.0921 100.861L44.5134 101.342L43.9917 89.0817Z" fill="#EAEAEA"/>
<path d="M67.6108 101.075L90.4715 55.9595L90.4714 82.5108L80.7393 101.096L67.6108 101.075Z" fill="#EAEAEA"/>
<mask id="path-7-inside-1" fill="white">
<path fill-rule="evenodd" clip-rule="evenodd" d="M69.9253 47.1313C67.1639 47.1313 64.9253 49.3699 64.9253 52.1313V76.8599C64.9253 79.6214 67.1639 81.8599 69.9253 81.8599H72.9466L76.5167 88.0436L80.0869 81.8599H111.018C113.78 81.8599 116.018 79.6214 116.018 76.8599V52.1313C116.018 49.3699 113.78 47.1313 111.018 47.1313H69.9253Z"/>
</mask>
<path fill-rule="evenodd" clip-rule="evenodd" d="M69.9253 47.1313C67.1639 47.1313 64.9253 49.3699 64.9253 52.1313V76.8599C64.9253 79.6214 67.1639 81.8599 69.9253 81.8599H72.9466L76.5167 88.0436L80.0869 81.8599H111.018C113.78 81.8599 116.018 79.6214 116.018 76.8599V52.1313C116.018 49.3699 113.78 47.1313 111.018 47.1313H69.9253Z" fill="white"/>
<path d="M72.9466 81.8599L74.6786 80.8599L74.1013 79.8599H72.9466V81.8599ZM76.5167 88.0436L74.7847 89.0436L76.5167 92.0436L78.2488 89.0436L76.5167 88.0436ZM80.0869 81.8599V79.8599H78.9322L78.3548 80.8599L80.0869 81.8599ZM66.9253 52.1313C66.9253 50.4745 68.2684 49.1313 69.9253 49.1313V45.1313C66.0593 45.1313 62.9253 48.2653 62.9253 52.1313H66.9253ZM66.9253 76.8599V52.1313H62.9253V76.8599H66.9253ZM69.9253 79.8599C68.2684 79.8599 66.9253 78.5168 66.9253 76.8599H62.9253C62.9253 80.7259 66.0593 83.8599 69.9253 83.8599V79.8599ZM72.9466 79.8599H69.9253V83.8599H72.9466V79.8599ZM78.2488 87.0436L74.6786 80.8599L71.2145 82.8599L74.7847 89.0436L78.2488 87.0436ZM78.3548 80.8599L74.7847 87.0436L78.2488 89.0436L81.8189 82.8599L78.3548 80.8599ZM111.018 79.8599H80.0869V83.8599H111.018V79.8599ZM114.018 76.8599C114.018 78.5168 112.675 79.8599 111.018 79.8599V83.8599C114.884 83.8599 118.018 80.7259 118.018 76.8599H114.018ZM114.018 52.1313V76.8599H118.018V52.1313H114.018ZM111.018 49.1313C112.675 49.1313 114.018 50.4745 114.018 52.1313H118.018C118.018 48.2654 114.884 45.1313 111.018 45.1313V49.1313ZM69.9253 49.1313H111.018V45.1313H69.9253V49.1313Z" fill="#757575" mask="url(#path-7-inside-1)"/>
<path d="M83.3804 69.9756C83.4471 70.149 83.4804 70.309 83.4804 70.4556C83.4804 70.8023 83.3671 71.089 83.1404 71.3156C82.9137 71.529 82.6537 71.6356 82.3604 71.6356C82.1204 71.6356 81.9004 71.5623 81.7004 71.4156C81.5137 71.269 81.3671 71.069 81.2604 70.8156L80.2204 68.3956H74.2604L73.2204 70.8356C73.1271 71.089 72.9804 71.289 72.7804 71.4356C72.5937 71.569 72.3871 71.6356 72.1604 71.6356C71.8137 71.6356 71.5471 71.5423 71.3604 71.3556C71.1871 71.169 71.1004 70.9156 71.1004 70.5956C71.1004 70.4756 71.1204 70.349 71.1604 70.2156L76.1404 58.2556C76.2471 57.989 76.4071 57.7823 76.6204 57.6356C76.8337 57.489 77.0737 57.429 77.3404 57.4556C77.5804 57.4556 77.8004 57.529 78.0004 57.6756C78.2137 57.809 78.3671 58.0023 78.4604 58.2556L83.3804 69.9756ZM79.2404 66.0956L77.2204 61.4156L75.2404 66.0956H79.2404ZM91.1738 57.5356C92.4272 57.5356 93.5005 57.849 94.3938 58.4756C95.3005 59.089 95.9872 59.929 96.4538 60.9956C96.9338 62.049 97.1738 63.229 97.1738 64.5356C97.1738 65.8423 96.9338 67.029 96.4538 68.0956C95.9872 69.149 95.3005 69.989 94.3938 70.6156C93.5005 71.229 92.4272 71.5356 91.1738 71.5356H86.3938C86.0472 71.5356 85.7538 71.4223 85.5138 71.1956C85.2872 70.9556 85.1738 70.6623 85.1738 70.3156V58.7556C85.1738 58.409 85.2872 58.1223 85.5138 57.8956C85.7538 57.6556 86.0472 57.5356 86.3938 57.5356H91.1738ZM90.9738 69.2356C92.1738 69.2356 93.0738 68.7956 93.6738 67.9156C94.2738 67.0223 94.5738 65.8956 94.5738 64.5356C94.5738 63.1756 94.2672 62.0556 93.6538 61.1756C93.0538 60.2823 92.1605 59.8356 90.9738 59.8356H87.6738V69.2356H90.9738ZM103.971 71.7356C103.011 71.7356 102.157 71.6156 101.411 71.3756C100.664 71.1356 99.964 70.729 99.3107 70.1556C98.9507 69.8356 98.7707 69.4823 98.7707 69.0956C98.7707 68.789 98.884 68.5223 99.1107 68.2956C99.3374 68.0556 99.6107 67.9356 99.9307 67.9356C100.184 67.9356 100.411 68.0156 100.611 68.1756C101.144 68.6156 101.664 68.9356 102.171 69.1356C102.677 69.3356 103.277 69.4356 103.971 69.4356C104.717 69.4356 105.357 69.269 105.891 68.9356C106.437 68.6023 106.711 68.189 106.711 67.6956C106.711 67.0956 106.444 66.629 105.911 66.2956C105.377 65.949 104.531 65.689 103.371 65.5156C100.451 65.089 98.9907 63.729 98.9907 61.4356C98.9907 60.5956 99.2107 59.869 99.6507 59.2556C100.091 58.629 100.691 58.1556 101.451 57.8356C102.211 57.5023 103.057 57.3356 103.991 57.3356C104.831 57.3356 105.617 57.4623 106.351 57.7156C107.097 57.969 107.717 58.3023 108.211 58.7156C108.597 59.0223 108.791 59.3756 108.791 59.7756C108.791 60.0823 108.677 60.3556 108.451 60.5956C108.224 60.8223 107.957 60.9356 107.651 60.9356C107.451 60.9356 107.271 60.8756 107.111 60.7556C106.764 60.4756 106.277 60.2223 105.651 59.9956C105.037 59.7556 104.484 59.6356 103.991 59.6356C103.151 59.6356 102.497 59.7956 102.031 60.1156C101.577 60.4223 101.351 60.829 101.351 61.3356C101.351 61.909 101.584 62.3423 102.051 62.6356C102.531 62.929 103.277 63.169 104.291 63.3556C105.437 63.5556 106.351 63.8156 107.031 64.1356C107.724 64.4423 108.244 64.869 108.591 65.4156C108.937 65.949 109.111 66.6623 109.111 67.5556C109.111 68.3956 108.871 69.1356 108.391 69.7756C107.924 70.4023 107.297 70.889 106.511 71.2356C105.724 71.569 104.877 71.7356 103.971 71.7356Z" fill="#757575"/>
<path d="M83.3804 69.9756L83.6605 69.8679L83.657 69.8595L83.3804 69.9756ZM83.1404 71.3156L83.3461 71.5342L83.3525 71.5278L83.1404 71.3156ZM81.7004 71.4156L81.5149 71.6517L81.523 71.6576L81.7004 71.4156ZM81.2604 70.8156L81.5369 70.6992L81.536 70.6972L81.2604 70.8156ZM80.2204 68.3956L80.496 68.2772L80.418 68.0956H80.2204V68.3956ZM74.2604 68.3956V68.0956H74.0621L73.9844 68.278L74.2604 68.3956ZM73.2204 70.8356L72.9444 70.718L72.9415 70.7249L72.9389 70.7319L73.2204 70.8356ZM72.7804 71.4356L72.9548 71.6798L72.9578 71.6776L72.7804 71.4356ZM71.3604 71.3556L71.1404 71.5599L71.1483 71.5678L71.3604 71.3556ZM71.1604 70.2156L70.8834 70.1003L70.8775 70.1146L70.873 70.1294L71.1604 70.2156ZM76.1404 58.2556L76.4174 58.371L76.4189 58.3671L76.1404 58.2556ZM76.6204 57.6356L76.4504 57.3884L76.4504 57.3884L76.6204 57.6356ZM77.3404 57.4556L77.3105 57.7542L77.3254 57.7556H77.3404V57.4556ZM78.0004 57.6756L77.823 57.9176L77.832 57.9241L77.8414 57.93L78.0004 57.6756ZM78.4604 58.2556L78.1786 58.3595L78.1838 58.3718L78.4604 58.2556ZM79.2404 66.0956V66.3956H79.6966L79.5158 65.9768L79.2404 66.0956ZM77.2204 61.4156L77.4958 61.2968L77.2176 60.6522L76.9441 61.2988L77.2204 61.4156ZM75.2404 66.0956L74.9641 65.9788L74.7877 66.3956H75.2404V66.0956ZM83.1004 70.0833C83.1572 70.2311 83.1804 70.3541 83.1804 70.4556H83.7804C83.7804 70.2638 83.7369 70.0669 83.6604 69.868L83.1004 70.0833ZM83.1804 70.4556C83.1804 70.7299 83.0938 70.938 82.9283 71.1035L83.3525 71.5278C83.6403 71.24 83.7804 70.8747 83.7804 70.4556H83.1804ZM82.9348 71.0972C82.76 71.2617 82.5723 71.3356 82.3604 71.3356V71.9356C82.7351 71.9356 83.0674 71.7963 83.346 71.5341L82.9348 71.0972ZM82.3604 71.3356C82.1864 71.3356 82.0282 71.284 81.8778 71.1737L81.523 71.6576C81.7726 71.8406 82.0543 71.9356 82.3604 71.9356V71.3356ZM81.8857 71.1797C81.745 71.0692 81.6269 70.9131 81.5369 70.6992L80.9839 70.9321C81.1072 71.2248 81.2824 71.4688 81.515 71.6515L81.8857 71.1797ZM81.536 70.6972L80.496 68.2772L79.9448 68.5141L80.9848 70.9341L81.536 70.6972ZM80.2204 68.0956H74.2604V68.6956H80.2204V68.0956ZM73.9844 68.278L72.9444 70.718L73.4964 70.9533L74.5364 68.5133L73.9844 68.278ZM72.9389 70.7319C72.864 70.9351 72.7513 71.085 72.603 71.1937L72.9578 71.6776C73.2095 71.493 73.3901 71.2429 73.5019 70.9394L72.9389 70.7319ZM72.606 71.1915C72.4696 71.289 72.3237 71.3356 72.1604 71.3356V71.9356C72.4504 71.9356 72.7179 71.849 72.9548 71.6798L72.606 71.1915ZM72.1604 71.3356C71.8674 71.3356 71.6869 71.2579 71.5725 71.1435L71.1483 71.5678C71.4072 71.8267 71.76 71.9356 72.1604 71.9356V71.3356ZM71.5802 71.1515C71.4707 71.0336 71.4004 70.8602 71.4004 70.5956H70.8004C70.8004 70.9711 70.9034 71.3044 71.1406 71.5598L71.5802 71.1515ZM71.4004 70.5956C71.4004 70.5091 71.4148 70.4116 71.4477 70.3018L70.873 70.1294C70.826 70.2864 70.8004 70.4422 70.8004 70.5956H71.4004ZM71.4373 70.331L76.4173 58.371L75.8634 58.1403L70.8834 70.1003L71.4373 70.331ZM76.4189 58.3671C76.5061 58.1491 76.6311 57.9923 76.7903 57.8829L76.4504 57.3884C76.183 57.5723 75.988 57.8288 75.8618 58.1442L76.4189 58.3671ZM76.7903 57.8829C76.943 57.7779 77.1117 57.7343 77.3105 57.7542L77.3702 57.1571C77.0357 57.1237 76.7244 57.2001 76.4504 57.3884L76.7903 57.8829ZM77.3404 57.7556C77.5143 57.7556 77.6726 57.8073 77.823 57.9176L78.1778 57.4337C77.9282 57.2507 77.6464 57.1556 77.3404 57.1556V57.7556ZM77.8414 57.93C77.9941 58.0255 78.1068 58.1636 78.1789 58.3594L78.7419 58.1519C78.6274 57.841 78.4334 57.5925 78.1594 57.4212L77.8414 57.93ZM78.1838 58.3718L83.1038 70.0918L83.657 69.8595L78.737 58.1395L78.1838 58.3718ZM79.5158 65.9768L77.4958 61.2968L76.945 61.5345L78.965 66.2145L79.5158 65.9768ZM76.9441 61.2988L74.9641 65.9788L75.5167 66.2125L77.4967 61.5325L76.9441 61.2988ZM75.2404 66.3956H79.2404V65.7956H75.2404V66.3956ZM94.3938 58.4756L94.2215 58.7213L94.2257 58.7241L94.3938 58.4756ZM96.4538 60.9956L96.179 61.1159L96.1808 61.12L96.4538 60.9956ZM96.4538 68.0956L96.1802 67.9725L96.1795 67.9741L96.4538 68.0956ZM94.3938 70.6156L94.5636 70.863L94.5644 70.8624L94.3938 70.6156ZM85.5138 71.1956L85.2957 71.4016L85.3016 71.4079L85.3078 71.4137L85.5138 71.1956ZM85.5138 57.8956L85.3017 57.6835L85.3017 57.6835L85.5138 57.8956ZM93.6738 67.9156L93.9217 68.0846L93.9229 68.0829L93.6738 67.9156ZM93.6538 61.1756L93.4047 61.3429L93.4077 61.3472L93.6538 61.1756ZM87.6738 59.8356V59.5356H87.3738V59.8356H87.6738ZM87.6738 69.2356H87.3738V69.5356H87.6738V69.2356ZM91.1738 57.8356C92.375 57.8356 93.3859 58.1351 94.2215 58.7212L94.5661 58.23C93.6151 57.5629 92.4793 57.2356 91.1738 57.2356V57.8356ZM94.2257 58.7241C95.0824 59.3036 95.7335 60.0977 96.179 61.1159L96.7287 60.8754C96.2408 59.7602 95.5186 58.8743 94.5619 58.2272L94.2257 58.7241ZM96.1808 61.12C96.6409 62.1296 96.8738 63.2664 96.8738 64.5356H97.4738C97.4738 63.1916 97.2268 61.9684 96.7268 60.8712L96.1808 61.12ZM96.8738 64.5356C96.8738 65.8049 96.6409 66.9489 96.1803 67.9725L96.7274 68.2188C97.2268 67.1091 97.4738 65.8798 97.4738 64.5356H96.8738ZM96.1795 67.9741C95.7342 68.9793 95.0824 69.7751 94.2233 70.3689L94.5644 70.8624C95.5186 70.2029 96.2401 69.3186 96.7281 68.2172L96.1795 67.9741ZM94.224 70.3683C93.3882 70.9422 92.3763 71.2356 91.1738 71.2356V71.8356C92.478 71.8356 93.6128 71.5158 94.5636 70.863L94.224 70.3683ZM91.1738 71.2356H86.3938V71.8356H91.1738V71.2356ZM86.3938 71.2356C86.1195 71.2356 85.9011 71.1488 85.7198 70.9775L85.3078 71.4137C85.6065 71.6958 85.9748 71.8356 86.3938 71.8356V71.2356ZM85.7319 70.9897C85.5607 70.8084 85.4738 70.5899 85.4738 70.3156H84.8738C84.8738 70.7347 85.0136 71.1029 85.2957 71.4016L85.7319 70.9897ZM85.4738 70.3156V58.7556H84.8738V70.3156H85.4738ZM85.4738 58.7556C85.4738 58.4814 85.5604 58.2733 85.726 58.1078L85.3017 57.6835C85.0139 57.9713 84.8738 58.3366 84.8738 58.7556H85.4738ZM85.726 58.1078C85.9084 57.9254 86.1248 57.8356 86.3938 57.8356V57.2356C85.9695 57.2356 85.5993 57.3859 85.3017 57.6835L85.726 58.1078ZM86.3938 57.8356H91.1738V57.2356H86.3938V57.8356ZM90.9738 69.5356C92.2584 69.5356 93.258 69.058 93.9217 68.0846L93.426 67.7466C92.8896 68.5333 92.0893 68.9356 90.9738 68.9356V69.5356ZM93.9229 68.0829C94.5639 67.1285 94.8738 65.9395 94.8738 64.5356H94.2738C94.2738 65.8518 93.9838 66.9161 93.4248 67.7484L93.9229 68.0829ZM94.8738 64.5356C94.8738 63.1308 94.5567 61.9464 93.8999 61.0041L93.4077 61.3472C93.9776 62.1649 94.2738 63.2205 94.2738 64.5356H94.8738ZM93.9029 61.0084C93.2407 60.0225 92.2484 59.5356 90.9738 59.5356V60.1356C92.0726 60.1356 92.8669 60.5421 93.4048 61.3429L93.9029 61.0084ZM90.9738 59.5356H87.6738V60.1356H90.9738V59.5356ZM87.3738 59.8356V69.2356H87.9738V59.8356H87.3738ZM87.6738 69.5356H90.9738V68.9356H87.6738V69.5356ZM101.411 71.3756L101.319 71.6613L101.411 71.3756ZM99.3107 70.1556L99.1114 70.3799L99.1128 70.3811L99.3107 70.1556ZM99.1107 68.2956L99.3229 68.5079L99.3288 68.5016L99.1107 68.2956ZM100.611 68.1756L100.802 67.9442L100.798 67.9414L100.611 68.1756ZM105.891 68.9356L105.735 68.6795L105.732 68.6812L105.891 68.9356ZM105.911 66.2956L105.747 66.5472L105.752 66.55L105.911 66.2956ZM103.371 65.5156L103.415 65.2189L103.414 65.2188L103.371 65.5156ZM99.6507 59.2556L99.8945 59.4305L99.8962 59.428L99.6507 59.2556ZM101.451 57.8356L101.567 58.1122L101.571 58.1104L101.451 57.8356ZM106.351 57.7156L106.253 57.9992L106.254 57.9997L106.351 57.7156ZM108.211 58.7156L108.018 58.9457L108.024 58.9507L108.211 58.7156ZM108.451 60.5956L108.663 60.8079L108.669 60.8016L108.451 60.5956ZM107.111 60.7556L106.922 60.9892L106.931 60.9956L107.111 60.7556ZM105.651 59.9956L105.541 60.2751L105.549 60.2778L105.651 59.9956ZM102.031 60.1156L102.199 60.3641L102.2 60.3631L102.031 60.1156ZM102.051 62.6356L101.891 62.8897L101.894 62.8916L102.051 62.6356ZM104.291 63.3556L104.236 63.6507L104.239 63.6512L104.291 63.3556ZM107.031 64.1356L106.903 64.4072L106.909 64.41L107.031 64.1356ZM108.591 65.4156L108.337 65.5763L108.339 65.5791L108.591 65.4156ZM108.391 69.7756L108.151 69.5956L108.15 69.5965L108.391 69.7756ZM106.511 71.2356L106.628 71.5119L106.632 71.5102L106.511 71.2356ZM103.971 71.4356C103.035 71.4356 102.214 71.3186 101.503 71.09L101.319 71.6613C102.101 71.9126 102.986 72.0356 103.971 72.0356V71.4356ZM101.503 71.09C100.799 70.8639 100.134 70.4793 99.5086 69.9302L99.1128 70.3811C99.7937 70.9786 100.529 71.4074 101.319 71.6613L101.503 71.09ZM99.51 69.9314C99.1971 69.6533 99.0707 69.3763 99.0707 69.0956H98.4707C98.4707 69.5883 98.7043 70.018 99.1114 70.3799L99.51 69.9314ZM99.0707 69.0956C99.0707 68.8725 99.1496 68.681 99.3228 68.5078L98.8986 68.0835C98.6185 68.3636 98.4707 68.7055 98.4707 69.0956H99.0707ZM99.3288 68.5016C99.5008 68.3195 99.6961 68.2356 99.9307 68.2356V67.6356C99.5253 67.6356 99.1739 67.7918 98.8926 68.0897L99.3288 68.5016ZM99.9307 68.2356C100.115 68.2356 100.276 68.2919 100.423 68.4099L100.798 67.9414C100.546 67.7393 100.253 67.6356 99.9307 67.6356V68.2356ZM100.42 68.4071C100.971 68.8619 101.518 69.2005 102.061 69.4147L102.281 68.8566C101.81 68.6708 101.317 68.3693 100.802 67.9442L100.42 68.4071ZM102.061 69.4147C102.61 69.6317 103.25 69.7356 103.971 69.7356V69.1356C103.305 69.1356 102.744 69.0395 102.281 68.8566L102.061 69.4147ZM103.971 69.7356C104.763 69.7356 105.46 69.5584 106.05 69.19L105.732 68.6812C105.254 68.9796 104.672 69.1356 103.971 69.1356V69.7356ZM106.047 69.1918C106.653 68.8224 107.011 68.3247 107.011 67.6956H106.411C106.411 68.0532 106.222 68.3822 105.735 68.6795L106.047 69.1918ZM107.011 67.6956C107.011 66.9863 106.686 66.4262 106.07 66.0412L105.752 66.55C106.202 66.8318 106.411 67.205 106.411 67.6956H107.011ZM106.074 66.0441C105.486 65.6618 104.588 65.3942 103.415 65.2189L103.326 65.8123C104.474 65.9838 105.269 66.2362 105.747 66.5472L106.074 66.0441ZM103.414 65.2188C101.987 65.0103 100.959 64.5791 100.29 63.9561C99.6304 63.3416 99.2907 62.5127 99.2907 61.4356H98.6907C98.6907 62.6519 99.081 63.6497 99.8812 64.3952C100.672 65.1322 101.834 65.5943 103.327 65.8125L103.414 65.2188ZM99.2907 61.4356C99.2907 60.651 99.4951 59.9872 99.8945 59.4305L99.4069 59.0808C98.9263 59.7508 98.6907 60.5403 98.6907 61.4356H99.2907ZM99.8962 59.428C100.301 58.8511 100.855 58.412 101.567 58.1121L101.334 57.5592C100.526 57.8993 99.8801 58.4069 99.4052 59.0833L99.8962 59.428ZM101.571 58.1104C102.289 57.7957 103.094 57.6356 103.991 57.6356V57.0356C103.021 57.0356 102.133 57.209 101.33 57.5609L101.571 58.1104ZM103.991 57.6356C104.8 57.6356 105.553 57.7576 106.253 57.9992L106.449 57.4321C105.681 57.167 104.861 57.0356 103.991 57.0356V57.6356ZM106.254 57.9997C106.973 58.2437 107.559 58.5608 108.018 58.9456L108.403 58.4857C107.876 58.0438 107.221 57.6942 106.447 57.4316L106.254 57.9997ZM108.024 58.9507C108.358 59.2151 108.491 59.4885 108.491 59.7756H109.091C109.091 59.2628 108.837 58.8295 108.397 58.4806L108.024 58.9507ZM108.491 59.7756C108.491 59.9995 108.411 60.2007 108.233 60.3897L108.669 60.8016C108.944 60.5106 109.091 60.1651 109.091 59.7756H108.491ZM108.239 60.3835C108.065 60.5568 107.874 60.6356 107.651 60.6356V61.2356C108.041 61.2356 108.383 61.0879 108.663 60.8078L108.239 60.3835ZM107.651 60.6356C107.516 60.6356 107.399 60.5967 107.291 60.5156L106.931 60.9956C107.143 61.1546 107.386 61.2356 107.651 61.2356V60.6356ZM107.299 60.5223C106.917 60.2137 106.397 59.9465 105.753 59.7135L105.549 60.2778C106.158 60.4981 106.611 60.7376 106.922 60.989L107.299 60.5223ZM105.76 59.7163C105.123 59.4669 104.532 59.3356 103.991 59.3356V59.9356C104.436 59.9356 104.952 60.0443 105.541 60.275L105.76 59.7163ZM103.991 59.3356C103.118 59.3356 102.396 59.5011 101.861 59.8682L102.2 60.3631C102.598 60.0902 103.184 59.9356 103.991 59.9356V59.3356ZM101.863 59.8672C101.335 60.2243 101.051 60.7203 101.051 61.3356H101.651C101.651 60.9377 101.82 60.6203 102.199 60.3641L101.863 59.8672ZM101.051 61.3356C101.051 62.0071 101.333 62.5388 101.891 62.8896L102.21 62.3817C101.835 62.1458 101.651 61.8108 101.651 61.3356H101.051ZM101.894 62.8916C102.422 63.214 103.212 63.4619 104.236 63.6507L104.345 63.0606C103.343 62.876 102.64 62.644 102.207 62.3797L101.894 62.8916ZM104.239 63.6512C105.372 63.8488 106.257 64.1029 106.903 64.4071L107.158 63.8642C106.445 63.5284 105.503 63.2625 104.342 63.0601L104.239 63.6512ZM106.909 64.41C107.558 64.6969 108.028 65.0879 108.337 65.5763L108.844 65.255C108.46 64.6501 107.89 64.1878 107.152 63.8613L106.909 64.41ZM108.339 65.5791C108.644 66.0479 108.811 66.6978 108.811 67.5556H109.411C109.411 66.6268 109.231 65.8501 108.842 65.2521L108.339 65.5791ZM108.811 67.5556C108.811 68.3342 108.59 69.0103 108.151 69.5956L108.631 69.9556C109.152 69.261 109.411 68.4571 109.411 67.5556H108.811ZM108.15 69.5965C107.717 70.1775 107.134 70.6332 106.39 70.9611L106.632 71.5102C107.461 71.1447 108.131 70.6272 108.631 69.9548L108.15 69.5965ZM106.394 70.9594C105.646 71.2761 104.84 71.4356 103.971 71.4356V72.0356C104.915 72.0356 105.802 71.8618 106.628 71.5119L106.394 70.9594Z" fill="#757575"/>
</svg>
