<svg width="12" height="13" viewBox="0 0 12 13" fill="none" xmlns="http://www.w3.org/2000/svg">
<g clip-path="url(#clip0)">
<path d="M4.8125 8.56661H5.125V6.5916H4.8125C4.63991 6.5916 4.5 6.46918 4.5 6.31816V5.66504C4.5 5.51402 4.63991 5.3916 4.8125 5.3916H6.5625C6.73509 5.3916 6.875 5.51402 6.875 5.66504V8.56661H7.1875C7.36009 8.56661 7.5 8.68903 7.5 8.84004V9.49316C7.5 9.64418 7.36009 9.7666 7.1875 9.7666H4.8125C4.63991 9.7666 4.5 9.64418 4.5 9.49316V8.84004C4.5 8.68903 4.63991 8.56661 4.8125 8.56661ZM6 2.7666C5.37867 2.7666 4.875 3.20731 4.875 3.75098C4.875 4.29464 5.37867 4.73535 6 4.73535C6.62133 4.73535 7.125 4.29464 7.125 3.75098C7.125 3.20731 6.62131 2.7666 6 2.7666Z" fill="#C6B8B4"/>
</g>
<circle cx="6" cy="6.2666" r="5.5" stroke="#C6B8B4"/>
<defs>
<clipPath id="clip0">
<rect width="3" height="7" fill="white" transform="translate(4.5 2.7666)"/>
</clipPath>
</defs>
</svg>
