<svg width="24" height="25" viewBox="0 0 24 25" fill="none" xmlns="http://www.w3.org/2000/svg">
<path fill-rule="evenodd" clip-rule="evenodd" d="M5.27173 3.54688H9.54937V9.25867H7.42279L12.0011 15.2617L16.5794 9.25867H14.4496V3.54688H18.8994C19.8877 3.54688 20.7278 4.26877 20.8766 5.24582L22.4998 15.9062H22.5L22.4999 15.9068L22.5 15.9076L22.4997 15.9077L21.3302 20.6653C21.1104 21.5594 20.3086 22.1879 19.388 22.1879H4.76899C3.87113 22.1879 3.08331 21.5896 2.84235 20.7246L1.50039 15.9077L1.5 15.9076L1.50014 15.9067L1.5 15.9062H1.50022L3.29947 5.21496C3.46152 4.25202 4.29525 3.54688 5.27173 3.54688Z" fill="#3E2723"/>
</svg>
