<svg width="27" height="39" viewBox="0 0 27 39" fill="none" xmlns="http://www.w3.org/2000/svg">
<g clip-path="url(#clip0)">
<circle cx="15" cy="13" r="9" fill="white"/>
<path fill-rule="evenodd" clip-rule="evenodd" d="M-0.078125 13.6266C-0.078125 19.1207 1.8182 22.9526 12.0345 37.9021C12.7048 38.8796 14.1389 38.8796 14.8093 37.9021C25.0255 22.9526 26.9219 19.1207 26.9219 13.6266C26.9219 6.10081 20.8777 0 13.4219 0C5.96601 0 -0.078125 6.10081 -0.078125 13.6266ZM13.6956 19.6126C17.4992 19.6126 20.5827 16.5957 20.5827 12.8743C20.5827 9.15281 17.4992 6.13597 13.6956 6.13597C9.89202 6.13597 6.80859 9.15281 6.80859 12.8743C6.80859 16.5957 9.89202 19.6126 13.6956 19.6126Z" fill="#3E2723"/>
<path d="M12.5479 11.8203H13.2998C13.6579 11.8203 13.9232 11.7308 14.0957 11.5518C14.2682 11.3727 14.3545 11.1351 14.3545 10.8389C14.3545 10.5524 14.2682 10.3294 14.0957 10.1699C13.9264 10.0104 13.6921 9.93066 13.3926 9.93066C13.1224 9.93066 12.8962 10.0055 12.7139 10.1553C12.5316 10.3018 12.4404 10.4938 12.4404 10.7314H11.0293C11.0293 10.3604 11.1286 10.0283 11.3271 9.73535C11.529 9.43913 11.8089 9.20801 12.167 9.04199C12.5283 8.87598 12.9255 8.79297 13.3584 8.79297C14.1104 8.79297 14.6995 8.97363 15.126 9.33496C15.5524 9.69303 15.7656 10.1878 15.7656 10.8193C15.7656 11.1449 15.6663 11.4443 15.4678 11.7178C15.2692 11.9912 15.0088 12.2012 14.6865 12.3477C15.0869 12.4909 15.3848 12.7057 15.5801 12.9922C15.7786 13.2786 15.8779 13.6172 15.8779 14.0078C15.8779 14.6393 15.6468 15.1455 15.1846 15.5264C14.7256 15.9072 14.1169 16.0977 13.3584 16.0977C12.6488 16.0977 12.0677 15.9105 11.6152 15.5361C11.166 15.1618 10.9414 14.667 10.9414 14.0518H12.3525C12.3525 14.3187 12.4518 14.5368 12.6504 14.7061C12.8522 14.8753 13.0996 14.96 13.3926 14.96C13.7279 14.96 13.9899 14.8721 14.1787 14.6963C14.3708 14.5173 14.4668 14.2812 14.4668 13.9883C14.4668 13.2786 14.0762 12.9238 13.2949 12.9238H12.5479V11.8203Z" fill="#3E2723"/>
</g>
<defs>
<clipPath id="clip0">
<rect width="27" height="39" fill="white"/>
</clipPath>
</defs>
</svg>
