<svg width="27" height="39" viewBox="0 0 27 39" fill="none" xmlns="http://www.w3.org/2000/svg">
<g clip-path="url(#clip0)">
<circle cx="15" cy="12" r="10" fill="white"/>
<path fill-rule="evenodd" clip-rule="evenodd" d="M-0.078125 13.6266C-0.078125 19.1207 1.8182 22.9526 12.0345 37.9021C12.7048 38.8796 14.1389 38.8796 14.8093 37.9021C25.0255 22.9526 26.9219 19.1207 26.9219 13.6266C26.9219 6.10081 20.8777 0 13.4219 0C5.96601 0 -0.078125 6.10081 -0.078125 13.6266ZM13.6956 19.6126C17.4992 19.6126 20.5827 16.5957 20.5827 12.8743C20.5827 9.15281 17.4992 6.13597 13.6956 6.13597C9.89202 6.13597 6.80859 9.15281 6.80859 12.8743C6.80859 16.5957 9.89202 19.6126 13.6956 19.6126Z" fill="#3E2723"/>
<path d="M15.9854 16H11.1123V15.0332L13.4121 12.582C13.7279 12.237 13.9606 11.9359 14.1104 11.6787C14.2633 11.4215 14.3398 11.1774 14.3398 10.9463C14.3398 10.6305 14.2601 10.3831 14.1006 10.2041C13.9411 10.0218 13.7132 9.93066 13.417 9.93066C13.098 9.93066 12.8457 10.0413 12.6602 10.2627C12.4779 10.4808 12.3867 10.7689 12.3867 11.127H10.9707C10.9707 10.694 11.0732 10.2985 11.2783 9.94043C11.4867 9.58236 11.7796 9.30241 12.1572 9.10059C12.5348 8.89551 12.9629 8.79297 13.4414 8.79297C14.1738 8.79297 14.7419 8.96875 15.1455 9.32031C15.5524 9.67188 15.7559 10.1683 15.7559 10.8096C15.7559 11.1611 15.6647 11.5192 15.4824 11.8838C15.3001 12.2484 14.9876 12.6732 14.5449 13.1582L12.9287 14.8623H15.9854V16Z" fill="#3E2723"/>
</g>
<defs>
<clipPath id="clip0">
<rect width="27" height="39" fill="white"/>
</clipPath>
</defs>
</svg>
