<svg width="27" height="39" viewBox="0 0 27 39" fill="none" xmlns="http://www.w3.org/2000/svg">
<g clip-path="url(#clip0)">
<circle cx="13.5" cy="13.5" r="8.5" fill="white"/>
<path fill-rule="evenodd" clip-rule="evenodd" d="M-0.078125 13.6266C-0.078125 19.1207 1.8182 22.9526 12.0345 37.9021C12.7048 38.8796 14.1389 38.8796 14.8093 37.9021C25.0255 22.9526 26.9219 19.1207 26.9219 13.6266C26.9219 6.10081 20.8777 0 13.4219 0C5.96601 0 -0.078125 6.10081 -0.078125 13.6266ZM13.6956 19.6126C17.4992 19.6126 20.5827 16.5957 20.5827 12.8743C20.5827 9.15281 17.4992 6.13597 13.6956 6.13597C9.89202 6.13597 6.80859 9.15281 6.80859 12.8743C6.80859 16.5957 9.89202 19.6126 13.6956 19.6126Z" fill="#3E2723"/>
<path d="M14.54 16H13.1289V10.5605L11.4443 11.083V9.93555L14.3887 8.88086H14.54V16Z" fill="#3E2723"/>
</g>
<defs>
<clipPath id="clip0">
<rect width="27" height="39" fill="white"/>
</clipPath>
</defs>
</svg>
