<svg width="30" height="42" viewBox="0 0 30 42" fill="none" xmlns="http://www.w3.org/2000/svg">
<mask id="path-1-outside-1" maskUnits="userSpaceOnUse" x="0.32666" y="0.951172" width="29" height="41" fill="black">
<rect fill="white" x="0.32666" y="0.951172" width="29" height="41"/>
<path d="M13.4393 40.2111C3.22299 25.1205 1.32666 21.2525 1.32666 15.7064C1.32666 8.10959 7.37079 1.95117 14.8267 1.95117C22.2825 1.95117 28.3267 8.10959 28.3267 15.7064C28.3267 21.2525 26.4303 25.1205 16.2141 40.2111C15.5436 41.1979 14.1096 41.1978 13.4393 40.2111Z"/>
</mask>
<path d="M13.4393 40.2111C3.22299 25.1205 1.32666 21.2525 1.32666 15.7064C1.32666 8.10959 7.37079 1.95117 14.8267 1.95117C22.2825 1.95117 28.3267 8.10959 28.3267 15.7064C28.3267 21.2525 26.4303 25.1205 16.2141 40.2111C15.5436 41.1979 14.1096 41.1978 13.4393 40.2111Z" fill="#3E2723"/>
<path d="M13.4393 40.2111L12.6112 40.7717L12.6121 40.7731L13.4393 40.2111ZM16.2141 40.2111L17.0412 40.7731L17.0421 40.7717L16.2141 40.2111ZM14.2673 39.6505C4.00472 24.4914 2.32666 20.8878 2.32666 15.7064H0.32666C0.32666 21.6171 2.44126 25.7496 12.6112 40.7717L14.2673 39.6505ZM2.32666 15.7064C2.32666 8.64413 7.94065 2.95117 14.8267 2.95117V0.951172C6.80093 0.951172 0.32666 7.57504 0.32666 15.7064H2.32666ZM14.8267 2.95117C21.7127 2.95117 27.3267 8.64413 27.3267 15.7064H29.3267C29.3267 7.57504 22.8524 0.951172 14.8267 0.951172V2.95117ZM27.3267 15.7064C27.3267 20.8878 25.6486 24.4914 15.386 39.6505L17.0421 40.7717C27.2121 25.7496 29.3267 21.6171 29.3267 15.7064H27.3267ZM15.3869 39.6491C15.1133 40.0519 14.54 40.0518 14.2664 39.6491L12.6121 40.7731C13.6792 42.3438 15.974 42.3439 17.0412 40.7731L15.3869 39.6491Z" fill="white" mask="url(#path-1-outside-1)"/>
<path d="M8.94287 18.4512H7.53174V13.0117L5.84717 13.5342V12.3867L8.7915 11.332H8.94287V18.4512ZM13.2349 16.332L12.7271 16.8398V18.4512H11.3159V10.9512H12.7271V15.1064L13.0005 14.7549L14.353 13.168H16.0474L14.1382 15.3701L16.2134 18.4512H14.5923L13.2349 16.332ZM17.981 13.168L18.0249 13.7588C18.3993 13.2998 18.9054 13.0703 19.5435 13.0703C20.2238 13.0703 20.6909 13.3389 20.9448 13.876C21.3159 13.3389 21.8449 13.0703 22.5317 13.0703C23.1047 13.0703 23.5311 13.238 23.811 13.5732C24.091 13.9053 24.231 14.4066 24.231 15.0771V18.4512H22.8149V15.082C22.8149 14.7826 22.7563 14.5645 22.6392 14.4277C22.522 14.2878 22.3153 14.2178 22.019 14.2178C21.5959 14.2178 21.3029 14.4196 21.1401 14.8232L21.145 18.4512H19.7339V15.0869C19.7339 14.7809 19.6737 14.5596 19.5532 14.4229C19.4328 14.2861 19.2277 14.2178 18.938 14.2178C18.5376 14.2178 18.2479 14.3838 18.0688 14.7158V18.4512H16.6577V13.168H17.981Z" fill="white"/>
</svg>
