<svg width="14" height="21" viewBox="0 0 14 21" fill="none" xmlns="http://www.w3.org/2000/svg">
<g clip-path="url(#clip0)">
<path d="M6.2806 19.6028C0.983281 11.3747 0 10.5303 0 7.50631C0 3.36417 3.13399 0.00631714 7 0.00631714C10.866 0.00631714 14 3.36417 14 7.50631C14 10.5303 13.0167 11.3747 7.71939 19.6028C7.37176 20.1408 6.6282 20.1408 6.2806 19.6028Z" fill="#42322E"/>
<path d="M9.65127 7.56882H7.70655V9.25632C7.70655 9.46339 7.51303 9.63132 7.27439 9.63132H6.84224C6.6036 9.63132 6.41008 9.46339 6.41008 9.25632V7.56882H4.46536C4.22673 7.56882 4.0332 7.40089 4.0332 7.19382V6.81882C4.0332 6.61175 4.22673 6.44382 4.46536 6.44382H6.41008V4.75632C6.41008 4.54925 6.6036 4.38132 6.84224 4.38132H7.27439C7.51303 4.38132 7.70655 4.54925 7.70655 4.75632V6.44382H9.65127C9.8899 6.44382 10.0834 6.61175 10.0834 6.81882V7.19382C10.0834 7.40089 9.8899 7.56882 9.65127 7.56882Z" fill="white"/>
</g>
<defs>
<clipPath id="clip0">
<rect y="0.00315857" width="14" height="20" fill="white"/>
</clipPath>
</defs>
</svg>
