<svg width="27" height="16" viewBox="0 0 27 16" fill="none" xmlns="http://www.w3.org/2000/svg">
<rect x="1.75" y="0.976562" width="23.8991" height="14.7421" rx="2" fill="#FFC400"/>
<path d="M8.77847 8.85594L9.02047 7.96494C9.26247 7.11794 9.50447 6.19394 9.71347 5.30294H9.75747C9.99947 6.18294 10.2195 7.11794 10.4725 7.96494L10.7145 8.85594H8.77847ZM11.6385 12.2109H13.3435L10.7255 4.07094H8.81147L6.20447 12.2109H7.85447L8.42647 10.1209H11.0665L11.6385 12.2109ZM14.2963 12.2109H16.6173C19.0153 12.2109 20.5553 10.8469 20.5553 8.10794C20.5553 5.35794 19.0153 4.07094 16.5293 4.07094H14.2963V12.2109ZM15.9243 10.9019V5.36894H16.4303C17.9483 5.36894 18.8943 6.11694 18.8943 8.10794C18.8943 10.0879 17.9483 10.9019 16.4303 10.9019H15.9243Z" fill="#403532"/>
</svg>
