<svg width="33" height="33" viewBox="0 0 33 33" fill="none" xmlns="http://www.w3.org/2000/svg">
<path d="M30.929 16.3711C30.929 24.3792 24.4371 30.8711 16.429 30.8711C8.42083 30.8711 1.92896 24.3792 1.92896 16.3711C1.92896 8.36297 8.42083 1.87109 16.429 1.87109C24.4371 1.87109 30.929 8.36297 30.929 16.3711Z" fill="#3E2723" stroke="#3E2723"/>
<g clip-path="url(#clip0)">
<path d="M16.429 9.24414C13.8644 9.24414 11.7838 11.2598 11.7838 13.7441C11.7838 16.2285 13.8644 18.2441 16.429 18.2441C18.9935 18.2441 21.0741 16.2285 21.0741 13.7441C21.0741 11.2598 18.9935 9.24414 16.429 9.24414ZM16.429 15.9941C15.1467 15.9941 14.1064 14.9863 14.1064 13.7441C14.1064 12.502 15.1467 11.4941 16.429 11.4941C17.7112 11.4941 18.7515 12.502 18.7515 13.7441C18.7515 14.9863 17.7112 15.9941 16.429 15.9941ZM16.429 4.74414C9.79992 4.74414 4.42896 9.94726 4.42896 16.3691C4.42896 22.791 9.79992 27.9941 16.429 27.9941C23.058 27.9941 28.429 22.791 28.429 16.3691C28.429 9.94726 23.058 4.74414 16.429 4.74414ZM16.429 25.7441C14.0241 25.7441 11.8273 24.8863 10.1338 23.4754C10.8548 22.3973 12.0886 21.666 13.5015 21.6238C14.508 21.9238 15.4661 22.0738 16.429 22.0738C17.3919 22.0738 18.3499 21.9285 19.3564 21.6238C20.7693 21.6707 22.0031 22.3973 22.7241 23.4754C21.0306 24.8863 18.8338 25.7441 16.429 25.7441V25.7441ZM24.3015 21.8019C23.1209 20.3301 21.2967 19.3691 19.2161 19.3691C18.7225 19.3691 17.958 19.8191 16.429 19.8191C14.9048 19.8191 14.1354 19.3691 13.6419 19.3691C11.5661 19.3691 9.74186 20.3301 8.55637 21.8019C7.42412 20.2691 6.75154 18.3941 6.75154 16.3691C6.75154 11.1988 11.0919 6.99414 16.429 6.99414C21.7661 6.99414 26.1064 11.1988 26.1064 16.3691C26.1064 18.3941 25.4338 20.2691 24.3015 21.8019Z" fill="white" fill-opacity="0.4"/>
</g>
<defs>
<clipPath id="clip0">
<rect width="24" height="24" fill="white" transform="translate(4.42896 4.37109)"/>
</clipPath>
</defs>
</svg>
