<svg width="17" height="17" viewBox="0 0 17 17" fill="none" xmlns="http://www.w3.org/2000/svg">
<g clip-path="url(#clip0)">
<path d="M3.17383 1.2002H13.1948C14.1613 1.2002 14.9448 1.9837 14.9448 2.9502V8.06404V13.1779C14.9448 14.1444 14.1613 14.9279 13.1948 14.9279H3.17383C2.20733 14.9279 1.42383 14.1444 1.42383 13.1779V2.95019C1.42383 1.9837 2.20733 1.2002 3.17383 1.2002Z" fill="white" stroke="#3E2723" stroke-width="0.5"/>
<mask id="path-2-inside-1" fill="white">
<path fill-rule="evenodd" clip-rule="evenodd" d="M5.67695 3.0957C5.51127 3.0957 5.37695 3.23002 5.37695 3.3957V11.8855C5.37695 12.0512 5.51127 12.1855 5.67695 12.1855H10.469C10.6347 12.1855 10.769 12.0512 10.769 11.8855V3.3957C10.769 3.23002 10.6347 3.0957 10.469 3.0957H5.67695ZM10.0036 3.80283H6.14234V11.4958H10.0036V3.80283Z"/>
</mask>
<path fill-rule="evenodd" clip-rule="evenodd" d="M5.67695 3.0957C5.51127 3.0957 5.37695 3.23002 5.37695 3.3957V11.8855C5.37695 12.0512 5.51127 12.1855 5.67695 12.1855H10.469C10.6347 12.1855 10.769 12.0512 10.769 11.8855V3.3957C10.769 3.23002 10.6347 3.0957 10.469 3.0957H5.67695ZM10.0036 3.80283H6.14234V11.4958H10.0036V3.80283Z" fill="#3E2723"/>
<path d="M6.14234 3.80283V3.30283H5.64234V3.80283H6.14234ZM10.0036 3.80283H10.5036V3.30283H10.0036V3.80283ZM6.14234 11.4958H5.64234V11.9958H6.14234V11.4958ZM10.0036 11.4958V11.9958H10.5036V11.4958H10.0036ZM5.87695 3.3957C5.87695 3.50616 5.78741 3.5957 5.67695 3.5957V2.5957C5.23512 2.5957 4.87695 2.95388 4.87695 3.3957H5.87695ZM5.87695 11.8855V3.3957H4.87695V11.8855H5.87695ZM5.67695 11.6855C5.78741 11.6855 5.87695 11.775 5.87695 11.8855H4.87695C4.87695 12.3273 5.23512 12.6855 5.67695 12.6855V11.6855ZM10.469 11.6855H5.67695V12.6855H10.469V11.6855ZM10.269 11.8855C10.269 11.775 10.3585 11.6855 10.469 11.6855V12.6855C10.9108 12.6855 11.269 12.3273 11.269 11.8855H10.269ZM10.269 3.3957V11.8855H11.269V3.3957H10.269ZM10.469 3.5957C10.3585 3.5957 10.269 3.50616 10.269 3.3957H11.269C11.269 2.95388 10.9108 2.5957 10.469 2.5957V3.5957ZM5.67695 3.5957H10.469V2.5957H5.67695V3.5957ZM6.14234 4.30283H10.0036V3.30283H6.14234V4.30283ZM6.64234 11.4958V3.80283H5.64234V11.4958H6.64234ZM10.0036 10.9958H6.14234V11.9958H10.0036V10.9958ZM9.50358 3.80283V11.4958H10.5036V3.80283H9.50358Z" fill="#3E2723" mask="url(#path-2-inside-1)"/>
<rect x="4.46522" y="12.5277" width="7.21617" height="0.36794" fill="#3E2723" stroke="#3E2723" stroke-width="0.36794"/>
</g>
<defs>
<clipPath id="clip0">
<rect width="16" height="16" fill="white" transform="translate(0.173828 0.0908203)"/>
</clipPath>
</defs>
</svg>
