<svg width="416" height="405" viewBox="0 0 416 405" fill="none" xmlns="http://www.w3.org/2000/svg">
<ellipse cx="203.509" cy="362.371" rx="94.8529" ry="32.0859" fill="#EFEFEF"/>
<rect x="145.725" y="148.34" width="116.21" height="217.359" rx="10" fill="#3E2723"/>
<path d="M151.154 159.792C151.154 156.478 153.841 153.792 157.154 153.792H249.863C253.176 153.792 255.863 156.478 255.863 159.792V323.53H151.154V159.792Z" fill="white"/>
<rect x="159.43" y="161.16" width="41.8238" height="41.9468" fill="#C4C4C4"/>
<rect x="159.43" y="209.385" width="41.8238" height="41.9468" fill="#C4C4C4"/>
<rect x="159.43" y="257.613" width="41.8238" height="41.9468" fill="#C4C4C4"/>
<rect x="205.762" y="161.16" width="41.8238" height="41.9468" fill="#C4C4C4"/>
<rect x="205.762" y="209.385" width="41.8238" height="41.9468" fill="#C4C4C4"/>
<rect x="205.762" y="257.613" width="41.8238" height="41.9468" fill="#C4C4C4"/>
<mask id="path-10-inside-1" fill="white">
<path fill-rule="evenodd" clip-rule="evenodd" d="M75.8047 10C70.2818 10 65.8047 14.4772 65.8047 20V110.932C65.8047 116.454 70.2818 120.932 75.8047 120.932H189.073L197.582 135.67L206.091 120.932H333.164C338.687 120.932 343.164 116.454 343.164 110.932V20C343.164 14.4772 338.687 10 333.164 10H75.8047Z"/>
</mask>
<path fill-rule="evenodd" clip-rule="evenodd" d="M75.8047 10C70.2818 10 65.8047 14.4772 65.8047 20V110.932C65.8047 116.454 70.2818 120.932 75.8047 120.932H189.073L197.582 135.67L206.091 120.932H333.164C338.687 120.932 343.164 116.454 343.164 110.932V20C343.164 14.4772 338.687 10 333.164 10H75.8047Z" fill="white"/>
<path d="M189.073 120.932L190.805 119.932L190.228 118.932H189.073V120.932ZM197.582 135.67L195.85 136.67L197.582 139.67L199.314 136.67L197.582 135.67ZM206.091 120.932V118.932H204.937L204.359 119.932L206.091 120.932ZM67.8047 20C67.8047 15.5817 71.3864 12 75.8047 12V8C69.1773 8 63.8047 13.3726 63.8047 20H67.8047ZM67.8047 110.932V20H63.8047V110.932H67.8047ZM75.8047 118.932C71.3864 118.932 67.8047 115.35 67.8047 110.932H63.8047C63.8047 117.559 69.1773 122.932 75.8047 122.932V118.932ZM189.073 118.932H75.8047V122.932H189.073V118.932ZM199.314 134.67L190.805 119.932L187.341 121.932L195.85 136.67L199.314 134.67ZM204.359 119.932L195.85 134.67L199.314 136.67L207.823 121.932L204.359 119.932ZM333.164 118.932H206.091V122.932H333.164V118.932ZM341.164 110.932C341.164 115.35 337.582 118.932 333.164 118.932V122.932C339.791 122.932 345.164 117.559 345.164 110.932H341.164ZM341.164 20V110.932H345.164V20H341.164ZM333.164 12C337.582 12 341.164 15.5817 341.164 20H345.164C345.164 13.3726 339.791 8 333.164 8V12ZM75.8047 12H333.164V8H75.8047V12Z" fill="#D1C8C6" mask="url(#path-10-inside-1)"/>
<path d="M237.496 12.1006H333.355C337.774 12.1006 341.355 15.6823 341.355 20.1006V109.884C341.355 114.855 337.326 118.884 332.355 118.884H237.496V12.1006Z" fill="#F5EEE8"/>
<path d="M130.625 51.1641L130.625 114.274" stroke="#D1C8C6"/>
<path d="M237.744 51.1641L237.744 116.538" stroke="#D1C8C6"/>
<path d="M130.625 16.6582L130.625 41.2959" stroke="#D1C8C6"/>
<path d="M237.744 16.6582L237.744 41.2959" stroke="#D1C8C6"/>
<path d="M341.746 46.2305L66.203 46.2305" stroke="#D1C8C6" stroke-width="2"/>
<path d="M158.124 34.4766H164.004V33.1466H161.988V24.4526H160.77C160.182 24.8166 159.496 25.0686 158.53 25.2366V26.2586H160.378V33.1466H158.124V34.4766ZM166.262 34.4766H167.886V30.0386H171.694V28.6806H167.886V25.5306H172.366V24.1586H166.262V34.4766ZM174.192 34.4766H175.816V30.3186H177.482L179.82 34.4766H181.654L179.134 30.1086C180.436 29.7026 181.29 28.7506 181.29 27.1546C181.29 24.9286 179.694 24.1586 177.566 24.1586H174.192V34.4766ZM175.816 29.0166V25.4746H177.37C178.868 25.4746 179.68 25.9086 179.68 27.1546C179.68 28.4006 178.868 29.0166 177.37 29.0166H175.816ZM185.271 28.8766C185.607 27.7566 185.929 26.6226 186.223 25.4466H186.293C186.601 26.6086 186.909 27.7566 187.259 28.8766L187.665 30.2626H184.851L185.271 28.8766ZM181.939 34.4766H183.591L184.473 31.5366H188.057L188.925 34.4766H190.647L187.231 24.1586H185.355L181.939 34.4766ZM192.006 34.4766H193.462V29.3806C193.462 28.4566 193.336 27.1266 193.266 26.1886H193.322L194.134 28.5686L195.94 33.4826H196.948L198.74 28.5686L199.566 26.1886H199.622C199.538 27.1266 199.412 28.4566 199.412 29.3806V34.4766H200.924V24.1586H199.048L197.186 29.3806C196.948 30.0666 196.752 30.7666 196.514 31.4526H196.444C196.206 30.7666 195.996 30.0666 195.758 29.3806L193.868 24.1586H192.006V34.4766ZM203.628 34.4766H209.872V33.1046H205.252V29.7726H209.032V28.4006H205.252V25.5306H209.718V24.1586H203.628V34.4766Z" fill="#938783"/>
<path d="M157.911 57.9953V70.0073H159.627V57.9953H157.911ZM153.192 58.8403C151.385 58.8403 150.046 60.4783 150.046 63.1043C150.046 65.7433 151.385 67.3943 153.192 67.3943C154.999 67.3943 156.338 65.7433 156.338 63.1043C156.338 60.4783 154.999 58.8403 153.192 58.8403ZM153.192 60.3873C154.076 60.3873 154.687 61.3363 154.687 63.1043C154.687 64.8853 154.076 65.8343 153.192 65.8343C152.308 65.8343 151.697 64.8853 151.697 63.1043C151.697 61.3363 152.308 60.3873 153.192 60.3873ZM162.252 59.0873V67.1343H168.011V59.0873H162.252ZM166.321 60.4393V65.7823H163.942V60.4393H166.321ZM169.87 58.0083V70.0073H171.586V58.0083H169.87ZM178.254 60.5693H180.724V59.1523H174.016V60.5693H176.512V61.2323C176.512 63.2733 175.537 65.4703 173.535 66.3673L174.51 67.7323C175.914 67.0953 176.876 65.7823 177.409 64.2223C177.942 65.6653 178.891 66.8353 180.282 67.4333L181.218 66.0813C179.216 65.2493 178.254 63.1823 178.254 61.2323V60.5693ZM181.829 58.0083V69.9813H183.545V58.0083H181.829ZM185.208 71.2293H186.482L189.706 58.3983H188.432L185.208 71.2293ZM195.351 61.5833C195.351 60.6473 195.988 60.1013 196.872 60.1013C197.756 60.1013 198.406 60.6473 198.406 61.5833C198.406 62.5063 197.756 63.0653 196.872 63.0653C195.988 63.0653 195.351 62.5063 195.351 61.5833ZM201.864 60.9333V62.2333H199.953C200.005 62.0123 200.031 61.8043 200.031 61.5833C200.031 61.3493 200.005 61.1413 199.966 60.9333H201.864ZM201.864 63.5983V65.0283H203.58V58.0083H201.864V59.5683H199.225C198.653 58.9963 197.834 58.6453 196.872 58.6453C195.104 58.6453 193.726 59.8803 193.726 61.5833C193.726 63.2733 195.104 64.5083 196.872 64.5083C197.808 64.5083 198.627 64.1703 199.199 63.5983H201.864ZM199.524 68.6683C197.951 68.6683 197.119 68.3303 197.119 67.6283C197.119 66.9263 197.951 66.5883 199.524 66.5883C201.097 66.5883 201.942 66.9263 201.942 67.6283C201.942 68.3303 201.097 68.6683 199.524 68.6683ZM199.524 65.2623C197.002 65.2623 195.429 66.1333 195.429 67.6283C195.429 69.1103 197.002 69.9943 199.524 69.9943C202.059 69.9943 203.632 69.1103 203.632 67.6283C203.632 66.1333 202.059 65.2623 199.524 65.2623ZM212.588 63.3123C210.703 62.7273 209.897 61.3233 209.897 59.8803V58.6583H208.155V59.7373C208.155 61.3623 207.349 62.9613 205.347 63.6243L206.244 64.9763C207.609 64.5083 208.532 63.5853 209.052 62.4023C209.559 63.4163 210.43 64.2223 211.691 64.6383L212.588 63.3123ZM211.041 68.6553C209.507 68.6553 208.688 68.3433 208.688 67.6673C208.688 67.0043 209.507 66.6923 211.041 66.6923C212.562 66.6923 213.381 67.0043 213.381 67.6673C213.381 68.3433 212.562 68.6553 211.041 68.6553ZM211.041 65.3663C208.545 65.3663 206.985 66.2243 206.985 67.6673C206.985 69.1233 208.545 69.9813 211.041 69.9813C213.524 69.9813 215.084 69.1233 215.084 67.6673C215.084 66.2243 213.524 65.3663 211.041 65.3663ZM214.954 60.7903V58.0213H213.238V65.0933H214.954V62.2073H216.54V60.7903H214.954Z" fill="#938783"/>
<path d="M172.185 92.7811V94.1721H176.098C175.786 96.8241 174.304 98.7221 171.522 100.152L172.484 101.465C176.462 99.4501 177.827 96.3691 177.827 92.7811H172.185ZM182.689 96.1221H181.012V91.5461H179.296V103.506H181.012V97.5391H182.689V96.1221ZM193.231 94.5361H186.679V91.7671H184.963V95.9011H193.231V94.5361ZM188.98 102.193C187.381 102.193 186.562 101.907 186.562 101.283C186.562 100.659 187.381 100.373 188.98 100.373C190.579 100.373 191.398 100.659 191.398 101.283C191.398 101.907 190.579 102.193 188.98 102.193ZM188.98 99.0601C186.393 99.0601 184.833 99.8791 184.833 101.283C184.833 102.687 186.393 103.506 188.98 103.506C191.567 103.506 193.14 102.687 193.14 101.283C193.14 99.8791 191.567 99.0601 188.98 99.0601ZM183.611 96.9151V98.2801H194.44V96.9151H183.611Z" fill="#938783"/>
<path d="M278.839 94.4841H274.172V93.7821H278.839V94.4841ZM280.542 91.7411H278.839V92.5341H274.172V91.7411H272.469V95.7451H280.542V91.7411ZM281.92 97.7341V96.3821H271.091V97.7341H275.628V98.4751H272.326V99.7361H278.904V100.334H272.339V103.441H280.906V102.167H274.042V101.517H280.594V98.4751H277.344V97.7341H281.92ZM283.596 92.7811V94.1721H287.509C287.197 96.8241 285.715 98.7221 282.933 100.152L283.895 101.465C287.873 99.4501 289.238 96.3691 289.238 92.7811H283.596ZM294.1 96.1221H292.423V91.5461H290.707V103.506H292.423V97.5391H294.1V96.1221ZM304.642 94.5361H298.09V91.7671H296.374V95.9011H304.642V94.5361ZM300.391 102.193C298.792 102.193 297.973 101.907 297.973 101.283C297.973 100.659 298.792 100.373 300.391 100.373C301.99 100.373 302.809 100.659 302.809 101.283C302.809 101.907 301.99 102.193 300.391 102.193ZM300.391 99.0601C297.804 99.0601 296.244 99.8791 296.244 101.283C296.244 102.687 297.804 103.506 300.391 103.506C302.978 103.506 304.551 102.687 304.551 101.283C304.551 99.8791 302.978 99.0601 300.391 99.0601ZM295.022 96.9151V98.2801H305.851V96.9151H295.022Z" fill="#938783"/>
<path d="M266.042 32.5016C265.015 32.5016 264.326 31.6046 264.17 29.7066C264.742 28.8876 265.392 28.5886 265.951 28.5886C266.978 28.5886 267.524 29.2776 267.524 30.5126C267.524 31.7476 266.874 32.5016 266.042 32.5016ZM268.759 24.7536C268.213 24.1816 267.433 23.7266 266.367 23.7266C264.482 23.7266 262.753 25.1956 262.753 28.8746C262.753 32.1246 264.235 33.6456 266.055 33.6456C267.615 33.6456 268.915 32.4106 268.915 30.5126C268.915 28.4846 267.836 27.4966 266.224 27.4966C265.535 27.4966 264.703 27.9126 264.144 28.6016C264.209 25.8716 265.223 24.9486 266.445 24.9486C267.004 24.9486 267.589 25.2476 267.94 25.6636L268.759 24.7536ZM273.659 33.4766H275.167V29.3556H278.703V28.0946H275.167V25.1696H279.327V23.9086H273.659V33.4766ZM282.531 25.1176H283.974C285.365 25.1176 286.119 25.5206 286.119 26.6776C286.119 27.8346 285.365 28.4066 283.974 28.4066H282.531V25.1176ZM287.952 33.4766L285.612 29.4206C286.821 29.0436 287.614 28.1596 287.614 26.6776C287.614 24.6106 286.132 23.9086 284.156 23.9086H281.023V33.4766H282.531V29.6156H284.078L286.249 33.4766H287.952ZM290.908 29.5636L291.298 28.2766C291.61 27.2366 291.909 26.1836 292.182 25.0916H292.234C292.533 26.1706 292.819 27.2366 293.144 28.2766L293.521 29.5636H290.908ZM294.691 33.4766H296.29L293.118 23.9086H291.376L288.204 33.4766H289.738L290.557 30.7466H293.885L294.691 33.4766ZM297.552 33.4766H298.904V28.7446C298.904 27.8866 298.787 26.6516 298.722 25.7806H298.774L299.528 27.9906L301.205 32.5536H302.141L303.805 27.9906L304.572 25.7806H304.624C304.546 26.6516 304.429 27.8866 304.429 28.7446V33.4766H305.833V23.9086H304.091L302.362 28.7446C302.141 29.3816 301.959 30.0316 301.738 30.6816H301.673C301.452 30.0316 301.257 29.3816 301.036 28.7446L299.281 23.9086H297.552V33.4766ZM308.343 33.4766H314.141V32.2026H309.851V29.1086H313.361V27.8346H309.851V25.1696H313.998V23.9086H308.343V33.4766Z" fill="#938783"/>
<path d="M91.1652 67.7306H89.1372V64.8446H91.1652V67.7306ZM91.1652 63.7786H89.1372V61.0226H87.8762V68.8226H92.4132V61.0226H91.1652V63.7786ZM96.2352 59.9306V64.5196H94.8962V60.1646H93.6352V71.1366H94.8962V65.6116H96.2352V71.6826H97.5092V59.9436L96.2352 59.9306ZM101.395 61.2306H100.069V68.9006H101.005C102.812 68.9006 104.528 68.7836 106.4 68.4196L106.244 67.3146C104.593 67.6396 103.02 67.7696 101.395 67.7826V61.2306ZM107.856 59.9436V63.7136H104.45V64.8056H107.856V71.7086H109.195V59.9436H107.856Z" fill="#938783"/>
<path d="M89.3448 96.0756H92.9718V95.0096H89.3448V92.8126H93.4528V91.7076H88.0058V99.7026H88.9288C91.0608 99.7026 92.5298 99.6506 94.2068 99.3516L94.0898 98.2726C92.5558 98.5326 91.2168 98.5976 89.3448 98.6106V96.0756ZM95.8838 90.6676V94.9836H93.6348V96.0886H95.8838V102.446H97.2358V90.6676H95.8838ZM103.878 93.7486H106.426V92.6696H103.878V90.9276H102.539V92.6696H99.9387V93.7486H102.539V94.4246C102.539 96.3616 101.421 98.3506 99.5747 99.1826L100.316 100.21C101.681 99.5856 102.708 98.3116 103.228 96.7516C103.761 98.2206 104.788 99.4296 106.127 100.015L106.842 98.9746C105.022 98.1816 103.878 96.2706 103.878 94.4246V93.7486ZM107.765 90.6806V102.42H109.117V90.6806H107.765Z" fill="#938783"/>
<path d="M279.294 57.9953V70.0073H281.01V57.9953H279.294ZM274.575 58.8403C272.768 58.8403 271.429 60.4783 271.429 63.1043C271.429 65.7433 272.768 67.3943 274.575 67.3943C276.382 67.3943 277.721 65.7433 277.721 63.1043C277.721 60.4783 276.382 58.8403 274.575 58.8403ZM274.575 60.3873C275.459 60.3873 276.07 61.3363 276.07 63.1043C276.07 64.8853 275.459 65.8343 274.575 65.8343C273.691 65.8343 273.08 64.8853 273.08 63.1043C273.08 61.3363 273.691 60.3873 274.575 60.3873ZM283.635 59.0873V67.1343H289.394V59.0873H283.635ZM287.704 60.4393V65.7823H285.325V60.4393H287.704ZM291.253 58.0083V70.0073H292.969V58.0083H291.253ZM299.637 60.5693H302.107V59.1523H295.399V60.5693H297.895V61.2323C297.895 63.2733 296.92 65.4703 294.918 66.3673L295.893 67.7323C297.297 67.0953 298.259 65.7823 298.792 64.2223C299.325 65.6653 300.274 66.8353 301.665 67.4333L302.601 66.0813C300.599 65.2493 299.637 63.1823 299.637 61.2323V60.5693ZM303.212 58.0083V69.9813H304.928V58.0083H303.212Z" fill="#938783"/>
</svg>
