<svg width="17" height="17" viewBox="0 0 17 17" fill="none" xmlns="http://www.w3.org/2000/svg">
<g clip-path="url(#clip0)">
<rect x="1.22656" y="1.97559" width="13.5209" height="13.7277" rx="1.75" fill="white" stroke="#403532" stroke-width="0.5"/>
<mask id="path-2-inside-1" fill="white">
<rect x="5.19971" y="4.11621" width="2.43927" height="2.5332" rx="0.3"/>
</mask>
<rect x="5.19971" y="4.11621" width="2.43927" height="2.5332" rx="0.3" fill="#3E2723" stroke="#403532" mask="url(#path-2-inside-1)"/>
<mask id="path-3-inside-2" fill="white">
<rect x="5.19995" y="7.2002" width="2.43923" height="2.53316" rx="0.3"/>
</mask>
<rect x="5.19995" y="7.2002" width="2.43923" height="2.53316" rx="0.3" fill="#3E2723" stroke="#403532" mask="url(#path-3-inside-2)"/>
<mask id="path-4-inside-3" fill="white">
<rect x="5.19995" y="10.2852" width="2.43914" height="2.53307" rx="0.3"/>
</mask>
<rect x="5.19995" y="10.2852" width="2.43914" height="2.53307" rx="0.3" fill="#3E2723" stroke="#403532" mask="url(#path-4-inside-3)"/>
<mask id="path-5-inside-4" fill="white">
<rect x="8.25708" y="4.11621" width="2.43928" height="2.53321" rx="0.3"/>
</mask>
<rect x="8.25708" y="4.11621" width="2.43928" height="2.53321" rx="0.3" fill="#3E2723" stroke="#403532" mask="url(#path-5-inside-4)"/>
<mask id="path-6-inside-5" fill="white">
<rect x="8.25708" y="7.2002" width="2.43931" height="2.53325" rx="0.3"/>
</mask>
<rect x="8.25708" y="7.2002" width="2.43931" height="2.53325" rx="0.3" fill="#3E2723" stroke="#403532" mask="url(#path-6-inside-5)"/>
<mask id="path-7-inside-6" fill="white">
<rect x="8.25708" y="10.2852" width="2.43931" height="2.53325" rx="0.3"/>
</mask>
<rect x="8.25708" y="10.2852" width="2.43931" height="2.53325" rx="0.3" fill="#3E2723" stroke="#403532" mask="url(#path-7-inside-6)"/>
<rect x="4.38121" y="13.2748" width="7.21512" height="0.367887" fill="#3E2723" stroke="#403532" stroke-width="0.367887"/>
</g>
<defs>
<clipPath id="clip0">
<rect width="16" height="16" fill="white" transform="translate(0.173828 0.493164)"/>
</clipPath>
</defs>
</svg>
