<svg width="22" height="22" viewBox="0 0 22 22" fill="none" xmlns="http://www.w3.org/2000/svg">
<path d="M18.2001 9.40966L18.2264 9.91679C18.2375 10.1315 18.0849 10.2955 17.8861 10.2825L13.7553 10.0368C13.5555 10.0249 13.385 9.84163 13.375 9.62811L13.1453 5.18737C13.1342 4.97265 13.2868 4.80869 13.4856 4.8217L13.9574 4.84989C14.1593 4.86195 14.3312 5.05098 14.3382 5.26774L14.4166 7.95164L18.7685 3.26837C18.9019 3.1249 19.1294 3.13849 19.2786 3.29884L19.6376 3.68465C19.7868 3.845 19.7994 4.08943 19.6659 4.23289L17.8036 6.24058L15.3141 8.91616L17.8113 9.00044C18.014 9.00686 18.1899 9.19157 18.2001 9.40966Z" fill="#3E2723" stroke="#3E2723"/>
<path d="M8.86342 17.8747L9.33528 17.9029C9.53507 17.9148 9.68763 17.7508 9.67552 17.5372L9.44697 13.0977C9.43586 12.8829 9.26535 12.6997 9.06668 12.6889L4.93474 12.4421C4.73494 12.4302 4.58238 12.5941 4.59449 12.8078L4.62072 13.3149C4.63194 13.5319 4.80783 13.7166 5.00952 13.7241L7.50678 13.8084L3.14918 18.4855C3.01569 18.6289 3.02833 18.8734 3.17753 19.0337L3.53651 19.4195C3.68571 19.5799 3.91314 19.5935 4.04663 19.45L5.9147 17.4485L8.40423 14.7729L8.48265 17.4568C8.48862 17.6746 8.6605 17.8637 8.86342 17.8747Z" fill="#3E2723" stroke="#3E2723"/>
</svg>
