<svg width="416" height="405" viewBox="0 0 416 405" fill="none" xmlns="http://www.w3.org/2000/svg">
<g clip-path="url(#clip0)">
<g clip-path="url(#clip1)">
<path d="M173.205 84.5808C173.205 84.5808 177.9 77.4337 181.971 75.8047C187.452 73.6068 190.737 79.0938 186.354 81.2917L188.682 95.4535L173.205 84.5808Z" fill="#EFB054"/>
<path d="M198.39 108.575C204.239 106.245 206.371 97.7936 203.153 89.6989C199.934 81.6043 192.584 76.9314 186.736 79.2618C180.888 81.5923 178.755 90.0435 181.974 98.1381C185.192 106.233 192.542 110.906 198.39 108.575Z" fill="#FFC05C"/>
<path d="M60.8611 189.903C60.8611 189.903 54.773 202.506 53.216 196.271C52.4375 193.153 53.9945 192.374 53.9945 192.374C53.9945 192.374 53.9945 192.374 51.6589 193.933C45.8278 197.822 37.6455 169.771 46.2093 165.874C54.773 161.977 57.1086 161.198 57.1086 161.198L60.8611 189.903Z" fill="#EFB054"/>
<path d="M103.044 68.4473L116.279 74.6825C116.279 74.6825 149.755 82.4766 134.185 151.064L70.3457 176.785L78.1309 82.4766L103.044 68.4473Z" fill="#50C5A4"/>
<path d="M71.125 172.887C71.125 172.887 177.627 129.615 195.292 140.869C228.924 162.295 181.644 250.189 181.644 250.189L127.046 295.199L149.53 197.134L114.201 208.389L71.125 172.887Z" fill="#3E2723"/>
<path d="M122.508 310.841L127.179 294.474L181.637 246.969L207.336 254.202L122.508 310.841Z" fill="#3E2723"/>
<path d="M53.2188 161.198L62.561 196.271L69.0929 194.174L73.4604 146.389" fill="#19684A"/>
<path d="M70.9062 172.669L57.9905 242.153C57.9905 242.153 35.5067 246.978 3.39258 258.233L25.8764 322.541L28.282 294.405L107.769 262.254L129.225 184.088L70.9062 172.669Z" fill="#3E2723"/>
<path d="M59.4463 234.461L57.9905 242.154C57.9905 242.154 35.5067 246.978 3.39258 258.233L25.8764 322.542L28.282 294.405L107.769 262.255L124.064 204.844C109.334 214.766 84.0321 236.667 59.4463 234.461Z" fill="black"/>
<path d="M79.2988 196.66C79.2988 196.66 91.7552 215.366 127.567 203.675" stroke="black" stroke-miterlimit="10"/>
<path d="M73.1406 142.926L92.1755 164.742L70.3457 173.666L73.1406 142.926Z" fill="#258462"/>
<path d="M148.688 196.878L171.265 185.187" stroke="black" stroke-miterlimit="10"/>
<path d="M122.508 310.842L149.367 196.659L166.144 187.782L122.508 310.842Z" fill="black"/>
<path d="M182.982 247.602C182.982 247.602 190.238 256.284 156.754 287.975L207.358 253.946L182.982 247.602Z" fill="black"/>
<path d="M78.3341 82.2432C78.3341 82.2432 36.8699 101.183 55.5545 122.227C74.2391 143.271 97.6571 180.44 110.83 179.123C126.4 177.564 202.696 111.315 202.696 111.315L173.112 82.477L125.622 124.565L78.3341 82.2432Z" fill="#50C5A4"/>
<path d="M78.3341 80.6836C78.3341 80.6836 36.8699 99.6231 55.5545 120.667C74.2391 141.711 97.6571 178.881 110.83 177.564C126.4 176.005 201.139 110.535 201.139 110.535L173.112 80.9174L125.622 123.005L99.1519 70.7852L78.3341 80.6836Z" fill="#50C5A4"/>
<path d="M98.373 101.961C98.373 101.961 109.716 130.846 137.517 114.455C138.078 114.432 113.165 133.138 113.165 133.138L98.373 101.961Z" fill="#258462"/>
<path d="M96.8164 98.7817L104.991 114.822L104.602 104.3" stroke="black" stroke-miterlimit="10"/>
<path d="M138.468 114.042L118.842 128.305" stroke="black" stroke-miterlimit="10"/>
<path d="M103.043 68.4468L84.0703 77.9556C84.0703 77.9556 102.412 85.4457 124.592 79.4287C124.592 79.4287 120.949 75.4615 109.271 70.0056C96.5501 64.0588 103.043 68.4468 103.043 68.4468Z" fill="#389E77"/>
<path d="M136.52 51.557C136.52 57.7844 134.083 63.4507 130.121 67.6361C125.862 72.1332 119.844 74.9391 113.164 74.9391C100.264 74.9391 89.8086 64.4717 89.8086 51.557C89.8086 38.6422 100.264 28.1748 113.164 28.1748C126.064 28.1748 136.52 38.6422 136.52 51.557Z" fill="#FFC05C"/>
<path d="M104.228 55.8673C102.842 55.6802 101.542 54.9164 100.709 53.6693C99.1444 51.3389 99.7594 48.1823 102.087 46.6157" stroke="black" stroke-miterlimit="10"/>
<path d="M118.84 349.463C141.844 349.463 160.492 344.654 160.492 338.723C160.492 332.791 141.844 327.982 118.84 327.982C95.8373 327.982 77.1895 332.791 77.1895 338.723C77.1895 344.654 95.8373 349.463 118.84 349.463Z" fill="#BDBDBD"/>
<path d="M230.333 295.201C253.336 295.201 271.984 290.393 271.984 284.461C271.984 278.529 253.336 273.721 230.333 273.721C207.329 273.721 188.682 278.529 188.682 284.461C188.682 290.393 207.329 295.201 230.333 295.201Z" fill="#BDBDBD"/>
<path d="M338.284 333.273C361.287 333.273 379.935 328.465 379.935 322.533C379.935 316.602 361.287 311.793 338.284 311.793C315.281 311.793 296.633 316.602 296.633 322.533C296.633 328.465 315.281 333.273 338.284 333.273Z" fill="#BDBDBD"/>
<path d="M370.116 254.289C393.119 254.289 411.767 249.48 411.767 243.549C411.767 237.617 393.119 232.809 370.116 232.809C347.113 232.809 328.465 237.617 328.465 243.549C328.465 249.48 347.113 254.289 370.116 254.289Z" fill="#BDBDBD"/>
</g>
</g>
<defs>
<clipPath id="clip0">
<rect width="416" height="405" fill="white"/>
</clipPath>
<clipPath id="clip1">
<rect width="419" height="497" fill="white" transform="translate(-1 1)"/>
</clipPath>
</defs>
</svg>
