<svg width="416" height="405" viewBox="0 0 416 405" fill="none" xmlns="http://www.w3.org/2000/svg">
<g clip-path="url(#clip0)">
<g clip-path="url(#clip1)">
<path fill-rule="evenodd" clip-rule="evenodd" d="M77.4023 9.73047C75.7455 9.73047 74.4023 11.0736 74.4023 12.7305V61.0122C74.4023 62.669 75.7455 64.0122 77.4023 64.0122H291.545L286.319 77.9827L306.786 64.0122H341.595C343.252 64.0122 344.595 62.669 344.595 61.0122V12.7305C344.595 11.0736 343.252 9.73047 341.595 9.73047H77.4023Z" fill="#DAECFA"/>
<path d="M108.709 33.1407H107.267V41.4007H108.317C110.221 41.4007 112.181 41.2607 114.323 40.8407L114.155 39.6507C112.237 40.0427 110.417 40.1827 108.709 40.1967V33.1407ZM118.537 36.8367H116.619V31.9087H115.177V44.5507H116.619V38.0267H118.537V36.8367ZM123.786 32.7907C121.812 32.7907 120.356 34.0367 120.356 35.8287C120.356 37.6207 121.812 38.8667 123.786 38.8667C125.76 38.8667 127.23 37.6207 127.23 35.8287C127.23 34.0367 125.76 32.7907 123.786 32.7907ZM123.786 34.0227C124.962 34.0227 125.816 34.7227 125.816 35.8287C125.816 36.9207 124.962 37.6347 123.786 37.6347C122.624 37.6347 121.77 36.9207 121.77 35.8287C121.77 34.7227 122.624 34.0227 123.786 34.0227ZM128.658 31.8947V44.5647H130.114V31.8947H128.658ZM119.95 41.8907C122.19 41.8907 125.214 41.8627 128 41.3307L127.902 40.2807C125.186 40.6867 122.036 40.7007 119.768 40.7007L119.95 41.8907ZM140.159 32.9587H138.717V35.0307C138.717 37.3687 137.485 39.7627 135.511 40.7287L136.393 41.8907C137.835 41.1487 138.899 39.6787 139.445 37.9287C139.991 39.5807 140.999 40.9527 142.357 41.6527L143.239 40.5047C141.335 39.5667 140.159 37.2847 140.159 35.0307V32.9587ZM147.495 36.9207H145.521V31.9087H144.079V44.5507H145.521V38.1107H147.495V36.9207ZM157.658 43.2347H152.296V41.8347H157.658V43.2347ZM157.658 40.7147H152.296V39.2867H150.868V44.3967H159.086V39.2867H157.658V40.7147ZM152.086 37.2007C150.966 37.2007 150.168 36.4867 150.168 35.4227C150.168 34.3447 150.966 33.6587 152.086 33.6587C153.178 33.6587 153.99 34.3447 153.99 35.4227C153.99 36.4867 153.178 37.2007 152.086 37.2007ZM157.644 31.9087V34.8207H155.306C155.026 33.4067 153.752 32.4687 152.086 32.4687C150.182 32.4687 148.782 33.6867 148.782 35.4227C148.782 37.1727 150.182 38.3907 152.086 38.3907C153.766 38.3907 155.054 37.4247 155.306 35.9967H157.644V38.6847H159.086V31.9087H157.644ZM168.913 37.8587C166.981 37.2427 165.931 35.7727 165.931 34.2047V33.9667H168.577V32.8047H161.787V33.9667H164.475V34.2187C164.475 35.9407 163.369 37.5647 161.381 38.2507L162.109 39.3847C163.621 38.8667 164.685 37.7887 165.245 36.4447C165.791 37.6207 166.799 38.5307 168.213 38.9787L168.913 37.8587ZM167.289 43.4167C165.525 43.4167 164.503 42.9687 164.503 42.1567C164.503 41.3307 165.525 40.8967 167.289 40.8967C169.053 40.8967 170.075 41.3307 170.075 42.1567C170.075 42.9687 169.053 43.4167 167.289 43.4167ZM167.289 39.7627C164.685 39.7627 163.075 40.6447 163.075 42.1567C163.075 43.6547 164.685 44.5507 167.289 44.5507C169.893 44.5507 171.503 43.6547 171.503 42.1567C171.503 40.6447 169.893 39.7627 167.289 39.7627ZM171.363 34.9887V31.9087H169.921V39.4687H171.363V36.1787H173.155V34.9887H171.363ZM181.479 40.2947H179.295V37.1867H181.479V40.2947ZM181.479 36.0387H179.295V33.0707H177.937V41.4707H182.823V33.0707H181.479V36.0387ZM186.939 31.8947V36.8367H185.497V32.1467H184.139V43.9627H185.497V38.0127H186.939V44.5507H188.311V31.9087L186.939 31.8947ZM192.496 33.2947H191.068V41.5547H192.076C194.022 41.5547 195.87 41.4287 197.886 41.0367L197.718 39.8467C195.94 40.1967 194.246 40.3367 192.496 40.3507V33.2947ZM199.454 31.9087V35.9687H195.786V37.1447H199.454V44.5787H200.896V31.9087H199.454ZM208.217 37.8027H205.137V34.1487H208.217V37.8027ZM209.631 32.9867H203.709V38.9647H209.631V32.9867ZM206.593 40.2667H205.137V44.3127H213.649V43.1367H206.593V40.2667ZM213.145 35.6607V31.8947H211.703V41.1627H213.145V36.8507H214.937V35.6607H213.145ZM230.064 35.9127C227.53 35.5767 225.738 34.1767 225.738 32.5947V32.1187H224.254V32.5947C224.254 34.1627 222.434 35.5767 219.928 35.9127L220.46 37.0467C222.518 36.7387 224.184 35.7727 224.982 34.4287C225.794 35.7867 227.488 36.7247 229.518 37.0467L230.064 35.9127ZM224.982 43.4447C223.12 43.4447 222.098 43.0667 222.098 42.3387C222.098 41.6107 223.12 41.2187 224.982 41.2187C226.844 41.2187 227.88 41.6107 227.88 42.3387C227.88 43.0667 226.844 43.4447 224.982 43.4447ZM224.982 40.1267C222.266 40.1267 220.628 40.9247 220.628 42.3387C220.628 43.7527 222.266 44.5507 224.982 44.5507C227.712 44.5507 229.336 43.7527 229.336 42.3387C229.336 40.9247 227.712 40.1267 224.982 40.1267ZM225.71 38.0687V36.3467H224.268V38.0687H219.284V39.2307H230.722V38.0687H225.71ZM233.129 36.9487C235.369 36.7947 237.077 36.1787 237.875 35.1147C238.673 36.1787 240.409 36.7947 242.649 36.9487L243.041 35.8707C240.577 35.7307 239.009 35.0307 238.729 34.0367H242.467V32.9587H238.603V31.8527H237.161V32.9587H233.311V34.0367H237.035C236.755 35.0307 235.201 35.7307 232.709 35.8707L233.129 36.9487ZM243.601 38.4887V37.4107H232.191V38.4887H237.161V39.4687H233.521V40.5327H240.759V41.4147H233.549V44.4387H242.537V43.3607H234.977V42.4087H242.173V39.4687H238.603V38.4887H243.601ZM248.738 40.6447C247.716 40.6447 246.974 39.9447 246.974 38.8807C246.974 37.8167 247.716 37.1167 248.738 37.1167C249.76 37.1167 250.502 37.8167 250.502 38.8807C250.502 39.9447 249.76 40.6447 248.738 40.6447ZM248.738 35.9267C246.918 35.9267 245.602 37.1587 245.602 38.8807C245.602 40.6167 246.918 41.8347 248.738 41.8347C250.544 41.8347 251.874 40.6167 251.874 38.8807C251.874 37.1587 250.544 35.9267 248.738 35.9267ZM249.438 32.1047H247.996V33.8547H244.986V35.0307H252.392V33.8547H249.438V32.1047ZM256.816 36.9907H254.87V31.9087H253.414V44.5647H254.87V38.1947H256.816V36.9907ZM266.671 34.3307C266.671 35.8427 266.671 37.6347 266.181 40.1127L267.637 40.2667C268.127 37.6487 268.127 35.8987 268.127 34.3307V33.0847H259.125V34.2607H266.671V34.3307ZM263.647 41.7087V37.2567H262.191V41.7087H257.935V42.8987H269.359V41.7087H263.647ZM284.374 31.9227H282.932V38.9227H284.374V31.9227ZM281.644 37.3547C279.698 36.7387 278.564 35.2267 278.564 33.5887V32.3567H277.094V33.5887C277.094 35.2827 275.946 36.9207 273.958 37.5787L274.672 38.7127C276.198 38.2087 277.276 37.1447 277.85 35.8147C278.424 37.0607 279.488 38.0267 280.958 38.4747L281.644 37.3547ZM278.984 40.7567H281.406V43.2487H278.984V40.7567ZM282.834 43.2487V40.7567H284.444V39.6087H275.932V40.7567H277.556V43.2487H275.806V44.3967H284.584V43.2487H282.834ZM290.239 40.4627C289.161 40.4627 288.419 39.2867 288.419 37.2847C288.419 35.3247 289.161 34.1347 290.239 34.1347C291.331 34.1347 292.073 35.3247 292.073 37.2847C292.073 39.2867 291.331 40.4627 290.239 40.4627ZM295.881 31.8947V36.6127H293.417C293.221 34.2887 291.933 32.8327 290.239 32.8327C288.377 32.8327 287.047 34.5687 287.047 37.2847C287.047 40.0287 288.377 41.7507 290.239 41.7507C291.975 41.7507 293.263 40.2387 293.431 37.7887H295.881V44.5787H297.337V31.8947H295.881ZM303.832 39.0767C304.322 39.1887 304.868 39.2447 305.428 39.2447C305.988 39.2447 306.534 39.1887 307.024 39.0627V41.8207H303.832V39.0767ZM305.428 33.7707C307.332 33.7707 308.662 34.6107 308.662 35.9407C308.662 37.2847 307.332 38.1247 305.428 38.1247C303.51 38.1247 302.18 37.2847 302.18 35.9407C302.18 34.6107 303.51 33.7707 305.428 33.7707ZM308.466 41.8207V38.5307C309.474 37.9567 310.076 37.0607 310.076 35.9407C310.076 33.9247 308.116 32.6367 305.428 32.6367C302.726 32.6367 300.78 33.9247 300.78 35.9407C300.78 37.0607 301.382 37.9707 302.39 38.5307V41.8207H299.716V42.9967H311.168V41.8207H308.466ZM313.743 40.1827H314.821L315.045 34.5827L315.101 32.9167H313.477L313.519 34.5827L313.743 40.1827ZM314.275 43.6547C314.891 43.6547 315.367 43.1927 315.367 42.5347C315.367 41.8627 314.891 41.3867 314.275 41.3867C313.673 41.3867 313.211 41.8627 313.211 42.5347C313.211 43.1927 313.673 43.6547 314.275 43.6547Z" fill="#3E2723"/>
<path d="M209.5 396.973C298.418 396.973 370.5 382.653 370.5 364.99C370.5 347.326 298.418 333.007 209.5 333.007C120.582 333.007 48.5 347.326 48.5 364.99C48.5 382.653 120.582 396.973 209.5 396.973Z" fill="#EFEFEF"/>
<path d="M261.979 353.73H131.71C126.664 353.73 122.568 349.638 122.568 344.587V99.739C122.568 94.6921 126.66 90.5957 131.71 90.5957H261.983C267.029 90.5957 271.124 94.688 271.124 99.739V344.591C271.12 349.638 267.028 353.73 261.979 353.73Z" fill="white" stroke="#BDBDBD" stroke-width="3" stroke-miterlimit="10"/>
<path d="M260.584 258.063H133.518C132.17 258.063 131.074 256.968 131.074 255.619V232.7C131.074 231.352 132.17 230.256 133.518 230.256H260.584C261.932 230.256 263.028 231.352 263.028 232.7V255.619C263.028 256.968 261.932 258.063 260.584 258.063Z" fill="#E6E6E6"/>
<path d="M263.028 139.513H250.6C248.073 139.513 246.023 140.737 246.023 142.248V215.34C246.023 216.851 248.073 218.075 250.6 218.075H263.028V139.513Z" fill="#E6E6E6"/>
<path d="M268.838 139.363H263.443V215.315H268.838V139.363Z" fill="white"/>
<path d="M229.995 218.071H174.899C173.388 218.071 172.164 216.847 172.164 215.336V142.248C172.164 140.737 173.388 139.513 174.899 139.513H229.995C231.506 139.513 232.73 140.737 232.73 142.248V215.34C232.726 216.847 231.506 218.071 229.995 218.071Z" stroke="#B3B3B3" stroke-width="3" stroke-miterlimit="10" stroke-dasharray="9.99 9.99"/>
<path d="M251.634 204.072L206.753 220.076C205.33 220.582 203.77 219.839 203.259 218.42L182.554 160.327C182.047 158.903 182.79 157.342 184.209 156.832L229.09 140.828C230.513 140.322 232.074 141.065 232.584 142.484L253.29 200.577C253.796 202.001 253.057 203.565 251.634 204.072Z" fill="#E6E6E6"/>
<path d="M332.711 371.216C332.711 371.216 315.819 333.451 316.748 297.434L318.453 244.181L293.258 259.458C293.258 259.458 291.216 282.439 294.378 307.453C297.171 329.575 304.661 353.215 312.13 364.953C312.13 364.953 300.436 369.481 300.138 374.876L332.711 371.216Z" fill="url(#paint0_linear)"/>
<path d="M275.589 245.645C275.589 245.645 265.605 270.726 256.945 300.8C253.315 313.405 253.456 327.636 254.265 369.659C254.265 369.659 240.364 368.103 238.186 379.624L278.407 373.631C278.407 373.631 276.801 339.237 285.344 305.606C289.257 290.208 301.507 264.019 306.187 263.044C326.105 258.894 317.806 233.161 317.806 233.161L275.589 245.645Z" fill="#3E2723"/>
<path d="M159.868 139.513H130.867V218.071H159.868C161.378 218.071 162.602 216.847 162.602 215.336V142.248C162.598 140.737 161.378 139.513 159.868 139.513Z" fill="#E6E6E6"/>
<path d="M130.659 131.062H124.85V223.201H130.659V131.062Z" fill="white"/>
<path d="M261 128.157H133.104C131.756 128.157 130.66 127.061 130.66 125.712V102.794C130.66 101.445 131.756 100.349 133.104 100.349H261C262.348 100.349 263.444 101.445 263.444 102.794V125.712C263.444 127.061 262.348 128.157 261 128.157Z" fill="#93CCBA"/>
<path d="M169.848 324.885H140.017C136.909 324.885 134.391 322.365 134.391 319.257V276.143C134.391 273.034 136.909 270.515 140.017 270.515H169.848C172.956 270.515 175.475 273.034 175.475 276.143V319.261C175.475 322.365 172.956 324.885 169.848 324.885Z" fill="#E6E6E6"/>
<path d="M168.615 320.942H141.25C139.523 320.942 138.125 319.543 138.125 317.816V277.163C138.125 275.437 139.523 274.038 141.25 274.038H168.615C170.342 274.038 171.74 275.437 171.74 277.163V317.816C171.74 319.543 170.342 320.942 168.615 320.942Z" fill="#E6E6E6" stroke="#999999" stroke-miterlimit="10"/>
<path d="M236.263 293.135H186.055V297.493H236.263V293.135Z" fill="#93CCBA"/>
<path d="M263.028 270.1H186.055V280.891H263.028V270.1Z" fill="#E6E6E6"/>
<path d="M252.655 301.643H186.264V306.623H252.655V301.643Z" fill="#93CCBA"/>
<path d="M252.655 310.773H186.264V315.754H252.655V310.773Z" fill="#93CCBA"/>
<path d="M252.655 319.904H186.264V324.885H252.655V319.904Z" fill="#93CCBA"/>
<path d="M277.966 239.387L275.477 246.442C275.477 246.442 312.407 254.743 311.805 251.651C311.204 248.559 318.747 237.984 318.747 237.984L318.216 232.746L277.966 239.387Z" fill="#3E2723"/>
<path d="M278.1 239.641L317.868 232.83C317.868 232.83 320.2 239.807 318.217 246.447C316.233 253.088 324.561 241.55 278.1 239.641Z" fill="black"/>
<path d="M140.826 309.736L148.295 300.19L154.105 304.341L163.648 290.645L169.043 294.795" fill="#E6E6E6"/>
<path d="M140.826 309.736L148.295 300.19L154.105 304.341L163.648 290.645L169.043 294.795" stroke="#999999" stroke-miterlimit="10"/>
<path d="M148.709 288.984C150.772 288.984 152.444 287.312 152.444 285.249C152.444 283.186 150.772 281.514 148.709 281.514C146.647 281.514 144.975 283.186 144.975 285.249C144.975 287.312 146.647 288.984 148.709 288.984Z" fill="#E6E6E6" stroke="#999999" stroke-miterlimit="10"/>
<path d="M244.977 248.311C248.186 248.311 250.786 245.709 250.786 242.5C250.786 239.291 248.186 236.689 244.977 236.689C241.769 236.689 239.168 239.291 239.168 242.5C239.168 245.709 241.769 248.311 244.977 248.311Z" fill="#AAE2E2" stroke="#999999" stroke-miterlimit="10"/>
<path d="M244.978 246.65C247.269 246.65 249.127 244.792 249.127 242.5C249.127 240.208 247.269 238.35 244.978 238.35C242.686 238.35 240.828 240.208 240.828 242.5C240.828 244.792 242.686 246.65 244.978 246.65Z" fill="#E6E6E6" stroke="#999999" stroke-miterlimit="10"/>
<path d="M254.131 250.436C253.762 250.843 253.135 250.872 252.729 250.506L249.388 247.481C248.982 247.111 248.953 246.485 249.318 246.078C249.687 245.671 250.314 245.642 250.72 246.007L254.061 249.033C254.467 249.402 254.496 250.033 254.131 250.436Z" fill="#AAE2E2" stroke="#999999" stroke-miterlimit="10"/>
<path d="M230.248 235.236V251.838" stroke="#999999" stroke-miterlimit="10"/>
<path d="M292.698 285.249C292.698 285.249 302.118 264.264 304.939 263.459C307.844 262.629 309.089 262.214 309.089 262.214C309.089 262.214 289.586 287.116 297.993 327.23C297.993 327.23 290.624 293.549 292.698 285.249Z" fill="black"/>
<path d="M315.312 265.535C315.312 265.12 315.312 267.195 316.142 266.78C316.972 266.365 317.524 273.242 317.524 273.242C317.524 273.242 318.217 261.384 317.387 259.724C316.557 258.064 315.312 260.969 315.312 260.969V265.535Z" fill="url(#paint1_linear)"/>
<path d="M255.555 198.8L210.421 214.078C208.99 214.564 207.442 213.796 206.956 212.364L186.628 152.283C186.143 150.851 186.91 149.303 188.342 148.817L233.476 133.54C234.907 133.054 236.455 133.822 236.941 135.254L257.269 195.335C257.754 196.767 256.987 198.319 255.555 198.8Z" fill="#42322E"/>
<path d="M282.955 194.832C282.955 194.832 290.3 200.784 301.665 196.326" stroke="black" stroke-miterlimit="10"/>
<path d="M277.967 239.387L317.802 233.161" stroke="black" stroke-miterlimit="10"/>
<path d="M305.145 263.667C305.145 263.667 301.825 266.157 292.281 286.494" stroke="black" stroke-miterlimit="10"/>
<path d="M214.688 198.091L214.903 199.162C215.036 199.826 215.049 200.511 214.936 201.179L214.692 202.656" stroke="black" stroke-miterlimit="10"/>
<path d="M238.087 205.096C237.925 204.311 236.792 203.88 235.555 204.137C235.074 204.237 234.398 204.523 234.323 204.664C233.153 204.938 232.738 207.013 231.493 206.598C230.895 206.399 229.003 205.353 229.003 205.353C229.003 205.353 228.323 204.884 227.509 204.287C225.758 203 224.518 201.132 224.016 199.02C223.738 197.841 223.194 197.467 223.609 196.637C224.24 195.376 226.97 191.134 224.439 190.827C223.729 190.74 221.331 192.25 221.119 192.487C219.97 193.458 217.455 193.52 216.97 194.977C216.14 197.467 212.82 197.883 212.82 200.373C212.82 212.185 221.725 214.023 225.684 214.069C227.082 214.086 234.153 210.342 235.908 208.018C236.36 207.416 236.867 206.86 237.46 206.391C237.929 206.026 238.178 205.552 238.087 205.096Z" fill="#FFC05C"/>
<path d="M320.059 253.61C320.059 253.61 327.86 259.948 325.573 265.941C323.872 270.403 323.901 270.706 323.324 271.071C322.748 271.436 319.789 270.805 317.689 270.656C316.988 270.606 316.536 269.888 316.801 269.236C317.59 267.273 318.768 263.583 317.474 261.533C316.108 259.367 316.328 262.741 316.523 264.563C316.59 265.198 316.274 265.812 315.714 266.119C315.092 266.46 314.316 266.219 314 265.584C312.81 263.189 309.917 255.988 312.822 251.008L320.059 253.61Z" fill="#FFC05C"/>
<path d="M296.868 189.412C310.512 191.836 332.023 215.112 340.181 224.446C342.152 226.699 342.347 229.754 340.662 231.954L321.292 257.263C321.292 257.263 310.014 252.668 312.113 249.066C314.217 245.463 324.247 228.858 324.247 228.858L297.511 208.454L291.42 189.275L296.868 189.412Z" fill="#50C5A4"/>
<path d="M287.963 194.832C284.606 195.393 272.158 190.412 246.315 217.464L234.812 209.089C233.153 211.164 226.513 213.654 225.269 213.654C224.024 213.654 238.12 233.394 246.315 232.277C254.506 231.161 274.648 217.469 274.648 217.469L275.477 239.806L319.462 232.75C319.462 232.75 320.051 211.322 309.81 204.337L287.963 194.832Z" fill="#50C5A4"/>
<path d="M282.955 194.832C282.955 194.832 295.926 210.965 316.616 200.896C316.616 200.896 308.856 194.6 306.483 193.334C304.109 192.068 297.067 202.569 282.955 194.832Z" fill="#3FB28E"/>
<path d="M314.327 177.326C314.327 182.809 312.182 187.79 308.688 191.475C304.941 195.43 299.638 197.9 293.758 197.9C282.397 197.9 273.189 188.69 273.189 177.326C273.189 165.963 282.397 156.753 293.758 156.753C305.12 156.753 314.327 165.963 314.327 177.326Z" fill="#FFC05C"/>
<path d="M285.365 156.762C283.555 156.525 272.771 155.819 270.082 172.213C270.082 172.213 279.323 173.878 282.265 166.382C282.265 166.382 287.726 179.713 297.386 178.879C297.386 178.879 301.585 176.38 302.427 180.962C303.265 185.544 299.066 186.379 299.066 186.379L304.987 194.978C304.987 194.978 325.532 180.547 308.656 162.697C308.656 162.697 298.365 150.714 285.875 156.679C285.717 156.753 285.543 156.782 285.365 156.762Z" fill="#42322E"/>
<path d="M327.552 223.408L324.232 228.804" stroke="black" stroke-miterlimit="10"/>
<path d="M280.248 213.447L274.854 217.183L278.173 218.013" stroke="black" stroke-miterlimit="10"/>
<path d="M218.48 194.857C218.48 194.857 219.302 198.402 218.779 200.494" stroke="black" stroke-miterlimit="10"/>
</g>
</g>
<defs>
<linearGradient id="paint0_linear" x1="291.285" y1="248.198" x2="346.633" y2="436.588" gradientUnits="userSpaceOnUse">
<stop stop-color="#3E2723" stop-opacity="0.8"/>
<stop offset="0.1413" stop-color="#3E2723" stop-opacity="0.8283"/>
<stop offset="1" stop-color="#3E2723"/>
</linearGradient>
<linearGradient id="paint1_linear" x1="315.311" y1="259.195" x2="321.328" y2="279.676" gradientUnits="userSpaceOnUse">
<stop stop-color="#F57F17"/>
<stop offset="0.0614" stop-color="#EF7715"/>
<stop offset="0.21" stop-color="#E46C12"/>
<stop offset="0.4192" stop-color="#DF6510"/>
<stop offset="1" stop-color="#DD6310"/>
</linearGradient>
<clipPath id="clip0">
<rect width="416" height="405" fill="white"/>
</clipPath>
<clipPath id="clip1">
<rect width="320" height="412" fill="white" transform="translate(51 9)"/>
</clipPath>
</defs>
</svg>
