<svg width="7" height="10" viewBox="0 0 7 10" fill="none" xmlns="http://www.w3.org/2000/svg">
<g clip-path="url(#clip0)">
<path d="M0.970381 4.84992H4.47133V3.76104C4.47133 2.55623 3.94183 2.08788 3.38281 2.08047C2.8416 2.08047 2.43852 2.50003 2.43852 3.17418V3.47063C2.43852 3.71706 2.28747 3.91531 2.09972 3.91531H1.64798C1.46023 3.91531 1.30918 3.71706 1.30918 3.47063V3.17418C1.30918 2.0504 2.0624 0.851135 3.47139 0.852542C4.98878 0.852541 5.60066 2.21579 5.60066 3.77216V4.84992H5.93946C6.31356 4.84992 6.61707 5.24828 6.61707 5.73927V8.70378C6.61707 9.19478 6.31356 9.59313 5.93946 9.59313H0.970381C0.596289 9.59313 0.292779 9.19478 0.292779 8.70378V5.73927C0.292779 5.24828 0.596289 4.84992 0.970381 4.84992Z" fill="white"/>
</g>
<defs>
<clipPath id="clip0">
<rect width="6.32429" height="9.48643" fill="white" transform="matrix(-1 0 0 1 6.61707 0.10791)"/>
</clipPath>
</defs>
</svg>
