<svg width="14" height="20" viewBox="0 0 14 20" fill="none" xmlns="http://www.w3.org/2000/svg">
<g clip-path="url(#clip0)">
<mask id="path-2-outside-1" maskUnits="userSpaceOnUse" x="-1" y="-1" width="16" height="22" fill="black">
<rect fill="white" x="-1" y="-1" width="16" height="22"/>
<path fill-rule="evenodd" clip-rule="evenodd" d="M6.2806 19.5965C5.33583 18.129 4.52828 16.8964 3.83906 15.8444C0.663823 10.9979 0 9.98462 0 7.5C0 3.35785 3.13399 0 7 0C10.866 0 14 3.35785 14 7.5C14 9.98462 13.3362 10.9979 10.1609 15.8444L10.1609 15.8444C9.47171 16.8964 8.66416 18.129 7.71939 19.5965C7.37176 20.1345 6.6282 20.1345 6.2806 19.5965ZM9.57143 7.5625H7.64286V9.25C7.64286 9.45707 7.45094 9.625 7.21429 9.625H6.78571C6.54906 9.625 6.35714 9.45707 6.35714 9.25V7.5625H4.42857C4.19192 7.5625 4 7.39457 4 7.1875V6.8125C4 6.60543 4.19192 6.4375 4.42857 6.4375H6.35714V4.75C6.35714 4.54293 6.54906 4.375 6.78571 4.375H7.21429C7.45094 4.375 7.64286 4.54293 7.64286 4.75V6.4375H9.57143C9.80808 6.4375 10 6.60543 10 6.8125V7.1875C10 7.39457 9.80808 7.5625 9.57143 7.5625Z"/>
</mask>
<path fill-rule="evenodd" clip-rule="evenodd" d="M6.2806 19.5965C5.33583 18.129 4.52828 16.8964 3.83906 15.8444C0.663823 10.9979 0 9.98462 0 7.5C0 3.35785 3.13399 0 7 0C10.866 0 14 3.35785 14 7.5C14 9.98462 13.3362 10.9979 10.1609 15.8444L10.1609 15.8444C9.47171 16.8964 8.66416 18.129 7.71939 19.5965C7.37176 20.1345 6.6282 20.1345 6.2806 19.5965ZM9.57143 7.5625H7.64286V9.25C7.64286 9.45707 7.45094 9.625 7.21429 9.625H6.78571C6.54906 9.625 6.35714 9.45707 6.35714 9.25V7.5625H4.42857C4.19192 7.5625 4 7.39457 4 7.1875V6.8125C4 6.60543 4.19192 6.4375 4.42857 6.4375H6.35714V4.75C6.35714 4.54293 6.54906 4.375 6.78571 4.375H7.21429C7.45094 4.375 7.64286 4.54293 7.64286 4.75V6.4375H9.57143C9.80808 6.4375 10 6.60543 10 6.8125V7.1875C10 7.39457 9.80808 7.5625 9.57143 7.5625Z" fill="#3E2723"/>
<path d="M3.83906 15.8444L3.00259 16.3924L3.00259 16.3924L3.83906 15.8444ZM6.2806 19.5965L5.43979 20.1378L5.44066 20.1391L6.2806 19.5965ZM10.1609 15.8444L10.993 16.3991L10.9974 16.3924L10.1609 15.8444ZM10.1609 15.8444L9.32885 15.2897L9.32446 15.2964L10.1609 15.8444ZM7.71939 19.5965L8.55933 20.1392L8.56021 20.1378L7.71939 19.5965ZM7.64286 7.5625V6.5625H6.64286V7.5625H7.64286ZM6.35714 7.5625H7.35714V6.5625H6.35714V7.5625ZM6.35714 6.4375V7.4375H7.35714V6.4375H6.35714ZM7.64286 6.4375H6.64286V7.4375H7.64286V6.4375ZM3.00259 16.3924C3.69181 17.4444 4.4974 18.674 5.43979 20.1378L7.12142 19.0552C6.17426 17.584 5.36475 16.3484 4.67552 15.2964L3.00259 16.3924ZM-1 7.5C-1 8.87497 -0.807413 9.9002 -0.172286 11.2201C0.42648 12.4644 1.43344 13.9973 3.00259 16.3924L4.67552 15.2964C3.06944 12.8449 2.15687 11.448 1.62992 10.3529C1.13932 9.33335 1 8.60965 1 7.5H-1ZM7 -1C2.51785 -1 -1 2.87167 -1 7.5H1C1 3.84403 3.75014 1 7 1V-1ZM15 7.5C15 2.87167 11.4822 -1 7 -1V1C10.2499 1 13 3.84403 13 7.5H15ZM10.9974 16.3924C12.5666 13.9973 13.5735 12.4644 14.1723 11.2201C14.8074 9.9002 15 8.87497 15 7.5H13C13 8.60965 12.8607 9.33335 12.3701 10.3529C11.8431 11.448 10.9306 12.8449 9.32448 15.2964L10.9974 16.3924ZM10.993 16.3991L10.993 16.3991L9.3289 15.2897L9.32888 15.2897L10.993 16.3991ZM8.56021 20.1378C9.50259 18.674 10.3082 17.4444 10.9974 16.3924L9.32446 15.2964C8.63524 16.3484 7.82573 17.584 6.87858 19.0552L8.56021 20.1378ZM5.44066 20.1391C6.18219 21.2869 7.81772 21.287 8.55933 20.1392L6.87946 19.0538C6.88223 19.0495 6.8947 19.0338 6.92013 19.02C6.94408 19.0071 6.97176 19 7 19C7.02824 19 7.05593 19.0071 7.07987 19.02C7.1053 19.0338 7.11777 19.0495 7.12055 19.0538L5.44066 20.1391ZM7.64286 8.5625H9.57143V6.5625H7.64286V8.5625ZM8.64286 9.25V7.5625H6.64286V9.25H8.64286ZM7.21429 10.625C7.87362 10.625 8.64286 10.1306 8.64286 9.25H6.64286C6.64286 9.03047 6.74692 8.86048 6.85881 8.76257C6.96875 8.66638 7.0974 8.625 7.21429 8.625V10.625ZM6.78571 10.625H7.21429V8.625H6.78571V10.625ZM5.35714 9.25C5.35714 10.1306 6.12638 10.625 6.78571 10.625V8.625C6.9026 8.625 7.03125 8.66638 7.14119 8.76257C7.25308 8.86048 7.35714 9.03047 7.35714 9.25H5.35714ZM5.35714 7.5625V9.25H7.35714V7.5625H5.35714ZM4.42857 8.5625H6.35714V6.5625H4.42857V8.5625ZM3 7.1875C3 8.06811 3.76924 8.5625 4.42857 8.5625V6.5625C4.54546 6.5625 4.67411 6.60388 4.78405 6.70008C4.89594 6.79798 5 6.96797 5 7.1875H3ZM3 6.8125V7.1875H5V6.8125H3ZM4.42857 5.4375C3.76924 5.4375 3 5.93189 3 6.8125H5C5 7.03204 4.89594 7.20202 4.78405 7.29993C4.67411 7.39612 4.54546 7.4375 4.42857 7.4375V5.4375ZM6.35714 5.4375H4.42857V7.4375H6.35714V5.4375ZM5.35714 4.75V6.4375H7.35714V4.75H5.35714ZM6.78571 3.375C6.12638 3.375 5.35714 3.86939 5.35714 4.75H7.35714C7.35714 4.96954 7.25308 5.13952 7.14119 5.23743C7.03125 5.33362 6.9026 5.375 6.78571 5.375V3.375ZM7.21429 3.375H6.78571V5.375H7.21429V3.375ZM8.64286 4.75C8.64286 3.86939 7.87362 3.375 7.21429 3.375V5.375C7.0974 5.375 6.96875 5.33362 6.85881 5.23743C6.74692 5.13952 6.64286 4.96953 6.64286 4.75H8.64286ZM8.64286 6.4375V4.75H6.64286V6.4375H8.64286ZM9.57143 5.4375H7.64286V7.4375H9.57143V5.4375ZM11 6.8125C11 5.93189 10.2308 5.4375 9.57143 5.4375V7.4375C9.45454 7.4375 9.32589 7.39612 9.21595 7.29993C9.10406 7.20202 9 7.03203 9 6.8125H11ZM11 7.1875V6.8125H9V7.1875H11ZM9.57143 8.5625C10.2308 8.5625 11 8.06811 11 7.1875H9C9 6.96797 9.10406 6.79798 9.21595 6.70008C9.32589 6.60388 9.45454 6.5625 9.57143 6.5625V8.5625Z" fill="white" fill-opacity="0.3" mask="url(#path-2-outside-1)"/>
</g>
<defs>
<clipPath id="clip0">
<rect width="14" height="20" fill="white"/>
</clipPath>
</defs>
</svg>
