<?xml version="1.0" encoding="utf-8"?>
<!-- Generator: Adobe Illustrator 19.0.0, SVG Export Plug-In . SVG Version: 6.00 Build 0)  -->
<svg version="1.1" id="Layer_1" xmlns="http://www.w3.org/2000/svg" xmlns:xlink="http://www.w3.org/1999/xlink" x="0px" y="0px"
	 viewBox="0 0 96 96" style="enable-background:new 0 0 96 96;" xml:space="preserve">
<style type="text/css">
	.st0{fill:#ffffff;}
</style>
<g id="XMLID_1_">
	<circle id="XMLID_3_" class="st0" cx="48" cy="48" r="9.8"/>
	<path id="XMLID_6_" class="st0" d="M80.5,44.8h-6.7C72.3,33,63,23.7,51.3,22.2v-6.7h-6.5v6.7C33,23.7,23.7,33,22.2,44.8h-6.7v6.5
		h6.7C23.7,63,33,72.3,44.8,73.8v6.7h6.5v-6.7C63,72.3,72.3,63,73.8,51.3h6.7V44.8z M48,67.5c-10.8,0-19.5-8.7-19.5-19.5
		c0-10.8,8.7-19.5,19.5-19.5S67.5,37.2,67.5,48C67.5,58.8,58.8,67.5,48,67.5z"/>
</g>
</svg>
