<svg width="111" height="47" viewBox="0 0 111 47" fill="none" xmlns="http://www.w3.org/2000/svg">
<g clip-path="url(#clip0)">
<path fill-rule="evenodd" clip-rule="evenodd" d="M30.9219 15.6266C30.9219 21.1207 32.8182 24.9526 43.0345 39.9021C43.7048 40.8796 45.1389 40.8796 45.8093 39.9021C56.0255 24.9526 57.9219 21.1207 57.9219 15.6266C57.9219 8.10081 51.8777 2 44.4219 2C36.966 2 30.9219 8.10081 30.9219 15.6266ZM44.6956 21.6126C48.4992 21.6126 51.5827 18.5957 51.5827 14.8743C51.5827 11.1528 48.4992 8.13597 44.6956 8.13597C40.892 8.13597 37.8086 11.1528 37.8086 14.8743C37.8086 18.5957 40.892 21.6126 44.6956 21.6126Z" fill="#3E2723"/>
<path d="M46.9854 18H42.1123V17.0332L44.4121 14.582C44.7279 14.237 44.9606 13.9359 45.1104 13.6787C45.2633 13.4215 45.3398 13.1774 45.3398 12.9463C45.3398 12.6305 45.2601 12.3831 45.1006 12.2041C44.9411 12.0218 44.7132 11.9307 44.417 11.9307C44.098 11.9307 43.8457 12.0413 43.6602 12.2627C43.4779 12.4808 43.3867 12.7689 43.3867 13.127H41.9707C41.9707 12.694 42.0732 12.2985 42.2783 11.9404C42.4867 11.5824 42.7796 11.3024 43.1572 11.1006C43.5348 10.8955 43.9629 10.793 44.4414 10.793C45.1738 10.793 45.7419 10.9688 46.1455 11.3203C46.5524 11.6719 46.7559 12.1683 46.7559 12.8096C46.7559 13.1611 46.6647 13.5192 46.4824 13.8838C46.3001 14.2484 45.9876 14.6732 45.5449 15.1582L43.9287 16.8623H46.9854V18Z" fill="#3E2723"/>
</g>
<g clip-path="url(#clip1)">
<path fill-rule="evenodd" clip-rule="evenodd" d="M1.92188 16.6266C1.92188 22.1207 3.8182 25.9526 14.0345 40.9021C14.7048 41.8796 16.1389 41.8796 16.8093 40.9021C27.0255 25.9526 28.9219 22.1207 28.9219 16.6266C28.9219 9.10081 22.8777 3 15.4219 3C7.96601 3 1.92188 9.10081 1.92188 16.6266ZM15.6956 22.6126C19.4992 22.6126 22.5827 19.5957 22.5827 15.8743C22.5827 12.1528 19.4992 9.13597 15.6956 9.13597C11.892 9.13597 8.80859 12.1528 8.80859 15.8743C8.80859 19.5957 11.892 22.6126 15.6956 22.6126Z" fill="#3E2723"/>
<path d="M16.54 19H15.1289V13.5605L13.4443 14.083V12.9355L16.3887 11.8809H16.54V19Z" fill="#3E2723"/>
</g>
<g clip-path="url(#clip2)">
<path fill-rule="evenodd" clip-rule="evenodd" d="M59.9219 15.6266C59.9219 21.1207 61.8182 24.9526 72.0345 39.9021C72.7048 40.8796 74.1389 40.8796 74.8093 39.9021C85.0255 24.9526 86.9219 21.1207 86.9219 15.6266C86.9219 8.10081 80.8777 2 73.4219 2C65.966 2 59.9219 8.10081 59.9219 15.6266ZM73.6956 21.6126C77.4992 21.6126 80.5827 18.5957 80.5827 14.8743C80.5827 11.1528 77.4992 8.13597 73.6956 8.13597C69.892 8.13597 66.8086 11.1528 66.8086 14.8743C66.8086 18.5957 69.892 21.6126 73.6956 21.6126Z" fill="#3E2723"/>
<path d="M72.5479 13.8203H73.2998C73.6579 13.8203 73.9232 13.7308 74.0957 13.5518C74.2682 13.3727 74.3545 13.1351 74.3545 12.8389C74.3545 12.5524 74.2682 12.3294 74.0957 12.1699C73.9264 12.0104 73.6921 11.9307 73.3926 11.9307C73.1224 11.9307 72.8962 12.0055 72.7139 12.1553C72.5316 12.3018 72.4404 12.4938 72.4404 12.7314H71.0293C71.0293 12.3604 71.1286 12.0283 71.3271 11.7354C71.529 11.4391 71.8089 11.208 72.167 11.042C72.5283 10.876 72.9255 10.793 73.3584 10.793C74.1104 10.793 74.6995 10.9736 75.126 11.335C75.5524 11.693 75.7656 12.1878 75.7656 12.8193C75.7656 13.1449 75.6663 13.4443 75.4678 13.7178C75.2692 13.9912 75.0088 14.2012 74.6865 14.3477C75.0869 14.4909 75.3848 14.7057 75.5801 14.9922C75.7786 15.2786 75.8779 15.6172 75.8779 16.0078C75.8779 16.6393 75.6468 17.1455 75.1846 17.5264C74.7256 17.9072 74.1169 18.0977 73.3584 18.0977C72.6488 18.0977 72.0677 17.9105 71.6152 17.5361C71.166 17.1618 70.9414 16.667 70.9414 16.0518H72.3525C72.3525 16.3187 72.4518 16.5368 72.6504 16.7061C72.8522 16.8753 73.0996 16.96 73.3926 16.96C73.7279 16.96 73.9899 16.8721 74.1787 16.6963C74.3708 16.5173 74.4668 16.2812 74.4668 15.9883C74.4668 15.2786 74.0762 14.9238 73.2949 14.9238H72.5479V13.8203Z" fill="#3E2723"/>
</g>
<g clip-path="url(#clip3)">
<mask id="path-12-outside-1" maskUnits="userSpaceOnUse" x="92" y="3" width="16" height="22" fill="black">
<rect fill="white" x="92" y="3" width="16" height="22"/>
<path fill-rule="evenodd" clip-rule="evenodd" d="M99.2806 23.5965C98.3358 22.129 97.5283 20.8964 96.8391 19.8444C93.6638 14.9979 93 13.9846 93 11.5C93 7.35785 96.134 4 100 4C103.866 4 107 7.35785 107 11.5C107 13.9846 106.336 14.9979 103.161 19.8444L103.161 19.8444C102.472 20.8964 101.664 22.129 100.719 23.5965C100.372 24.1345 99.6282 24.1345 99.2806 23.5965ZM102.571 11.5625H100.643V13.25C100.643 13.4571 100.451 13.625 100.214 13.625H99.7857C99.5491 13.625 99.3571 13.4571 99.3571 13.25V11.5625H97.4286C97.1919 11.5625 97 11.3946 97 11.1875V10.8125C97 10.6054 97.1919 10.4375 97.4286 10.4375H99.3571V8.75C99.3571 8.54293 99.5491 8.375 99.7857 8.375H100.214C100.451 8.375 100.643 8.54293 100.643 8.75V10.4375H102.571C102.808 10.4375 103 10.6054 103 10.8125V11.1875C103 11.3946 102.808 11.5625 102.571 11.5625Z"/>
</mask>
<path fill-rule="evenodd" clip-rule="evenodd" d="M99.2806 23.5965C98.3358 22.129 97.5283 20.8964 96.8391 19.8444C93.6638 14.9979 93 13.9846 93 11.5C93 7.35785 96.134 4 100 4C103.866 4 107 7.35785 107 11.5C107 13.9846 106.336 14.9979 103.161 19.8444L103.161 19.8444C102.472 20.8964 101.664 22.129 100.719 23.5965C100.372 24.1345 99.6282 24.1345 99.2806 23.5965ZM102.571 11.5625H100.643V13.25C100.643 13.4571 100.451 13.625 100.214 13.625H99.7857C99.5491 13.625 99.3571 13.4571 99.3571 13.25V11.5625H97.4286C97.1919 11.5625 97 11.3946 97 11.1875V10.8125C97 10.6054 97.1919 10.4375 97.4286 10.4375H99.3571V8.75C99.3571 8.54293 99.5491 8.375 99.7857 8.375H100.214C100.451 8.375 100.643 8.54293 100.643 8.75V10.4375H102.571C102.808 10.4375 103 10.6054 103 10.8125V11.1875C103 11.3946 102.808 11.5625 102.571 11.5625Z" fill="#3E2723"/>
<path d="M96.8391 19.8444L96.0026 20.3924L96.0026 20.3924L96.8391 19.8444ZM99.2806 23.5965L98.4398 24.1378L98.4407 24.1391L99.2806 23.5965ZM103.161 19.8444L103.993 20.3991L103.997 20.3924L103.161 19.8444ZM103.161 19.8444L102.329 19.2897L102.324 19.2964L103.161 19.8444ZM100.719 23.5965L101.559 24.1392L101.56 24.1378L100.719 23.5965ZM100.643 11.5625V10.5625H99.6429V11.5625H100.643ZM99.3571 11.5625H100.357V10.5625H99.3571V11.5625ZM99.3571 10.4375V11.4375H100.357V10.4375H99.3571ZM100.643 10.4375H99.6429V11.4375H100.643V10.4375ZM96.0026 20.3924C96.6918 21.4444 97.4974 22.674 98.4398 24.1378L100.121 23.0552C99.1743 21.584 98.3648 20.3484 97.6755 19.2964L96.0026 20.3924ZM92 11.5C92 12.875 92.1926 13.9002 92.8277 15.2201C93.4265 16.4644 94.4334 17.9973 96.0026 20.3924L97.6755 19.2964C96.0694 16.8449 95.1569 15.448 94.6299 14.3529C94.1393 13.3333 94 12.6096 94 11.5H92ZM100 3C95.5178 3 92 6.87167 92 11.5H94C94 7.84403 96.7501 5 100 5V3ZM108 11.5C108 6.87167 104.482 3 100 3V5C103.25 5 106 7.84403 106 11.5H108ZM103.997 20.3924C105.567 17.9973 106.574 16.4644 107.172 15.2201C107.807 13.9002 108 12.875 108 11.5H106C106 12.6096 105.861 13.3333 105.37 14.3529C104.843 15.448 103.931 16.8449 102.324 19.2964L103.997 20.3924ZM103.993 20.3991L103.993 20.3991L102.329 19.2897L102.329 19.2897L103.993 20.3991ZM101.56 24.1378C102.503 22.674 103.308 21.4444 103.997 20.3924L102.324 19.2964C101.635 20.3484 100.826 21.584 99.8786 23.0552L101.56 24.1378ZM98.4407 24.1391C99.1822 25.2869 100.818 25.287 101.559 24.1392L99.8795 23.0538C99.8822 23.0495 99.8947 23.0338 99.9201 23.02C99.9441 23.0071 99.9718 23 100 23C100.028 23 100.056 23.0071 100.08 23.02C100.105 23.0338 100.118 23.0495 100.121 23.0538L98.4407 24.1391ZM100.643 12.5625H102.571V10.5625H100.643V12.5625ZM101.643 13.25V11.5625H99.6429V13.25H101.643ZM100.214 14.625C100.874 14.625 101.643 14.1306 101.643 13.25H99.6429C99.6429 13.0305 99.7469 12.8605 99.8588 12.7626C99.9688 12.6664 100.097 12.625 100.214 12.625V14.625ZM99.7857 14.625H100.214V12.625H99.7857V14.625ZM98.3571 13.25C98.3571 14.1306 99.1264 14.625 99.7857 14.625V12.625C99.9026 12.625 100.031 12.6664 100.141 12.7626C100.253 12.8605 100.357 13.0305 100.357 13.25H98.3571ZM98.3571 11.5625V13.25H100.357V11.5625H98.3571ZM97.4286 12.5625H99.3571V10.5625H97.4286V12.5625ZM96 11.1875C96 12.0681 96.7692 12.5625 97.4286 12.5625V10.5625C97.5455 10.5625 97.6741 10.6039 97.784 10.7001C97.8959 10.798 98 10.968 98 11.1875H96ZM96 10.8125V11.1875H98V10.8125H96ZM97.4286 9.4375C96.7692 9.4375 96 9.93189 96 10.8125H98C98 11.032 97.8959 11.202 97.784 11.2999C97.6741 11.3961 97.5455 11.4375 97.4286 11.4375V9.4375ZM99.3571 9.4375H97.4286V11.4375H99.3571V9.4375ZM98.3571 8.75V10.4375H100.357V8.75H98.3571ZM99.7857 7.375C99.1264 7.375 98.3571 7.86939 98.3571 8.75H100.357C100.357 8.96954 100.253 9.13952 100.141 9.23743C100.031 9.33362 99.9026 9.375 99.7857 9.375V7.375ZM100.214 7.375H99.7857V9.375H100.214V7.375ZM101.643 8.75C101.643 7.86939 100.874 7.375 100.214 7.375V9.375C100.097 9.375 99.9688 9.33362 99.8588 9.23743C99.7469 9.13952 99.6429 8.96953 99.6429 8.75H101.643ZM101.643 10.4375V8.75H99.6429V10.4375H101.643ZM102.571 9.4375H100.643V11.4375H102.571V9.4375ZM104 10.8125C104 9.93189 103.231 9.4375 102.571 9.4375V11.4375C102.455 11.4375 102.326 11.3961 102.216 11.2999C102.104 11.202 102 11.032 102 10.8125H104ZM104 11.1875V10.8125H102V11.1875H104ZM102.571 12.5625C103.231 12.5625 104 12.0681 104 11.1875H102C102 10.968 102.104 10.798 102.216 10.7001C102.326 10.6039 102.455 10.5625 102.571 10.5625V12.5625Z" fill="white" fill-opacity="0.3" mask="url(#path-12-outside-1)"/>
</g>
<defs>
<clipPath id="clip0">
<rect x="31" y="2" width="27" height="39" fill="white"/>
</clipPath>
<clipPath id="clip1">
<rect x="2" y="3" width="27" height="39" fill="white"/>
</clipPath>
<clipPath id="clip2">
<rect x="60" y="2" width="27" height="39" fill="white"/>
</clipPath>
<clipPath id="clip3">
<rect x="93" y="4" width="14" height="20" fill="white"/>
</clipPath>
</defs>
</svg>
